<svg height="40.898" viewBox="0 0 63.995 40.898" width="63.995" xmlns="http://www.w3.org/2000/svg"><g stroke="#000" stroke-linejoin="round"><path d="m3.284 0h45.542a3.284 3.284 0 0 1 3.284 3.284v30.882a0 0 0 0 1 0 0h-52.11a0 0 0 0 1 0 0v-30.882a3.284 3.284 0 0 1 3.284-3.284z" fill="none" transform="translate(5.943 .5)"/><path d="m7.707 3.872h48.581v30.794h-48.581z" fill="none"/><path d="m0 0h63a0 0 0 0 1 0 0 3.2 3.2 0 0 1 -3.2 3.2h-56.6a3.2 3.2 0 0 1 -3.2-3.2 0 0 0 0 1 0 0z" fill="none" transform="translate(.5 37.195)"/><rect height="2.65" rx="1.325" width="16.016" x="23.99" y="26.676"/><g stroke-linecap="round"><path d="m22.094 11.021h23.64" fill="none"/><circle cx="18.925" cy="11.021" r=".662"/><path d="m22.094 14.354h23.64" fill="none"/><circle cx="18.925" cy="14.354" r=".662"/><path d="m22.094 17.714h23.64" fill="none"/><circle cx="18.925" cy="17.714" r=".662"/><path d="m22.094 21.197h23.64" fill="none"/><circle cx="18.925" cy="21.197" r=".662"/></g></g></svg>