<svg height="54.737" viewBox="0 0 61.028 54.737" width="61.028" xmlns="http://www.w3.org/2000/svg"><g stroke="#000" stroke-linejoin="round" transform="translate(-148.09 -21.007)"><path d="m157.315 21.507h32.278v53.737h-41v-45.093" fill="none"/><path d="m157.315 21.507v8.725h-8.725z" fill="none"/><g stroke-linecap="round"><path d="m160.738 36.983h22.216" fill="none"/><circle cx="156.504" cy="36.983" r=".885"/><path d="m160.738 41.983h22.216" fill="none"/><circle cx="156.504" cy="41.983" r=".885"/><path d="m160.738 46.983h22.216" fill="none"/><circle cx="156.504" cy="46.983" r=".885"/><path d="m160.738 51.982h22.216" fill="none"/><circle cx="156.504" cy="51.982" r=".885"/><path d="m160.738 56.982h22.216" fill="none"/><circle cx="156.504" cy="56.982" r=".885"/><path d="m160.738 61.982h22.216" fill="none"/><circle cx="156.504" cy="61.982" r=".885"/></g><path d="m201.885 35.389-26.677 26.677a.743.743 0 0 0 -.19.329l-1.658 6.138a.737.737 0 0 0 .9.9l6.138-1.658a.743.743 0 0 0 .329-.19l26.677-26.677a.736.736 0 0 0 0-1.042l-4.48-4.48a.736.736 0 0 0 -1.039.003z" fill="#fff" transform="translate(.994 .55)"/><path d="m178.089 64.833 3.402 3.402" fill="none" stroke-linecap="round"/><path d="m202.764 40.158 3.402 3.402" fill="none" stroke-linecap="round"/></g></svg>