<svg height="51.066" viewBox="0 0 81.93 51.066" width="81.93" xmlns="http://www.w3.org/2000/svg"><g stroke="#000" stroke-linejoin="round"><path d="m3.284 0h60.377a3.284 3.284 0 0 1 3.284 3.284v40.609a0 0 0 0 1 0 0h-66.945a0 0 0 0 1 0 0v-40.609a3.284 3.284 0 0 1 3.284-3.284z" fill="none" transform="translate(7.493 .5)"/><path d="m9.759 4.832h62.412v39.561h-62.412z" fill="none"/><path d="m0 0h80.93a0 0 0 0 1 0 0 4.115 4.115 0 0 1 -4.115 4.115h-72.7a4.115 4.115 0 0 1 -4.115-4.115 0 0 0 0 1 0 0z" fill="none" transform="translate(.5 46.45)"/><rect height="3.404" rx="1.702" width="20.575" x="30.678" y="34.128"/><g stroke-linecap="round"><path d="m28.241 14.018h30.37" fill="none"/><circle cx="24.17" cy="14.018" r=".851"/><path d="m28.241 18.3h30.37" fill="none"/><circle cx="24.17" cy="18.3" r=".851"/><path d="m28.241 22.616h30.37" fill="none"/><circle cx="24.17" cy="22.616" r=".851"/><path d="m28.241 27.091h30.37" fill="none"/><circle cx="24.17" cy="27.091" r=".851"/></g></g></svg>