<svg height="44.874" viewBox="0 0 50.011 44.874" width="50.011" xmlns="http://www.w3.org/2000/svg"><g stroke="#000" stroke-linejoin="round" transform="translate(-148.09 -21.007)"><path d="m155.714 21.507h26.354v43.875h-33.478v-36.817" fill="none"/><path d="m155.714 21.507v7.124h-7.124z" fill="none"/><g stroke-linecap="round"><path d="m158.509 34.143h18.139" fill="none"/><circle cx="155.052" cy="34.143" r=".723"/><path d="m158.509 38.225h18.139" fill="none"/><circle cx="155.052" cy="38.225" r=".723"/><path d="m158.509 42.307h18.139" fill="none"/><circle cx="155.052" cy="42.307" r=".723"/><path d="m158.509 46.39h18.139" fill="none"/><circle cx="155.052" cy="46.39" r=".723"/><path d="m158.509 50.472h18.139" fill="none"/><circle cx="155.052" cy="50.472" r=".723"/><path d="m158.509 54.554h18.139" fill="none"/><circle cx="155.052" cy="54.554" r=".723"/></g><path d="m196.645 35.35-21.781 21.78a.606.606 0 0 0 -.155.268l-1.354 5.012a.6.6 0 0 0 .738.738l5.012-1.354a.607.607 0 0 0 .268-.155l21.781-21.781a.6.6 0 0 0 0-.851l-3.654-3.657a.6.6 0 0 0 -.855 0z" fill="#fff" transform="translate(-3.73 -2.059)"/><path d="m172.674 56.881 2.777 2.777" fill="none" stroke-linecap="round"/><path d="m192.821 36.735 2.777 2.777" fill="none" stroke-linecap="round"/></g></svg>