<svg height="49.925" viewBox="0 0 36.027 49.925" width="36.027" xmlns="http://www.w3.org/2000/svg"><g fill="none" stroke="#000" stroke-linecap="round" stroke-linejoin="round" transform="translate(-89.768 -127.061)"><path d="m125.295 135.443v34.79a2.48 2.48 0 0 1 -2.48 2.48h-30.069a2.48 2.48 0 0 1 -2.478-2.48v-4.686" transform="translate(0 3.773)"/><path d="m90.268 163.812v-33.771a2.48 2.48 0 0 1 2.478-2.48h30.069a2.48 2.48 0 0 1 2.48 2.48v3.627"/><path d="m94.293 131.448h26.646v7.767h-26.646z"/><circle cx="96.826" cy="145.199" r="2.533"/><circle cx="104.02" cy="145.199" r="2.533"/><circle cx="111.213" cy="145.199" r="2.533"/><circle cx="118.407" cy="145.199" r="2.533"/><circle cx="96.826" cy="153.239" r="2.533"/><circle cx="104.02" cy="153.239" r="2.533"/><circle cx="111.213" cy="153.239" r="2.533"/><circle cx="118.407" cy="153.239" r="2.533"/><circle cx="96.826" cy="161.279" r="2.533"/><circle cx="104.02" cy="161.279" r="2.533"/><circle cx="111.213" cy="161.279" r="2.533"/><circle cx="118.407" cy="161.279" r="2.533"/><rect height="5.066" rx="1.713" width="19.453" x="94.293" y="166.787"/><circle cx="118.407" cy="169.32" r="2.533"/></g></svg>