<svg height="43.373" viewBox="0 0 48.336 43.373" width="48.336" xmlns="http://www.w3.org/2000/svg"><g fill="#fff" stroke="#000" stroke-linecap="round"><path d="m329.722 26.942 14.384-.632 4.584 4.79 4.8 2.063 12.223 12.121 3.591 3.515c2.895 3.264.307 5.3.307 5.3-2.279 1.786-4.741-.246-4.741-.246a3.206 3.206 0 0 1 -1.232 4.126 3.754 3.754 0 0 1 -3.757 0 3.676 3.676 0 0 1 -1.232 3.756c-1.97 1.417-4.434-.184-4.434-.184a2.939 2.939 0 0 1 -1.215 3.572c-2.093 1.17-4.447-.867-4.447-.867l-2.341-2.463" stroke-linejoin="round" transform="translate(-323.964 -24.085)"/><path d="m349.139 64.623-4.2-4.515-19.326-19.328 2.748-9.244" stroke-linejoin="round" transform="translate(-323.971 -24.077)"/><path d="m369.845 35.4-2.445-8.455-9.361.616-8.868-2.709a4.664 4.664 0 0 0 -1.786-.246c-1.355-.005-3.222 1.735-3.222 1.735l-4.734 3.95a2.892 2.892 0 0 0 -.368 4.072l.025.029a2.891 2.891 0 0 0 4.071.368l4.734-3.95 5.805 2.51 13.579 13.518.307-.37 4-5.05" stroke-linejoin="round" transform="translate(-323.951 -24.088)"/><g stroke-miterlimit="10"><rect height="5.82" rx="2.905" transform="matrix(.768 -.641 .641 .768 .704 25.383)" width="11.947"/><rect height="5.82" rx="2.905" transform="matrix(.768 -.641 .641 .768 4.93 29.703)" width="11.947"/><rect height="5.82" rx="2.905" transform="matrix(.768 -.641 .641 .768 9.018 33.881)" width="11.947"/><rect height="5.82" rx="2.905" transform="matrix(.768 -.641 .641 .768 13.245 38.201)" width="11.947"/></g><path d="m40.919 29.727-2.217-2.217" stroke-linejoin="round"/><path d="m35.984 34.049-2.217-2.217" stroke-linejoin="round"/><path d="m30.254 37.462-1.187-1.381" stroke-linejoin="round"/></g></svg>