<svg height="50.64" viewBox="0 0 50.13 50.64" width="50.13" xmlns="http://www.w3.org/2000/svg"><g stroke="#000"><path d="m133.981 75.048v-36.4a3.434 3.434 0 0 1 3.435-3.435h18.062a3.435 3.435 0 0 1 3.435 3.435v42.766a3.435 3.435 0 0 1 -3.435 3.435h-18.062a3.435 3.435 0 0 1 -3.435-3.435z" fill="#fff" stroke-miterlimit="10" transform="translate(-133.481 -34.71)"/><g stroke-linecap="round" stroke-linejoin="round"><path d="m133.981 75.048v-36.4a3.434 3.434 0 0 1 3.435-3.435h18.062a3.435 3.435 0 0 1 3.435 3.435v42.766a3.435 3.435 0 0 1 -3.435 3.435h-18.062a3.435 3.435 0 0 1 -3.435-3.435" fill="#fff" transform="translate(-133.481 -34.71)"/><path d="m157.445 44.188v36.7h-21.283v-39.788h21.283" fill="none" transform="translate(-133.838 -35.674)"/><path d="m10.72 3.172h4.491" fill="none"/><path d="m185.5 82.331-9.692-9.11a.61.61 0 0 0 -.863.027l-1.285 1.367a.611.611 0 0 0 .027.863l13.177 12.388a1.55 1.55 0 0 0 2.122-2.258" fill="none" transform="translate(-139.949 -40.906)"/><path d="m170.276 62.233a10.191 10.191 0 1 0 -2.634 5.345l2.814 2.645" fill="#fff" transform="translate(-136.108 -37.197)"/></g></g></svg>