<svg height="128.982" viewBox="0 0 410 128.982" width="410" xmlns="http://www.w3.org/2000/svg"><path d="m286.993 98.655a21.416 21.416 0 1 1 21.416-21.416 21.44 21.44 0 0 1 -21.416 21.416zm0-33.3a11.884 11.884 0 1 0 11.884 11.884 11.9 11.9 0 0 0 -11.884-11.884z" fill="#4caccf" transform="translate(-148.216 -36.283)"/><path d="m370.88 55.823a19.891 19.891 0 0 0 -19.869 19.868v21.6h9.532v-21.6a10.336 10.336 0 1 1 20.672 0v21.6h9.532v-21.6a19.891 19.891 0 0 0 -19.867-19.868z" transform="translate(-183.381 -36.283)"/><path d="m452.581 55.823a21.416 21.416 0 1 0 11.884 39.222v5.083a11.9 11.9 0 0 1 -11.884 11.884h-7.75v9.532h7.75a21.44 21.44 0 0 0 21.419-21.416v-22.889a21.44 21.44 0 0 0 -21.419-21.416zm0 33.3a11.884 11.884 0 1 1 11.884-11.884 11.9 11.9 0 0 1 -11.884 11.883z" transform="translate(-216.374 -36.283)"/><path d="m193.264 77.492c-.421-12.541-9.94-20.715-20.86-20.677a21.123 21.123 0 0 0 -.089 42.243q.251 0 .5 0c7.807 0 13.68-3.226 17.344-7.769l-6.56-5.58a13.8 13.8 0 0 1 -10.748 4.491c-5.7-.044-10.514-3.641-11.425-8.259h28.125c1.5 0 3.47-.524 3.7-3.034a10.624 10.624 0 0 0 .013-1.415zm-20.6-12.048a10.822 10.822 0 0 1 11.03 8.75h-22.487c.768-4.45 5.128-8.75 11.457-8.75z" transform="translate(-101.246 -36.692)"/><path d="m236.112 22.616v61.006h9.532v-61.006z" transform="translate(-136.087 -22.615)"/><path d="m87.53 42.155a21.291 21.291 0 0 0 -11.884 3.61v-22.886-.263h-9.532v40.955a21.416 21.416 0 1 0 21.416-21.416zm0 33.3a11.884 11.884 0 1 1 11.883-11.885 11.9 11.9 0 0 1 -11.883 11.884z" transform="translate(-66.114 -22.615)"/><g fill="#4caccf"><path d="m270.472 226.825a29.739 29.739 0 0 1 -12.812-6.457l1.83-2.338h-9.71l2.288 2.287a.847.847 0 0 1 .2.56c0 .56-.712.509-1.779.56-1.373.763-3.865 2.236-4.729 2.745a46.715 46.715 0 0 1 -7.067 2.847l-3.864-4.525c2.033-.407 7.067-1.474 10.931-4.474h-6.406v-19.218h30.963v19.218h-7.372a29.912 29.912 0 0 0 11.287 4.372zm-35.131-30.2v-12.05h39.352v12.05zm11.134-7.932h-5.9v3.814h5.9zm18.3 13.423h-19.93v2.033h19.93zm0 4.932h-19.93v2.186h19.93zm0 5.084h-19.93v2.186h19.93zm-6.915-23.438h-6.355v3.814h6.355zm11.389 0h-6.3v3.814h6.3z" transform="translate(40.216 -162.748)"/><path d="m357.432 225.458a43.546 43.546 0 0 1 -7.625-7.321 35.471 35.471 0 0 1 -8.746 7.474l-4.27-4.067v4.626h-5.135v-8.44c-2.9.813-9.1 2.491-10.677 2.847a5.466 5.466 0 0 0 -1.677.508c-.305.3-.508.508-.661.508-.255 0-.407-.2-.508-.864l-.814-4.627c1.424-.2 1.576-.255 3.1-.458v-26.792h-3.152v-4.881h23.438v3.813h15.812l2.949 2.695c-.864 13.32-4.322 19.422-6.559 23.285a46.221 46.221 0 0 0 8.44 7.627zm-25.777-36.606h-5.8v5.185h5.8zm0 9.761h-5.8v5.287h5.8zm0 9.762h-5.8v6.406c3.813-.661 4.525-.814 5.8-1.017zm8.643-15.558v-3.966h-3.508v32.082a21.5 21.5 0 0 0 9.864-7.271 52.877 52.877 0 0 1 -6.864-17.846l5.085-1.729c1.373 7.83 2.644 10.982 4.677 14.8a40.506 40.506 0 0 0 4.068-16.066z" transform="translate(6.285 -162.499)"/><circle cx="296.464" cy="107.567" r="21.416"/></g><path d="m423.166 211.757h-1.533l.641-2.379h1.533l.228-.984c.687-2.562 2.265-3.752 4.6-3.752a6.266 6.266 0 0 1 2.379.411l-.618 2.311a4.417 4.417 0 0 0 -1.696-.364 1.952 1.952 0 0 0 -1.991 1.693l-.182.687h3.34l-.641 2.379h-3.294l-2.608 9.7h-2.768z" fill="#fff" transform="translate(-140.181 -106.317)"/><path d="m436.422 219.355a7.225 7.225 0 0 1 7.046-7.092 5.333 5.333 0 0 1 5.673 5.536 7.236 7.236 0 0 1 -7.046 7.069 5.327 5.327 0 0 1 -5.673-5.513zm9.974-1.487a2.927 2.927 0 0 0 -3.089-3.2c-2.379 0-4.141 2.448-4.141 4.6a2.927 2.927 0 0 0 3.088 3.2c2.335-.002 4.146-2.404 4.146-4.6z" fill="#fff" transform="translate(-146.711 -109.453)"/><path d="m462.435 212.523h2.765l-.709 2.722c1.327-1.922 2.9-3.088 5.055-2.951l-.778 2.928h-.16c-2.425 0-4.529 1.555-5.422 4.895l-1.212 4.484h-2.768z" fill="#fff" transform="translate(-156.09 -109.462)"/><path d="m505.038 188.224h17.562c4.474 0 8 1.23 10.234 3.467a8.77 8.77 0 0 1 2.628 6.488v.112c0 4.7-2.685 7.214-5.593 8.724 4.586 1.566 7.774 4.194 7.774 9.507v.112c0 6.991-5.76 10.737-14.484 10.737h-18.121zm16.162 16.5c4.418 0 7.382-1.734 7.382-5.313v-.111c0-3.077-2.461-4.978-6.879-4.978h-9.9v10.4zm2.013 16.554c4.7 0 7.55-1.845 7.55-5.369v-.112c0-3.3-2.628-5.257-8.053-5.257h-10.91v10.738z" transform="translate(-174.954 -99.559)"/><path d="m572.521 185.942h7.27v6.431h-7.27zm.279 10.958h6.767v29.528h-6.767z" transform="translate(-202.731 -98.62)"/><path d="m597.233 229.457 17.057-19.35h-16.442v-5.536h25.052v4.642l-17.057 19.35h17.057v5.537h-25.667z" transform="translate(-212.903 -106.288)"/></svg>