<svg height="71.29" viewBox="0 0 388.91 71.29" width="388.91" xmlns="http://www.w3.org/2000/svg"><g transform="translate(6.955 -21.535)"><path d="m233 73.74h-18.64l-1.51 6.26h1.73v12.52h18.24v-12.52h1.73z" fill="none" stroke="#000" stroke-linecap="round" stroke-linejoin="round" stroke-width=".53"/><path d="m218.62 81.56h4.26v4.26h-4.26z" fill="none" stroke="#000" stroke-linecap="round" stroke-linejoin="round" stroke-width=".53"/><path d="m224.61 81.56h4.26v4.26h-4.26z" fill="none" stroke="#000" stroke-linecap="round" stroke-linejoin="round" stroke-width=".53"/><path d="m95.77 86.43v6.09h-29.77v-50.88h29.77v34" fill="none" stroke="#000" stroke-linecap="round" stroke-linejoin="round" stroke-width=".53"/><path d="m70.1 47.61h5.67v2.11h-5.67z" fill="none" stroke="#000" stroke-linecap="round" stroke-linejoin="round" stroke-width=".53"/><path d="m78.04 47.61h5.67v2.11h-5.67z" fill="none" stroke="#000" stroke-linecap="round" stroke-linejoin="round" stroke-width=".53"/><path d="m85.98 47.61h5.67v2.11h-5.67z" fill="none" stroke="#000" stroke-linecap="round" stroke-linejoin="round" stroke-width=".53"/><path d="m70.1 53.88h5.67v2.11h-5.67z" fill="none" stroke="#000" stroke-linecap="round" stroke-linejoin="round" stroke-width=".53"/><path d="m78.04 53.88h5.67v2.11h-5.67z" fill="none" stroke="#000" stroke-linecap="round" stroke-linejoin="round" stroke-width=".53"/><path d="m85.98 53.88h5.67v2.11h-5.67z" fill="none" stroke="#000" stroke-linecap="round" stroke-linejoin="round" stroke-width=".53"/><path d="m70.1 60.15h5.67v2.11h-5.67z" fill="none" stroke="#000" stroke-linecap="round" stroke-linejoin="round" stroke-width=".53"/><path d="m78.04 60.15h5.67v2.11h-5.67z" fill="none" stroke="#000" stroke-linecap="round" stroke-linejoin="round" stroke-width=".53"/><path d="m85.98 60.15h5.67v2.11h-5.67z" fill="none" stroke="#000" stroke-linecap="round" stroke-linejoin="round" stroke-width=".53"/><path d="m70.1 66.42h5.67v2.11h-5.67z" fill="none" stroke="#000" stroke-linecap="round" stroke-linejoin="round" stroke-width=".53"/><path d="m78.04 66.42h5.67v2.11h-5.67z" fill="none" stroke="#000" stroke-linecap="round" stroke-linejoin="round" stroke-width=".53"/><path d="m85.98 66.42h5.67v2.11h-5.67z" fill="none" stroke="#000" stroke-linecap="round" stroke-linejoin="round" stroke-width=".53"/><path d="m70.1 72.69h5.67v2.11h-5.67z" fill="none" stroke="#000" stroke-linecap="round" stroke-linejoin="round" stroke-width=".53"/><path d="m78.04 72.69h5.67v2.11h-5.67z" fill="none" stroke="#000" stroke-linecap="round" stroke-linejoin="round" stroke-width=".53"/><path d="m85.98 72.69h5.67v2.11h-5.67z" fill="none" stroke="#000" stroke-linecap="round" stroke-linejoin="round" stroke-width=".53"/><path d="m105 86.56h5.9a4.59 4.59 0 0 0 2-8.7 5.55 5.55 0 0 0 -6.36-4.43 6.54 6.54 0 0 0 -11.23 4.19 4.59 4.59 0 0 0 1.48 8.94h5.9" fill="none" stroke="#000" stroke-linecap="round" stroke-linejoin="round" stroke-width=".53"/><path d="m102.73 82.95h2.26v9.57h-2.26z" fill="none" stroke="#000" stroke-linecap="round" stroke-linejoin="round" stroke-width=".53"/><path d="m7.27 64.71v-38.36a4.54 4.54 0 0 1 4.55-4.55h43.18a4.55 4.55 0 0 1 4.54 4.55v61.65a4.55 4.55 0 0 1 -4.54 4.52h-38.55" fill="none" stroke="#000" stroke-linecap="round" stroke-linejoin="round" stroke-width=".53"/><path d="m9.78 64.71v-36.62h47.33" fill="none" stroke="#000" stroke-linecap="round" stroke-linejoin="round" stroke-width=".53"/><path d="m57.11 32.26v53.47h-25.75" fill="none" stroke="#000" stroke-linecap="round" stroke-linejoin="round" stroke-width=".53"/><circle cx="33.44" cy="25.05" r=".72"/><path d="m329.36 64.71v-38.36a4.54 4.54 0 0 1 4.54-4.55h43.24a4.54 4.54 0 0 1 4.55 4.55v61.65a4.55 4.55 0 0 1 -4.55 4.55h-29.41" fill="none" stroke="#000" stroke-linecap="round" stroke-linejoin="round" stroke-width=".53"/><path d="m331.86 64.71v-36.62h47.32" fill="none" stroke="#000" stroke-linecap="round" stroke-linejoin="round" stroke-width=".53"/><path d="m379.19 32.26v53.47h-31.46" fill="none" stroke="#000" stroke-linecap="round" stroke-linejoin="round" stroke-width=".53"/><circle cx="355.53" cy="25.05" r=".72"/><g fill="none" stroke="#000" stroke-linecap="round" stroke-linejoin="round" stroke-width=".53"><path d="m16.45 87v5.53h-23.14v-27.82h23.14v9.5"/><path d="m-6.69 60.15h23.14v4.56h-23.14z"/><path d="m1.03 60.15v4.56"/><path d="m4.88 60.15v4.56"/><path d="m8.74 60.15v4.56"/><path d="m16.45 60.15v4.56"/><path d="m12.59 60.15v4.56"/><path d="m-1.92 68.7h5.67v2.11h-5.67z"/><path d="m6.02 68.7h5.67v2.11h-5.67z"/><path d="m-1.92 73.74h5.67v2.11h-5.67z"/><path d="m6.02 73.74h5.67v2.11h-5.67z"/><path d="m-1.92 78.78h5.67v2.11h-5.67z"/><path d="m6.02 78.78h5.67v2.11h-5.67z"/><path d="m24.67 87c.22-.06.45-.14.66-.22a6 6 0 0 0 4.63-11v-.4a4.25 4.25 0 0 0 -4.25-4.25 4.16 4.16 0 0 0 -2.91 1.14 5.29 5.29 0 0 0 -7 6.5 4.443 4.443 0 1 0 3.87 8h.07l.21-.11a6.65 6.65 0 0 0 2.25.61"/><path d="m22.18 83.1h2.42v9.42h-2.42z"/><path d="m293 81.86v-39.59a3.75 3.75 0 0 1 3.73-3.74h19.67a3.74 3.74 0 0 1 3.74 3.74v46.51a3.75 3.75 0 0 1 -3.74 3.74h-19.67a3.74 3.74 0 0 1 -3.73-3.74"/><path d="m318.12 47.25v39.91h-23.12v-43.27h23.14"/><path d="m304.11 41.44h4.89"/><path d="m324.6 64.71h23.14v27.81h-23.14z"/><path d="m329.36 68.7h5.67v2.11h-5.67z"/><path d="m337.3 68.7h5.67v2.11h-5.67z"/><path d="m329.36 73.74h5.67v2.11h-5.67z"/><path d="m337.3 73.74h5.67v2.11h-5.67z"/><path d="m329.36 78.78h5.67v2.11h-5.67z"/><path d="m337.3 78.78h5.67v2.11h-5.67z"/><path d="m278.18 86.56v6h-39.66v-38.99h39.66v18"/><path d="m243.56 60.22h5.67v2.11h-5.67z"/><path d="m251.5 60.22h5.67v2.11h-5.67z"/><path d="m259.44 60.22h5.67v2.11h-5.67z"/><path d="m267.47 60.22h5.67v2.11h-5.67z"/><path d="m243.56 66.75h5.67v2.11h-5.67z"/><path d="m251.5 66.75h5.67v2.11h-5.67z"/><path d="m259.44 66.75h5.67v2.11h-5.67z"/><path d="m267.47 66.75h5.67v2.11h-5.67z"/><path d="m243.56 73.27h5.67v2.11h-5.67z"/><path d="m251.5 73.27h5.67v2.11h-5.67z"/><path d="m259.44 73.27h5.67v2.11h-5.67z"/><path d="m267.47 73.27h5.67v2.11h-5.67z"/><path d="m243.56 79.8h5.67v2.11h-5.67z"/><path d="m251.5 79.8h5.67v2.11h-5.67z"/><path d="m259.44 79.8h5.67v2.11h-5.67z"/><path d="m269.65 81.91h-2.18v-2.11h2.73"/><path d="m238.52 48.82h39.66v4.86h-39.66z"/><path d="m238.52 48.82v4.86"/><path d="m245.13 48.82v4.86"/><path d="m251.74 48.82v4.86"/><path d="m258.35 48.82v4.86"/><path d="m264.96 48.82v4.86"/><path d="m278.18 48.82v4.86"/><path d="m271.57 48.82v4.86"/><path d="m282.4 86.56h5.9a4.59 4.59 0 0 0 2.05-8.7 5.55 5.55 0 0 0 -6.35-4.43 6.54 6.54 0 0 0 -11.23 4.19 4.59 4.59 0 0 0 1.48 8.94h5.9"/><path d="m280.14 82.95h2.26v9.57h-2.26z"/><path d="m150.78 56.11h18.37v36.41h-18.37z"/><path d="m153.16 59.79h5.67v2.11h-5.67z"/><path d="m161.1 59.79h5.67v2.11h-5.67z"/><path d="m153.16 64.83h5.67v2.11h-5.67z"/><path d="m161.1 64.83h5.67v2.11h-5.67z"/><path d="m153.16 69.87h5.67v2.11h-5.67z"/><path d="m161.1 69.87h5.67v2.11h-5.67z"/><path d="m153.16 74.92h5.67v2.11h-5.67z"/><path d="m161.1 74.92h5.67v2.11h-5.67z"/><path d="m153.16 79.96h5.67v2.11h-5.67z"/><path d="m161.1 79.96h5.67v2.11h-5.67z"/><path d="m121.61 83.58v-33.2a3.13 3.13 0 0 1 3.13-3.13h16.47a3.13 3.13 0 0 1 3.13 3.13v39a3.14 3.14 0 0 1 -3.13 3.14h-16.47a3.14 3.14 0 0 1 -3.13-3.14"/><path d="m142.68 54.56v33.44h-19.41v-36.26h19.41"/><path d="m130.93 49.69h4.09"/><path d="m271.72 92.52h-89.95"/></g></g></svg>