<svg height="84" viewBox="0 0 84 84" width="84" xmlns="http://www.w3.org/2000/svg"><circle cx="42" cy="42" fill="#e3e3e3" r="42"/><g fill="none" stroke="#000" stroke-linecap="round" stroke-linejoin="round" stroke-width="1.5" transform="translate(-504.075 -303.065)"><path d="m561.492 343.57h-31.771a2.645 2.645 0 0 0 -2.647 2.647v18.641a2.647 2.647 0 0 0 2.647 2.646h2.933l4.759-8.241a4.137 4.137 0 0 1 4.947-1.932 3.989 3.989 0 0 1 2.066 5.735l-2.563 4.438h19.628a2.647 2.647 0 0 0 2.646-2.646v-18.641a2.645 2.645 0 0 0 -2.645-2.647z"/><path d="m538.947 360.44 2.458-4.256a4.133 4.133 0 0 0 -.8-5.249 3.99 3.99 0 0 0 -6 1.079l-4.866 8.426" transform="translate(2.917 7.064)"/></g><g transform="translate(-460.035 -10.417)"><path d="m498.219 41.875a5.515 5.515 0 0 1 7.07 0l1.077-1.078a7.048 7.048 0 0 0 -9.224 0z"/><path d="m493.587 37.242 1.074 1.075a10.552 10.552 0 0 1 14.185 0l1.075-1.075a12.072 12.072 0 0 0 -16.334 0z"/><path d="m491.109 34.763a15.548 15.548 0 0 1 21.29 0l1.074-1.075a17.1 17.1 0 0 0 -23.438 0z"/></g></svg>