<svg height="32.589" viewBox="0 0 79.427 32.589" width="79.427" xmlns="http://www.w3.org/2000/svg"><g fill="#174f9e"><path d="m52.657 10.12 3.892-8.61h-3.762s-6.1 11.416-6.3 11.765l.285.232a47.667 47.667 0 0 1 5.885-3.387z" transform="translate(-35.727 -1.16)"/><path d="m90.817 4-1.817 4.559s2.489-.956 4.433-1.465l1.042-3.125h2.042l.639-2.248h-7.545l-1.021 2.279z" transform="translate(-68.081 -1.322)"/><path d="m127.388 0c-2.329 0-3.442 1.051-3.859 2.084s-.958 2.9-.958 2.9c1.567-.384 3.669-.671 3.669-.671s.192-.891.319-1.53.542-.861.859-.861.576.384.512.8-.232 1.34-.232 1.34c.766-.095 3.51-.285 3.51-.285a4.092 4.092 0 0 0 .127-.864c.007-1.329-.6-2.913-3.947-2.913z" transform="translate(-94.194)"/><path d="m169.969 3.812s0-.512.016-1.037a.568.568 0 0 1 .655-.583.509.509 0 0 1 .541.475c.032.35.111 1.158.111 1.158 1.338.032 3.426.285 3.426.285s-.109-.926-.174-1.371-.336-2.6-4.1-2.6a3.559 3.559 0 0 0 -3.919 3.6c1.291.003 3.444.073 3.444.073z" transform="translate(-127.977 -.108)"/><path d="m210.062 6.119-.956-4.4h-3.206l.625 3.811c1.482.19 3.537.589 3.537.589z" transform="translate(-158.233 -1.322)"/><path d="m230.165 7.445-1.8-5.725h-3.175l1.158 4.718a36.046 36.046 0 0 1 3.817 1.007z" transform="translate(-173.057 -1.322)"/><path d="m253.36 10.119-3.551-8.4h-3.269l2.248 6.505a38.5 38.5 0 0 1 4.572 1.895z" transform="translate(-189.465 -1.322)"/><path d="m275.859 14.108.255-.255-6.233-12.133h-3.3l4.081 9.26c2.071 1.04 5.197 3.128 5.197 3.128z" transform="translate(-204.865 -1.322)"/><path d="m8.867 67.21-8.867 16.261h6.568l7.269-16.261z" transform="translate(0 -51.65)"/><path d="m62.464 67.63h-10.142l-1.338 2.836h3l-5.234 13.328h5.869l4.081-13.136h2.933z" transform="translate(-37.464 -51.973)"/><path d="m105.689 65c-4 0-5.207 1.72-6 4.081-.447 1.338-1.878 6.982-2.1 7.906-.542 2.243.269 5.436 5.406 5.436 5.26 0 6.482-2.47 6.885-5.276.287-2.04.653-6.633.75-8.066.14-1.944-.957-4.081-4.941-4.081zm.317 3.794c-.095.6-1.389 8.607-1.528 9.311s-.317 1.4-1.158 1.4-.926-.8-.829-1.468 1.593-8.45 1.752-9.279.637-1.116 1.116-1.116c.583 0 .743.544.646 1.151z" transform="translate(-74.887 -49.952)"/><path d="m167.312 74.866s.063 3.093.095 3.827-.382 1.243-.829 1.243-1.019-.13-1.019-1.4-.065-9.089-.065-9.566.192-.926.734-.926.732.252.8.891.1 2.778.1 2.778h4.751s-.192-1.817-.287-2.614c-.232-1.817-1.271-3.667-5.23-3.667-3.264 0-5.248 1.361-5.556 4.3-.255 2.521-.509 7.015-.509 8.577 0 2.584 1.956 4.561 6.313 4.561 3.982 0 5.871-1.787 5.8-4.209-.032-1.158-.287-3.794-.287-3.794z" transform="translate(-123.182 -50.283)"/><path d="m221.544 67.21 1.308 5.6h-1.875l-1.218-5.6h-4.209l2.329 16.261h5.421l-1.629-7.471h1.924l1.743 7.475h5.422l-5.008-16.265z" transform="translate(-165.649 -51.65)"/><path d="m286.228 78.834c-.926-1.947-5.964-11.624-5.964-11.624h-4.364s5.2 11.686 5.579 12.684-.232 1.183-.574 1.183a1.549 1.549 0 0 1 -1.34-.8c-.285-.6-5.452-13.057-5.452-13.057h-4.433s3.857 10.953 4.558 12.994c.965 2.8 3.829 3.919 7.431 3.919 4.207-.009 5.89-2.505 4.559-5.299z" transform="translate(-207.247 -51.65)"/></g></svg>