<svg height="84" viewBox="0 0 84 84" width="84" xmlns="http://www.w3.org/2000/svg"><circle cx="42" cy="42" fill="#e3e3e3" r="42"/><g transform="translate(-731.506 -324.689)"><g fill="none" stroke="#000" stroke-linecap="round" stroke-linejoin="round" stroke-width="1.5"><path d="m750.244 380.98a18.731 18.731 0 0 1 .541-25.924"/><path d="m754.356 378.395a15 15 0 0 1 .433-20.754"/><path d="m758.255 375.844a11.309 11.309 0 0 1 .326-15.652"/><path d="m796.769 380.98a18.732 18.732 0 0 0 -.541-25.924"/><path d="m792.656 378.395a15 15 0 0 0 -.433-20.754"/><path d="m788.758 375.844a11.31 11.31 0 0 0 -.327-15.652"/></g><path d="m772.363 384.2 10.247-20.98a.283.283 0 0 0 -.255-.407h-8.155a.284.284 0 0 1 -.282-.311l1.273-13.178a.283.283 0 0 0 -.536-.151l-10.255 20.985a.284.284 0 0 0 .255.408h8.16a.283.283 0 0 1 .283.31l-1.274 13.178a.283.283 0 0 0 .539.146z"/></g></svg>