<svg xmlns="http://www.w3.org/2000/svg" xmlns:xlink="http://www.w3.org/1999/xlink" width="375" height="575" viewBox="0 0 375 575"><defs><style>.a,.h,.i,.j,.k,.m{fill:none;}.b{clip-path:url(#a);}.c,.f,.g{fill:#fff;}.d{fill:#ffeed3;}.e{fill:#e7f5fa;}.f,.g,.h,.i,.k,.m{stroke:#000;}.f,.h,.j,.k{stroke-linecap:round;stroke-linejoin:round;}.f,.g,.h,.i,.j{stroke-width:0.99px;}.j{stroke:#231815;}.k{stroke-width:0.71px;}.l{fill:#231815;}</style><clipPath id="a"><rect class="a" width="375" height="575"/></clipPath></defs><g class="b"><rect class="c" width="375" height="667" transform="translate(0 -51)"/><path class="d" d="M-14.26,559.72c0-130.6,90.33-236.47,201.76-236.47S389.26,429.12,389.26,559.72Z"/><circle class="e" cx="48.68" cy="48.68" r="48.68" transform="translate(-18.26 44.48)"/><circle class="e" cx="37.61" cy="37.61" r="37.61" transform="translate(41.42 59.35)"/><path class="e" d="M-12.58,93.65H113.35a24.1,24.1,0,0,1,24.09,24.1h0a24.1,24.1,0,0,1-24.09,24.09H-12.58a24.1,24.1,0,0,1-24.09-24.09h0a24.1,24.1,0,0,1,24.09-24.1Z"/><circle class="e" cx="34.93" cy="34.93" r="34.93" transform="translate(290.21 308.22)"/><circle class="e" cx="26.99" cy="26.99" r="26.99" transform="translate(333.03 318.89)"/><path class="e" d="M294.29,343.51h90.35a17.29,17.29,0,0,1,17.29,17.28h0a17.29,17.29,0,0,1-17.29,17.29H294.29A17.29,17.29,0,0,1,277,360.79h0A17.29,17.29,0,0,1,294.29,343.51Z"/><path class="f" d="M160.56,533.09H134.32l-2.11,8.82h2.43v17.53h25.6V541.91h2.43Z"/><rect class="f" width="5.98" height="5.98" transform="translate(140.3 544.06)"/><rect class="f" width="5.98" height="5.98" transform="translate(148.72 544.06)"/><path class="g" d="M10.08,358.18c8.18,0,11.9,3.29,11.9,9.13,0,4.16-2.33,7.23-6.66,8.53l7.75,15.93H16.79L10,376.71H3.71v15H-2V358.18ZM3.72,372.42H9.56c4.59,0,6.58-1.9,6.58-5s-1.69-4.85-6.32-4.85H3.72Z"/><path class="g" d="M49.56,362.81H33.24v8.88H45.58v4.63H33.24v10.82H49.9v4.63H27.39V358.18H49.56Z"/><path class="g" d="M80.33,391.77H73.19l-8.14-17.31c-1.95-4.2-3.29-7.32-4.8-11.08h-.61c.22,4,.3,8,.3,12.12v16.28H54.58v-33.6h8.79l7,14.89a103,103,0,0,1,4.45,11.52h.61c-.26-4.11-.43-7.79-.43-12.3V358.18h5.37Z"/><path class="g" d="M110.64,362.9h-10v28.87H94.75V362.9H84.83v-4.72h25.8Z"/><path class="g" d="M136.35,391.77h-6.1l-2.86-9.87h-10.3l-2.9,9.87h-5.55l10.3-33.59H126Zm-11.95-21c-.74-2.64-1.26-5.1-2-8.26H122c-.74,3.2-1.34,5.62-2.08,8.22l-1.82,6.84h8.23Z"/><path class="g" d="M146.39,387.06h15.75v4.71H140.5V358.18h5.89Z"/><rect class="f" width="41.8" height="71.4" transform="translate(16.07 488.04)"/><rect class="f" width="7.96" height="2.96" transform="translate(21.85 496.43)"/><rect class="f" width="7.96" height="2.96" transform="translate(32.99 496.43)"/><rect class="f" width="7.96" height="2.96" transform="translate(44.13 496.43)"/><rect class="f" width="7.96" height="2.96" transform="translate(21.85 505.22)"/><rect class="f" width="7.96" height="2.96" transform="translate(32.99 505.22)"/><rect class="f" width="7.96" height="2.96" transform="translate(44.13 505.22)"/><rect class="f" width="7.96" height="2.96" transform="translate(21.85 514.02)"/><rect class="f" width="7.96" height="2.96" transform="translate(32.99 514.02)"/><rect class="f" width="7.96" height="2.96" transform="translate(44.13 514.02)"/><rect class="f" width="7.96" height="2.96" transform="translate(21.85 522.82)"/><rect class="f" width="7.96" height="2.96" transform="translate(32.99 522.82)"/><rect class="f" width="7.96" height="2.96" transform="translate(44.13 522.82)"/><rect class="f" width="7.96" height="2.96" transform="translate(21.85 531.61)"/><rect class="f" width="7.96" height="2.96" transform="translate(32.99 531.61)"/><rect class="f" width="7.96" height="2.96" transform="translate(44.13 531.61)"/><rect class="f" width="73.46" height="99.25" rx="6.22" transform="translate(48.44 460.2)"/><path class="h" d="M118.38,474.87v75H52V469h66.43"/><circle cx="1.01" cy="1.01" r="1.01" transform="translate(84.15 463.75)"/><rect class="f" width="32.47" height="39.03" transform="translate(-16.24 520.42)"/><rect class="f" width="32.47" height="6.4" transform="translate(-16.24 514.02)"/><line class="h" y2="6.4" transform="translate(0 514.02)"/><line class="h" y2="6.4" transform="translate(5.41 514.02)"/><line class="h" y2="6.4" transform="translate(16.24 514.02)"/><line class="h" y2="6.4" transform="translate(10.82 514.02)"/><rect class="f" width="7.96" height="2.96" transform="translate(1.59 526.02)"/><rect class="f" width="7.96" height="2.96" transform="translate(1.59 533.09)"/><rect class="f" width="7.96" height="2.96" transform="translate(1.59 540.16)"/><path class="g" d="M296.42,417.12c-.86-3.64-2.86-5.5-6-5.5-3.55,0-5.59,1.68-5.59,4.37,0,2.94,1.3,4.28,6.15,5.63l1.77.52c7.67,2.07,9.83,5,9.83,9.91,0,5.89-4.07,10-12.12,10-6.54,0-11.08-2.86-12.68-8.7l5.58-1.78c.87,3.9,3.42,6.06,7,6.06,4.42,0,6.41-1.9,6.41-4.8s-1-4.24-6.54-5.8l-1.73-.52c-7.14-2.12-9.44-4.94-9.44-10.09s4-9.17,11.22-9.17c5.88,0,10,2.77,11.81,8.35Z"/><path class="g" d="M329.19,412.4H312.87v8.87h12.34v4.64H312.87v10.82h16.67v4.63H307V407.77h22.17Z"/><path class="g" d="M340.1,436.64h15.75v4.72H334.2V407.77h5.89Z"/><path class="g" d="M366.24,436.64H382v4.72H360.35V407.77h5.89Z"/><path class="f" d="M313.83,544.48V488.93a5.25,5.25,0,0,1,5.24-5.24h27.57a5.23,5.23,0,0,1,5.24,5.24h0V554.2a5.24,5.24,0,0,1-5.24,5.25H319.07a5.25,5.25,0,0,1-5.24-5.25h0"/><path class="h" d="M349.1,495.92v56H316.61V491.2H349.1"/><line class="h" x2="6.85" transform="translate(329.43 487.77)"/><rect class="f" width="32.47" height="39.03" transform="translate(352 520.42)"/><rect class="f" width="7.96" height="2.96" transform="translate(358.69 526.02)"/><rect class="f" width="7.96" height="2.96" transform="translate(369.83 526.02)"/><rect class="f" width="7.96" height="2.96" transform="translate(358.69 533.09)"/><rect class="f" width="7.96" height="2.96" transform="translate(369.83 533.09)"/><rect class="f" width="7.96" height="2.96" transform="translate(358.69 540.17)"/><rect class="f" width="7.96" height="2.96" transform="translate(369.83 540.17)"/><rect class="f" width="42.42" height="41.64" transform="translate(241.97 517.82)"/><rect class="f" width="6.07" height="2.25" transform="translate(247.37 524.92)"/><rect class="f" width="6.07" height="2.25" transform="translate(255.86 524.92)"/><rect class="f" width="6.07" height="2.25" transform="translate(264.35 524.92)"/><rect class="f" width="6.07" height="2.25" transform="translate(272.93 524.92)"/><rect class="f" width="6.07" height="2.25" transform="translate(247.37 531.91)"/><rect class="f" width="6.07" height="2.25" transform="translate(255.86 531.91)"/><rect class="f" width="6.07" height="2.25" transform="translate(264.35 531.91)"/><rect class="f" width="6.07" height="2.25" transform="translate(272.93 531.91)"/><rect class="f" width="6.07" height="2.25" transform="translate(247.37 538.89)"/><rect class="f" width="6.07" height="2.25" transform="translate(255.86 538.89)"/><rect class="f" width="6.07" height="2.25" transform="translate(264.35 538.89)"/><rect class="f" width="6.07" height="2.25" transform="translate(272.93 538.89)"/><rect class="f" width="6.07" height="2.25" transform="translate(247.37 545.87)"/><rect class="f" width="6.07" height="2.25" transform="translate(255.86 545.87)"/><rect class="f" width="6.07" height="2.25" transform="translate(264.35 545.87)"/><rect class="f" width="6.07" height="2.25" transform="translate(272.93 545.87)"/><rect class="f" width="42.42" height="5.2" transform="translate(241.97 512.74)"/><line class="h" y2="5.2" transform="translate(241.97 512.74)"/><line class="h" y2="5.2" transform="translate(249.04 512.74)"/><line class="h" y2="5.2" transform="translate(256.11 512.74)"/><line class="h" y2="5.2" transform="translate(263.18 512.74)"/><line class="h" y2="5.2" transform="translate(270.25 512.74)"/><line class="h" y2="5.2" transform="translate(284.39 512.74)"/><line class="h" y2="5.2" transform="translate(277.32 512.74)"/><path class="f" d="M310.11,538.87a7.83,7.83,0,0,0-7.68-6.32,8.521,8.521,0,0,0-1.24.1,9.17,9.17,0,0,0-15.75,5.88,6.45,6.45,0,0,0,2.08,12.55h19.72a6.44,6.44,0,0,0,2.87-12.21Z"/><rect class="f" width="3.17" height="13.43" transform="translate(295.79 546.02)"/><path class="g" d="M235,471.13c8.4,0,11.47,3.07,11.47,8.35,0,3.86-2.6,6.63-6.66,7.32v.3c5,.82,7.7,3.77,7.7,8.1,0,5.93-4.24,9.52-11.9,9.52H223V471.13Zm-6.27,13.81h5.1c4.59,0,6.84-1.9,6.84-4.89s-1.64-4.55-6.32-4.55h-5.62Zm0,15.41H235c4.46,0,6.67-2.08,6.67-5.58s-2.73-5.46-7.4-5.46h-5.5Z"/><path class="g" d="M277.37,493.12c0,8.05-4.93,12.21-12.68,12.21s-12.82-4-12.82-12.21v-22h5.85V493c0,5.5,2.64,7.83,7.1,7.83s7.1-2.33,7.1-7.83V471.1h5.45Z"/><path class="g" d="M298.15,490.83v13.9h-5.89v-13.9l-10.82-19.7h6.49l6.67,12.51c.43.78.65,1.25,1,2,.39-.82.61-1.25,1.08-2.08l6.45-12.46h6Z"/><path class="i" d="M284.39,407.2h-13.8a12.73,12.73,0,0,0-12.73,12.73v53.46"/><path class="c" d="M170.29,439.13l-4.24-4.24a3.67,3.67,0,0,1,0-5.17h0l2.44-2.18-.37-.9a36.462,36.462,0,0,1-1.54-6.09l-.3-3a6.86,6.86,0,0,1-4.28-1.76,1.35,1.35,0,0,1-.38-1.69l5-8.73a16.42,16.42,0,0,0,.9-10.83l-.42-1.8-1.3.19a32.458,32.458,0,0,1-4.3.11l-2.44-.3c2.33-1.2,4.85-6,4.85-6,3.46-8.72,12.63-15.64,12.63-15.64,14.7-11.46,32.46-5.6,32.46-5.6,14.13,5.72,16.32,16.63,16.32,16.63l.82,2.47s7.82,8.73,2.71,26.17c0,0-3.91,11.13-12.63,16.25a11.15,11.15,0,0,0-2.82,5.71,13.762,13.762,0,0,0-.23,3.39v.07c.72.1,1.32.33,2,.49l-.33,7.56-.24,2.95c5.36,2.54,10.32,7.32,12.87,16a36.871,36.871,0,0,1,.9,9.25l1.16,82.79.45,4.06H159.14l.67-17.37-1.35-21.64-.23-1.94c-7.87,3.54-13.74,2.9-17.73,1.26A14.13,14.13,0,0,1,132,508a1.872,1.872,0,0,0-.05-.53,21.17,21.17,0,0,1,2.85-12.32L158,454.89l2.71-4.51,1.33.92.82.21,2.53-4.34,3.3,1.8s1.81-1.5,1.5-6.62Z"/><path class="j" d="M167.48,394.53a16.35,16.35,0,0,1-.9,10.83l-5,8.73a1.34,1.34,0,0,0,.39,1.69,6.86,6.86,0,0,0,4.27,1.76l.3,3"/><path class="j" d="M183.42,385.21A31,31,0,0,1,161.47,393"/><path class="j" d="M184.63,390.62s-.38,10,5.64,14.48"/><path class="j" d="M225.77,383.94s-1.18-13.53-16.78-18.43c0,0-17.75-5.87-32.48,5.56,0,0-9.18,6.92-12.64,15.64"/><path class="j" d="M226.14,384.61s7.82,8.72,2.7,26.16c0,0-3.91,11.13-12.63,16.25"/><path class="j" d="M175.78,459.38l-15.08-9L158,454.9l-23.2,40.28a21.21,21.21,0,0,0-2.86,12.31l.06.54a14.48,14.48,0,0,0,9.55,12.19c3.83,1.3,9.18,1.51,16.23-1.65l38.58-23"/><path class="j" d="M179.66,461.49l2.94,1.92L166.39,497.2"/><path class="j" d="M213.39,432.73a14.27,14.27,0,0,0-.23,3.39"/><path class="j" d="M205.32,428s4.91,4.52,13.7,5.08"/><path class="j" d="M198.39,437.13s8.57-2.26,16.8-.45l-.33,7.55"/><path class="j" d="M193.65,445.37s26.62-6.77,33.84,17.82"/><path class="j" d="M158.46,520.28l1.35,21.64-.68,17.37h70.65l-.45-4.06-.71-85.29"/><path class="j" d="M170.84,424.93l27.38-27.38a3.65,3.65,0,0,1,5.17,0h0L217,411.14a3.65,3.65,0,0,1,0,5.16h0l-32.17,32.17a3.65,3.65,0,0,1-5.17,0h0l-13.59-13.58a3.67,3.67,0,0,1,0-5.17h0"/><circle class="k" cx="1.8" cy="1.8" r="1.8" transform="translate(199.15 399.94)"/><circle class="k" cx="1.35" cy="1.35" r="1.35" transform="translate(199.6 400.39)"/><rect class="k" width="2.99" height="1.21" rx="0.6" transform="translate(201.998 404.91) rotate(-45)"/><ellipse class="l" cx="1.21" cy="1.42" rx="1.21" ry="1.42" transform="translate(172.59 402.58)"/><path class="j" d="M173.05,397.54s5.11-1.2,9.55,4.51"/><path class="c" d="M192.18,439.27l1.92-7L199.18,418c1.12-3.95-1.36-3.95-1.36-3.95-1.58-.34-2.7,1.47-2.7,1.47l-6.55,10.82,4.4-14.66c.45-3.16-2.37-3.05-2.37-3.05-2.25,0-3.5,3.84-3.5,3.84l-5.18,12.18-.34-3.5c-.23-4.62-2.82-5.64-2.82-5.64-3.95,0-3.39,4.4-3.39,4.4l.21.74a2.34,2.34,0,0,0-2.57-1.53c-3.16.68-2.82,5.23-2.82,5.23v18c.3,5.12-1.5,6.62-1.5,6.62l13.68,7.9,1.47-2.48c2.73-.66,7.27-3.61,8.37-5.56a14.47,14.47,0,0,0,1.12-2.77,32.889,32.889,0,0,1,3.26-6.56l4.4-5.75c.56-1.47-1.36-1.47-1.36-1.47-3.83-.22-6.43,3.16-6.43,3.16"/><path class="j" d="M168.68,449s1.81-1.5,1.5-6.61V424.31s-.33-4.55,2.82-5.23c0,0,2.71-.67,3.16,3.84"/><path class="j" d="M175.38,419.87s-.57-4.11,2.93-4.45c0,0,2.82-.34,3.27,5.7l.34,3.5,5.19-12.18s1.24-3.84,3.5-3.84c0,0,2.82-.11,2.37,3l-4.4,14.66,6.54-10.83s1.13-1.8,2.7-1.46c0,0,2.49,0,1.36,3.94l-5.08,14.33-1.91,7"/><path class="j" d="M193.37,434.82a8.27,8.27,0,0,1,6.26-2.54s1.91,0,1.35,1.47l-4.4,5.75a34,34,0,0,0-3.26,6.56,13.861,13.861,0,0,1-1.12,2.77c-1.09,1.95-5.63,4.89-8.37,5.56l-1.46,2.48"/><path class="j" d="M162.86,451.51l2.52-4.34L184,458.22"/><ellipse class="j" cx="2.4" cy="3.91" rx="2.4" ry="3.91" transform="translate(164.4 534.17)"/><path class="i" d="M233.33,504.72h-69a19,19,0,0,1-19-19V453.61a19,19,0,0,0-19-19H73.52a19,19,0,0,1-19-19V390.76"/><path class="f" d="M132.62,538.87a7.84,7.84,0,0,0-7.69-6.32,8.643,8.643,0,0,0-1.24.1,9.17,9.17,0,0,0-15.75,5.88A6.45,6.45,0,0,0,110,551.08h19.72a6.44,6.44,0,0,0,2.88-12.21Z"/><rect class="f" width="3.17" height="13.43" transform="translate(118.29 546.02)"/><line class="m" x2="104" transform="translate(216.5 559.5)"/><path d="M83.24,64.39a33.9,33.9,0,0,0,3.21-3.46,5.51,5.51,0,0,0,1.18-2,10,10,0,0,1,2,.82.51.51,0,0,1,.27.23.34.34,0,0,1-.14.42,9.35,9.35,0,0,0-1.09,1.18,48.28,48.28,0,0,1-4.61,4.66l1,2.16c.36.76.6,1,1.08.9a9.43,9.43,0,0,0,2.13-.8A31.651,31.651,0,0,0,92.74,66c.23-.15.29-.1.4.09a14.225,14.225,0,0,1,.77,1.37c.16.37,0,.32-.2.45A34.93,34.93,0,0,1,89,70.45a8.72,8.72,0,0,1-3.29,1c-1,0-1.68-.55-2.31-1.88l-2.85-6A18.939,18.939,0,0,0,79,60.71a15.371,15.371,0,0,1,2.2-.64c.22,0,.33,0,.38.13a.78.78,0,0,1,0,.4,4,4,0,0,0,.53,1.53Zm4.55-7.92c0-.1.12-.11.26-.08a8.47,8.47,0,0,1,2.36,1,.18.18,0,0,1,.11.23v.05l-.44.83a.19.19,0,0,1-.24.12.09.09,0,0,1-.06,0,9.4,9.4,0,0,0-2.54-1.1Zm.94-1.74c.07-.11.12-.12.26-.08a7.37,7.37,0,0,1,2.33.94.21.21,0,0,1,.12.27h0l-.41.81a.18.18,0,0,1-.22.13h-.08a8.42,8.42,0,0,0-2.51-1.1Z"/><path d="M96.21,57.35a.283.283,0,0,1,.26-.29,12.53,12.53,0,0,1,3.85.4.283.283,0,0,1,.28.18.74.74,0,0,1,0,.21,7.461,7.461,0,0,1-.25,1.56.25.25,0,0,1-.15.25.29.29,0,0,1-.24,0,16.09,16.09,0,0,0-4.09-.52C96,58.29,96.12,57.7,96.21,57.35Zm.54-4.63c0-.25.13-.32.37-.3a12.17,12.17,0,0,1,3.87.64.26.26,0,0,1,.21.16.43.43,0,0,1,0,.25,7.721,7.721,0,0,1-.37,1.58.21.21,0,0,1-.13.17.44.44,0,0,1-.3,0,17.43,17.43,0,0,0-4-.8c.11-.55.25-1.14.37-1.68Zm4.58,9.8a29.841,29.841,0,0,0,3.47-4.68,32.311,32.311,0,0,0,3-6.54A8.69,8.69,0,0,0,109,53a.83.83,0,0,1,.21.28.57.57,0,0,1,0,.46,33.47,33.47,0,0,1-2.76,5.52,41.75,41.75,0,0,1-3.79,5.09,5.73,5.73,0,0,0-.75.94.39.39,0,0,1-.21.24.48.48,0,0,1-.42-.07,11.87,11.87,0,0,1-1.9-1.23,8.39,8.39,0,0,0,2-1.7Zm2.89-13.3c.06-.1.13-.11.27-.06a8.24,8.24,0,0,1,2.28,1.18.18.18,0,0,1,.09.24h0l-.5.79a.19.19,0,0,1-.25.1,9.09,9.09,0,0,0-2.45-1.28Zm1.07-1.66c.08-.11.13-.11.27-.07a7.67,7.67,0,0,1,2.26,1.11.21.21,0,0,1,.09.28h0l-.47.78a.18.18,0,0,1-.24.1h-.06a8.78,8.78,0,0,0-2.42-1.28Z"/><path d="M122.06,55.38c.47,1.53.86,2.65,1,3.08,0,.16,0,.26-.25.33a11.37,11.37,0,0,1-1.48.44c-.21.07-.35,0-.4-.14-.15-.48-.41-1.66-.85-3.08l-.67-2.22a31.529,31.529,0,0,1-3.85,4.31.65.65,0,0,1-.27.17.47.47,0,0,1-.4-.08,4.13,4.13,0,0,0-1.69-.63,34,34,0,0,0,4.59-4.78,25.89,25.89,0,0,0,2.49-3.8l-4,1.3c-.92.31-1.54.54-2.23.8-.19.06-.29,0-.39-.23a13.791,13.791,0,0,1-.7-1.63,17.2,17.2,0,0,0,2.43-.59l5-1.56a3,3,0,0,0,1.16-.56.61.61,0,0,1,.24-.15.36.36,0,0,1,.33,0,6.84,6.84,0,0,1,1.17.75.61.61,0,0,1,.19.26.36.36,0,0,1-.16.39,1.79,1.79,0,0,0-.43.56c-.6,1.16-1.26,2.3-1.94,3.37Zm-6.35-10.89c.05-.18.12-.26.31-.26a23.43,23.43,0,0,1,4.1.39c.14,0,.23.06.25.13a.31.31,0,0,1,0,.19,14,14,0,0,1-.32,1.49.235.235,0,0,1-.17.24.38.38,0,0,1-.21,0,18.71,18.71,0,0,0-4.35-.54c.18-.65.32-1.32.41-1.63Zm7,6.36c.07-.19.13-.19.32-.17a18.911,18.911,0,0,1,4.39,1,.209.209,0,0,1,.21.16.45.45,0,0,1,0,.23,10.752,10.752,0,0,1-.47,1.49.29.29,0,0,1-.16.2.53.53,0,0,1-.28,0,19.78,19.78,0,0,0-4.59-1.2c.22-.66.44-1.29.58-1.62Z"/><path d="M137.59,41a2.48,2.48,0,0,0,1.17-.43.27.27,0,0,1,.18-.11.66.66,0,0,1,.33.07,6.8,6.8,0,0,1,1.41,1,.49.49,0,0,1,.14.21.5.5,0,0,1-.15.4,3.48,3.48,0,0,0-.47.92,28.58,28.58,0,0,1-1.5,3.78,41.75,41.75,0,0,1,5.81,3.14.43.43,0,0,1,.2.22.49.49,0,0,1-.06.29,9.76,9.76,0,0,1-.9,1.45.33.33,0,0,1-.19.16.37.37,0,0,1-.28-.09,32.9,32.9,0,0,0-5.53-3.31,25.92,25.92,0,0,1-4.84,5.95,1.14,1.14,0,0,1-.38.23.4.4,0,0,1-.33-.09,4.8,4.8,0,0,0-1.73-.8,22,22,0,0,0,5.14-5.86,21.63,21.63,0,0,0,2.3-5.15l-4.51,1c-.92.21-1.82.45-2.75.73-.13,0-.22-.06-.29-.24a9.548,9.548,0,0,1-.57-1.79c1-.14,1.83-.34,3-.6Z"/><path d="M154.05,39.71c-2.1.74-4,1.4-5.79,2.08-.65.26-.82.33-1.07.45a1.11,1.11,0,0,1-.37.2.39.39,0,0,1-.38-.21,12.59,12.59,0,0,1-.95-1.82,24.169,24.169,0,0,0,2.78-.73c2.13-.65,5.95-1.83,10.44-3.13.26-.08.37,0,.4.14a9.908,9.908,0,0,1,.43,1.53c0,.21-.06.28-.3.32a7.79,7.79,0,0,0-2.1.72c-2.86,1.49-4.06,3.8-3.73,5.92.34,2.29,2.17,3.29,5.29,3,.28,0,.4,0,.43.21a6.791,6.791,0,0,1,0,1.56c0,.27-.07.39-.29.42-3.12.48-6.82-.8-7.38-4.49-.39-2.52.61-4.42,2.55-6.15Zm3.81,1.38c.08-.08.15-.07.27,0a8.21,8.21,0,0,1,2,1.64.2.2,0,0,1,0,.26h0l-.67.67a.19.19,0,0,1-.26,0h0a9,9,0,0,0-2.1-1.79Zm1.4-1.39c.1-.09.15-.08.27,0a7.49,7.49,0,0,1,2,1.58.2.2,0,0,1,0,.29h0l-.62.65a.18.18,0,0,1-.26,0,.12.12,0,0,1-.05,0,8.7,8.7,0,0,0-2.09-1.78Z"/><path d="M173.43,35.91a2.57,2.57,0,0,0,1.22-.25.28.28,0,0,1,.19-.09.6.6,0,0,1,.32.12,6.35,6.35,0,0,1,1.26,1.17.44.44,0,0,1,.1.22.48.48,0,0,1-.2.38,3.31,3.31,0,0,0-.6.84,29.29,29.29,0,0,1-2,3.52,43.38,43.38,0,0,1,5.29,4,.4.4,0,0,1,.16.24.42.42,0,0,1-.1.28,9.27,9.27,0,0,1-1.11,1.31.28.28,0,0,1-.2.12.4.4,0,0,1-.27-.12,31.591,31.591,0,0,0-5-4.09,25.8,25.8,0,0,1-5.66,5.18,1,1,0,0,1-.4.18.43.43,0,0,1-.32-.14,5,5,0,0,0-1.59-1.05,21.88,21.88,0,0,0,6-5,21.65,21.65,0,0,0,3-4.75l-4.62.37c-.93.07-1.86.18-2.83.32-.14,0-.2-.09-.25-.29a9.519,9.519,0,0,1-.3-1.85c1,0,1.87-.07,3-.15Z"/><path d="M192.65,36.42a3.45,3.45,0,0,0,1.49-.19.45.45,0,0,1,.25-.09.43.43,0,0,1,.3.13A8.06,8.06,0,0,1,196,37.69a.7.7,0,0,1,.15.39.43.43,0,0,1-.23.38,5.76,5.76,0,0,0-.85.7,64.621,64.621,0,0,1-4.75,4.9,18.09,18.09,0,0,1,1.61,1.77.43.43,0,0,1,.13.26.44.44,0,0,1-.16.29,11.678,11.678,0,0,1-1.15,1.08.52.52,0,0,1-.23.1.31.31,0,0,1-.22-.16,26.56,26.56,0,0,0-5.86-5.49c.36-.35,1-.94,1.28-1.23a.34.34,0,0,1,.2-.09.58.58,0,0,1,.25.12,29.27,29.27,0,0,1,2.58,2,39.46,39.46,0,0,0,4.08-4.3l-7.56.15c-1,0-2.37.08-3.33.18-.24,0-.29-.1-.33-.31a15.768,15.768,0,0,1-.25-1.92c1.22.1,2.68.08,3.92.06Z"/><path d="M203.66,41.81c.16.12.26.23.25.36s-.07.17-.22.27a1.73,1.73,0,0,0-.49.58,13.8,13.8,0,0,1-2.2,2.86.52.52,0,0,1-.37.19.5.5,0,0,1-.26-.13,5.56,5.56,0,0,0-1.47-.86,11.84,11.84,0,0,0,2.37-2.81,4,4,0,0,0,.58-1.41A8.23,8.23,0,0,1,203.66,41.81ZM206.39,37a14.242,14.242,0,0,0,0-2.77c.84.13,1.76.3,2.2.42.21.05.31.15.3.29a.7.7,0,0,1-.13.32,4.15,4.15,0,0,0-.3,1.78l-.07,1,2.2.15c1.56.11,2.79.12,3.67.14.16,0,.23.11.21.3a13,13,0,0,1-.11,1.4c0,.24-.1.36-.28.33-1.11-.11-2.46-.26-3.68-.35l-2.12-.14L208,43.48c-.07,1-.08,1.72-.18,3.12a1.89,1.89,0,0,1-1.18,1.78,5.69,5.69,0,0,1-2.34.43c-.21,0-.31-.13-.4-.41a4.21,4.21,0,0,0-1.09-1.7,8.82,8.82,0,0,0,2.46,0c.29-.11.43-.3.46-.76l.43-6.19-2.82-.19c-1-.07-2.26-.1-3.11-.09-.16,0-.22-.16-.2-.37s0-1.14,0-1.73c1.36.2,2.45.29,3.36.36l2.85.2Zm5,4.65a.36.36,0,0,1,.24-.07.33.33,0,0,1,.26.18,13.73,13.73,0,0,1,2.34,3.45.53.53,0,0,1,.07.28.35.35,0,0,1-.2.27,10.459,10.459,0,0,1-1.26.82.92.92,0,0,1-.23.09c-.07,0-.12-.06-.18-.19a17.079,17.079,0,0,0-2.47-4c.51-.32,1-.59,1.43-.87Z"/><path d="M226.14,47.94c0,.2-.15.27-.39.27a9,9,0,0,1-1.27-.09c-.16,0-.22-.14-.19-.32.09-.64.22-1.53.32-2.17-1.7.6-2.36,1.2-2.49,2.06s.43,1.32,2.3,1.58a30.63,30.63,0,0,0,4.48.28c.17,0,.23.07.22.23a8.111,8.111,0,0,1,0,1.48c0,.22-.1.33-.25.31a31.44,31.44,0,0,1-4.44-.4c-2.92-.41-4.34-1.51-4-3.57.24-1.71,1.49-2.8,4.37-3.8.08-.92-.09-1.3-.89-1.38a4.35,4.35,0,0,0-2.64.93A25.573,25.573,0,0,0,219.13,45c-.1.1-.16.14-.23.13s-.12-.07-.18-.15a9,9,0,0,1-.85-1.32.25.25,0,0,1,0-.17c0-.07,0-.12.15-.18a18.45,18.45,0,0,0,4.35-3.87c-.84-.09-1.8-.21-2.86-.36-.16,0-.2-.12-.21-.32s0-1,0-1.5a40.219,40.219,0,0,0,4.09.57,13.4,13.4,0,0,0,.75-1.46,4.37,4.37,0,0,0,.28-1.06,10.71,10.71,0,0,1,2,.79.32.32,0,0,1,.17.33.42.42,0,0,1-.16.25,1.34,1.34,0,0,0-.37.38c-.14.23-.26.45-.54.9a28.151,28.151,0,0,0,3.31-.09c.2,0,.25.06.26.22a5.739,5.739,0,0,1,0,1.31c0,.18-.08.24-.34.24-1.36,0-2.92,0-4.24-.06a20.853,20.853,0,0,1-1.61,1.78h0a3.49,3.49,0,0,1,1.86-.3,2,2,0,0,1,1.91,2,1.089,1.089,0,0,1,0,.18c.74-.22,1.82-.54,2.79-.87a5.55,5.55,0,0,0,1.49-.77,11.65,11.65,0,0,1,1,1.74.75.75,0,0,1,.09.41c0,.15-.12.2-.3.22a5.35,5.35,0,0,0-1.13.11c-1.21.24-2.42.47-4,.87Z"/><path d="M236.21,46.48c.14-.63.32-1.38.51-2.13-.42.38-.87.75-1.31,1.09-.16.13-.28.18-.35.16s-.14-.14-.14-.36a4.23,4.23,0,0,0-.31-1.61A16.72,16.72,0,0,0,239,38.72a5.121,5.121,0,0,0,.54-1.19,16.31,16.31,0,0,1,1.57.9c.17.13.26.21.24.33a.38.38,0,0,1-.27.27c-.14.06-.26.2-.52.62-.46.73-1,1.44-1.48,2.12l-2,9.14c-.38,1.72-.54,2.58-.56,2.67s-.06.19-.23.15l-1.46-.32c-.18,0-.19-.06-.15-.24s.24-.93.62-2.65Zm6.75-4.3c-1.74-.38-2.33-.48-2.43-.5s-.19-.06-.15-.23l.29-1.32c0-.17.06-.19.23-.15s.68.19,2.42.57l1.91.42v-.1a10.69,10.69,0,0,0,.31-1.88c.63.16,1.22.31,1.76.5.18.06.28.15.26.26a1.06,1.06,0,0,1-.18.33,3.1,3.1,0,0,0-.39,1.18v.1l2.48.55c1.71.38,2.32.48,2.41.5s.2.06.16.24l-.3,1.35c0,.18-.06.19-.25.15s-.68-.19-2.4-.57L246.62,43l-.3,1.35,1.58.35c1.67.36,2.27.46,2.38.48s.18.07.15.24-.14.47-.35,1.4l-.4,1.79c-.2.91-.25,1.31-.27,1.41s-.07.19-.24.15-.69-.19-2.36-.56L245,49.22a8,8,0,0,1-.8,1.7,8.822,8.822,0,0,1-.75,1,16.45,16.45,0,0,0,6.2,2.73,4.839,4.839,0,0,0-.8,1.15c-.23.52-.23.52-.78.36a14.46,14.46,0,0,1-6-3.16,9.76,9.76,0,0,1-3.89,1,1.34,1.34,0,0,1-.4,0c-.17,0-.22-.17-.29-.52a3.46,3.46,0,0,0-.45-1.26,9.39,9.39,0,0,0,3.82-.59,10.611,10.611,0,0,1-1.25-2.29c-.07-.18,0-.21.19-.29l1-.31c.22-.06.27-.05.34.11a8.35,8.35,0,0,0,1.06,1.8,6.9,6.9,0,0,0,.46-.58,6.491,6.491,0,0,0,.6-1.21L242,48.54c-1.66-.37-2.27-.46-2.36-.48s-.18-.06-.15-.24.15-.48.35-1.4l.4-1.79c.21-.93.25-1.29.28-1.41s.06-.19.23-.15.68.19,2.34.55l1.48.33.3-1.35Zm-1,2.77-.43,1.92,2.27.5c.14-.56.3-1.2.45-1.9Zm6,3.34.42-1.91L246,45.85l-.48,1.9Z"/><path d="M256.91,47.55a12.93,12.93,0,0,1,4.2.31c2.3.69,3.16,2.65,2.41,5.18a7,7,0,0,1-2.62,3.7,10.22,10.22,0,0,1-4.14,1.75.81.81,0,0,1-.31,0c-.16-.05-.24-.15-.35-.35a4.51,4.51,0,0,0-1.16-1.34,9.73,9.73,0,0,0,4.65-1.75,5.2,5.2,0,0,0,1.85-2.76c.42-1.43,0-2.35-1-2.65a6,6,0,0,0-2.92-.06,8.47,8.47,0,0,0-1.71.39.64.64,0,0,1-.43.06c-.22-.07-.31-.34-.37-.52a12.076,12.076,0,0,1-.34-2.07,9.53,9.53,0,0,0,2.24.11Zm7.46-2.09a.27.27,0,0,1,.16.33h0a12.275,12.275,0,0,1-.83,1.4c-.1.16-.18.23-.31.17a23.51,23.51,0,0,1-4.6-2.81c-.08-.06-.14-.17,0-.38a8.582,8.582,0,0,1,1-1.46,23.1,23.1,0,0,0,4.63,2.71Z"/><path d="M277.54,51.81c.17,0,.23,0,.2.23a11.814,11.814,0,0,1-.36,1.42c-.06.15-.14.16-.28.12-1-.15-1.84-.34-2.94-.58a49.753,49.753,0,0,1-6,6c-.12.09-.19.12-.25.1a.44.44,0,0,1-.17-.16,8.91,8.91,0,0,1-.84-1.29.22.22,0,0,1-.05-.23.3.3,0,0,1,.16-.17,36.131,36.131,0,0,0,5.1-4.79c-.65-.2-1.17-.4-1.7-.6-.37-.13-.5-.18-.92-.36-.16-.06-.18-.12-.13-.36a8.771,8.771,0,0,1,.37-1.49c.67.31,1.05.47,1.54.65a18.837,18.837,0,0,0,2,.64,20.325,20.325,0,0,0,1.14-1.72,7.22,7.22,0,0,0,.62-1.32,15.476,15.476,0,0,1,1.81,1.1.31.31,0,0,1,.18.35.45.45,0,0,1-.28.26,2.25,2.25,0,0,0-.5.52c-.26.36-.59.84-.93,1.28A20.868,20.868,0,0,0,277.54,51.81Zm-1.22,4.68a5.93,5.93,0,0,0,.31-1.24,9.52,9.52,0,0,1,1.72,1,.28.28,0,0,1,.13.36,2.348,2.348,0,0,1-.23.32,2,2,0,0,0-.33.66,25.264,25.264,0,0,0-.88,2.93,13.9,13.9,0,0,1,2.44,2.7c.13.18.12.25,0,.39a10.83,10.83,0,0,1-1.28,1.07.23.23,0,0,1-.2.07c-.06,0-.09-.08-.13-.17a13.522,13.522,0,0,0-1.52-2.18c-.63,1.68-2.13,2-4.05,1.29s-2.75-2.1-2.2-3.55,2.13-2,4-1.29a10.07,10.07,0,0,1,1.29.6c.3-1.12.65-2.16.93-3Zm-2.78,3.8c-.84-.32-1.62-.23-1.86.41s.17,1,1.13,1.34a1.34,1.34,0,0,0,1.84-.5l.07-.14a3.572,3.572,0,0,0,.11-.35,4.66,4.66,0,0,0-1.29-.76Zm6.16-6.93a.25.25,0,0,1,.35,0l.05.05a13.831,13.831,0,0,1,2.7,2.81c.08.11.11.18.08.24a.42.42,0,0,1-.14.18,10.852,10.852,0,0,1-1.17,1,.2.2,0,0,1-.2.06c-.06,0-.08,0-.13-.12a15.48,15.48,0,0,0-2.8-3.14,11.959,11.959,0,0,1,1.26-1Z"/><path d="M289,58.45c.14.17.18.3.12.43a.48.48,0,0,1-.19.21,3.08,3.08,0,0,0-.72.72,27.9,27.9,0,0,0-1.75,2.8,8.73,8.73,0,0,1,6.64-.1c2.39,1.08,3.18,3.12,2.22,5.23a4.41,4.41,0,0,1-4.14,2.54,15.64,15.64,0,0,1-4.7-.78c-.38-.12-.52-.2-.56-.51a4.49,4.49,0,0,0-.48-1.9,14.83,14.83,0,0,0,4.91,1.13,3,3,0,0,0,3.06-1.59c.4-.88.21-1.94-1.2-2.58s-3.6-.51-5.84.34a4.879,4.879,0,0,0-1.11.58c-.18.12-.24.09-.43,0a11.629,11.629,0,0,1-.91-1c-.14-.14-.19-.2-.08-.43,1-1.85,2.05-3.69,2.91-5a11.55,11.55,0,0,0,.81-1.4A9.28,9.28,0,0,1,289,58.45Zm2.29-4a.3.3,0,0,1,.35.06A11.71,11.71,0,0,1,294,58a.23.23,0,0,1,0,.23.52.52,0,0,1-.17.16,11.14,11.14,0,0,1-1.35.76.34.34,0,0,1-.24.05c-.07,0-.1-.09-.15-.2a14.151,14.151,0,0,0-2.33-3.63,9.2,9.2,0,0,1,1.54-.84Z"/></g></svg>