<?xml version="1.0" encoding="utf-8"?>
<!-- Generator: Adobe Illustrator 25.4.1, SVG Export Plug-In . SVG Version: 6.00 Build 0)  -->
<svg version="1.1" id="レイヤー_2_00000163042020732900713990000003707388653838419336_"
	 xmlns="http://www.w3.org/2000/svg" xmlns:xlink="http://www.w3.org/1999/xlink" x="0px" y="0px" viewBox="0 0 414 422.5"
	 style="enable-background:new 0 0 414 422.5;" xml:space="preserve">
<style type="text/css">
	.st0{fill:#D5F0F7;}
	.st1{fill:#FFFFFF;}
	.st2{fill:none;stroke:#000000;stroke-width:1.009;stroke-linecap:round;stroke-linejoin:round;}
	.st3{fill:#FFFFFF;stroke:#221714;stroke-width:1.009;stroke-linecap:round;stroke-linejoin:round;}
	.st4{fill:none;stroke:#221714;stroke-width:1.009;stroke-linecap:round;stroke-linejoin:round;}
	.st5{fill:#FFFFFF;stroke:#000000;stroke-width:1.009;stroke-linecap:round;stroke-miterlimit:10;}
	.st6{fill:none;stroke:#000000;stroke-width:1.009;stroke-linecap:round;stroke-miterlimit:10;}
	.st7{fill:none;stroke:#000000;stroke-width:1.009;stroke-miterlimit:10;}
	.st8{fill:#FFFFFF;stroke:#000000;stroke-miterlimit:10;}
	.st9{fill:#FFFFFF;stroke:#000000;stroke-width:0.9999;stroke-miterlimit:9.9995;}
	.st10{fill:none;stroke:#000000;stroke-linecap:round;stroke-linejoin:round;}
	.st11{fill:#FFFFFF;stroke:#000000;stroke-width:1;stroke-miterlimit:10.0002;}
	.st12{enable-background:new    ;}
	.st13{fill:#FFFFFF;stroke:#221714;stroke-width:1.009;stroke-miterlimit:10;}
	.st14{fill:none;stroke:#221714;stroke-width:1.009;stroke-miterlimit:10;}
	.st15{fill:#D5F0F7;stroke:#000000;stroke-linecap:round;stroke-linejoin:round;}
	.st16{fill:#FFFFFF;stroke:#000000;stroke-linecap:round;stroke-linejoin:round;}
	.st17{fill:none;stroke:#000000;stroke-width:0.758;stroke-linecap:round;stroke-linejoin:round;}
	.st18{fill:none;stroke:#000000;stroke-width:0.505;stroke-linecap:round;stroke-linejoin:round;}
	.st19{fill:none;stroke:#50BEE6;stroke-width:26.988;stroke-linecap:round;stroke-linejoin:round;}
</style>
<g id="グループ_1562_00000016756126012732516550000007153448761963423910_" transform="translate(0.026 -492.792)">
	<path id="パス_3248_00000100356876852259681820000012823191465545818534_" class="st0" d="M275,875.8l-5.9,0.2l16.7-68.9
		c0,0,1.3-10.7,20.3-14.3l5.2-1.7c4.1,7.1,11,12.1,18.9,13.9l-0.6,2.7l-1.3-0.6l-4.3,13.1l-3.7,2.1c-4.3,2.4-7.7,6-9.9,10.4
		c-1.1,2.3-2.1,4.6-2.8,7l-4.6,7.8L275,875.8z"/>
	<path id="パス_3184_00000101811373242277299340000012291373362373743287_" class="st1" d="M83.9,542.9c4.5-2,7.8-5.9,9-10.7
		c0.4-1.3,4.4-18.7-12.4-31.6c0,0-9.8-7-19.6-7.3c0,0-30.5-2.3-35.6,28.2c0,0-2.1,9-4.5,11.6c-0.2,3,0,6.1,0.8,9l2.1,3.9
		c2.7,5.1,7.2,9,12.5,11c0,0,8.3,2.3,8.3,4v12.5c1.3,5.7,18.6,13.3,18.6,13.3c8.2-4.1,7.7-11.9,7.7-11.9v-6.1c3.4-1.6,6.3-4,8.4-7.1
		c2.4-3.4,3.9-7.3,4.4-11.3l0.8-7.5"/>
	<path id="パス_3185_00000065045188316101660170000007924455591575933877_" class="st0" d="M108.5,627.7l-0.1-35.7
		c-1.7-2.7-8.3-5.3-8.3-5.3l-23.6-6l-4.3-7.4c0.7,9-8.9,13.6-8.9,13.6c-17.2-7.2-20.8-15.2-20.8-15.2l-5.2,9.9l-10.7,2.7
		C-1.4,588.2,0,611,0,611l9.2,61.7c0,0,0.1,18.6,11.7,18c0,0,8.5-0.5,19.6-5.7h80.8l-3.3-30.3c-11.5,5.5-28.3,6.4-28.3,6.4
		c-4.9-4.2-4.7-13.9-4.7-13.9l5.1-1.8c0,0,3.1-5.8,12.3-11.4L108.5,627.7z"/>
	<g id="グループ_1532_00000081647389226043936240000003441383364312802203_" transform="translate(0.5 493.34)">
		<path id="パス_3249_00000163043800022016275590000001333684232878074519_" class="st0" d="M354.1,382.7h54.2l-15.8-68.9
			c0,0-1.3-10.9-25.8-16c0,0-7.6,16.9-32.9,14.6l-1.4,3.1l1.4,0.4l-3.9,10.7c0,0,2.5-2.8,5.1,0.4c0,0,1.5,2.4-1.4,3.9
			c0,0,2.8,0.1,2.4,2.3h14.3c0,0,3.6-0.5,3.8,6.2L354.1,382.7z"/>
		<g id="グループ_1517_00000176022963427456948330000018337424199315240078_" transform="translate(296.076 154.565)">
			<path id="パス_1191_00000110454408669942873330000015061675317150603929_" class="st2" d="M54.3,40.7h33.9
				c2.8,0,5.1-2.3,5.1-5.1l0,0V5.1C93.3,2.3,91,0,88.2,0H4.6C1.8,0-0.5,2.3-0.5,5.1l0,0v30.4c0,2.8,2.3,5.1,5.1,5.1h35.6l-9.9,10.3"
				/>
			<g id="グループ_1516_00000083081541872949083430000016942296004950254733_" transform="translate(21.951 12.415)">
				<path id="パス_3187_00000150073565558701014160000016895515680678894241_" class="st3" d="M4.7,8.4L4.7,8.4l-5.2-8.5"/>
				<line id="線_521_00000068651836061332143910000017781867162143525816_" class="st4" x1="4.7" y1="8.7" x2="4.7" y2="16.1"/>
				<line id="線_522_00000064339747752062688790000014084372657454334139_" class="st4" x1="9.6" y1="8.5" x2="-0.5" y2="8.5"/>
				<line id="線_523_00000068650398436844215540000003456334665672540075_" class="st4" x1="9.6" y1="11.2" x2="-0.5" y2="11.2"/>
				<line id="線_524_00000029043496690984779130000006095657976303984520_" class="st4" x1="9.9" y1="0" x2="5.7" y2="6.8"/>
			</g>
			<g id="グループ_698_00000125563379477431691140000003808890668722971050_" transform="translate(44.229 18.415)">
				<circle id="楕円形_233_00000000902677977523368840000012637935049585797021_" cx="1.6" cy="2" r="2.1"/>
				<circle id="楕円形_234_00000118363489605055407280000009743056363326378663_" cx="12.2" cy="2" r="2.1"/>
				<circle id="楕円形_235_00000126311463054856301290000007328050890790458538_" cx="22.9" cy="2" r="2.1"/>
			</g>
		</g>
		<g id="グループ_1522_00000076597802904795118930000016934210626208925858_" transform="translate(269.111 217.552)">
			<path id="パス_3250_00000034794895568572472410000008645589494829273008_" class="st0" d="M57.2,137.8l-13.4,6.8l-16.1,20.5
				h29.6v-27.3H57.2z"/>
			<path id="パス_3189_00000000209509843993471520000016540510744241403520_" class="st1" d="M97.4,80.5l15.1,4.8
				c0,0-0.6-5.4-9.3-11.3c0,0-5.6-7.3-1.5-14c0,0,7.2-7,1.5-18.6c0.1,0-4.6-16.7-5.1-18.8C95.1,10,83.2,0,70.2,0H70
				C56.9,0,44.7,10.1,42,22.5c-1.5,7.1-3.6,14.1-6.2,20.9c0,0-4.4,8.4,3,17.4c0,0,2.1,3.6,0,9.4c0,0-3.4,4.2-6.1,6.9
				c0,0-5.1,5.2-5.2,7.7l14.2-4.5c0,0,7.2,14.7,27.3,14.9C68.9,95.2,91.1,95.6,97.4,80.5z"/>
			<path id="パス_3190_00000115505318594465296060000014983125527018060217_" class="st5" d="M46.7,41.9l1.9,11.2
				C49.8,60,53.9,66,59.8,69.6l5.5,3.3c0,0,3.8,2.3,9.3,0l5.5-3.3c6-3.6,10.1-9.6,11.2-16.5l1.9-10.8"/>
			<path id="パス_3191_00000024691581607248368000000014380313332052030646_" class="st6" d="M34.8,75.3c-2.6,2.1-7,6.3-7.2,9.5"
				/>
			<path id="パス_3192_00000029045289931000963200000015365073263783495601_" class="st6" d="M39.1,69.4c1-2.8,1-5.8-0.2-8.6
				c-0.3-0.7-0.8-1.4-1.3-2c-5.5-6.9-1.7-15.4-1.7-15.4c2.6-6.8,4.7-13.8,6.2-20.9C44.7,10.1,56.9,0,70,0h0.2
				c13,0,25.3,10.1,27.9,22.6c1.3,6.2,3,12.4,5.2,18.4"/>
			<path id="パス_3193_00000168118224041457098350000016046245368440565646_" class="st6" d="M93.7,40.5
				C82.4,35.6,71.4,25.2,71,18.7"/>
			<path id="パス_3194_00000031901419987411013220000012450140189125208466_" class="st6" d="M91.3,53.3c2.5-1.6,4.3-4.1,5.2-6.9
				c0,0,1.9-5.9-2.6-5.8"/>
			<path id="パス_3195_00000075140631531223526990000009983025914406664091_" class="st7" d="M64.9,40.9c1.7,1.3,2.6,3.4,2.5,5.6
				l-0.6,9h4.3"/>
			<path id="パス_3196_00000142151343653277534900000008408144801019693983_" class="st7" d="M76,62.4c-3.8,1.9-8.2,2-12,0.2"/>
			<circle id="楕円形_234-2_00000087384427524384581230000017139063199359300483_" cx="57.8" cy="45.3" r="1.8"/>
			<path id="パス_3197_00000168837000980605483170000015137575808377046712_" class="st7" d="M52.7,39.6c1.5-0.7,3.1-1,4.7-0.9
				c1.6,0,3.1,0.2,4.6,0.8"/>
			<circle id="楕円形_235-2_00000123402230707046709050000007752147949853758394_" cx="80.5" cy="45.3" r="1.8"/>
			<path id="パス_3198_00000094580236682586367790000005028673356308312713_" class="st7" d="M75.9,39.6c1.5-0.7,3.1-1,4.7-0.9
				c1.6,0,3.1,0.2,4.6,0.8"/>
			<path id="パス_3199_00000101823089841678009380000008237985065156105374_" class="st7" d="M36.5,81.9l-9,2.9
				c-5.4,1.7-9.6,6-11.4,11.4l-10.7,42l-6,26.9"/>
			<path id="パス_3203_00000101088979721068374260000014086042821520671167_" class="st6" d="M48.5,53.3c-2.5-1.6-4.3-4.1-5.2-6.9
				c0,0-1.9-5.9,2.6-5.8h0.5c11.4-4.9,22.3-15.3,22.7-21.8"/>
			<path id="パス_3204_00000067196208517466547910000009253293273659977386_" class="st6" d="M105.1,46c0.7,3,1.1,8.2-2.5,12.8
				c-0.5,0.6-0.9,1.3-1.3,2c-1.2,2.7-1.2,5.8-0.2,8.6c0.9,2.3,2.3,4.4,4.2,5.9c2.6,2.1,7,6.3,7.2,9.5"/>
			<g id="グループ_1518_00000140701494172168744250000008969826651077008285_" transform="translate(49.52 58.498)">
				<circle id="楕円形_236_00000173850189287067829660000008316294325246912648_" class="st8" cx="19.6" cy="17" r="17"/>
				<path id="パス_3205_00000065758715365291527670000010740501114175841453_" class="st8" d="M9.5,5.9C3.4,11.5,3,21,8.6,27.1
					s15.1,6.5,21.2,0.9s6.5-15.1,0.9-21.2c-3.8-4.1-9.6-5.8-15-4.3"/>
				<path id="長方形_773_00000070105354110062282630000012713860509448520626_" class="st9" d="M2,68.4L2,68.4
					c-1.4-0.5-2.1-2-1.6-3.4l9.3-27.1l0,0l5,1.7l0,0L5.4,66.8C4.9,68.2,3.4,68.9,2,68.4z"/>
			</g>
			<g id="グループ_1519_00000039093228596264418270000004544746714722653847_" transform="translate(5.912 108.093)">
				<path id="パス_3206_00000155119608027356112200000000040064652858583481_" class="st1" d="M37.3,36.5l10.5-4.9
					c3.5-1.6,6.8-3.7,9.9-6.1l3-6.4c0.5-1.1,0.5-2.3,0-3.3l0,0L57,21.7l4.8-8.1c0.3-0.6,0.3-1.3,0-1.9l0,0c-0.5-0.9-1.7-1.2-2.6-0.7
					c-0.2,0.1-0.4,0.3-0.6,0.5l-3.1,4.2v-0.3l5-6.5c0.5-0.7,0.6-1.7,0.1-2.4l0,0C60,5.6,58.7,5.3,57.7,6c-0.1,0-0.1,0.1-0.2,0.1
					l-5.2,4.3l6.6-5.6c1.1-0.7,1.5-2.1,0.9-3.3l0,0c-0.6-1.3-2.2-1.8-3.4-1.1l0,0l-9.1,4.5l1-3.3l-7.8,4.5
					c-5.2,6.1-8.1,14.8-8.1,14.8L27,29.2L-0.5,56.7h22.2L37.3,36.5z"/>
				<path id="パス_3207_00000034770153103528651890000007785664207213144467_" class="st10" d="M48.6,1.3l-7.3,4.1
					c-0.7,0.4-1.3,0.9-1.8,1.5c-3,4.1-5.5,8.6-7.2,13.4c-0.1,0.4-0.3,0.7-0.5,1L28,27.9c-0.3,0.5-0.6,0.9-1,1.3L-0.5,56.6"/>
				<path id="パス_3208_00000025418453024338081670000013080073619221187718_" class="st10" d="M60.6,15.7L60.6,15.7
					c0.5,1.1,0.4,2.3,0,3.3L58,24.7c-0.2,0.5-0.6,0.9-1,1.2c-2.9,2.2-6,4.1-9.2,5.6l-10,5L21.8,57"/>
				<path id="パス_3209_00000152262477002420201520000016968384098887006906_" class="st10" d="M42.7,7.3l13.6-7
					c1.2-0.6,2.8-0.2,3.4,1.1l0,0l0,0c0.6,1.2,0.2,2.6-0.9,3.3l-6.6,5.6"/>
				<path id="パス_3210_00000000224763307778780440000009404419063836685721_" class="st10" d="M52.2,10.3L57.4,6
					c0.9-0.7,2.2-0.6,2.9,0.3c0,0.1,0.1,0.1,0.1,0.2l0,0c0.5,0.7,0.5,1.7-0.1,2.4l-5,6.5"/>
				<path id="パス_3211_00000023998130950774687100000006181447549447437223_" class="st10" d="M55.4,15.6l3.1-4.2
					c0.6-0.8,1.8-1,2.7-0.4c0.2,0.2,0.4,0.3,0.5,0.6l0,0c0.3,0.6,0.4,1.3,0,1.9l-4.8,8.1"/>
			</g>
		</g>
		<path id="パス_3202_00000039107007878441357660000013795837879260134847_" class="st7" d="M358.3,295l22.7,7.4
			c5.4,1.7,9.6,6,11.4,11.4l15.8,69.2"/>
		<path id="パス_3201_00000022535935671857362560000004620620550556778144_" class="st7" d="M366.6,297.8c0,0-5,10.7-18.9,13.9"/>
		<path id="パス_3200_00000031197630965330095930000006988019003850124439_" class="st7" d="M319.4,295l-8.5,2.8
			c0,0,7,14.8,27.2,14.8"/>
		
			<rect id="長方形_772_00000176728722985017289400000009737723161133587104_" x="328.6" y="310.3" transform="matrix(0.3239 -0.9461 0.9461 0.3239 -70.8829 524.7742)" class="st11" width="6.3" height="3.3"/>
		<g class="st12">
			<path d="M31.4,267.3h-3.7v5.4h-1V260h4.7c2.2,0,3.9,1.4,3.9,3.7S33.6,267.3,31.4,267.3z M31.2,260.8h-3.6v5.7h3.6
				c1.8,0,3-0.9,3-2.8S33,260.8,31.2,260.8z"/>
			<path d="M44.7,272.8l-1.1-3.1h-6l-1.1,3.1h-1l4.7-12.8H41l4.7,12.8H44.7z M40.5,261.3l-2.7,7.5h5.4L40.5,261.3z"/>
			<path d="M50.3,267.5v5.3h-1v-5.3l-3.8-7.5h1l3.3,6.5L53,260h1L50.3,267.5z"/>
		</g>
		<g class="st12">
			<path d="M289.8,417.7l-1.1-3.1h-6l-1.1,3.1h-1l4.7-12.8h0.9l4.7,12.8H289.8z M285.7,406.2l-2.7,7.5h5.4L285.7,406.2z"/>
			<path d="M296.3,417.8c-1.9,0-3.1-0.5-4.3-1.7l0.7-0.7c1.2,1.2,2.1,1.5,3.6,1.5c2,0,3.3-1,3.3-2.6c0-0.8-0.2-1.4-0.7-1.8
				c-0.5-0.4-0.8-0.5-1.9-0.7l-1.5-0.2c-1-0.1-1.7-0.5-2.3-0.9c-0.7-0.6-1-1.4-1-2.4c0-2.1,1.5-3.5,4-3.5c1.6,0,2.6,0.4,3.7,1.4
				l-0.6,0.6c-0.8-0.7-1.6-1.2-3.1-1.2c-1.9,0-3,1-3,2.6c0,0.7,0.2,1.3,0.7,1.7c0.5,0.4,1.2,0.7,1.9,0.8l1.4,0.2
				c1.2,0.2,1.7,0.4,2.3,0.8c0.7,0.6,1.1,1.5,1.1,2.5C300.6,416.4,298.9,417.8,296.3,417.8z"/>
			<path d="M306.5,417.8c-1.9,0-3.1-0.5-4.3-1.7l0.7-0.7c1.2,1.2,2.1,1.5,3.6,1.5c2,0,3.3-1,3.3-2.6c0-0.8-0.2-1.4-0.7-1.8
				c-0.5-0.4-0.8-0.5-1.9-0.7l-1.5-0.2c-1-0.1-1.7-0.5-2.3-0.9c-0.7-0.6-1-1.4-1-2.4c0-2.1,1.5-3.5,4-3.5c1.6,0,2.6,0.4,3.7,1.4
				l-0.6,0.6c-0.8-0.7-1.6-1.2-3.1-1.2c-1.9,0-3,1-3,2.6c0,0.7,0.2,1.3,0.7,1.7s1.2,0.7,1.9,0.8l1.4,0.2c1.2,0.2,1.7,0.4,2.3,0.8
				c0.7,0.6,1.1,1.5,1.1,2.5C310.8,416.4,309.1,417.8,306.5,417.8z"/>
			<path d="M313.8,417.7v-12.8h7.8v0.9h-6.8v5.1h5.8v0.9h-5.8v5.2h6.8v0.9H313.8z"/>
			<path d="M327.8,417.8c-1.9,0-3.1-0.5-4.3-1.7l0.7-0.7c1.2,1.2,2.1,1.5,3.6,1.5c2,0,3.3-1,3.3-2.6c0-0.8-0.2-1.4-0.7-1.8
				c-0.5-0.4-0.8-0.5-1.9-0.7l-1.5-0.2c-1-0.1-1.7-0.5-2.3-0.9c-0.7-0.6-1-1.4-1-2.4c0-2.1,1.5-3.5,4-3.5c1.6,0,2.6,0.4,3.7,1.4
				l-0.6,0.6c-0.8-0.7-1.6-1.2-3.1-1.2c-1.9,0-3,1-3,2.6c0,0.7,0.2,1.3,0.7,1.7c0.5,0.4,1.2,0.7,1.9,0.8l1.4,0.2
				c1.2,0.2,1.7,0.4,2.3,0.8c0.7,0.6,1.1,1.5,1.1,2.5C332.1,416.4,330.5,417.8,327.8,417.8z"/>
			<path d="M338,417.8c-1.9,0-3.1-0.5-4.3-1.7l0.7-0.7c1.2,1.2,2.1,1.5,3.6,1.5c2,0,3.3-1,3.3-2.6c0-0.8-0.2-1.4-0.7-1.8
				c-0.5-0.4-0.8-0.5-1.9-0.7l-1.5-0.2c-1-0.1-1.7-0.5-2.3-0.9c-0.7-0.6-1-1.4-1-2.4c0-2.1,1.5-3.5,4-3.5c1.6,0,2.6,0.4,3.7,1.4
				l-0.6,0.6c-0.8-0.7-1.6-1.2-3.1-1.2c-1.9,0-3,1-3,2.6c0,0.7,0.2,1.3,0.7,1.7s1.2,0.7,1.9,0.8l1.4,0.2c1.2,0.2,1.7,0.4,2.3,0.8
				c0.7,0.6,1.1,1.5,1.1,2.5C342.3,416.4,340.7,417.8,338,417.8z"/>
			<path d="M355.2,417.7v-10.6l-3.9,8.8h-1l-4-8.8v10.6h-1v-12.8h1l4.5,9.9l4.4-9.9h1v12.8H355.2z"/>
			<path d="M360.1,417.7v-12.8h7.8v0.9h-6.8v5.1h5.8v0.9h-5.8v5.2h6.8v0.9H360.1z"/>
			<path d="M379.2,417.7l-7.4-11.1v11.1h-1v-12.8h1l7.4,11.1v-11.1h1v12.8H379.2z"/>
			<path d="M387.5,405.7v12h-1v-12h-3.8v-0.9h8.6v0.9H387.5z"/>
		</g>
		<g class="st12">
			<path d="M247.4,57.3c-1.9,0-3.1-0.5-4.3-1.7l0.7-0.7c1.2,1.2,2.1,1.5,3.6,1.5c2,0,3.3-1,3.3-2.6c0-0.8-0.2-1.4-0.7-1.8
				c-0.5-0.4-0.8-0.5-1.9-0.7l-1.5-0.2c-1-0.1-1.7-0.5-2.3-0.9c-0.7-0.6-1-1.4-1-2.4c0-2.1,1.5-3.5,4-3.5c1.6,0,2.6,0.4,3.7,1.4
				l-0.6,0.6c-0.8-0.7-1.6-1.2-3.1-1.2c-1.9,0-3,1-3,2.6c0,0.7,0.2,1.3,0.7,1.7s1.2,0.7,1.9,0.8l1.4,0.2c1.2,0.2,1.7,0.4,2.3,0.8
				c0.7,0.6,1.1,1.5,1.1,2.5C251.7,55.9,250,57.3,247.4,57.3z"/>
			<path d="M254.7,57.2V44.4h7.8v0.9h-6.8v5.1h5.8v0.9h-5.8v5.2h6.8v0.9H254.7z"/>
			<path d="M265.5,57.2V44.4h1v12h6.8v0.9H265.5z"/>
			<path d="M275.8,57.2V44.4h1v12h6.8v0.9H275.8z"/>
		</g>
		<g id="グループ_1525_00000107569353593600700300000007550902855321566859_" transform="translate(84.042 246.607)">
			<path id="パス_3212_00000022562544058632627330000007334359462092532612_" class="st13" d="M25.1,83.7V81c0-0.5,0.4-1,1-1h53.6
				c0.5,0,1,0.4,1,1v5.5c0,0.5-0.4,1-1,1H26"/>
			<path id="長方形_774_00000178190704210737206180000005206654943857533590_" class="st13" d="M26.1,42.9h53.5c0.6,0,1,0.5,1,1
				v5.4c0,0.6-0.5,1-1,1H26.1c-0.6,0-1-0.5-1-1v-5.4C25.1,43.4,25.5,42.9,26.1,42.9z"/>
			<path id="長方形_775_00000022537482709432564700000012125125578248364687_" class="st13" d="M26.1,50.3h53.5c0.6,0,1,0.5,1,1
				v5.4c0,0.6-0.5,1-1,1H26.1c-0.6,0-1-0.5-1-1v-5.4C25.1,50.8,25.5,50.3,26.1,50.3z"/>
			<path id="長方形_776_00000107571613102306033580000009072939923113878700_" class="st13" d="M26.1,72.6h53.5c0.6,0,1,0.5,1,1
				V79c0,0.6-0.5,1-1,1H26.1c-0.6,0-1-0.5-1-1v-5.4C25.1,73.1,25.5,72.6,26.1,72.6z"/>
			<path id="長方形_777_00000034802864227334968500000017654799917624212640_" class="st13" d="M31.5,57.8H85c0.6,0,1,0.5,1,1
				v5.4c0,0.6-0.5,1-1,1H31.5c-0.6,0-1-0.5-1-1v-5.4C30.5,58.2,30.9,57.8,31.5,57.8z"/>
			<path id="長方形_778_00000119840587198262102730000005099702869390717873_" class="st13" d="M30.1,65.2h53.5c0.6,0,1,0.5,1,1
				v5.4c0,0.6-0.5,1-1,1H30.1c-0.6,0-1-0.5-1-1v-5.4C29.1,65.6,29.5,65.2,30.1,65.2z"/>
			<g id="グループ_1524_00000122688264206540177490000012634884391812915088_">
				<path id="パス_3213_00000038385790122178128240000015108589343426378155_" class="st13" d="M52,8.7
					c12.2,11.8,12.5,31.4,0.6,43.6S21.2,64.9,9,53C-3.3,41.1-3.5,21.6,8.3,9.3C18.1-0.8,33.3-3,45.6,3.9"/>
				<g id="グループ_1523_00000142177090139361501160000011776569328405138596_" transform="translate(19.139 13.715)">
					<path id="パス_3215_00000034803498492495602490000001640997190828620220_" class="st13" d="M11.3,19.2L11.3,19.2L-0.4,0"/>
					
						<line id="線_525_00000096751415645429816650000015993968279857601931_" class="st14" x1="11.4" y1="19.8" x2="11.4" y2="36.6"/>
					
						<line id="線_526_00000099653650416464011040000010824992730047864214_" class="st14" x1="22.5" y1="19.4" x2="-0.5" y2="19.4"/>
					
						<line id="線_527_00000005254513100200990530000015414555085917693110_" class="st14" x1="22.5" y1="25.5" x2="-0.5" y2="25.5"/>
					<line id="線_528_00000083052652682552985760000008266906261954751139_" class="st14" x1="23.1" y1="0" x2="13.7" y2="15.4"/>
				</g>
			</g>
		</g>
		<g id="グループ_1529_00000143577769467193500240000004995245341216696737_">
			<path id="パス_3216_00000176752677944591075540000006308135868264421565_" class="st10" d="M71,22.5c0,0-4.4,17.8-28.1,19.2"/>
			<path id="パス_3217_00000144337629823821199080000003139902652046273175_" class="st10" d="M71.2,22.4c0,0,8,3.8,9.8,17.1"/>
			<path id="パス_3218_00000035533194860259326510000017507617630186706324_" class="st10" d="M80.9,29.3c0,0,4.1,4.1,3.5,14.1"/>
			<path id="パス_3219_00000009576461914356430260000002754785379835155890_" class="st10" d="M54.1,29c0,0-7.7,11.6-15.5,15.5"/>
			<path id="パス_3220_00000050628023049929821790000017637113805710265495_" class="st10" d="M84.2,49.6l-0.8,7.5
				c-0.5,4.1-2.1,8-4.4,11.3c-2.2,3-5.1,5.5-8.4,7.1"/>
			<path id="パス_3221_00000126295087056478560590000015083988539789910445_" class="st10" d="M38.1,57.9
				c-6.6-3.9-5.6-10.1-5.6-10.1c0.2-1.7,1.3-3.1,2.9-3.7c0,0,2.3-0.7,3.6,1.1"/>
			<path id="パス_3222_00000039100286387504367770000000610100644884663944_" class="st10" d="M83.4,49.6c4.5-2,7.8-5.9,9-10.7
				c0.4-1.3,4.4-18.7-12.4-31.6c0,0-9.8-7-19.6-7.3c0,0-30.5-2.3-35.6,28.2c0,0-2.1,9-4.5,11.6c-0.2,3,0,6.1,0.8,9"/>
			<path id="パス_3223_00000098199139952497620780000013557590146169497498_" class="st10" d="M23.4,52.8c2.7,5.1,7.2,9,12.5,11"
				/>
			<path id="パス_3224_00000144314447651855998060000013192747908063981736_" class="st10" d="M44.2,67.8v12.5
				c0,3.2-2.1,6.1-5.2,7l-12.5,3.5l-8.1,2C5.8,96-2.3,108.2-0.2,121.1L10,187.8"/>
			<path id="パス_3225_00000151543229269443409390000010205235092102234502_" class="st10" d="M70.6,75.5v7.3
				c0,1.7,1.1,3.2,2.8,3.6L90,90.9"/>
			<path id="パス_3226_00000025421996796516265840000005608306377769233045_" class="st10" d="M20.4,197.4c0,0,4.8,0.3,11.7-2.5
				l56.8-22.7"/>
			<path id="パス_3227_00000167389653213959221000000004225715532485175724_" class="st10" d="M118.6,173l-6.8-64.8
				c-0.6-7-5.4-12.9-12.2-14.8l-4.4-1.2"/>
			<path id="パス_3228_00000099628019408063937360000011934429616845573054_" class="st10" d="M70,44.2c-1,1.8-1.1,3.8-0.4,5.7
				l2.5,5.6l-3,2.1"/>
			<path id="パス_3229_00000161630503103630344080000016467901229813882266_" class="st10" d="M72.1,39.7c0,0,3.2-2.9,8.7-0.5"/>
			<circle id="楕円形_237_00000147178606210377227060000010648783292206004905_" cx="74.9" cy="45.1" r="1.8"/>
			<circle id="楕円形_238_00000034055004245697390870000005956316395669014668_" cx="57.9" cy="45.1" r="1.8"/>
			<path id="パス_3230_00000031166162869868202570000011046561046745497266_" class="st10" d="M70.3,64.3
				c-3.5,1.4-7.4,1.3-10.8-0.3"/>
			<path id="パス_3231_00000134252130050207513250000000381131987834213775_" class="st10" d="M39.9,60.8
				c7.4,16.7,25.2,15.5,25.2,15.5"/>
			<path id="パス_3232_00000124864808873887559470000003666134133629674680_" class="st0" d="M62.8,93.5L57,109
				c-15.5-8.8-20.1-21.3-20.1-21.3l4.6-8.8c0.6-0.9,1.6-1.4,2.7-1.4c0.1,1.4,0.1,2.7,0,4.1C44.2,81.7,50.5,89.1,62.8,93.5z"/>
			<path id="パス_3233_00000130625613598441513380000003143240375381864627_" class="st15" d="M65.5,92.1c5.9-4,6.2-12.1,6.2-12.1
				l4.3,7.4c0,0,1.7,8.4-3.9,19l-9.3-12.9"/>
			<path id="パス_3234_00000059997936084617336610000011157899318062733484_" class="st10" d="M62.8,93.5
				C44.2,85.7,43,79.1,43,79.1"/>
			<g id="グループ_1527_00000061443991261684865390000012229815756290958213_" transform="translate(108.403 94.891)">
				<path id="パス_1180_00000103952307096685875220000003820780226099325112_" class="st1" d="M-0.5,44.4V3.8
					C-0.5,1.7,1.2,0,3.3,0l0,0h20.2c2.1,0,3.8,1.7,3.8,3.8l0,0l0,0v47.7c0,2.1-1.7,3.8-3.8,3.8l0,0H3.3c-2.1,0-3.8-1.7-3.8-3.8l0,0
					V44.4z"/>
				<g id="グループ_1526_00000075153665849514951790000010120249688599895729_">
					<path id="パス_1180-2_00000129920511247618403070000003926630312951574965_" class="st16" d="M-0.5,44.4V3.8
						C-0.5,1.7,1.2,0,3.3,0l0,0h20.2c2.1,0,3.8,1.7,3.8,3.8l0,0l0,0v47.7c0,2.1-1.7,3.8-3.8,3.8l0,0H3.3c-2.1,0-3.8-1.7-3.8-3.8l0,0
						"/>
					<g id="グループ_1175_00000011752299462643312320000011481700312008528314_" transform="translate(2.625 2.855)">
						<circle id="楕円形_110_00000124866293768247458500000017812158536417952932_" class="st17" cx="1.4" cy="1.9" r="1.9"/>
						<circle id="楕円形_111_00000117648935826040021500000008567077116464368570_" class="st18" cx="1.4" cy="1.9" r="1.4"/>
						<path id="長方形_661_00000098194698952200446720000004307132500444571570_" class="st18" d="M5.2,0.3L5.2,0.3
							c0.4,0,0.7,0.3,0.7,0.6v1.9c0,0.4-0.3,0.7-0.6,0.7l0,0c-0.4,0-0.7-0.3-0.7-0.7V0.9C4.6,0.6,4.9,0.3,5.2,0.3z"/>
					</g>
				</g>
			</g>
			<g id="グループ_1528_00000183940762007171013060000004080678830601754789_" transform="translate(84.903 133.1)">
				<path id="パス_3235_00000039854495590389211310000012581329485624011710_" class="st1" d="M22.7,1.7l0.4,8.2L36.2,6l14.3-5.5
					c0,0,5.1-1.7,3.9,3.2c0,0,3.3-0.1,3.3,2.2c0,0,0.7,0.6-1.7,2.2L52.3,11l-2.4,5.1c0,0-2.2,3.1-3.3,3.1L43,24
					c-2.1,1.5-4.3,2.7-6.8,3.4l-10.9,3.7c0,0-12.4,3.5-20.8,3.4l-0.6,0.3c0,0-4.8-4.7-4.4-13.8l5.1-2c0,0,5.5-7,11.6-10.7L22.7,1.7z
					"/>
				<path id="パス_3236_00000130645387104792084620000006885455203340754829_" class="st10" d="M23.1,9.3v-8l-6.8,7
					C9.8,12.1,4.6,19,4.6,19l-5.1,1.8"/>
				<path id="パス_3237_00000115506827026048193840000008705641020079184556_" class="st10" d="M22.2,10.1l14-4.1l10.2-4.1
					l5.2-1.7c1.3-0.4,2.6,0.2,3.1,1.5l0,0c0.4,1.2-0.1,2.4-1.2,3L40,11.3l-8.7,4"/>
				<path id="パス_3238_00000135685507604672011150000014940386662160401312_" class="st10" d="M4.5,34.5l10.8-1.3
					c3.6-0.4,7.2-1.3,10.6-2.5l14.9-5.3c1-0.4,1.9-1,2.6-1.8l3.6-4.9"/>
				<path id="パス_3239_00000056400445509535170440000005321306401688829615_" class="st10" d="M33.5,20.2l16.8-8.1l6.5-4.5
					C57.7,7,58,5.9,57.5,4.9l0,0c-0.5-1.1-1.8-1.5-2.8-1h-0.1l-1.2,0.6"/>
				<path id="パス_3240_00000093154930096744849310000008649399969897843620_" class="st10" d="M35.8,23.8l10.7-5
					c1.6-0.6,3-1.8,3.8-3.3l1-1.8l1.3-3.2"/>
			</g>
			<path id="パス_3241_00000074415424106086176610000009161258465578869423_" class="st10" d="M62.8,93.5L57,109
				c-15.5-8.8-20.1-21.3-20.1-21.3l4.6-8.8c0.6-0.9,1.6-1.4,2.7-1.4"/>
			<path id="パス_3242_00000048484598396908962210000009317466462585721728_" class="st10" d="M28.8,169.3l55.5-16.6
				c0,0-0.3,5.5,2.9,13.4"/>
		</g>
		<path id="パス_3243_00000023269574491263665690000008962683557509681538_" class="st10" d="M283.6,56.7h98.5
			c16.8,0,30.3,13.6,30.3,30.3l0,0v244.4c0,16.6-13.5,30.1-30.1,30.1H354"/>
		<path id="パス_3244_00000039093356987792669660000005540932389729520293_" class="st10" d="M121.6,94.1V87
			c0-16.8,13.6-30.3,30.3-30.3l0,0h91.9"/>
		<path id="パス_3245_00000134946814533743016250000003399264778843437450_" class="st10" d="M111.7,334.1H69.8
			c-16.8,0-30.3-13.6-30.3-30.3v-24.1"/>
		<line id="線_529_00000091003719828661936920000000053122308276315051_" class="st10" x1="39.5" y1="254.3" x2="39.5" y2="200"/>
		<circle id="楕円形_239_00000109747613740774984910000002191576018276502157_" class="st19" cx="225.3" cy="200" r="47.8"/>
		<g id="グループ_1531_00000000945036299951765590000002425923877005979806_" transform="translate(204.95 157.803)">
			<path id="パス_1180-3_00000065064599987717954220000015420676998031241127_" class="st1" d="M41.9,67.8v-62
				c0-3.2-2.6-5.8-5.8-5.8l0,0H5.3C2.1,0-0.5,2.6-0.5,5.8l0,0l0,0v72.8c0,3.2,2.6,5.8,5.8,5.8l0,0h30.8c3.2,0,5.8-2.6,5.8-5.8l0,0
				L41.9,67.8z"/>
			<g id="グループ_1530_00000047045819459376976590000008887368484531343273_">
				<path id="パス_1180-4_00000050649551300901183600000013988325899820784827_" class="st16" d="M41.9,67.8v-62
					c0-3.2-2.6-5.8-5.8-5.8l0,0H5.3C2.1,0-0.5,2.6-0.5,5.8l0,0l0,0v72.8c0,3.2,2.6,5.8,5.8,5.8l0,0h30.8c3.2,0,5.8-2.6,5.8-5.8l0,0"
					/>
				<path id="パス_1181_00000061470795955232015010000004343187243527670681_" class="st10" d="M2.6,13.6v62.5h36.2V8.3H2.6"/>
				<line id="線_190_00000044168923859050388430000007098457771713926075_" class="st10" x1="24.5" y1="4.5" x2="16.9" y2="4.5"/>
			</g>
		</g>
		<path id="パス_3246_00000014606227756344562300000006114191177104591010_" class="st10" d="M280.5,418.2h-25.7
			c-16.6,0-30.1-13.5-30.1-30.1c0-0.1,0-0.1,0-0.2l0.6-145.7"/>
		<path id="パス_3247_00000024687790629193190350000009105555125017527681_" class="st10" d="M129.3,250.5v-23.3
			c0-16.5,13.4-29.9,29.9-29.9l0,0h45.2"/>
	</g>
	<line id="線_530_00000022557027844896064740000018034584354688195253_" class="st10" x1="44.7" y1="570.9" x2="44.7" y2="573.6"/>
	<g id="グループ_1521_00000068654258778863617050000006503557218081544890_" transform="translate(327.443 826.528)">
		<path id="パス_1180-5_00000155844850236579680880000010852004706435468965_" class="st1" d="M-0.5,44.1V3.8
			C-0.5,1.7,1.2,0,3.3,0h20c2.1,0,3.8,1.7,3.8,3.8l0,0v47.4c0,2.1-1.7,3.8-3.8,3.8h-20c-2.1,0-3.8-1.7-3.8-3.8l0,0
			C-0.5,51.2-0.5,44.1-0.5,44.1z"/>
		<g id="グループ_1520_00000053545799601594518710000010350552403768333492_" transform="translate(0 0)">
			<path id="パス_1180-6_00000066484706439623334750000003721611621191109294_" class="st16" d="M-0.5,44.1V3.8
				C-0.5,1.7,1.2,0,3.3,0h20c2.1,0,3.8,1.7,3.8,3.8l0,0v47.4c0,2.1-1.7,3.8-3.8,3.8h-20c-2.1,0-3.8-1.7-3.8-3.8l0,0"/>
			<g id="グループ_1175-2_00000125574864054833833930000013278175071539548083_" transform="translate(2.609 2.837)">
				<circle id="楕円形_110-2_00000145021103228509634530000006393430621916545977_" class="st18" cx="1.4" cy="1.9" r="1.9"/>
				<circle id="楕円形_111-2_00000070799518678157459200000000258567038960361907_" class="st18" cx="1.4" cy="1.9" r="1.4"/>
				<path id="長方形_661-2_00000176027063098141868930000018123196062241377710_" class="st18" d="M5.2,0.3L5.2,0.3
					c0.4,0,0.7,0.3,0.7,0.6v1.9c0,0.4-0.3,0.7-0.7,0.7l0,0c-0.3,0-0.6-0.3-0.6-0.7V0.9C4.6,0.6,4.9,0.3,5.2,0.3z"/>
			</g>
		</g>
	</g>
</g>
</svg>
