<svg id="レイヤー_2" data-name="レイヤー 2" xmlns="http://www.w3.org/2000/svg" viewBox="0 0 507.72 333.07"><defs><style>.cls-1{fill:#50bee6;}.cls-2,.cls-4{fill:#fff;}.cls-3,.cls-5,.cls-8,.cls-9{fill:none;}.cls-10,.cls-3,.cls-4,.cls-5,.cls-8,.cls-9{stroke:#000;stroke-linecap:round;}.cls-3{stroke-miterlimit:10;}.cls-10,.cls-4,.cls-5,.cls-8,.cls-9{stroke-linejoin:round;}.cls-6{fill:#231815;}.cls-10,.cls-7{fill:#d5f0f7;}.cls-8{stroke-width:0.5px;}.cls-9{stroke-width:0.5px;}</style></defs><g id="グループ_1454" data-name="グループ 1454"><path id="パス_2952" data-name="パス 2952" class="cls-1" d="M497,118.77A123.38,123.38,0,0,0,337.07,52.5c-1.3.51-2.23.92-3.1,1.35l-.34.17a122.92,122.92,0,0,0-34.81,23.1,128.18,128.18,0,0,0-9.47,10c-5,5.74-10.5,12.63-17.34,21.74l-1.48,2-2.09,2.82c-3.09,4.23-33.66,49-39,57-2.16,3.24-4.66,6.83-7.3,10.62l-2.11,3c-.76,1.1-1.62,2.31-2.48,3.52-5.41,7.72-11.89,16.46-18.21,24.59-2.54,3.27-5.37,6.71-8.63,10.53-2.46,2.85-5,5.55-7.16,7.6a87.73,87.73,0,0,1-83.48,20.9A78.93,78.93,0,0,1,89,247.58a88,88,0,0,1-49.67-54.76,90.58,90.58,0,0,1-3.94-26.11A87.48,87.48,0,0,1,74.11,93.88a88.82,88.82,0,0,1,49.13-15,87.34,87.34,0,0,1,60.28,24c2.28,2.16,5.12,5.3,7.11,7.55,2.34,2.72,4.91,5.86,7.66,9.32l27-23c-2.86-3.57-5.46-6.68-7.88-9.41-3.66-4.21-6.61-7.33-9.61-10.18A123.26,123.26,0,0,0,21,97.82,121.83,121.83,0,0,0,0,166.71a123,123,0,0,0,54.25,102.2,126.47,126.47,0,0,0,32.36,15.53,123.11,123.11,0,0,0,121.07-28l.18-.17a131,131,0,0,0,9.5-10.07c5-5.72,10.48-12.6,17.28-21.66.59-.8,1.24-1.67,1.91-2.54s1.13-1.48,1.67-2.22c1.9-2.65,19.52-28.44,32.39-47.27,8-11.75,14.72-21.54,16-23.4.57-.82,1.17-1.67,1.78-2.52l.7-1c6.1-8.6,12.57-17.34,18.22-24.6,2.56-3.3,5.39-6.75,8.63-10.54s5.9-6.41,7.15-7.6a89.7,89.7,0,0,1,27.27-17.58c2.58-1,5.08-1.87,7.43-2.64l.19,0a92.57,92.57,0,0,1,25.35-3.74,87.82,87.82,0,0,1,49.17,160.7,84.56,84.56,0,0,1-23.06,11,87.41,87.41,0,0,1-86.32-20c-2.25-2.14-5.1-5.28-7.1-7.54-2.25-2.58-4.8-5.67-7.67-9.3l-27,23c2.89,3.6,5.48,6.71,7.86,9.39a118.68,118.68,0,0,0,9.55,10.13A123.3,123.3,0,0,0,497,118.77Z"/><g id="グループ_1453" data-name="グループ 1453"><path id="パス_2953" data-name="パス 2953" class="cls-2" d="M99.63,95.62l.67,7.78a1.48,1.48,0,0,1-.19.85L92.8,117.19a1.48,1.48,0,0,0,.56,2,1.52,1.52,0,0,0,.72.19h5.68a29,29,0,0,0,15.59,23v13.39h32.12V137.65a15.68,15.68,0,0,1,1.9-7.58"/><path id="パス_2954" data-name="パス 2954" class="cls-3" d="M321.48,229.08c-1-1.07-2.07-2.2-3-3.26"/><g id="グループ_1436-2" data-name="グループ 1436-2"><path id="パス_2955" data-name="パス 2955" class="cls-3" d="M271,110.71c-.7,1-1.42,1.9-2.09,2.83-3.09,4.22-33.66,49-39,57-2.17,3.24-4.66,6.82-7.3,10.61l-2.11,3L218,187.67c-5.42,7.71-11.9,16.46-18.21,24.58-2.55,3.27-5.37,6.72-8.63,10.53-2.47,2.86-5,5.55-7.16,7.6a87.73,87.73,0,0,1-83.49,20.9,79.6,79.6,0,0,1-11.06-3.87A88.09,88.09,0,0,1,39.8,192.64a90.91,90.91,0,0,1-3.94-26.1A87.47,87.47,0,0,1,74.6,93.71a87.87,87.87,0,0,1,82.11-8.63A90.9,90.9,0,0,1,173.21,94c1.07.72,2.12,1.47,3.15,2.24s2.29,1.77,3.41,2.69q2.17,1.8,4.23,3.74c2.28,2.17,5.12,5.3,7.11,7.55q1.69,2,3.54,4.22"/><path id="パス_2956" data-name="パス 2956" class="cls-3" d="M321.52,272.82a123.12,123.12,0,0,0,164.59-37.4,121.72,121.72,0,0,0,15.52-32.21A123.3,123.3,0,0,0,337.56,52.33a33.62,33.62,0,0,0-3.1,1.36l-.34.16A123,123,0,0,0,299.31,77a128.31,128.31,0,0,0-9.48,10c-2.42,2.78-5,5.83-7.71,9.27"/><path id="パス_2957" data-name="パス 2957" class="cls-3" d="M291.1,247.57a109.71,109.71,0,0,0,8.17,8.53A126.73,126.73,0,0,0,312.59,267"/><path id="パス_2958" data-name="パス 2958" class="cls-3" d="M212.84,81.5c-1.57-1.67-3.05-3.16-4.55-4.58A123.26,123.26,0,0,0,21.52,97.65a121.89,121.89,0,0,0-21,68.9,123,123,0,0,0,54.25,102.2A126.71,126.71,0,0,0,87.1,284.27a123.12,123.12,0,0,0,121.08-28l.18-.17a131,131,0,0,0,9.5-10.07c5-5.72,10.47-12.6,17.27-21.66.59-.8,1.25-1.67,1.91-2.54s1.13-1.48,1.68-2.22c1.9-2.65,19.52-28.44,32.38-47.27,8-11.75,14.72-21.54,16-23.4l1.77-2.52.7-1c6.1-8.6,12.57-17.34,18.23-24.6,2.56-3.3,5.39-6.75,8.63-10.54a103.68,103.68,0,0,1,7.15-7.6,89.7,89.7,0,0,1,27.27-17.58c2.58-1,5.08-1.88,7.43-2.64l.18-.06a92.68,92.68,0,0,1,25.36-3.73A87.82,87.82,0,0,1,433,239.38a84.53,84.53,0,0,1-23.06,11,87.35,87.35,0,0,1-86.32-20"/><path id="パス_2959" data-name="パス 2959" class="cls-3" d="M221.46,91.22c-1.23-1.46-2.41-2.83-3.56-4.13"/></g><g id="グループ_1438" data-name="グループ 1438"><g id="グループ_1437" data-name="グループ 1437"><path id="パス_2960" data-name="パス 2960" d="M32,46.07a4.83,4.83,0,0,1-1.75,3.29l-3.49,3.13L17.37,42.11,20.86,39a4.88,4.88,0,0,1,3.45-1.39c2,.11,3.43,1.8,4.69,3.2S32.05,44.07,32,46.07Zm-7.7-7.43a4,4,0,0,0-2.95,1.2l-2.51,2.25,8.08,9,2.51-2.26A4,4,0,0,0,30.89,46c.07-1.59-1.64-3.38-2.68-4.53s-2.36-2.75-4-2.85Z"/><path id="パス_2961" data-name="パス 2961" d="M36.54,43.94,28.15,32.78l6.77-5.09.57.75L29.56,32.9l3.31,4.4,5.05-3.79.57.75-5.06,3.8,3.39,4.5,5.93-4.45.56.75Z"/><path id="パス_2962" data-name="パス 2962" d="M48.78,35.32,48,35.8,36.65,26.48l1-.6L47.4,34,44.21,21.67l.94-.6Z"/><path id="パス_2963" data-name="パス 2963" d="M54.57,31.86,47.75,19.68l.93-.52,6.81,12.18Z"/><path id="パス_2964" data-name="パス 2964" d="M63,27.62a4.91,4.91,0,0,1-3.76.21c-1.7-.6-2.26-1.7-3.62-4.55s-1.88-4-1.28-5.67a4.88,4.88,0,0,1,2.53-2.8,4.62,4.62,0,0,1,6,1.63l-1,.46a3.74,3.74,0,0,0-6.59.88c-.47,1.33-.07,2.34,1.22,5s1.84,3.65,3.17,4.12a3.76,3.76,0,0,0,4.84-4.6l.94-.45A4.66,4.66,0,0,1,63,27.62Z"/><path id="パス_2965" data-name="パス 2965" d="M70.32,24.18,65.4,11.11l7.93-3,.33.88-6.94,2.61,1.94,5.16,5.91-2.23.33.88L69,17.66l2,5.26,6.94-2.61.33.88Z"/><path id="パス_2966" data-name="パス 2966" d="M93.77,17,89,11.5l-3.73.9,1.51,6.26-1,.25L82.48,5.33l5.16-1.24c2.22-.54,4.2.33,4.77,2.7a3.59,3.59,0,0,1-2.24,4.41L95,16.68ZM87.73,5l-4,1,1.33,5.49,4-1c1.73-.42,2.78-1.6,2.33-3.46s-1.92-2.45-3.66-2Z"/><path id="パス_2967" data-name="パス 2967" d="M98,16.14,96,2.34l8.38-1.27.14.93L97.14,3.11,98,8.56l6.24-1,.14.94-6.24.94L99,15.06,106.28,14l.14.93Z"/><path id="パス_2968" data-name="パス 2968" d="M118.48,14,109.74,2.38l.7,12.12-1.06.06L108.58.62l1.06-.06,8.74,11.62L117.68.09,118.74,0l.8,13.94Z"/><path id="パス_2969" data-name="パス 2969" d="M127.57,1.09l-.38,13-1,0,.37-13L122.36.94l0-.94,9.39.27,0,.94Z"/><path id="パス_2970" data-name="パス 2970" d="M142,15.32l-.84-3.5-6.47-.7-1.58,3.24L132,14.24,138.63.91l.94.1,3.6,14.43Zm-3.1-13-3.78,7.85,5.81.63Z"/><path id="パス_2971" data-name="パス 2971" d="M145.31,15.84l2.62-13.71,1,.2-2.44,12.79,7.27,1.39-.17.92Z"/><path id="パス_2972" data-name="パス 2972" d="M164.06,20.48a5.88,5.88,0,0,1-3.88-3.15l.93-.49a4.88,4.88,0,0,0,3.29,2.76c2.1.66,3.74.07,4.29-1.67a2.53,2.53,0,0,0-.15-2.1,3.28,3.28,0,0,0-1.7-1.32l-1.47-.73a4.89,4.89,0,0,1-2.07-1.72A3.17,3.17,0,0,1,163,9.28c.7-2.23,2.74-3.15,5.28-2.35a5.55,5.55,0,0,1,3.39,2.64l-.86.45A4.56,4.56,0,0,0,168,7.77c-1.93-.6-3.43.1-4,1.78a2.25,2.25,0,0,0,.15,2A4.48,4.48,0,0,0,165.89,13l1.37.67a4.46,4.46,0,0,1,2.1,1.63,3.41,3.41,0,0,1,.35,3C169,20.45,166.83,21.35,164.06,20.48Z"/><path id="パス_2973" data-name="パス 2973" d="M171.42,22.84,176.7,9.91l7.84,3.2-.35.87-6.87-2.8-2.08,5.1,5.85,2.39-.36.87-5.85-2.39-2.13,5.22,6.87,2.8-.36.87Z"/><path id="パス_2974" data-name="パス 2974" d="M189.3,31.08l0-7.25-3.42-1.76-3,5.73-.94-.49,6.39-12.42,4.73,2.43c2,1,2.95,3,1.84,5.16a3.61,3.61,0,0,1-4.58,1.88l.05,7.28Zm3.23-13-3.66-1.88-2.58,5L190,23.12c1.59.82,3.15.61,4-1.1s.14-3.11-1.45-3.93Z"/><path id="パス_2975" data-name="パス 2975" d="M196.07,35.13l-.77-.48,3.5-14.28.95.59-3.08,12.35,9.73-8.2.95.59Z"/><path id="パス_2976" data-name="パス 2976" d="M201.73,38.87l8-11.42.86.61-8,11.42Z"/><path id="パス_2977" data-name="パス 2977" d="M209.17,44.6a4.94,4.94,0,0,1-1.83-3.3c-.2-1.79.57-2.77,2.54-5.23s2.77-3.42,4.56-3.61a4.89,4.89,0,0,1,3.62,1.07,4.63,4.63,0,0,1,1.15,6.15l-.85-.68a3.73,3.73,0,0,0-3.64-5.55c-1.4.15-2.14.94-4,3.28s-2.49,3.23-2.33,4.64a3.77,3.77,0,0,0,4.18,3.3,3.82,3.82,0,0,0,2.06-.93l.81.65A4.65,4.65,0,0,1,209.17,44.6Z"/><path id="パス_2978" data-name="パス 2978" d="M215.44,49.73l9.64-10.1,6.13,5.85-.65.68-5.37-5.11-3.8,4L226,49.39l-.65.68-4.57-4.36-3.88,4.08,5.36,5.11-.65.68Z"/></g></g><g id="グループ_1440" data-name="グループ 1440"><g id="グループ_1439" data-name="グループ 1439"><path id="パス_2979" data-name="パス 2979" d="M323.4,305.19l-2.59,5.13,5.65,2.84L326,314l-5.64-2.84-2.85,5.66-.94-.48,6.27-12.47,7.57,3.81-.42.84Z"/><path id="パス_2980" data-name="パス 2980" d="M335.13,323.21a5,5,0,0,1-6.5-2.57c-.72-1.65-.29-2.81.88-5.75s1.63-4.08,3.28-4.8a5,5,0,0,1,6.5,2.56c.72,1.66.28,2.82-.88,5.75S336.78,322.49,335.13,323.21Zm3.16-10.32a3.8,3.8,0,0,0-4.93-1.94c-1.3.56-1.77,1.54-2.87,4.33s-1.42,3.82-.86,5.12a3.79,3.79,0,0,0,4.93,2c1.3-.56,1.76-1.54,2.87-4.33s1.42-3.83.86-5.12Z"/><path id="パス_2981" data-name="パス 2981" d="M348.12,328.63l-1.43-7.1-3.7-1.06-1.78,6.18-1-.29,3.86-13.42,5.11,1.46c2.18.63,3.48,2.37,2.81,4.71a3.61,3.61,0,0,1-4.13,2.73L349.3,329Zm.65-13.37-4-1.13-1.56,5.43,4,1.14c1.72.49,3.21,0,3.74-1.87s-.47-3.07-2.18-3.56Z"/><path id="パス_2982" data-name="パス 2982" d="M363.86,331.69l-5.24-.76,2-13.82,5.08.74c2.29.33,3.81,1.9,3.47,4.19a3.18,3.18,0,0,1-2.6,2.79,3.43,3.43,0,0,1,1.88,3.69C368.11,331,366.31,332.05,363.86,331.69Zm.85-6.61-4.08-.6-.82,5.67,4.07.59c1.88.28,3.28-.61,3.54-2.38s-.83-3-2.71-3.28Zm.76-6.31-3.92-.58-.78,5.36,3.92.57c1.67.25,3.18-.33,3.46-2.23s-1-2.88-2.68-3.13Z"/><path id="パス_2983" data-name="パス 2983" d="M377.08,333a4.54,4.54,0,0,1-4.58-4.48c0-.13,0-.26,0-.39l.44-9.43,1.05.05-.42,9.29a3.73,3.73,0,1,0,7.43.56,1.48,1.48,0,0,0,0-.21l.43-9.29,1.06,0-.43,9.43a4.54,4.54,0,0,1-4.61,4.45Z"/><path id="パス_2984" data-name="パス 2984" d="M390.25,333a5.88,5.88,0,0,1-4.73-1.63l.71-.78a4.88,4.88,0,0,0,4,1.47c2.2-.1,3.54-1.22,3.46-3a2.53,2.53,0,0,0-.85-1.93,3.39,3.39,0,0,0-2.06-.65l-1.63-.18a4.83,4.83,0,0,1-2.54-.91,3.16,3.16,0,0,1-1.21-2.52c-.11-2.33,1.49-3.9,4.15-4a5.54,5.54,0,0,1,4.09,1.32l-.65.72a4.56,4.56,0,0,0-3.45-1.14c-2,.09-3.19,1.26-3.1,3a2.2,2.2,0,0,0,.8,1.79,4.61,4.61,0,0,0,2.12.77l1.52.16a4.5,4.5,0,0,1,2.53.81,3.44,3.44,0,0,1,1.34,2.65C394.88,331.32,393.15,332.91,390.25,333Z"/><path id="パス_2985" data-name="パス 2985" d="M398.74,332.3l-1.5-13.88,1.06-.12,1.5,13.88Z"/><path id="パス_2986" data-name="パス 2986" d="M413.67,330l-10.12-10.48,2.19,11.94-1,.19-2.52-13.73,1-.19,10.11,10.44-2.18-11.9,1-.19,2.52,13.73Z"/><path id="パス_2987" data-name="パス 2987" d="M419.7,328.57l-3.85-13.43L424,312.8l.26.91-7.12,2,1.52,5.3,6.07-1.74.26.9L418.91,322l1.55,5.42,7.13-2.05.26.91Z"/><path id="パス_2988" data-name="パス 2988" d="M434.93,323.77a5.91,5.91,0,0,1-5-.06l.43-1a4.9,4.9,0,0,0,4.29.12c2.05-.79,3-2.27,2.32-4a2.53,2.53,0,0,0-1.42-1.55,3.37,3.37,0,0,0-2.15,0l-1.61.35a4.92,4.92,0,0,1-2.69-.06,3.15,3.15,0,0,1-2-2c-.84-2.18.19-4.17,2.68-5.13a5.51,5.51,0,0,1,4.29,0l-.4.89a4.54,4.54,0,0,0-3.63,0c-1.89.72-2.62,2.2-2,3.85a2.24,2.24,0,0,0,1.33,1.44,4.51,4.51,0,0,0,2.25.06l1.5-.32a4.44,4.44,0,0,1,2.65,0,3.43,3.43,0,0,1,2.1,2.09C438.79,320.67,437.64,322.73,434.93,323.77Z"/><path id="パス_2989" data-name="パス 2989" d="M446.15,318.91a5.9,5.9,0,0,1-5,.37l.34-1a4.9,4.9,0,0,0,4.29-.25c2-1,2.76-2.52,2-4.17a2.49,2.49,0,0,0-1.54-1.42,3.35,3.35,0,0,0-2.14.21l-1.58.48a4.92,4.92,0,0,1-2.69.18,3.2,3.2,0,0,1-2.11-1.83c-1-2.1-.17-4.17,2.23-5.34a5.48,5.48,0,0,1,4.27-.4l-.31.92a4.49,4.49,0,0,0-3.62.32c-1.82.88-2.43,2.42-1.65,4a2.24,2.24,0,0,0,1.45,1.32,4.52,4.52,0,0,0,2.25-.13l1.46-.45a4.34,4.34,0,0,1,2.64-.26,3.4,3.4,0,0,1,2.28,1.9C449.72,315.49,448.76,317.64,446.15,318.91Z"/></g></g><g id="グループ_1444" data-name="グループ 1444"><g id="グループ_1441" data-name="グループ 1441"><rect id="長方形_736" data-name="長方形 736" class="cls-4" x="229.51" y="111.34" width="74.48" height="100.64" rx="5.84"/><path id="パス_1181" data-name="パス 1181" class="cls-5" d="M300.43,126.22v76.1H233.07v-82h67.36"/><circle id="楕円形_206" data-name="楕円形 206" class="cls-6" cx="266.75" cy="115.97" r="1.02"/></g><g id="グループ_1443" data-name="グループ 1443"><path id="パス_1180" data-name="パス 1180" class="cls-2" d="M203.09,208.76V152.43a5.31,5.31,0,0,1,5.31-5.31h28a5.31,5.31,0,0,1,5.31,5.31h0v66.19a5.31,5.31,0,0,1-5.31,5.31h-28a5.31,5.31,0,0,1-5.31-5.31h0Z"/><g id="グループ_1442" data-name="グループ 1442"><path id="パス_1180-2" data-name="パス 1180-2" class="cls-4" d="M203.09,208.76V152.43a5.31,5.31,0,0,1,5.31-5.31h28a5.31,5.31,0,0,1,5.31,5.31h0v66.19a5.31,5.31,0,0,1-5.31,5.31h-28a5.31,5.31,0,0,1-5.31-5.31h0"/><path id="パス_1181-2" data-name="パス 1181-2" class="cls-5" d="M238.85,159.52v56.8H205.91V154.74h32.94"/><line id="線_190" data-name="線 190" class="cls-5" x1="218.9" y1="151.25" x2="225.86" y2="151.25"/></g></g></g><g id="グループ_1448" data-name="グループ 1448"><g id="グループ_1445" data-name="グループ 1445"><path id="パス_1180-2-2" data-name="パス 1180-2-2" class="cls-2" d="M91.87,248l-1.4-21.31-.23-2c-8.14,3.65-14.2,3-18.32,1.3a14.61,14.61,0,0,1-8.79-12l-.06-.55a21.88,21.88,0,0,1,3-12.72l24-41.63,2.8-4.66,1.37,1,.86.21,2.6-4.49L101,153s1.87-1.56,1.56-6.84l.11-3.34-4.39-4.38a3.78,3.78,0,0,1,0-5.34h0l2.52-2.25-.38-.93a37,37,0,0,1-1.59-6.3l-.32-3.11a7.08,7.08,0,0,1-4.41-1.82,1.38,1.38,0,0,1-.4-1.75l5.12-9a16.84,16.84,0,0,0,.93-11.19l-.43-1.87L98,95a33.08,33.08,0,0,1-4.45.12l-2.53-.32c2.41-1.24,5-6.21,5-6.21,3.58-9,13.06-16.17,13.06-16.17,15.23-11.81,33.57-5.75,33.57-5.75,14.62,5.91,16.87,17.18,16.87,17.18l.85,2.56s8.09,9,2.8,27.05c0,0-4,11.5-13.05,16.78a11.64,11.64,0,0,0-2.92,5.91,14.66,14.66,0,0,0-.23,3.5v.08c.74.1,1.36.34,2.1.5l-.35,7.81-.25,3.06c5.54,2.63,10.67,7.56,13.31,16.53a38.4,38.4,0,0,1,.93,9.56l.93,67C126.85,263.15,91.87,248,91.87,248Z"/></g><path id="パス_3039" data-name="パス 3039" class="cls-7" d="M161.82,167.63s-5.17-23.86-35-18.42c0,0-2.21,7.58-10.14,9.33-1.36.3-.19,1.73-1.52,2.56l2.6,1.7-2.37,5.07L92.79,154.4,66,200.7a14.16,14.16,0,0,0-3,7.83c-.21,8.57,2.07,25.13,27.25,16.11l1.62,23s35,15.76,71.85-3.76l-.73-69.3Z"/><g id="グループ_1447" data-name="グループ 1447"><path id="パス_2990" data-name="パス 2990" class="cls-5" d="M99.8,96.68a16.91,16.91,0,0,1-.93,11.19l-5.13,9a1.4,1.4,0,0,0,.4,1.75,7,7,0,0,0,4.42,1.81l.31,3.11"/><path id="パス_2991" data-name="パス 2991" class="cls-5" d="M116.28,87a32.08,32.08,0,0,1-22.7,8.08"/><path id="パス_2992" data-name="パス 2992" class="cls-5" d="M117.52,92.63s-.39,10.3,5.83,15"/><path id="パス_2993" data-name="パス 2993" class="cls-5" d="M160,85.73s-1.21-14-17.34-19c0,0-18.34-6.07-33.57,5.75,0,0-9.48,7.15-13.06,16.16"/><path id="パス_2994" data-name="パス 2994" class="cls-5" d="M160.42,86.42s8.08,9,2.8,27c0,0-4,11.5-13.05,16.79"/><path id="パス_2995" data-name="パス 2995" class="cls-5" d="M108.38,163.69,92.79,154.4,90,159.06,66,200.69a21.9,21.9,0,0,0-3,12.73l.06.56A14.94,14.94,0,0,0,73,226.57c4,1.34,9.49,1.57,16.77-1.7l39.87-23.78"/><path id="パス_2996" data-name="パス 2996" class="cls-5" d="M112.39,165.88l3,2L98.67,202.78"/><path id="パス_2997" data-name="パス 2997" class="cls-5" d="M147.25,136.16a14.13,14.13,0,0,0-.23,3.5"/><path id="パス_2998" data-name="パス 2998" class="cls-5" d="M138.91,131.26s5.07,4.66,14.17,5.24"/><path id="パス_2999" data-name="パス 2999" class="cls-5" d="M131.74,140.7s8.86-2.33,17.37-.46l-.35,7.81"/><path id="パス_3000" data-name="パス 3000" class="cls-5" d="M126.85,149.21s27.51-7,35,18.42"/><line id="線_498" data-name="線 498" class="cls-5" x1="163.72" y1="244.76" x2="162.99" y2="174.61"/><line id="線_499" data-name="線 499" class="cls-5" x1="90.48" y1="226.64" x2="91.87" y2="248.46"/><g id="グループ_1177" data-name="グループ 1177"><g id="グループ_1176" data-name="グループ 1176"><path id="パス_1180-2-3" data-name="パス 1180-2-3" class="cls-5" d="M103.28,128.09l28.3-28.3a3.78,3.78,0,0,1,5.34,0h0l14,14a3.78,3.78,0,0,1,0,5.34h0l-33.25,33.25a3.77,3.77,0,0,1-5.34,0h0l-14-14a3.77,3.77,0,0,1,0-5.34h0"/><g id="グループ_1175" data-name="グループ 1175"><circle id="楕円形_110" data-name="楕円形 110" class="cls-8" cx="134.4" cy="104.13" r="1.86"/><circle id="楕円形_111" data-name="楕円形 111" class="cls-8" cx="134.4" cy="104.13" r="1.39"/><rect id="長方形_661" data-name="長方形 661" class="cls-9" x="135.47" y="106.12" width="3.09" height="1.25" rx="0.59" transform="translate(-35.35 128.15) rotate(-45)"/></g></g></g><ellipse id="楕円形_207" data-name="楕円形 207" class="cls-6" cx="106.33" cy="106.47" rx="1.25" ry="1.47"/><path id="パス_3001" data-name="パス 3001" class="cls-5" d="M105.55,99.78s5.29-1.24,9.87,4.67"/><path id="パス_3002" data-name="パス 3002" class="cls-2" d="M125.33,142.92l2-7.23,5.25-14.81c1.17-4.08-1.4-4.08-1.4-4.08-1.63-.35-2.8,1.52-2.8,1.52l-6.76,11.19,4.55-15.15c.46-3.27-2.45-3.15-2.45-3.15-2.33,0-3.62,4-3.62,4l-5.36,12.59-.35-3.61c-.23-4.78-2.91-5.83-2.91-5.83-4.08,0-3.5,4.55-3.5,4.55l.21.76a2.41,2.41,0,0,0-2.66-1.58c-3.26.7-2.92,5.4-2.92,5.4V146.1c.32,5.29-1.55,6.84-1.55,6.84l14.14,8.16,1.52-2.56c2.83-.69,7.52-3.73,8.65-5.75a14,14,0,0,0,1.16-2.87,35,35,0,0,1,3.36-6.77l4.55-6c.58-1.51-1.4-1.51-1.4-1.51-4-.24-6.64,3.26-6.64,3.26"/><g id="グループ_1446" data-name="グループ 1446"><path id="パス_3003" data-name="パス 3003" class="cls-5" d="M101.05,152.94s1.86-1.55,1.55-6.84V127.45s-.35-4.7,2.92-5.4c0,0,2.8-.7,3.26,4"/><path id="パス_3004" data-name="パス 3004" class="cls-5" d="M108,122.86s-.58-4.25,3-4.59c0,0,2.92-.35,3.38,5.88l.35,3.62,5.37-12.59s1.28-4,3.61-4c0,0,2.91-.11,2.45,3.15l-4.55,15.15,6.76-11.19s1.17-1.86,2.8-1.51c0,0,2.57,0,1.4,4.08l-5.24,14.8-2,7.23"/><path id="パス_3005" data-name="パス 3005" class="cls-5" d="M126.56,138.31a8.53,8.53,0,0,1,6.47-2.62s2,0,1.4,1.52l-4.55,5.94a34.29,34.29,0,0,0-3.37,6.78,14.26,14.26,0,0,1-1.16,2.87c-1.13,2-5.82,5-8.64,5.74l-1.52,2.56"/></g><path id="パス_3006" data-name="パス 3006" class="cls-5" d="M95,155.57l2.6-4.49,19.2,11.42"/></g></g><g id="グループ_1452" data-name="グループ 1452"><path id="パス_3007" data-name="パス 3007" class="cls-2" d="M426.05,243.15l3.34-2,15.68,11.79c20.23-1.22,14.35-18.9,14.35-18.9l-22-70.87A17.23,17.23,0,0,0,426.3,152l-22.21-7.19h-38L343.89,152a17.23,17.23,0,0,0-11.12,11.12L311,232.23c-1.94,23.47,20,16.38,20,16.38l8.14-7.07S378.17,268.16,426.05,243.15Z"/><path id="パス_3008" data-name="パス 3008" class="cls-2" d="M416.35,138.69c10.6-5.3,6.14-17.85,6.14-17.85l-3.67-9.26a133.32,133.32,0,0,1-6-20.43C410.21,79,398.22,69.1,385.52,69.1h-.24c-12.7,0-24.69,9.89-27.29,22.05a133.32,133.32,0,0,1-6,20.43l-3.66,9.26s-4.47,12.55,6.13,17.85"/><rect id="長方形_737" data-name="長方形 737" class="cls-4" x="372.14" y="121.27" width="26.35" height="36.54"/><path id="パス_3009" data-name="パス 3009" class="cls-4" d="M362.29,108.72,364.43,121a23.59,23.59,0,0,0,11,16.1l5.35,3.24s3.67,2.23,9.09,0l5.34-3.24a23.53,23.53,0,0,0,11-16.1L408,110.5"/><path id="パス_3010" data-name="パス 3010" class="cls-5" d="M416.35,138.69c10.6-5.3,6.14-17.85,6.14-17.85l-3.67-9.26a133.32,133.32,0,0,1-6-20.43C410.21,79,398.22,69.1,385.52,69.1h-.24c-12.7,0-24.69,9.89-27.29,22.05a133.32,133.32,0,0,1-6,20.43l-3.66,9.26s-4.47,12.55,6.13,17.85"/><path id="パス_3011" data-name="パス 3011" class="cls-3" d="M410,107.67q-4.43-1.45-8.69-3.33a15.94,15.94,0,0,1-8.91-13.2"/><path id="パス_3012" data-name="パス 3012" class="cls-3" d="M397.66,104.32A14.34,14.34,0,0,1,381.47,92.1c-.05-.32-.08-.64-.1-1"/><path id="パス_3013" data-name="パス 3013" class="cls-3" d="M386.81,104.23a15.6,15.6,0,0,1-8.68-1.22,14.32,14.32,0,0,1-8-11.87"/><path id="パス_3014" data-name="パス 3014" class="cls-3" d="M361.63,109.34a27.75,27.75,0,0,0,8.49-18"/><path id="パス_3015" data-name="パス 3015" class="cls-5" d="M364.36,121.17a12.26,12.26,0,0,1-5-6.74"/><path id="パス_3016" data-name="パス 3016" class="cls-5" d="M406.18,121.17a12.17,12.17,0,0,0,5-6.74"/><path id="パス_3017" data-name="パス 3017" class="cls-5" d="M380.35,109.08a6.59,6.59,0,0,1,2.48,5.44l-.57,8a2.09,2.09,0,0,0,1.94,2.23h2.26"/><path id="パス_3018" data-name="パス 3018" class="cls-5" d="M391.16,130.14a13.48,13.48,0,0,1-11.76.18"/><circle id="楕円形_208" data-name="楕円形 208" cx="373.37" cy="113.53" r="1.67"/><path id="パス_3041" data-name="パス 3041" class="cls-7" d="M357.72,224.28l-18.26,17.55a88.44,88.44,0,0,0,40.8,11.93s25.91,2.15,49.13-12.65l-13-13s-2.23-1.21-.3-5.31l-5.54-1V240s.37,1.64-4.38,2.64h-45s-3.3.1-3.3-4.47Z"/><path id="パス_3040" data-name="パス 3040" class="cls-7" d="M357.72,224,331,248.61c-9.61,4-15.59-2-15.59-2-9-7.66-2.41-20.83-2.41-20.83l19.74-62.68s3.37-8.69,9.4-10.46l24.06-7.7,5.72-4,13.1,16.87,13.39-16.87,6.22,4.09,20.82,6.73s9.53,1.16,13.2,15.48l12.26,39.49,8.47,27.3s3.46,9.59-5.16,15.85c0,0-9.34,10.55-24.87-8.75l-14-13.8s4,1.42,8.57-6a13.75,13.75,0,0,0,3.19-9.42,2.35,2.35,0,0,0-3.32.38,1.92,1.92,0,0,0-.29.45l-3.1-1.92c-3.59-4.65-8.25-14.93-9.79-16.88v-19.4a4,4,0,0,0-4-4h0l-45,.5a3.8,3.8,0,0,0-3.8,3.8h0v16.5a19.81,19.81,0,0,0-5.16,6.58s-2.47,4.15-4.39,5.23l9.55,11.66Z"/><path id="パス_3019" data-name="パス 3019" class="cls-5" d="M368.4,107.86A10.53,10.53,0,0,1,373,107a10.87,10.87,0,0,1,4.47.8"/><circle id="楕円形_209" data-name="楕円形 209" cx="395.61" cy="113.53" r="1.67"/><path id="パス_3020" data-name="パス 3020" class="cls-5" d="M391.06,107.86a10.53,10.53,0,0,1,4.63-.88,10.91,10.91,0,0,1,4.48.8"/><path id="パス_3021" data-name="パス 3021" class="cls-4" d="M372,140.92l12.83,16.88-7.45,7.25a2.89,2.89,0,0,1-4.1-.06,3,3,0,0,1-.67-1.08l-6.47-19.08Z"/><path id="パス_3022" data-name="パス 3022" class="cls-4" d="M398.45,140.92,385.62,157.8l7.44,7.25a2.89,2.89,0,0,0,4.1-.06,3,3,0,0,0,.67-1.08l6.47-19.08Z"/><path id="パス_3023" data-name="パス 3023" class="cls-5" d="M352.64,149.18,343.89,152a17.27,17.27,0,0,0-11.12,11.13L311,232.23"/><line id="線_500" data-name="線 500" class="cls-5" x1="366.09" y1="144.83" x2="357.77" y2="147.52"/><path id="パス_3024" data-name="パス 3024" class="cls-5" d="M404.09,144.83,426.3,152a17.31,17.31,0,0,1,11.12,11.13l22,70.87"/><g id="グループ_1449" data-name="グループ 1449"><path id="パス_3025" data-name="パス 3025" class="cls-4" d="M356.41,222.77l-12.23-15.24.65-.53a37.46,37.46,0,0,0,9.65-12.3c.62-1.2,3.32-3.15,4.44-4v31.18Z"/><path id="パス_3026" data-name="パス 3026" class="cls-10" d="M310.74,234.08a13.92,13.92,0,0,0,2.93,10.73h0A14,14,0,0,0,333.29,247h0l28.78-27-14.52-17.72-29.39,21"/></g><g id="グループ_1450" data-name="グループ 1450"><rect id="長方形_738" data-name="長方形 738" class="cls-4" x="357.82" y="171.05" width="52.78" height="71.31" rx="3.39"/><circle id="楕円形_210" data-name="楕円形 210" cx="361.08" cy="174.38" r="1.36"/></g><g id="グループ_1451" data-name="グループ 1451"><path id="パス_3027" data-name="パス 3027" class="cls-2" d="M420.46,210.81s-5-6.8-6.35-10.56c0,0-1.49-7.46-8.85-9.16l-6.1-1.82a1.28,1.28,0,0,0-1.5,1,1.27,1.27,0,0,0,.13.83l1.81,2.14h0l-2.35-.68a1.83,1.83,0,0,0-2.31.85c-.35.76-.16,1.76,2,2.76l3.82,2.56,1.44,1.6.86,2.36-4.11-2.8c-3.3-3.2-4.07-1.8-4.07-1.8-2.45,2.08,2.36,6,2.36,6-1.76,1.93,2.76,7.35,2.76,7.35,1.32,1.48,2.22,2.42,2.84,3a7.23,7.23,0,0,1,1.68,2.31c2.26,5.33,11.61,5.72,11.61,5.72l3.62,3.67c4.38-3.52,7.2-11.35,7.2-11.35Z"/><path id="パス_3028" data-name="パス 3028" class="cls-5" d="M460.21,239.47a13.82,13.82,0,0,1-2.45,6.88h0a14,14,0,0,1-19.42,3.5l-20.76-20.28"/><line id="線_501" data-name="線 501" class="cls-5" x1="429.39" y1="212.73" x2="454.26" y2="226.93"/><path id="パス_3029" data-name="パス 3029" class="cls-4" d="M423.33,212.51c1.33-1,2.5-1.35,3.2-.89,1.48,1,.35,5.33-2.54,9.7s-6.44,7.13-7.93,6.14c-.67-.44-.8-1.58-.48-3.1"/><path id="パス_3030" data-name="パス 3030" class="cls-5" d="M435.12,216.24c1.71,1.13.4,6.13-2.93,11.17a25.24,25.24,0,0,1-5,5.74"/><path id="パス_3031" data-name="パス 3031" class="cls-5" d="M426.87,214.91,422,211.84a10.13,10.13,0,0,1-2.58-2.56c-1.56-2.23-4.32-6.38-5.25-9,0,0-1.5-7.46-8.86-9.16l-6.1-1.82a1.28,1.28,0,0,0-1.5,1,1.27,1.27,0,0,0,.13.83,4.26,4.26,0,0,0,3,2.5"/><path id="パス_3032" data-name="パス 3032" class="cls-5" d="M405.59,209.82l-7.13-5.56c-.85-.54-1.25-.18-1.25-.18-1.77,1.94,2.75,7.35,2.75,7.35,1.32,1.48,2.23,2.42,2.84,3a7.11,7.11,0,0,1,1.69,2.31c2.25,5.33,11.6,5.72,11.6,5.72l3.62,3.67"/><path id="パス_3033" data-name="パス 3033" class="cls-5" d="M397.21,204.09s-4.82-3.88-2.36-6c0,0,1.07-1.06,4,1.7l.19.16,8.94,6.1"/><path id="パス_3034" data-name="パス 3034" class="cls-5" d="M409.62,200.85l-1.79-2.65a4.6,4.6,0,0,0-1.32-1.28l-4.33-2.73a4.25,4.25,0,0,0-1-.47l-3.88-1.12a1.84,1.84,0,0,0-2.31.85c-.35.76-.17,1.76,1.95,2.76l3.37,2.26a4.6,4.6,0,0,1,.82.7l5.09,5.65"/></g><path id="パス_3035" data-name="パス 3035" class="cls-5" d="M360.1,112.16c-2.06,3.9-7.22,15.33-1.74,23.33a10.3,10.3,0,0,0,2.45,2.48,8.49,8.49,0,0,0,3.12,1.56"/><path id="パス_3036" data-name="パス 3036" class="cls-5" d="M364.57,129.64s-1.68,7.53,7.25,10"/><path id="パス_3037" data-name="パス 3037" class="cls-5" d="M410.14,112.16c2.06,3.9,7.22,15.33,1.74,23.33a10.45,10.45,0,0,1-2.44,2.48,8.61,8.61,0,0,1-3.13,1.56s6.28,1.17,9.33-2.75"/><path id="パス_3038" data-name="パス 3038" class="cls-5" d="M405.68,129.64s1.67,7.53-7.26,10"/><line id="線_502" data-name="線 502" class="cls-5" x1="354.22" y1="227.39" x2="343.33" y2="214.32"/></g></g></g></svg>