<?xml version="1.0" encoding="utf-8"?>
<!-- Generator: Adobe Illustrator 25.4.1, SVG Export Plug-In . SVG Version: 6.00 Build 0)  -->
<svg version="1.1" id="レイヤー_2_00000108289677274885431890000002038697051293265793_"
	 xmlns="http://www.w3.org/2000/svg" xmlns:xlink="http://www.w3.org/1999/xlink" x="0px" y="0px" viewBox="0 0 442.9 451.5"
	 style="enable-background:new 0 0 442.9 451.5;" xml:space="preserve">
<style type="text/css">
	.st0{fill:#50BEE6;}
	.st1{fill:#FFFFFF;}
	.st2{fill:none;stroke:#000000;stroke-linecap:round;stroke-linejoin:round;}
	.st3{fill:#FFFFFF;stroke:#000000;stroke-linecap:round;stroke-linejoin:round;}
	.st4{fill:#D5F0F7;}
	.st5{fill:#50BEE6;stroke:#000000;stroke-linecap:round;stroke-linejoin:round;}
	.st6{fill:#231815;}
	.st7{enable-background:new    ;}
</style>
<g id="グループ_1501">
	<g id="グループ_1501-2">
		<path id="パス_3111" class="st0" d="M227.3,116.3c-67.2,0-121.7,54.6-121.7,122s54.5,122,121.7,122S349,305.6,349,238.3
			S294.5,116.3,227.3,116.3z M227.4,306c-37.4,0-67.8-30.3-67.8-67.7c0,0,0,0,0,0l0,0v-0.1c0-37.4,30.4-67.7,67.8-67.7
			c37.4,0,67.7,30.4,67.7,67.8C295,275.7,264.7,306,227.4,306z"/>
	</g>
	<g id="グループ_1514">
		<g id="グループ_1504">
			<g id="グループ_1503">
				<path id="パス_1180" class="st1" d="M177.1,75.2L152,50.7c-1.3-1.3-1.3-3.4,0-4.7l0,0l12.2-12.5c1.3-1.3,3.4-1.3,4.7,0l0,0
					l29.5,28.8c1.3,1.3,1.3,3.4,0.1,4.7l0,0l-12.2,12.4c-1.3,1.3-3.4,1.3-4.7,0.1l0,0L177.1,75.2z"/>
				<g id="グループ_1502">
					<path id="パス_1180-2" class="st2" d="M177.1,75.2L152,50.7c-1.3-1.3-1.3-3.4,0-4.7l0,0l12.2-12.5c1.3-1.3,3.4-1.3,4.7,0l0,0
						l29.5,28.8c1.3,1.3,1.3,3.4,0.1,4.7l0,0l-12.2,12.4c-1.3,1.3-3.4,1.3-4.7,0.1l0,0"/>
					<path id="パス_1181" class="st2" d="M170.7,37.8L196,62.5l-14.3,14.7l-27.4-26.8l14.3-14.7"/>
					<line id="線_190" class="st2" x1="158.4" y1="43.1" x2="161.4" y2="40"/>
				</g>
			</g>
			<path id="パス_3112" class="st2" d="M187,76.3c-4.9-2.8-15.3-4.2-15.3-4.2l-1.7-1.7l-3.8-6.1c-0.4-0.6-0.8-1.1-1.3-1.6
				c-4.4-4.1-4.3-1.4-4.3-1.4l2.9,9.4c0.3,1,0.9,1.9,1.6,2.6l7.6,7.4c0.6,0.7,1.4,1.3,2.3,1.6l8.1,3.3c1.6,0.6,3.3,1.1,5,1.2
				c3.4,0.4,9.6,1.4,11.8,4"/>
			<path id="パス_3113" class="st2" d="M208.4,78.7c-1.4-3.8-6.8-6.3-8.3-8.2c-0.8-0.9-1.3-2-1.6-3.2"/>
			<path id="パス_3114" class="st3" d="M195.4,59.3c0,0,2.7-3,0.9-4.5s-3.8,1.6-3.8,1.6"/>
			<path id="パス_3115" class="st3" d="M180,44c1-1.1,2.6-1.5,3.6-0.6c1,1.1,0.9,2.9-0.1,3.9"/>
			<path id="長方形_761" class="st3" d="M188.2,52.3l0.8-0.9c0.9-0.9,2.4-0.9,3.3,0l0,0c0.9,0.9,0.9,2.4,0,3.2l-0.8,0.8l0,0
				L188.2,52.3L188.2,52.3z"/>
			<path id="長方形_762" class="st3" d="M184.1,48.3l0.8-0.8c0.9-0.9,2.3-0.9,3.2,0c0,0,0,0,0,0l0,0c0.9,0.9,0.9,2.3,0,3.2
				c0,0,0,0,0,0l-0.8,0.8l0,0L184.1,48.3L184.1,48.3z"/>
			<path id="パス_3116" class="st3" d="M208.4,78.7l2.1,2.1l-10.8,9.9c-2.2-2.6-8.4-3.7-11.8-4c-1.7-0.2-3.4-0.6-5-1.2l-8.1-3.3
				c-0.9-0.3-1.7-0.9-2.3-1.6l-7.6-7.4c-0.7-0.7-1.3-1.6-1.6-2.6l-2.9-9.4c0,0-0.1-2.6,4.3,1.4c0.5,0.5,1,1,1.3,1.6l3.7,6.1l1.7,1.7
				c0,0,10.5,1.4,15.4,4.2l1.3,0.8l4.6-4.8l5.4-5.5C198.4,66.9,205.1,69.9,208.4,78.7z"/>
		</g>
		<path id="パス_3117" class="st1" d="M187,241.8c5.6-0.6,11.2-1.7,16.5-3.5l-5.8-90.3l46,6.3c0,0,24.6,5.5,28.4-14.7
			c0,0,2-11.6-13.3-23.8l-44.5-38.5l-3.2,3.7l-10.8,9.9l-4.3,3.7l23.1,23.7l-2.2,0.5c-13.5-8.8-28.1-15.7-43.4-20.6l-5.5-1.2l-5-4.3
			V80.7l0.7,0.1c1,0.2,2,0.2,2.9,0c4.1-1.8,7.6-4.8,10.2-8.5c3.7-5.3,5.8-13.5,5.6-21.5v-8l1.2-5l0.4-3.4c0.2-2.3-0.1-4.7-0.8-7
			c0,0,0.9,0.6,6.2-0.9c1.2-3,2.2-6.2,3-9.3c0,0-9.6-2-22.5-11.7c0,0-17.1-11.4-38.5,0c-10.2,6.8-16.5,18.1-17,30.3
			c0,0-2.9,15.7,17.9,33.6l-0.7,14.6c0,0-1.7,5.8-2.6,8.8l-25,15.3c0,0-19.4,9.9-21.7,23.3c0,0-2.6,2.1-2,33l1.7,96
			C82,260.4,111.4,265.3,187,241.8z"/>
		<path id="パス_3178" class="st4" d="M203.5,238.3l-5.8-90.3l46,6.3c0,0,19.8,3.6,27.2-8.9c0,0,6-12.3-9.5-27.4l-47.2-40.1
			l-18.6,16.7l25.9,26.1l-4.8-2.4c-14.8-10.8-37.3-18.1-37.3-18.1l-11.9-4.3c0,0,12.4,22.1,18.4,98c0,0-18.8-74.6-57.4-102.1
			l-9.3,7.2l-27.1,17C77,132,80,149,80,149l2,111.4c0,0,21.8,2.4,67.7-8.6L203.5,238.3z"/>
		<path id="パス_3120" class="st2" d="M269.4,128.1c0,0-2-4.8-7.9-10.3l-47.2-40.1"/>
		<path id="パス_3121" class="st2" d="M236.5,135.4l-41.2-40.9c5.3-4.3,10.4-8.8,15.3-13.7"/>
		<path id="パス_3122" class="st2" d="M182.2,45.8v5c0.2,8-1.9,16.2-5.6,21.5c-2.5,3.7-6,6.7-10.2,8.5"/>
		<path id="パス_3123" class="st2" d="M133.2,40.3c-1.7-2.4-5-1.5-5-1.5c-0.5,0.2-1,0.4-1.5,0.7c-2.5,1.6-3.8,4.7-3.1,7.6
			c0.9,5.1,4,9.5,8.5,12.1"/>
		<path id="パス_3124" class="st2" d="M170,5.6c0,0-6-4.7-17.8-5c0,0-31.5-3.3-37.3,32.2"/>
		<line id="線_512" class="st2" x1="132.2" y1="88.6" x2="132.2" y2="63.3"/>
		<path id="パス_3125" class="st2" d="M82,242.7L80,149c-0.3-17.7,5-29.8,22.5-39.9l16.9-10.3"/>
		<path id="パス_3126" class="st2" d="M162.8,84.8v8.8c0,2,2,1.7,3.9,2.2l19.4,6.6c0,0,9.9,2.8,30.1,15.8"/>
		<path id="パス_3127" class="st2" d="M173.9,38.7c-1.4,2.5-1.6,5.5-0.6,8.1l2.5,5.7c0.5,1.1,0.2,2.4-0.8,3.2l-2.5,2.1"/>
		<path id="パス_3128" class="st2" d="M176.9,34.8c0,0,1.4-1.2,5,0c1.2,0.4,1.8,1.7,1.6,2.9l-1.2,5"/>
		<path id="パス_3129" class="st2" d="M183.9,34.4c0,0,1.1-8.4-5.6-14.2"/>
		<path id="パス_3130" class="st2" d="M166.9,32.8c0,0-6.4-3.9-13-1"/>
		<path id="パス_3131" class="st2" d="M163.6,80.9c-3.7-0.6-7.3-1.8-10.7-3.5"/>
		<path id="パス_3132" class="st2" d="M173.7,64.9c-3.6,0.2-7.2-0.2-10.8-0.9"/>
		<path id="パス_3133" class="st2" d="M150.9,14.3c-8.5,4.4-11.8,17.5-11.8,17.5l-0.5,2.6c-0.8,4-1,8.1-0.6,12.2H137"/>
		<path id="パス_3134" class="st2" d="M153.8,14.3c0,0,8.6,5.5,26.4,6"/>
		<path id="パス_3135" class="st2" d="M174.3,8.4c3,2.4,6.2,4.4,9.7,5.9c2.5,1.3,5.3,2.1,8.1,2.4"/>
		<path id="パス_3136" class="st2" d="M183.2,21.6c2.5,0.4,5.1,0.3,7.6-0.2"/>
		<path id="パス_3137" class="st2" d="M183,27.3c2.2,0.2,4.4,0,6.5-0.7"/>
		<path id="パス_3138" class="st2" d="M114.5,35.9c0,0-1.3,12.8,9.4,25l8.3,8.7"/>
		<path id="パス_3139" class="st2" d="M133,37.7c0,0,0.8,4.9,1.8,8.8"/>
		<path id="パス_3177" class="st0" d="M162,98.9l-3.8,9.8l4.3,4.9l2.3,24.7c0,0,20.2,42.4,21.2,56.9c0,0-3.3-43.9-8-63.5
			l-7.9-18.8l-1.2-7.1L162,98.9z"/>
		<line id="線_513" class="st2" x1="163.1" y1="113.6" x2="164.8" y2="138.3"/>
		<line id="線_514" class="st2" x1="169.9" y1="112.4" x2="177.9" y2="131.8"/>
		<path id="パス_3140" class="st2" d="M168.3,98.4c14,26.1,18.7,111.3,18.7,111.3s-0.1,2.1,0,32.9"/>
		<path id="パス_3141" class="st2" d="M136.1,122.1l-12.2-4.3l-1.7-20.5l-0.1-1.5l6.5-4.2c-0.1,0,21.2,14.2,38.9,52.4
			c0,0,5.4,12.3,10.8,25.4c0,0,3.6,8.8,7.7,25.8"/>
		<path id="パス_3142" class="st3" d="M154.1,119.2l7.9-20.3L131.7,84l-2.4,8.1C138.5,100.2,146.8,109.3,154.1,119.2z"/>
		<path id="パス_3143" class="st2" d="M270.9,131.4c0.2,0.6,0.4,1.1,0.6,1.7c3.4,12.6-6.5,22.5-20.8,22.1l-53-7.2"/>
		<line id="線_515" class="st2" x1="196.8" y1="136.1" x2="203.5" y2="238.3"/>
		<path id="パス_3145" class="st3" d="M173.2,112.2l-11.3-13.5l0.9-6.2l5.2,4.4C168,96.8,171.2,102.3,173.2,112.2z"/>
		<path id="パス_3146" class="st5" d="M161.9,98.7l-3.7,10l4.7,5.4l7.3-0.9l-0.7-4.6c-0.1-1.7-0.8-3.3-1.9-4.5L161.9,98.7z"/>
		<line id="線_516" class="st2" x1="119.2" y1="176.2" x2="118.5" y2="242.7"/>
		<path id="パス_3147" class="st2" d="M95.5,124.7c0,0,25.4-4.1,23.7,35.1"/>
		<path id="パス_3148" class="st2" d="M142.8,118.6l-13.3,7.4c0,0,40.4,43.4,54.9,79.5"/>
		<path id="パス_3149" class="st2" d="M172.6,98.1l10.9,14.1l-1.9,4"/>
		<path id="パス_3150" class="st2" d="M178.3,114.1l9.2,6.8c0,0,3.5,36.6,3.1,68.3"/>
		<ellipse id="楕円形_219" class="st2" cx="192.1" cy="216.5" rx="2.2" ry="3.6"/>
		<circle id="楕円形_220" class="st6" cx="160.6" cy="40.7" r="1.7"/>
		<circle id="楕円形_221" class="st6" cx="178.1" cy="43" r="1.4"/>
		<g id="グループ_1507">
			<path id="パス_3151" class="st1" d="M284.3,371.3c0,0-1.3,6.3-5.5,9.6c0,0-6.3,4.9-5.1,7.5c0,0,0.6,1.2,3.4-0.4l5.2-4l7.2-0.9
				c3.3,1.6,6.8,2.5,10.5,2.5c0,0,7.5-0.3,11.8-4.5l6.3-0.7l0.6,5l56.4-0.5c1.7,0,3.4-0.1,5.1-0.4l0,0l0.9-0.2
				c14.5-2.9,12.5-17.3,12.5-17.3l-9.4-63.7c-3.5-26.1-10.5-32.6-19.8-36.1c-1.5-0.6-7.7-5.2-7.7-5.2c-4-3.9-7.1-8.6-9.3-13.7
				c-4.4-10.6-12.8-40-16.3-53.5c-1.1-4.2-2.9-8.1-5.2-11.7c-13.9-21.3-40.7-12.7-40.7-12.7c-16.3,5.4-19.1,18.4-19.1,18.4l-1.7,2.9
				c0,0-13.9,19.6,3.4,31.1c1,0.6,2.1,1.2,3.2,1.6l0.4,1.2l3.5,10c0,0,2.7,9.9,16.1,15.4c2,0.9,4.2,1.4,6.4,1.4l0.9,6.2l-3.6,1.7
				l-23.7,9.8c0,0-11.9,4.1-14.5,21.9l-9.2,65.3L284.3,371.3z"/>
			<path id="パス_3179" class="st4" d="M340.4,262.4c0,0-2.4,29-10.6,42.6l1.1,59.2l-14.7,2.2c0,0,3.3,14.1,1.7,19h53.1
				c0,0,25.6,0.8,22.7-18.4l-11.9-77.1c0,0-1.8-21.9-25.5-25.1L340.4,262.4z"/>
			<path id="パス_3180" class="st4" d="M283.1,364.2l8.1,1.5l0.1-67.9c-9.3-19-5.6-33.2-5.6-33.2C256.4,272.9,257,289,257,289
				l-5.3,36.4h18.8c0,0,6.2-0.3,7.5,8.9L283.1,364.2z"/>
			<path id="パス_3152" class="st2" d="M267.8,199.2c0,0-3.5,14.3,1.1,21.6"/>
			<line id="線_517" class="st2" x1="297.2" y1="253" x2="299.2" y2="264"/>
			<path id="パス_3153" class="st2" d="M319.1,211.1c1.1-2,3.7-1.7,3.7-1.7c1.8,0.4,3.2,1.7,3.6,3.5c0,0,2,6.5-4.5,11.6"/>
			<path id="パス_3154" class="st2" d="M266,188.9c0,0,2.9-13,19.2-18.4c0,0,26.8-8.5,40.7,12.7c2.4,3.6,4.1,7.5,5.2,11.7
				c3.5,13.5,11.9,42.9,16.3,53.5c2.9,7.2,7.9,13.3,14.3,17.7"/>
			<path id="パス_3155" class="st2" d="M280.3,215.9c0,0-5.8-2-9.3,1.3"/>
			<circle id="楕円形_222" class="st6" cx="277.8" cy="222.9" r="1.6"/>
			<circle id="楕円形_223" class="st6" cx="297.8" cy="219.3" r="1.6"/>
			<path id="パス_3156" class="st2" d="M319.1,211.1c-28.7,4.1-39.8-17.4-39.8-17.4"/>
			<path id="パス_3157" class="st2" d="M269.8,192.6c0,0,3.1,17.5,27.6,16.7"/>
			<path id="パス_3158" class="st2" d="M294.5,260.4l-23.7,9.8c0,0-11.8,4.1-14.5,21.9l-9.2,65.3"/>
			<path id="パス_3159" class="st2" d="M285.7,266.7c0,0,0.6,6.9,14.5,9c3.3,0.5,6.6,0.6,9.9,0.4c7.7-0.6,23.3-2.7,30.3-11.2"/>
			<path id="パス_3160" class="st2" d="M283.6,218.6c0,0,2.1,1.6,1.8,5.5v10.6c1.6,0.8,3.5,0.7,5-0.2"/>
			<path id="パス_3161" class="st2" d="M290,240.5c0,0,2.9,2.5,10.6-1.7"/>
			<path id="パス_3162" class="st2" d="M349.8,263.5c-15-0.3-21.6-5.4-25.1-16.8c0,0-2-5.9-1.7-21.9"/>
			<path id="パス_3163" class="st2" d="M264.3,191.7c0,0-13.9,19.6,3.4,31.1c1,0.6,2.1,1.2,3.2,1.6l0.4,1.2l3.5,10
				c0,0,2.7,9.9,16.1,15.4c3,1.2,7.6,2.6,12.6-0.4c0,0,14.7-8.2,16.7-24.1"/>
			<path id="パス_3164" class="st2" d="M384.5,383.3c-3,1.2-6.2,1.7-9.5,1.6l-56.4,0.5"/>
			<path id="パス_3165" class="st2" d="M365.2,358.3l-49.1,8.1c1.1,4.6,1.7,9.3,1.8,14.1"/>
			<g id="グループ_1505">
				<path id="パス_3166" class="st2" d="M272.8,366.1c5.5-3.4,12.9-1.5,12.9-1.5l14.1,2.7c4.7,1,9.4,1.5,14.2,1.4"/>
				<path id="パス_3167" class="st2" d="M285.4,377.3c0,0-2.3,0.2-6.5,3.6c0,0-6.3,4.9-5.1,7.5c0,0,0.6,1.2,3.4-0.4l5.2-4l7.2-0.9
					c3.3,1.6,6.8,2.5,10.5,2.5c0,0,7.5-0.3,11.8-4.5l6.3-0.4"/>
			</g>
			<path id="パス_3168" class="st2" d="M356.1,265c13.6,3.2,23.6,5.1,28.1,38.4l9.4,63.6c0,0,2.4,17.1-16.8,17.8"/>
			<g id="グループ_1506">
				<path id="パス_3169" class="st3" d="M186.8,326.1c0.7-0.5,1.5-0.8,2.3-0.8h80.7c3.9-0.2,7.2,2.6,7.7,6.4l10.1,57.1
					c0.2,1.1,0,2.2-0.7,3"/>
				<path id="パス_3170" class="st3" d="M193.8,391.1l-10.4-59.2c-0.4-1.9,0.7-3.7,2.6-4.1c0.3-0.1,0.6-0.1,0.9-0.1h83
					c2.4,0.1,4.5,1.8,5,4.2l10.5,59.2c0.4,1.9-0.7,3.7-2.6,4.1c-0.3,0.1-0.6,0.1-0.9,0.1h-83C196.3,395.2,194.3,393.5,193.8,391.1z"
					/>
				
					<ellipse id="楕円形_224" transform="matrix(0.6753 -0.7375 0.7375 0.6753 -156.8486 307.2347)" cx="270.5" cy="331.8" rx="1.6" ry="1.9"/>
			</g>
			<path id="パス_3171" class="st3" d="M275,400.3h-91.7l6.3-30.2h91.7L275,400.3z"/>
			<line id="線_518" class="st2" x1="275" y1="400.3" x2="283.3" y2="395"/>
			<line id="線_519" class="st2" x1="361.6" y1="358.3" x2="354.1" y2="319"/>
			<path id="パス_3172" class="st2" d="M340.4,264.9c0,0-2.5,25.5-10.6,40.1l1.1,58.9"/>
			<line id="線_520" class="st2" x1="291.4" y1="304.1" x2="291.2" y2="365.6"/>
			<path id="パス_3173" class="st2" d="M285.7,266.7c-1.1,7.8-0.4,15.7,2.2,23.2"/>
		</g>
		<path id="パス_3174" class="st2" d="M221.6,21.9c10.1-3.5,20.5-5.6,29.5-5.8c0,0,34-1.8,46.6,20.7c4.3,7.8,5.3,17,2.6,25.5
			c-4,12.7-16.9,30.7-58.1,31.7h-8.6"/>
		<g id="BUSINESS_USE">
			<g class="st7">
				<path d="M18.8,313.7h-4.3v-11.4h4.2c1.9,0,3.3,1.1,3.3,3c0,1.2-0.7,2.2-1.8,2.6c1.2,0.4,2,1.4,2,2.8
					C22.1,312.6,20.8,313.7,18.8,313.7z M18.5,303.1h-3.2v4.4h3.2c1.4,0,2.5-0.6,2.5-2.2C21.1,303.7,19.9,303.1,18.5,303.1z
					 M18.7,308.2h-3.4v4.7h3.4c1.6,0,2.6-0.9,2.6-2.3C21.3,309.1,20.2,308.2,18.7,308.2z"/>
				<path d="M28.9,313.8c-2.3,0-3.9-1.6-3.9-3.8v-7.7h0.9v7.6c0,1.9,1.2,3.1,3,3.1s3-1.2,3-3.1v-7.6h0.9v7.7
					C32.8,312.2,31.2,313.8,28.9,313.8z"/>
				<path d="M39,313.8c-1.7,0-2.8-0.5-3.8-1.5l0.6-0.6c1,1,1.9,1.3,3.2,1.3c1.8,0,2.9-0.9,2.9-2.4c0-0.7-0.2-1.2-0.6-1.6
					c-0.4-0.4-0.7-0.5-1.6-0.6l-1.3-0.2c-0.9-0.1-1.6-0.4-2-0.8c-0.6-0.5-0.9-1.2-0.9-2.1c0-1.9,1.4-3.1,3.5-3.1
					c1.4,0,2.3,0.4,3.3,1.2l-0.6,0.6c-0.7-0.6-1.4-1.1-2.8-1.1c-1.6,0-2.6,0.9-2.6,2.4c0,0.7,0.2,1.2,0.6,1.5
					c0.4,0.3,1.1,0.6,1.7,0.7l1.2,0.2c1.1,0.2,1.6,0.4,2,0.8c0.6,0.5,1,1.3,1,2.2C42.9,312.5,41.4,313.8,39,313.8z"/>
				<path d="M45.6,313.7v-11.4h0.9v11.4H45.6z"/>
				<path d="M57.4,313.7l-6.6-9.9v9.9H50v-11.4h0.9l6.6,9.9v-9.9h0.9v11.4H57.4z"/>
				<path d="M61.8,313.7v-11.4h6.9v0.8h-6.1v4.5h5.2v0.8h-5.2v4.6h6.1v0.8H61.8z"/>
			</g>
			<g class="st7">
				<path d="M74.2,313.8c-1.7,0-2.8-0.5-3.8-1.5l0.6-0.6c1,1,1.9,1.3,3.2,1.3c1.8,0,2.9-0.9,2.9-2.4c0-0.7-0.2-1.2-0.6-1.6
					c-0.4-0.4-0.7-0.5-1.6-0.6l-1.3-0.2c-0.9-0.1-1.6-0.4-2-0.8c-0.6-0.5-0.9-1.2-0.9-2.1c0-1.9,1.4-3.1,3.5-3.1
					c1.4,0,2.3,0.4,3.3,1.2l-0.6,0.6c-0.7-0.6-1.4-1.1-2.8-1.1c-1.6,0-2.6,0.9-2.6,2.4c0,0.7,0.2,1.2,0.6,1.5
					c0.4,0.3,1.1,0.6,1.7,0.7l1.2,0.2c1.1,0.2,1.6,0.4,2,0.8c0.6,0.5,1,1.3,1,2.2C78.1,312.5,76.6,313.8,74.2,313.8z"/>
			</g>
			<g class="st7">
				<path d="M83.3,313.8c-1.7,0-2.8-0.5-3.8-1.5l0.6-0.6c1,1,1.9,1.3,3.2,1.3c1.8,0,2.9-0.9,2.9-2.4c0-0.7-0.2-1.2-0.6-1.6
					c-0.4-0.4-0.7-0.5-1.6-0.6l-1.3-0.2c-0.9-0.1-1.6-0.4-2-0.8c-0.6-0.5-0.9-1.2-0.9-2.1c0-1.9,1.4-3.1,3.5-3.1
					c1.4,0,2.3,0.4,3.3,1.2L86,304c-0.7-0.6-1.4-1.1-2.8-1.1c-1.6,0-2.6,0.9-2.6,2.4c0,0.7,0.2,1.2,0.6,1.5c0.4,0.3,1.1,0.6,1.7,0.7
					l1.2,0.2c1.1,0.2,1.6,0.4,2,0.8c0.6,0.5,1,1.3,1,2.2C87.1,312.5,85.6,313.8,83.3,313.8z"/>
				<path d="M97.6,313.8c-2.3,0-3.9-1.6-3.9-3.8v-7.7h0.9v7.6c0,1.9,1.2,3.1,3,3.1s3-1.2,3-3.1v-7.6h0.9v7.7
					C101.6,312.2,99.9,313.8,97.6,313.8z"/>
				<path d="M107.8,313.8c-1.7,0-2.8-0.5-3.8-1.5l0.6-0.6c1,1,1.9,1.3,3.2,1.3c1.8,0,2.9-0.9,2.9-2.4c0-0.7-0.2-1.2-0.6-1.6
					c-0.4-0.4-0.7-0.5-1.6-0.6l-1.3-0.2c-0.9-0.1-1.6-0.4-2-0.8c-0.6-0.5-0.9-1.2-0.9-2.1c0-1.9,1.4-3.1,3.5-3.1
					c1.4,0,2.3,0.4,3.3,1.2l-0.6,0.6c-0.7-0.6-1.4-1.1-2.8-1.1c-1.6,0-2.6,0.9-2.6,2.4c0,0.7,0.2,1.2,0.6,1.5
					c0.4,0.3,1.1,0.6,1.7,0.7l1.2,0.2c1.1,0.2,1.6,0.4,2,0.8c0.6,0.5,1,1.3,1,2.2C111.6,312.5,110.1,313.8,107.8,313.8z"/>
				<path d="M114.3,313.7v-11.4h6.9v0.8h-6.1v4.5h5.2v0.8h-5.2v4.6h6.1v0.8H114.3z"/>
			</g>
		</g>
		<g id="グループ_1508">
			<path id="長方形_763" class="st3" d="M84.7,349.5h62.7c3.2,0,5.8,2.6,5.8,5.8v88.8c0,3.2-2.6,5.8-5.8,5.8H84.7
				c-3.2,0-5.8-2.6-5.8-5.8v-88.8C78.9,352.1,81.5,349.5,84.7,349.5z"/>
			<path id="パス_1181-2" class="st3" d="M149.7,364.3v76H82.4v-81.9h67.2"/>
			<circle id="楕円形_225" class="st3" cx="116.1" cy="354.1" r="1"/>
		</g>
		<g id="グループ_1509">
			<path id="長方形_764" class="st3" d="M59.5,349.5h62.7c3.2,0,5.8,2.6,5.8,5.8v88.8c0,3.2-2.6,5.8-5.8,5.8H59.5
				c-3.2,0-5.8-2.6-5.8-5.8v-88.8C53.7,352.1,56.3,349.5,59.5,349.5z"/>
			<path id="パス_1181-3" class="st3" d="M124.5,364.3v76H57.2v-81.9h67.2"/>
			<circle id="楕円形_226" class="st3" cx="90.8" cy="354.1" r="1"/>
		</g>
		<g id="グループ_1511">
			<path id="パス_1180-3" class="st3" d="M31.5,434.8v-56.2c0-2.9,2.4-5.3,5.3-5.3h27.9c2.9,0,5.3,2.4,5.3,5.3c0,0,0,0,0,0l0,0
				v66.1c0,2.9-2.4,5.3-5.3,5.3c0,0,0,0,0,0H36.8c-2.9,0-5.3-2.4-5.3-5.3l0,0L31.5,434.8z"/>
			<g id="グループ_1510">
				<path id="パス_1180-4" class="st3" d="M31.5,434.8v-56.2c0-2.9,2.4-5.3,5.3-5.3h27.9c2.9,0,5.3,2.4,5.3,5.3c0,0,0,0,0,0l0,0
					v66.1c0,2.9-2.4,5.3-5.3,5.3c0,0,0,0,0,0H36.8c-2.9,0-5.3-2.4-5.3-5.3l0,0"/>
				<path id="パス_1181-4" class="st3" d="M67.2,385.6v56.7H34.3v-61.5h32.9"/>
				<line id="線_190-2" class="st2" x1="47.3" y1="377.4" x2="54.3" y2="377.4"/>
			</g>
		</g>
		<g id="グループ_1513">
			<path id="パス_1180-5" class="st3" d="M5.2,436.3v-50.7c0-2.6,2.2-4.8,4.8-4.8c0,0,0,0,0,0h25.1c2.6,0,4.8,2.1,4.8,4.8
				c0,0,0,0,0,0l0,0v59.5c0,2.6-2.1,4.8-4.8,4.8c0,0,0,0,0,0H10c-2.6,0-4.8-2.1-4.8-4.8l0,0L5.2,436.3z"/>
			<g id="グループ_1512">
				<path id="パス_1180-6" class="st3" d="M5.2,436.3v-50.7c0-2.6,2.2-4.8,4.8-4.8c0,0,0,0,0,0h25.1c2.6,0,4.8,2.1,4.8,4.8
					c0,0,0,0,0,0l0,0v59.5c0,2.6-2.1,4.8-4.8,4.8c0,0,0,0,0,0H10c-2.6,0-4.8-2.1-4.8-4.8l0,0"/>
				<path id="パス_1181-5" class="st3" d="M37.3,392v51.1H7.7v-55.4h29.6"/>
				<line id="線_190-3" class="st2" x1="19.4" y1="384.6" x2="25.6" y2="384.6"/>
			</g>
		</g>
		<path id="パス_3175" class="st2" d="M75,108.1c-33.5,0.1-71.8,27.1-74,66c0,0-10.6,65.8,64.2,84.1
			c53.2,13,128.9-25.9,186.1-25.6"/>
		<path id="パス_3176" class="st2" d="M221.1,400.3c12,4.2,22.1,12.8,32.9,19.6c0,0,55.6,43.2,117.3,27.6
			c77.3-16.9,95.5-119.9,35.4-166.4"/>
	</g>
</g>
</svg>
