<svg xmlns="http://www.w3.org/2000/svg" width="79.427" height="32.589" viewBox="0 0 79.427 32.589"><defs><style>.a{fill:#174f9e;}</style></defs><path class="a" d="M52.657,10.12l3.892-8.61H52.787s-6.1,11.416-6.3,11.765l.285.232A47.667,47.667,0,0,1,52.657,10.12Z" transform="translate(-35.727 -1.16)"/><path class="a" d="M90.817,4,89,8.559s2.489-.956,4.433-1.465l1.042-3.125h2.042l.639-2.248H89.611L88.59,4Z" transform="translate(-68.081 -1.322)"/><path class="a" d="M127.388,0c-2.329,0-3.442,1.051-3.859,2.084s-.958,2.9-.958,2.9c1.567-.384,3.669-.671,3.669-.671s.192-.891.319-1.53.542-.861.859-.861.576.384.512.8-.232,1.34-.232,1.34c.766-.095,3.51-.285,3.51-.285a4.092,4.092,0,0,0,.127-.864C131.342,1.584,130.735,0,127.388,0Z" transform="translate(-94.194)"/><path class="a" d="M169.969,3.812s0-.512.016-1.037a.568.568,0,0,1,.655-.583.509.509,0,0,1,.541.475v0c.032.35.111,1.158.111,1.158,1.338.032,3.426.285,3.426.285s-.109-.926-.174-1.371-.336-2.6-4.1-2.6a3.559,3.559,0,0,0-3.919,3.6C167.816,3.742,169.969,3.812,169.969,3.812Z" transform="translate(-127.977 -0.108)"/><path class="a" d="M210.062,6.119l-.956-4.4H205.9l.625,3.811C208.007,5.72,210.062,6.119,210.062,6.119Z" transform="translate(-158.233 -1.322)"/><path class="a" d="M230.165,7.445l-1.8-5.725H225.19l1.158,4.718A36.046,36.046,0,0,1,230.165,7.445Z" transform="translate(-173.057 -1.322)"/><path class="a" d="M253.36,10.119l-3.551-8.4H246.54l2.248,6.505A38.5,38.5,0,0,1,253.36,10.119Z" transform="translate(-189.465 -1.322)"/><path class="a" d="M275.859,14.108l.255-.255L269.881,1.72h-3.3l4.081,9.26C272.733,12.02,275.859,14.108,275.859,14.108Z" transform="translate(-204.865 -1.322)"/><path class="a" d="M8.867,67.21,0,83.471H6.568L13.837,67.21Z" transform="translate(0 -51.65)"/><path class="a" d="M62.464,67.63H52.322l-1.338,2.836h3L48.75,83.794h5.869L58.7,70.658h2.933Z" transform="translate(-37.464 -51.973)"/><path class="a" d="M105.689,65c-4,0-5.207,1.72-6,4.081-.447,1.338-1.878,6.982-2.1,7.906-.542,2.243.269,5.436,5.406,5.436,5.26,0,6.482-2.47,6.885-5.276.287-2.04.653-6.633.75-8.066C110.77,67.137,109.673,65,105.689,65Zm.317,3.794c-.095.6-1.389,8.607-1.528,9.311s-.317,1.4-1.158,1.4-.926-.8-.829-1.468,1.593-8.45,1.752-9.279.637-1.116,1.116-1.116c.583,0,.743.544.646,1.151Z" transform="translate(-74.887 -49.952)"/><path class="a" d="M167.312,74.866s.063,3.093.095,3.827-.382,1.243-.829,1.243-1.019-.13-1.019-1.4-.065-9.089-.065-9.566.192-.926.734-.926.732.252.8.891.1,2.778.1,2.778h4.751s-.192-1.817-.287-2.614c-.232-1.817-1.271-3.667-5.23-3.667-3.264,0-5.248,1.361-5.556,4.3-.255,2.521-.509,7.015-.509,8.577,0,2.584,1.956,4.561,6.313,4.561,3.982,0,5.871-1.787,5.8-4.209-.032-1.158-.287-3.794-.287-3.794Z" transform="translate(-123.182 -50.283)"/><path class="a" d="M221.544,67.21l1.308,5.6h-1.875l-1.218-5.6H215.55l2.329,16.261H223.3L221.671,76h1.924l1.743,7.475h5.422L225.752,67.21Z" transform="translate(-165.649 -51.65)"/><path class="a" d="M286.228,78.834c-.926-1.947-5.964-11.624-5.964-11.624H275.9s5.2,11.686,5.579,12.684-.232,1.183-.574,1.183a1.549,1.549,0,0,1-1.34-.8c-.285-.6-5.452-13.057-5.452-13.057H269.68s3.857,10.953,4.558,12.994c.965,2.8,3.829,3.919,7.431,3.919C285.876,84.124,287.559,81.628,286.228,78.834Z" transform="translate(-207.247 -51.65)"/></svg>