<svg xmlns="http://www.w3.org/2000/svg" width="410" height="128.982" viewBox="0 0 410 128.982"><defs><style>.a{fill:#4caccf;}.b{fill:#fff;}</style></defs><g transform="translate(16.479 -31.427)"><g transform="translate(-16.479 31.428)"><g transform="translate(117.361 19.539)"><path class="a" d="M286.993,98.655a21.416,21.416,0,1,1,21.416-21.416A21.44,21.44,0,0,1,286.993,98.655Zm0-33.3a11.884,11.884,0,1,0,11.884,11.884A11.9,11.9,0,0,0,286.993,65.355Z" transform="translate(-265.577 -55.823)"/></g><path d="M370.88,55.823a19.891,19.891,0,0,0-19.869,19.868v21.6h9.532v-21.6a10.336,10.336,0,1,1,20.672,0v21.6h9.532v-21.6A19.891,19.891,0,0,0,370.88,55.823Z" transform="translate(-183.381 -36.284)"/><path d="M452.581,55.823a21.416,21.416,0,1,0,11.884,39.222v5.083a11.9,11.9,0,0,1-11.884,11.884h-7.75v9.532h7.75A21.44,21.44,0,0,0,474,100.128V77.239A21.44,21.44,0,0,0,452.581,55.823Zm0,33.3a11.884,11.884,0,1,1,11.884-11.884A11.9,11.9,0,0,1,452.581,89.122Z" transform="translate(-216.374 -36.284)"/><path d="M193.264,77.492c-.421-12.541-9.94-20.715-20.86-20.677a21.123,21.123,0,0,0-.089,42.243q.251,0,.5,0c7.807,0,13.68-3.226,17.344-7.769l-6.56-5.58A13.8,13.8,0,0,1,172.851,90.2c-5.7-.044-10.514-3.641-11.425-8.259h28.125c1.5,0,3.47-.524,3.7-3.034A10.624,10.624,0,0,0,193.264,77.492Zm-20.6-12.048a10.822,10.822,0,0,1,11.03,8.75H161.207C161.975,69.744,166.335,65.444,172.664,65.444Z" transform="translate(-101.246 -36.693)"/><path d="M236.112,22.616V83.622h9.532V22.616Z" transform="translate(-136.087 -22.616)"/><path d="M87.53,42.155a21.291,21.291,0,0,0-11.884,3.61V22.879h0v-.263H66.114V63.571A21.416,21.416,0,1,0,87.53,42.155Zm0,33.3A11.884,11.884,0,1,1,99.413,63.57,11.9,11.9,0,0,1,87.53,75.454Z" transform="translate(-66.114 -22.616)"/></g><g transform="translate(258.569 52.899)"><path class="a" d="M270.472,226.825a29.739,29.739,0,0,1-12.812-6.457l1.83-2.338H249.78l2.288,2.287a.847.847,0,0,1,.2.56c0,.56-.712.509-1.779.56-1.373.763-3.865,2.236-4.729,2.745a46.715,46.715,0,0,1-7.067,2.847l-3.864-4.525c2.033-.407,7.067-1.474,10.931-4.474h-6.406V198.812h30.963V218.03h-7.372a29.912,29.912,0,0,0,11.287,4.372Zm-35.131-30.2v-12.05h39.352v12.05Zm11.134-7.932h-5.9v3.814h5.9Zm18.3,13.423h-19.93v2.033h19.93Zm0,4.932h-19.93v2.186h19.93Zm0,5.084h-19.93v2.186h19.93Zm-6.915-23.438h-6.355v3.814h6.355Zm11.389,0h-6.3v3.814h6.3Z" transform="translate(-234.832 -184.22)"/><path class="a" d="M357.432,225.458a43.546,43.546,0,0,1-7.625-7.321,35.471,35.471,0,0,1-8.746,7.474l-4.27-4.067v4.626h-5.135v-8.44c-2.9.813-9.1,2.491-10.677,2.847a5.466,5.466,0,0,0-1.677.508c-.305.3-.508.508-.661.508-.255,0-.407-.2-.508-.864l-.814-4.627c1.424-.2,1.576-.255,3.1-.458V188.852h-3.152v-4.881h23.438v3.813h15.812l2.949,2.695c-.864,13.32-4.322,19.422-6.559,23.285a46.221,46.221,0,0,0,8.44,7.627Zm-25.777-36.606h-5.8v5.185h5.8Zm0,9.761h-5.8V203.9h5.8Zm0,9.762h-5.8v6.406c3.813-.661,4.525-.814,5.8-1.017Zm8.643-15.558v-3.966H336.79v32.082a21.5,21.5,0,0,0,9.864-7.271,52.877,52.877,0,0,1-6.864-17.846l5.085-1.729c1.373,7.83,2.644,10.982,4.677,14.8a40.506,40.506,0,0,0,4.068-16.066Z" transform="translate(-268.763 -183.971)"/></g><g transform="translate(258.569 117.578)"><circle class="a" cx="21.416" cy="21.416" r="21.416"/><g transform="translate(5.329 12.175)"><path class="b" d="M423.166,211.757h-1.533l.641-2.379h1.533l.228-.984c.687-2.562,2.265-3.752,4.6-3.752a6.266,6.266,0,0,1,2.379.411l-.618,2.311A4.417,4.417,0,0,0,428.7,207a1.952,1.952,0,0,0-1.991,1.693l-.182.687h3.34l-.641,2.379h-3.294l-2.608,9.7h-2.768Z" transform="translate(-420.558 -204.643)"/><path class="b" d="M436.422,219.355a7.225,7.225,0,0,1,7.046-7.092,5.333,5.333,0,0,1,5.673,5.536,7.236,7.236,0,0,1-7.046,7.069A5.327,5.327,0,0,1,436.422,219.355Zm9.974-1.487a2.927,2.927,0,0,0-3.089-3.2c-2.379,0-4.141,2.448-4.141,4.6a2.927,2.927,0,0,0,3.088,3.2C444.589,222.466,446.4,220.064,446.4,217.868Z" transform="translate(-427.088 -207.779)"/><path class="b" d="M462.435,212.523H465.2l-.709,2.722c1.327-1.922,2.9-3.088,5.055-2.951l-.778,2.928h-.16c-2.425,0-4.529,1.555-5.422,4.895l-1.212,4.484h-2.768Z" transform="translate(-436.467 -207.788)"/></g></g><g transform="translate(313.605 118.749)"><path d="M505.038,188.224H522.6c4.474,0,8,1.23,10.234,3.467a8.77,8.77,0,0,1,2.628,6.488v.112c0,4.7-2.685,7.214-5.593,8.724,4.586,1.566,7.774,4.194,7.774,9.507v.112c0,6.991-5.76,10.737-14.484,10.737H505.038Zm16.162,16.5c4.418,0,7.382-1.734,7.382-5.313V199.3c0-3.077-2.461-4.978-6.879-4.978h-9.9v10.4Zm2.013,16.554c4.7,0,7.55-1.845,7.55-5.369v-.112c0-3.3-2.628-5.257-8.053-5.257H511.8v10.738Z" transform="translate(-505.038 -186.881)"/><path d="M572.521,185.942h7.27v6.431h-7.27ZM572.8,196.9h6.767v29.528H572.8Z" transform="translate(-532.815 -185.942)"/><path d="M597.233,229.457l17.057-19.35H597.848v-5.536H622.9v4.642l-17.057,19.35H622.9V234.1H597.233Z" transform="translate(-542.987 -193.61)"/></g></g></svg>