<svg xmlns="http://www.w3.org/2000/svg" xmlns:xlink="http://www.w3.org/1999/xlink" width="152.518" height="152.518" viewBox="0 0 152.518 152.518"><defs><style>.a{fill:#fff;}.b,.d,.e,.f{fill:none;}.c{clip-path:url(#a);}.d,.e{stroke:#231815;stroke-linecap:round;}.d{stroke-linejoin:round;}.e{stroke-miterlimit:10;}.f{stroke:#000;}.g{stroke:none;}</style><clipPath id="a"><circle class="a" cx="76.259" cy="76.259" r="76.259" transform="translate(0 0)"/></clipPath></defs><g transform="translate(-606.741 -403.173)"><circle class="b" cx="76.259" cy="76.259" r="76.259" transform="translate(606.741 403.173)"/><g class="c" transform="translate(606.741 403.173)"><g transform="translate(29.799 15.169)"><line class="d" x1="6.434" y2="7.588" transform="translate(39.078 62.41)"/><path class="d" d="M717.737,817.754l1.9,5.779-1.9,8.774" transform="translate(-675.443 -751.55)"/><path class="d" d="M700.015,800.3a43.653,43.653,0,0,0-2.785,12.989l8.38,3.793-4.51,7.278,19.945,19.62-11.858-35.761" transform="translate(-674.655 -750.879)"/><path class="d" d="M696.488,862.424l25.326,26.326c-8.8,4.2-14.223,13.308-14.223,13.308l-24.945-23.411c-5.665-4.763-8.91-9.344-8.894-15.183,0-.323.3-5.017.3-5.017l3.679-39.523a15.462,15.462,0,0,1,1.766-6.117,10.458,10.458,0,0,1,3.346-3.885l13.107-9.6,3.147-2.3" transform="translate(-673.752 -750.753)"/><line class="d" x2="6.434" y2="7.588" transform="translate(47.349 62.41)"/><path class="d" d="M726.264,817.754l-1.9,5.779,1.9,8.774" transform="translate(-675.698 -751.55)"/><circle class="d" cx="2.197" cy="2.197" r="2.197" transform="translate(44.276 103.107)"/><circle class="d" cx="2.197" cy="2.197" r="2.197" transform="translate(44.276 113.787)"/><g transform="translate(21.237)"><path class="e" d="M743.952,784.939c.431-1.487.888-3.811.888-3.811a42.735,42.735,0,0,0,.311-12.015,24.24,24.24,0,0,0-5.266-12.566c-7.511-9.093-16.452-6.193-16.452-6.193s-8.7-4.85-18.9,3.178c0,0-13.882,11.373-5.352,31.61l.263.452" transform="translate(-695.86 -748.903)"/><path class="e" d="M704.51,776.33s3.811,5.715,12.837,7.2a15.816,15.816,0,0,0,4.86.055" transform="translate(-696.172 -749.957)"/><path class="d" d="M728.079,778.939s6.027,2.8,11.958,2.007a26.731,26.731,0,0,1,0,8.7" transform="translate(-697.078 -750.058)"/><path class="d" d="M703.167,789.543a26.727,26.727,0,0,1,0-8.7,19.954,19.954,0,0,1,1.277-4.516" transform="translate(-696.106 -749.957)"/><path class="e" d="M701,789.427s-1.618-4-3.8-2.834a2.5,2.5,0,0,0-1.183,1.538c-.4,1.388-.475,4.266,3.814,7.483a5.208,5.208,0,0,0,3.178,1.171" transform="translate(-695.838 -750.344)"/><path class="e" d="M742.522,789.427s1.619-4,3.8-2.834a2.5,2.5,0,0,1,1.183,1.538c.4,1.388.475,4.266-3.815,7.483a5.212,5.212,0,0,1-3.178,1.171" transform="translate(-697.556 -750.344)"/><path class="e" d="M740.046,794.419s-3.178,9.533-7.191,11.875a32.3,32.3,0,0,1-8.53,4.85,6.457,6.457,0,0,1-6.354,0,32.294,32.294,0,0,1-8.53-4.85c-4.014-2.342-7.191-11.875-7.191-11.875" transform="translate(-696.085 -750.653)"/><path class="e" d="M706.945,788.8s2.484-2.345,7.2-.645a7.18,7.18,0,0,1,3.534,2.6,6.44,6.44,0,0,1,1.141,3.4" transform="translate(-696.265 -750.388)"/><path class="e" d="M718.912,802.594a3.308,3.308,0,0,0,2.853,1.359" transform="translate(-696.725 -750.967)"/><path class="e" d="M724.522,802.594a3.31,3.31,0,0,1-2.853,1.359" transform="translate(-696.831 -750.967)"/><path class="e" d="M708.944,794.419s2.174,2.676,7.359,1" transform="translate(-696.342 -750.653)"/><path class="e" d="M735.936,788.8s-2.664-2.515-7.712-.448a6.721,6.721,0,0,0-2.489,1.718l-.023.026" transform="translate(-696.987 -750.388)"/><path class="e" d="M734.053,794.419s-2.175,2.676-7.36,1" transform="translate(-697.024 -750.653)"/><path class="e" d="M718.457,779.2s3.387,3.212,11.08,3.178" transform="translate(-696.708 -750.068)"/></g><path class="d" d="M698.257,849.909l-1.06,14.424a10.268,10.268,0,0,0-10.019.717" transform="translate(-674.268 -752.786)"/><path class="d" d="M684,814.689s10.885,1.813,14.133,27.171" transform="translate(-674.146 -751.432)"/><path class="d" d="M745.73,862.424,720.4,888.75c8.8,4.2,14.223,13.308,14.223,13.308l24.945-23.411c5.666-4.763,8.91-9.344,8.894-15.183,0-.323-.3-5.017-.3-5.017l-3.679-39.523a15.46,15.46,0,0,0-1.765-6.117,10.466,10.466,0,0,0-3.347-3.885l-13.107-9.6-3.147-2.3" transform="translate(-675.545 -750.753)"/><path class="d" d="M745.44,849.909l1.06,14.424a10.268,10.268,0,0,1,10.019.717" transform="translate(-676.508 -752.786)"/><path class="d" d="M759.573,814.689S748.688,816.5,745.44,841.86" transform="translate(-676.508 -751.432)"/><path class="d" d="M743.11,800.3a43.652,43.652,0,0,1,2.785,12.989l-8.38,3.793,4.513,7.277-19.945,19.62,11.858-35.761" transform="translate(-675.61 -750.879)"/></g></g><g class="f" transform="translate(606.741 403.173)"><circle class="g" cx="76.259" cy="76.259" r="76.259"/><circle class="b" cx="76.259" cy="76.259" r="75.759"/></g></g></svg>