<svg xmlns="http://www.w3.org/2000/svg" width="107.329" height="49.508" viewBox="0 0 107.329 49.508"><defs><style>.a{fill:none;stroke:#000;}</style></defs><path class="a" d="M34.3-6.767v-8.241H29.949v-8.911H21.574v8.911H11.591L27.939-47.7H18.425L2.077-15.008v8.241h19.5V0h8.375V-6.767ZM69.747-13.8V-33.9c0-9.112-6.7-14.2-14.472-14.2S40.736-43.014,40.736-33.9v20.1C40.736-4.69,47.5.4,55.275.4S69.747-4.69,69.747-13.8Zm-8.71-.067c0,4.02-2.345,6.432-5.762,6.432s-5.829-2.412-5.829-6.432v-19.9c0-4.02,2.412-6.5,5.829-6.5s5.762,2.479,5.762,6.5Zm47.369,7.1v-8.241h-4.355v-8.911H95.676v8.911H85.693l16.348-32.7H92.527l-16.348,32.7v8.241h19.5V0h8.375V-6.767Z" transform="translate(-1.577 48.606)"/></svg>