<svg height="83.033" viewBox="0 0 410 83.033" width="410" xmlns="http://www.w3.org/2000/svg"><path d="m304.07 238.009a20.855 20.855 0 1 1 20.859-20.856 20.854 20.854 0 0 1 -20.859 20.856zm0-32.426a11.583 11.583 0 1 0 0-.021z" fill="#4caccf" transform="translate(-168.92 -177.249)"/><path d="m419.579 196.25a19.37 19.37 0 0 0 -19.349 19.35v21.034h9.283v-21.034a10.066 10.066 0 0 1 20.131 0v21.034h9.283v-21.034a19.365 19.365 0 0 0 -19.348-19.35z" transform="translate(-236.979 -177.219)"/><path d="m530.859 196.25a20.855 20.855 0 1 0 11.576 38.2v4.949a11.588 11.588 0 0 1 -11.576 11.576h-7.53v9.283h7.53a20.884 20.884 0 0 0 20.859-20.859v-22.299a20.88 20.88 0 0 0 -20.859-20.85zm0 32.426a11.571 11.571 0 1 1 11.576-11.576 11.571 11.571 0 0 1 -11.576 11.576z" transform="translate(-300.823 -177.219)"/><path d="m167.615 217.745c-.418-12.216-9.681-20.173-20.315-20.135a20.569 20.569 0 0 0 -.088 41.136h.489c7.6 0 13.32-3.142 16.889-7.564l-6.388-5.439a13.42 13.42 0 0 1 -10.459 4.363c-5.547-.042-10.241-3.543-11.128-8.041h27.393c1.464 0 3.376-.51 3.6-2.953a10.151 10.151 0 0 0 .007-1.367zm-20.08-11.735a10.54 10.54 0 0 1 10.743 8.522h-21.884c.749-4.334 5-8.522 11.157-8.522z" transform="translate(-78.001 -178.01)"/><path d="m242.85 150.76v59.413h9.283v-59.413z" transform="translate(-145.438 -150.76)"/><path d="m30.855 169.791a20.746 20.746 0 0 0 -11.572 3.509v-22.281-.259h-9.283v39.885a20.859 20.859 0 1 0 20.856-20.855zm0 32.426a11.571 11.571 0 1 1 11.575-11.573 11.571 11.571 0 0 1 -11.576 11.573z" transform="translate(-10 -150.76)"/><path d="m686.79 238.009a20.855 20.855 0 1 1 20.859-20.856 20.854 20.854 0 0 1 -20.859 20.856zm0-32.426a11.583 11.583 0 1 0 0-.021z" fill="#4caccf" transform="translate(-391.53 -177.249)"/><path d="m802.328 196.25a19.369 19.369 0 0 0 -19.328 19.35v21.034h9.283v-21.034a10.065 10.065 0 1 1 20.131 0v21.034h9.286v-21.034a19.369 19.369 0 0 0 -19.369-19.348z" transform="translate(-459.619 -177.219)"/><path d="m933.405 217.745c-.418-12.216-9.681-20.173-20.315-20.135a20.569 20.569 0 0 0 -.084 41.136h.485c7.6 0 13.32-3.142 16.888-7.564l-6.388-5.439a13.409 13.409 0 0 1 -10.459 4.363c-5.547-.042-10.237-3.543-11.124-8.041h27.392c1.464 0 3.38-.51 3.6-2.953a10.161 10.161 0 0 0 .005-1.367zm-20.081-11.735a10.534 10.534 0 0 1 10.739 8.522h-21.892c.749-4.332 4.995-8.522 11.153-8.522z" transform="translate(-523.426 -178.01)"/></svg>