<svg xmlns="http://www.w3.org/2000/svg" width="50.011" height="44.874" viewBox="0 0 50.011 44.874"><defs><style>.a,.b{fill:none;}.a,.b,.c,.d{stroke:#000;stroke-linejoin:round;}.b,.c{stroke-linecap:round;}.d{fill:#fff;}</style></defs><g transform="translate(-148.09 -21.007)"><path class="a" d="M155.714,21.507h26.354V65.382H148.59V28.565" transform="translate(0)"/><path class="a" d="M155.714,21.507v7.124H148.59Z" transform="translate(0)"/><g transform="translate(154.329 33.42)"><g transform="translate(0 0)"><line class="b" x2="18.139" transform="translate(4.18 0.723)"/><circle class="c" cx="0.723" cy="0.723" r="0.723"/></g><g transform="translate(0 4.082)"><line class="b" x2="18.139" transform="translate(4.18 0.723)"/><circle class="c" cx="0.723" cy="0.723" r="0.723"/></g><g transform="translate(0 8.164)"><line class="b" x2="18.139" transform="translate(4.18 0.723)"/><circle class="c" cx="0.723" cy="0.723" r="0.723"/></g><g transform="translate(0 12.247)"><line class="b" x2="18.139" transform="translate(4.18 0.723)"/><circle class="c" cx="0.723" cy="0.723" r="0.723"/></g><g transform="translate(0 16.329)"><line class="b" x2="18.139" transform="translate(4.18 0.723)"/><circle class="c" cx="0.723" cy="0.723" r="0.723"/></g><g transform="translate(0 20.411)"><line class="b" x2="18.139" transform="translate(4.18 0.723)"/><circle class="c" cx="0.723" cy="0.723" r="0.723"/></g></g><g transform="translate(169.604 33.114)"><path class="d" d="M196.645,35.35,174.864,57.13a.606.606,0,0,0-.155.268l-1.354,5.012a.6.6,0,0,0,.738.738l5.012-1.354a.607.607,0,0,0,.268-.155l21.781-21.781a.6.6,0,0,0,0-.851L197.5,35.35A.6.6,0,0,0,196.645,35.35Z" transform="translate(-173.334 -35.173)"/><line class="b" x2="2.777" y2="2.777" transform="translate(3.07 23.767)"/><line class="b" x2="2.777" y2="2.777" transform="translate(23.217 3.621)"/></g></g></svg>