<svg xmlns="http://www.w3.org/2000/svg" width="63.995" height="40.898" viewBox="0 0 63.995 40.898"><defs><style>.a,.c{fill:none;}.a,.b,.c,.d{stroke:#000;stroke-linejoin:round;}.c,.d{stroke-linecap:round;}</style></defs><g transform="translate(-60.547 -46.077)"><path class="a" d="M3.284,0H48.826A3.284,3.284,0,0,1,52.11,3.284V34.166a0,0,0,0,1,0,0H0a0,0,0,0,1,0,0V3.284A3.284,3.284,0,0,1,3.284,0Z" transform="translate(66.49 46.577)"/><rect class="a" width="48.581" height="30.794" transform="translate(68.254 49.949)"/><path class="a" d="M0,0H63a0,0,0,0,1,0,0V0a3.2,3.2,0,0,1-3.2,3.2H3.2A3.2,3.2,0,0,1,0,0V0A0,0,0,0,1,0,0Z" transform="translate(61.047 83.272)"/><rect class="b" width="16.016" height="2.65" rx="1.325" transform="translate(84.537 72.753)"/><g transform="translate(78.81 56.436)"><line class="c" x2="23.64" transform="translate(3.831 0.662)"/><circle class="d" cx="0.662" cy="0.662" r="0.662"/><g transform="translate(0 3.333)"><line class="c" x2="23.64" transform="translate(3.831 0.662)"/><circle class="d" cx="0.662" cy="0.662" r="0.662"/></g><g transform="translate(0 6.693)"><line class="c" x2="23.64" transform="translate(3.831 0.662)"/><circle class="d" cx="0.662" cy="0.662" r="0.662"/></g><g transform="translate(0 10.176)"><line class="c" x2="23.64" transform="translate(3.831 0.662)"/><circle class="d" cx="0.662" cy="0.662" r="0.662"/></g></g></g></svg>