<svg xmlns="http://www.w3.org/2000/svg" width="48.336" height="43.373" viewBox="0 0 48.336 43.373"><defs><style>.a,.b{fill:#fff;stroke:#000;stroke-linecap:round;}.a{stroke-linejoin:round;}.b{stroke-miterlimit:10;}</style></defs><g transform="translate(-323.972 -24.088)"><path class="a" d="M329.722,26.942l14.384-.632L348.69,31.1l4.8,2.063,12.223,12.121,3.591,3.515c2.895,3.264.307,5.3.307,5.3-2.279,1.786-4.741-.246-4.741-.246a3.206,3.206,0,0,1-1.232,4.126,3.754,3.754,0,0,1-3.757,0,3.676,3.676,0,0,1-1.232,3.756c-1.97,1.417-4.434-.184-4.434-.184A2.939,2.939,0,0,1,353,65.123c-2.093,1.17-4.447-.867-4.447-.867l-2.341-2.463" transform="translate(0.008 0.003)"/><path class="a" d="M349.139,64.623l-4.2-4.515L325.613,40.78l2.748-9.244" transform="translate(0.001 0.011)"/><path class="a" d="M369.845,35.4,367.4,26.945l-9.361.616-8.868-2.709a4.664,4.664,0,0,0-1.786-.246c-1.355-.005-3.222,1.735-3.222,1.735l-4.734,3.95a2.892,2.892,0,0,0-.368,4.072l.025.029a2.891,2.891,0,0,0,4.071.368l4.734-3.95,5.805,2.51,13.579,13.518.307-.37,4-5.05" transform="translate(0.021)"/><g transform="translate(324.676 41.817)"><rect class="b" width="11.947" height="5.82" rx="2.905" transform="matrix(0.768, -0.641, 0.641, 0.768, 0, 7.654)"/><rect class="b" width="11.947" height="5.82" rx="2.905" transform="matrix(0.768, -0.641, 0.641, 0.768, 4.226, 11.974)"/><rect class="b" width="11.947" height="5.82" rx="2.905" transform="matrix(0.768, -0.641, 0.641, 0.768, 8.314, 16.152)"/><rect class="b" width="11.947" height="5.82" rx="2.905" transform="matrix(0.768, -0.641, 0.641, 0.768, 12.541, 20.472)"/></g><line class="a" x1="2.217" y1="2.217" transform="translate(362.674 51.598)"/><line class="a" x1="2.217" y1="2.217" transform="translate(357.739 55.92)"/><line class="a" x1="1.187" y1="1.381" transform="translate(353.039 60.169)"/></g></svg>