<?xml version="1.0" encoding="utf-8"?>
<!-- Generator: Adobe Illustrator 25.4.1, SVG Export Plug-In . SVG Version: 6.00 Build 0)  -->
<svg version="1.1" id="レイヤー_1" xmlns="http://www.w3.org/2000/svg" xmlns:xlink="http://www.w3.org/1999/xlink" x="0px"
	 y="0px" viewBox="0 0 226.5 153" style="enable-background:new 0 0 226.5 153;" xml:space="preserve">
<style type="text/css">
	.st0{fill:#FFFFFF;}
	.st1{fill:#221714;}
	.st2{clip-path:url(#SVGID_00000138567645973074733020000005365372751561132214_);}
	.st3{fill:#FFFFFF;stroke:#A0A0A0;stroke-miterlimit:10;}
	.st4{fill:#FFFFFF;stroke:#A0A0A0;stroke-linecap:round;stroke-linejoin:round;}
	.st5{fill:none;stroke:#A0A0A0;stroke-linecap:round;stroke-linejoin:round;}
	.st6{enable-background:new    ;}
	.st7{fill:none;stroke:#000000;}
</style>
<g id="グループ_1671">
	<g id="グループ_1668">
		<ellipse id="楕円形_136" class="st0" cx="190.9" cy="11" rx="7.9" ry="10.6"/>
		<path id="パス_2178" class="st1" d="M191,22c-0.2,0-0.4-0.2-0.4-0.4c-0.8-8.5-1.2-9.2-7.6-10.2c-0.2,0-0.4-0.3-0.4-0.5
			c0-0.2,0.2-0.3,0.4-0.4c6.3-1,6.8-1.7,7.6-10.2c0-0.2,0.2-0.4,0.4-0.4s0.4,0.2,0.4,0.4c0.8,8.5,1.2,9.2,7.6,10.2
			c0.2,0,0.4,0.3,0.4,0.5c0,0.2-0.2,0.3-0.4,0.4c-6.3,1-6.8,1.7-7.6,10.2C191.4,21.8,191.2,22,191,22z M185.5,11
			c3.7,0.8,4.8,2.1,5.5,6.6c0.7-4.5,1.8-5.8,5.5-6.6c-3.7-0.8-4.8-2.1-5.5-6.6C190.3,8.9,189.2,10.2,185.5,11z"/>
	</g>
	<g id="グループ_1669">
		<ellipse id="楕円形_136-2" class="st0" cx="54" cy="28.8" rx="7.9" ry="10.6"/>
		<path id="パス_2178-2" class="st1" d="M54,39.8c-0.2,0-0.4-0.2-0.4-0.4c-0.8-8.5-1.2-9.2-7.5-10.2c-0.2,0-0.4-0.2-0.4-0.5
			c0,0,0,0,0,0c0-0.2,0.2-0.3,0.4-0.4c6.3-1,6.8-1.7,7.5-10.2c0-0.2,0.2-0.4,0.5-0.4c0.2,0,0.4,0.2,0.4,0.4
			c0.8,8.5,1.2,9.2,7.5,10.2c0.2,0,0.4,0.3,0.4,0.5c0,0.2-0.2,0.3-0.4,0.4c-6.3,1-6.8,1.7-7.5,10.2C54.4,39.6,54.2,39.8,54,39.8z
			 M48.5,28.8c3.7,0.8,4.8,2.1,5.5,6.6c0.7-4.5,1.8-5.8,5.5-6.6c-3.7-0.8-4.8-2.1-5.5-6.6C53.3,26.6,52.2,27.9,48.5,28.8z"/>
	</g>
	<g id="グループ_1670">
		<ellipse id="楕円形_137" class="st0" cx="176.2" cy="27.4" rx="5.9" ry="7.9"/>
		<path id="パス_2179" class="st1" d="M176.2,35.8c-0.2,0-0.4-0.2-0.4-0.4c-0.6-6.4-0.9-6.8-5.6-7.5c-0.2,0-0.4-0.3-0.4-0.5
			c0-0.2,0.2-0.3,0.4-0.4c4.7-0.7,5-1.2,5.6-7.5c0-0.2,0.2-0.4,0.5-0.4c0.2,0,0.4,0.2,0.4,0.4c0.6,6.4,0.9,6.8,5.6,7.5
			c0.2,0,0.4,0.3,0.4,0.5c0,0.2-0.2,0.3-0.4,0.4c-4.7,0.7-5,1.2-5.6,7.5C176.6,35.6,176.4,35.8,176.2,35.8z M172.6,27.4
			c2.3,0.6,3.2,1.6,3.6,4.3c0.5-2.7,1.4-3.7,3.6-4.3c-2.3-0.6-3.1-1.5-3.6-4.3C175.7,25.8,174.9,26.8,172.6,27.4z"/>
	</g>
	<g>
		<defs>
			<rect id="SVGID_1_" y="36.1" width="226.5" height="116.8"/>
		</defs>
		<clipPath id="SVGID_00000028289400842567969030000005216116727057245374_">
			<use xlink:href="#SVGID_1_"  style="overflow:visible;"/>
		</clipPath>
		<g style="clip-path:url(#SVGID_00000028289400842567969030000005216116727057245374_);">
			<g id="グループ_1663">
				<path id="パス_1180" class="st3" d="M90.3,124.6V57.4c0-3.5,2.8-6.3,6.3-6.3c0,0,0,0,0,0h33.3c3.5,0,6.3,2.8,6.3,6.3l0,0v78.9
					c0,3.5-2.8,6.3-6.3,6.3H96.6c-3.5,0-6.3-2.8-6.3-6.3l0,0L90.3,124.6z"/>
				<g id="グループ_1615">
					<path id="パス_1180-2" class="st4" d="M90.3,124.6V57.4c0-3.5,2.8-6.3,6.3-6.3c0,0,0,0,0,0h33.3c3.5,0,6.3,2.8,6.3,6.3l0,0
						v78.9c0,3.5-2.8,6.3-6.3,6.3H96.6c-3.5,0-6.3-2.8-6.3-6.3l0,0"/>
					<path id="パス_1181" class="st5" d="M132.9,65.9v67.7H93.7V60.2h39.3"/>
					<line id="線_190" class="st5" x1="109.1" y1="56" x2="117.4" y2="56"/>
				</g>
			</g>
			<g id="グループ_1664">
				<path id="パス_1180-3" class="st3" d="M146.8,124.6V57.4c0-3.5,2.8-6.3,6.3-6.3c0,0,0,0,0,0h33.3c3.5,0,6.3,2.8,6.3,6.3l0,0
					v78.9c0,3.5-2.8,6.3-6.3,6.3h-33.3c-3.5,0-6.3-2.8-6.3-6.3l0,0V124.6z"/>
				<g id="グループ_1615-2">
					<path id="パス_1180-4" class="st4" d="M146.8,124.6V57.4c0-3.5,2.8-6.3,6.3-6.3c0,0,0,0,0,0h33.3c3.5,0,6.3,2.8,6.3,6.3l0,0
						v78.9c0,3.5-2.8,6.3-6.3,6.3h-33.3c-3.5,0-6.3-2.8-6.3-6.3l0,0"/>
					<path id="パス_1181-2" class="st5" d="M189.5,65.9v67.7h-39.3V60.2h39.3"/>
					<line id="線_190-2" class="st5" x1="165.7" y1="56" x2="174" y2="56"/>
				</g>
			</g>
			<g id="グループ_1665">
				<path id="パス_1180-5" class="st3" d="M203.5,124.6V57.4c0-3.5,2.8-6.3,6.3-6.3c0,0,0,0,0,0h33.3c3.5,0,6.3,2.8,6.3,6.3l0,0
					v78.9c0,3.5-2.8,6.3-6.3,6.3h-33.3c-3.5,0-6.3-2.8-6.3-6.3l0,0L203.5,124.6z"/>
				<g id="グループ_1615-3">
					<path id="パス_1180-6" class="st4" d="M203.5,124.6V57.4c0-3.5,2.8-6.3,6.3-6.3c0,0,0,0,0,0h33.3c3.5,0,6.3,2.8,6.3,6.3l0,0
						v78.9c0,3.5-2.8,6.3-6.3,6.3h-33.3c-3.5,0-6.3-2.8-6.3-6.3l0,0"/>
					<path id="パス_1181-3" class="st5" d="M246.2,65.9v67.7h-39.3V60.2h39.3"/>
					<line id="線_190-3" class="st5" x1="222.4" y1="56" x2="230.7" y2="56"/>
				</g>
			</g>
			<g id="グループ_1666">
				<path id="パス_1180-7" class="st3" d="M-22.8,124.6V57.4c0-3.5,2.8-6.3,6.3-6.3h33.3c3.5,0,6.3,2.8,6.3,6.3c0,0,0,0,0,0l0,0
					v78.9c0,3.5-2.8,6.3-6.3,6.3c0,0,0,0,0,0h-33.3c-3.5,0-6.3-2.8-6.3-6.3l0,0V124.6z"/>
				<g id="グループ_1615-4">
					<path id="パス_1180-8" class="st4" d="M-22.8,124.6V57.4c0-3.5,2.8-6.3,6.3-6.3h33.3c3.5,0,6.3,2.8,6.3,6.3c0,0,0,0,0,0l0,0
						v78.9c0,3.5-2.8,6.3-6.3,6.3c0,0,0,0,0,0h-33.3c-3.5,0-6.3-2.8-6.3-6.3l0,0"/>
					<path id="パス_1181-4" class="st5" d="M19.8,65.9v67.7h-39.3V60.2h39.3"/>
					<line id="線_190-4" class="st5" x1="-4" y1="56" x2="4.3" y2="56"/>
				</g>
			</g>
			<g id="グループ_1667">
				<path id="パス_1180-9" class="st3" d="M33.7,124.6V57.4c0-3.5,2.8-6.3,6.3-6.3c0,0,0,0,0,0h33.3c3.5,0,6.3,2.8,6.3,6.3l0,0
					v78.9c0,3.5-2.8,6.3-6.3,6.3H40.1c-3.5,0-6.3-2.8-6.3-6.3l0,0V124.6z"/>
				<g id="グループ_1615-5">
					<path id="パス_1180-10" class="st4" d="M33.7,124.6V57.4c0-3.5,2.8-6.3,6.3-6.3c0,0,0,0,0,0h33.3c3.5,0,6.3,2.8,6.3,6.3l0,0
						v78.9c0,3.5-2.8,6.3-6.3,6.3H40.1c-3.5,0-6.3-2.8-6.3-6.3l0,0"/>
					<path id="パス_1181-5" class="st5" d="M76.4,65.9v67.7H37.1V60.2h39.3"/>
					<line id="線_190-5" class="st5" x1="52.6" y1="56" x2="60.9" y2="56"/>
				</g>
			</g>
			<g id="CLEAR">
				<g class="st6">
					<path class="st0" d="M56.6,114.7c-3.5,0-6.4-1.3-8.6-3.5c-3.2-3.2-3.1-7.2-3.1-12.8c0-5.5-0.1-9.5,3.1-12.8
						c2.2-2.2,5.1-3.5,8.6-3.5c6,0,10.7,3.4,11.8,10.1h-6.3c-0.6-2.6-2.2-4.5-5.4-4.5c-1.7,0-3.1,0.6-4,1.7c-1.2,1.4-1.6,2.9-1.6,9
						s0.4,7.7,1.6,9c0.9,1,2.3,1.7,4,1.7c3.1,0,4.8-2,5.4-4.5h6.3C67.3,111.2,62.6,114.7,56.6,114.7z"/>
					<path class="st0" d="M73.8,114.4v-32h6.3v26.5h14.5v5.6H73.8z"/>
					<path class="st0" d="M99.7,114.4v-32h21.1v5.6H106v7.5h12.6v5.6H106v7.8h14.8v5.6H99.7z"/>
					<path class="st0" d="M145.2,114.4l-1.9-5.7h-11.4l-1.9,5.7h-6.5l11.7-32h4.9l11.7,32H145.2z M137.7,91.8l-4,11.7h8L137.7,91.8z
						"/>
					<path class="st0" d="M172.7,114.4l-6.3-12.8h-4.5v12.8h-6.3v-32h12.6c6.5,0,10.4,4.5,10.4,9.8c0,4.5-2.7,7.3-5.8,8.4l7.2,13.8
						H172.7z M167.8,87.9h-5.9v8.5h5.9c2.7,0,4.5-1.8,4.5-4.2C172.3,89.7,170.5,87.9,167.8,87.9z"/>
				</g>
				<g class="st6">
					<path class="st7" d="M56.6,114.7c-3.5,0-6.4-1.3-8.6-3.5c-3.2-3.2-3.1-7.2-3.1-12.8c0-5.5-0.1-9.5,3.1-12.8
						c2.2-2.2,5.1-3.5,8.6-3.5c6,0,10.7,3.4,11.8,10.1h-6.3c-0.6-2.6-2.2-4.5-5.4-4.5c-1.7,0-3.1,0.6-4,1.7c-1.2,1.4-1.6,2.9-1.6,9
						s0.4,7.7,1.6,9c0.9,1,2.3,1.7,4,1.7c3.1,0,4.8-2,5.4-4.5h6.3C67.3,111.2,62.6,114.7,56.6,114.7z"/>
					<path class="st7" d="M73.8,114.4v-32h6.3v26.5h14.5v5.6H73.8z"/>
					<path class="st7" d="M99.7,114.4v-32h21.1v5.6H106v7.5h12.6v5.6H106v7.8h14.8v5.6H99.7z"/>
					<path class="st7" d="M145.2,114.4l-1.9-5.7h-11.4l-1.9,5.7h-6.5l11.7-32h4.9l11.7,32H145.2z M137.7,91.8l-4,11.7h8L137.7,91.8z
						"/>
					<path class="st7" d="M172.7,114.4l-6.3-12.8h-4.5v12.8h-6.3v-32h12.6c6.5,0,10.4,4.5,10.4,9.8c0,4.5-2.7,7.3-5.8,8.4l7.2,13.8
						H172.7z M167.8,87.9h-5.9v8.5h5.9c2.7,0,4.5-1.8,4.5-4.2C172.3,89.7,170.5,87.9,167.8,87.9z"/>
				</g>
			</g>
		</g>
	</g>
</g>
</svg>
