<svg xmlns="http://www.w3.org/2000/svg" width="388.91" height="71.29" viewBox="0 0 388.91 71.29"><defs><style>.a{fill:none;stroke:#000;stroke-linecap:round;stroke-linejoin:round;stroke-width:0.53px;}</style></defs><g transform="translate(6.955 -21.535)"><path class="a" d="M233,73.74H214.36L212.85,80h1.73V92.52h18.24V80h1.73Z"/><rect class="a" width="4.26" height="4.26" transform="translate(218.62 81.56)"/><rect class="a" width="4.26" height="4.26" transform="translate(224.61 81.56)"/><path class="a" d="M95.77,86.43v6.09H66V41.64H95.77v34"/><rect class="a" width="5.67" height="2.11" transform="translate(70.1 47.61)"/><rect class="a" width="5.67" height="2.11" transform="translate(78.04 47.61)"/><rect class="a" width="5.67" height="2.11" transform="translate(85.98 47.61)"/><rect class="a" width="5.67" height="2.11" transform="translate(70.1 53.88)"/><rect class="a" width="5.67" height="2.11" transform="translate(78.04 53.88)"/><rect class="a" width="5.67" height="2.11" transform="translate(85.98 53.88)"/><rect class="a" width="5.67" height="2.11" transform="translate(70.1 60.15)"/><rect class="a" width="5.67" height="2.11" transform="translate(78.04 60.15)"/><rect class="a" width="5.67" height="2.11" transform="translate(85.98 60.15)"/><rect class="a" width="5.67" height="2.11" transform="translate(70.1 66.42)"/><rect class="a" width="5.67" height="2.11" transform="translate(78.04 66.42)"/><rect class="a" width="5.67" height="2.11" transform="translate(85.98 66.42)"/><rect class="a" width="5.67" height="2.11" transform="translate(70.1 72.69)"/><rect class="a" width="5.67" height="2.11" transform="translate(78.04 72.69)"/><rect class="a" width="5.67" height="2.11" transform="translate(85.98 72.69)"/><path class="a" d="M105,86.56h5.9a4.59,4.59,0,0,0,2-8.7h0a5.55,5.55,0,0,0-6.36-4.43,6.54,6.54,0,0,0-11.23,4.19,4.59,4.59,0,0,0,1.48,8.94h5.9"/><rect class="a" width="2.26" height="9.57" transform="translate(102.73 82.95)"/><path class="a" d="M7.27,64.71V26.35a4.54,4.54,0,0,1,4.55-4.55H55a4.55,4.55,0,0,1,4.54,4.55V88A4.55,4.55,0,0,1,55,92.52H16.45"/><path class="a" d="M9.78,64.71V28.09H57.11"/><path class="a" d="M57.11,32.26V85.73H31.36"/><circle cx="0.72" cy="0.72" r="0.72" transform="translate(32.72 24.33)"/><path class="a" d="M329.36,64.71V26.35a4.54,4.54,0,0,1,4.54-4.55h43.24a4.54,4.54,0,0,1,4.55,4.55V88a4.55,4.55,0,0,1-4.55,4.55H347.73"/><path class="a" d="M331.86,64.71V28.09h47.32"/><path class="a" d="M379.19,32.26V85.73H347.73"/><circle cx="0.72" cy="0.72" r="0.72" transform="translate(354.81 24.33)"/><path class="a" d="M16.45,87v5.53H-6.69V64.71H16.45v9.5"/><rect class="a" width="23.14" height="4.56" transform="translate(-6.69 60.15)"/><line class="a" y2="4.56" transform="translate(1.03 60.15)"/><line class="a" y2="4.56" transform="translate(4.88 60.15)"/><line class="a" y2="4.56" transform="translate(8.74 60.15)"/><line class="a" y2="4.56" transform="translate(16.45 60.15)"/><line class="a" y2="4.56" transform="translate(12.59 60.15)"/><rect class="a" width="5.67" height="2.11" transform="translate(-1.92 68.7)"/><rect class="a" width="5.67" height="2.11" transform="translate(6.02 68.7)"/><rect class="a" width="5.67" height="2.11" transform="translate(-1.92 73.74)"/><rect class="a" width="5.67" height="2.11" transform="translate(6.02 73.74)"/><rect class="a" width="5.67" height="2.11" transform="translate(-1.92 78.78)"/><rect class="a" width="5.67" height="2.11" transform="translate(6.02 78.78)"/><path class="a" d="M24.67,87c.22-.06.45-.14.66-.22a6,6,0,0,0,4.63-11h0v-.4a4.25,4.25,0,0,0-4.25-4.25h0a4.16,4.16,0,0,0-2.91,1.14,5.29,5.29,0,0,0-7,6.5,4.443,4.443,0,1,0,3.87,8h.07l.21-.11a6.65,6.65,0,0,0,2.25.61"/><rect class="a" width="2.42" height="9.42" transform="translate(22.18 83.1)"/><path class="a" d="M293,81.86V42.27a3.75,3.75,0,0,1,3.73-3.74H316.4a3.74,3.74,0,0,1,3.74,3.74h0V88.78a3.75,3.75,0,0,1-3.74,3.74H296.73A3.74,3.74,0,0,1,293,88.78h0"/><path class="a" d="M318.12,47.25V87.16H295V43.89h23.14"/><line class="a" x2="4.89" transform="translate(304.11 41.44)"/><rect class="a" width="23.14" height="27.81" transform="translate(324.6 64.71)"/><rect class="a" width="5.67" height="2.11" transform="translate(329.36 68.7)"/><rect class="a" width="5.67" height="2.11" transform="translate(337.3 68.7)"/><rect class="a" width="5.67" height="2.11" transform="translate(329.36 73.74)"/><rect class="a" width="5.67" height="2.11" transform="translate(337.3 73.74)"/><rect class="a" width="5.67" height="2.11" transform="translate(329.36 78.78)"/><rect class="a" width="5.67" height="2.11" transform="translate(337.3 78.78)"/><path class="a" d="M278.18,86.56v6H238.52V53.57h39.66v18"/><rect class="a" width="5.67" height="2.11" transform="translate(243.56 60.22)"/><rect class="a" width="5.67" height="2.11" transform="translate(251.5 60.22)"/><rect class="a" width="5.67" height="2.11" transform="translate(259.44 60.22)"/><rect class="a" width="5.67" height="2.11" transform="translate(267.47 60.22)"/><rect class="a" width="5.67" height="2.11" transform="translate(243.56 66.75)"/><rect class="a" width="5.67" height="2.11" transform="translate(251.5 66.75)"/><rect class="a" width="5.67" height="2.11" transform="translate(259.44 66.75)"/><rect class="a" width="5.67" height="2.11" transform="translate(267.47 66.75)"/><rect class="a" width="5.67" height="2.11" transform="translate(243.56 73.27)"/><rect class="a" width="5.67" height="2.11" transform="translate(251.5 73.27)"/><rect class="a" width="5.67" height="2.11" transform="translate(259.44 73.27)"/><rect class="a" width="5.67" height="2.11" transform="translate(267.47 73.27)"/><rect class="a" width="5.67" height="2.11" transform="translate(243.56 79.8)"/><rect class="a" width="5.67" height="2.11" transform="translate(251.5 79.8)"/><rect class="a" width="5.67" height="2.11" transform="translate(259.44 79.8)"/><path class="a" d="M269.65,81.91h-2.18V79.8h2.73"/><rect class="a" width="39.66" height="4.86" transform="translate(238.52 48.82)"/><line class="a" y2="4.86" transform="translate(238.52 48.82)"/><line class="a" y2="4.86" transform="translate(245.13 48.82)"/><line class="a" y2="4.86" transform="translate(251.74 48.82)"/><line class="a" y2="4.86" transform="translate(258.35 48.82)"/><line class="a" y2="4.86" transform="translate(264.96 48.82)"/><line class="a" y2="4.86" transform="translate(278.18 48.82)"/><line class="a" y2="4.86" transform="translate(271.57 48.82)"/><path class="a" d="M282.4,86.56h5.9a4.59,4.59,0,0,0,2.05-8.7h0A5.55,5.55,0,0,0,284,73.43a6.54,6.54,0,0,0-11.23,4.19,4.59,4.59,0,0,0,1.48,8.94h5.9"/><rect class="a" width="2.26" height="9.57" transform="translate(280.14 82.95)"/><rect class="a" width="18.37" height="36.41" transform="translate(150.78 56.11)"/><rect class="a" width="5.67" height="2.11" transform="translate(153.16 59.79)"/><rect class="a" width="5.67" height="2.11" transform="translate(161.1 59.79)"/><rect class="a" width="5.67" height="2.11" transform="translate(153.16 64.83)"/><rect class="a" width="5.67" height="2.11" transform="translate(161.1 64.83)"/><rect class="a" width="5.67" height="2.11" transform="translate(153.16 69.87)"/><rect class="a" width="5.67" height="2.11" transform="translate(161.1 69.87)"/><rect class="a" width="5.67" height="2.11" transform="translate(153.16 74.92)"/><rect class="a" width="5.67" height="2.11" transform="translate(161.1 74.92)"/><rect class="a" width="5.67" height="2.11" transform="translate(153.16 79.96)"/><rect class="a" width="5.67" height="2.11" transform="translate(161.1 79.96)"/><path class="a" d="M121.61,83.58V50.38a3.13,3.13,0,0,1,3.13-3.13h16.47a3.13,3.13,0,0,1,3.13,3.13h0v39a3.14,3.14,0,0,1-3.13,3.14H124.74a3.14,3.14,0,0,1-3.13-3.14h0"/><path class="a" d="M142.68,54.56V88H123.27V51.74h19.41"/><line class="a" x2="4.09" transform="translate(130.93 49.69)"/><line class="a" x1="89.95" transform="translate(181.77 92.52)"/></g></svg>