<svg id="レイヤー_2" data-name="レイヤー 2" xmlns="http://www.w3.org/2000/svg" xmlns:xlink="http://www.w3.org/1999/xlink" viewBox="0 0 750 1220.38"><defs><style>.cls-1{fill:none;}.cls-2{clip-path:url(#clip-path);}.cls-3{fill:#fff;}</style><clipPath id="clip-path"><rect id="長方形_741" data-name="長方形 741" class="cls-1" width="750" height="1220.37"/></clipPath></defs><g class="cls-2"><path class="cls-3" d="M930,379.7C930,169.83,681.52-.3,375-.3s-555,170.13-555,380c0,110.88,69.37,210.67,180,280.13v560.55H750V659.83C860.64,590.37,930,490.58,930,379.7Z"/><g id="グループ_1133" data-name="グループ 1133"><g id="グループ_1135" data-name="グループ 1135"><path d="M465.59,876.06H429.1a.52.52,0,0,1-.52-.53V851.08h-2.94a.54.54,0,0,1-.41-.2.52.52,0,0,1-.1-.45l3-12.58a.53.53,0,0,1,.52-.41H466a.52.52,0,0,1,.51.41l3,12.58a.56.56,0,0,1-.1.45.54.54,0,0,1-.41.2h-2.93v24.45A.53.53,0,0,1,465.59,876.06Zm-36-1h35.43V850.55a.52.52,0,0,1,.53-.52h2.79l-2.75-11.53H429.07L426.31,850h2.79a.52.52,0,0,1,.53.52Z"/><path d="M445.7,862.65h-8.52a.53.53,0,0,1-.53-.53v-8.51a.53.53,0,0,1,.53-.53h8.52a.52.52,0,0,1,.52.53v8.51A.52.52,0,0,1,445.7,862.65Zm-8-1h7.46v-7.47h-7.46Z"/><path d="M457.69,862.65h-8.52a.53.53,0,0,1-.53-.53v-8.51a.53.53,0,0,1,.53-.53h8.52a.52.52,0,0,1,.52.53v8.51A.52.52,0,0,1,457.69,862.65Zm-8-1h7.46v-7.47H449.7Z"/></g><g id="グループ_1152" data-name="グループ 1152"><path d="M191.48,876.05H131.9a.52.52,0,0,1-.52-.52V773.77a.52.52,0,0,1,.52-.53h59.58a.52.52,0,0,1,.52.53v68a.52.52,0,0,1-.52.53.53.53,0,0,1-.53-.53V774.3H132.43V875H191V863.36a.53.53,0,0,1,.53-.53.52.52,0,0,1,.52.53v12.17A.52.52,0,0,1,191.48,876.05Z"/><g id="グループ_1147" data-name="グループ 1147"><path d="M151.48,790.46H140.14a.53.53,0,0,1-.53-.53v-4.21a.53.53,0,0,1,.53-.53h11.34a.53.53,0,0,1,.53.53v4.21A.53.53,0,0,1,151.48,790.46Zm-10.82-1.05H151v-3.17H140.66Z"/><path d="M167.36,790.46H156a.53.53,0,0,1-.53-.53v-4.21a.53.53,0,0,1,.53-.53h11.34a.53.53,0,0,1,.53.53v4.21A.53.53,0,0,1,167.36,790.46Zm-10.82-1.05h10.29v-3.17H156.54Z"/><path d="M183.24,790.46H171.9a.53.53,0,0,1-.53-.53v-4.21a.53.53,0,0,1,.53-.53h11.34a.53.53,0,0,1,.53.53v4.21A.53.53,0,0,1,183.24,790.46Zm-10.82-1.05h10.29v-3.17H172.42Z"/></g><g id="グループ_1148" data-name="グループ 1148"><path d="M151.48,803H140.14a.52.52,0,0,1-.53-.52v-4.22a.52.52,0,0,1,.53-.52h11.34a.52.52,0,0,1,.53.52v4.22A.52.52,0,0,1,151.48,803Zm-10.82-1H151v-3.16H140.66Z"/><path d="M167.36,803H156a.52.52,0,0,1-.53-.52v-4.22a.52.52,0,0,1,.53-.52h11.34a.52.52,0,0,1,.53.52v4.22A.52.52,0,0,1,167.36,803Zm-10.82-1h10.29v-3.16H156.54Z"/><path d="M183.24,803H171.9a.52.52,0,0,1-.53-.52v-4.22a.52.52,0,0,1,.53-.52h11.34a.52.52,0,0,1,.53.52v4.22A.52.52,0,0,1,183.24,803Zm-10.82-1h10.29v-3.16H172.42Z"/></g><g id="グループ_1149" data-name="グループ 1149"><path d="M151.48,815.53H140.14a.53.53,0,0,1-.53-.53v-4.21a.53.53,0,0,1,.53-.53h11.34a.53.53,0,0,1,.53.53V815A.53.53,0,0,1,151.48,815.53Zm-10.82-1H151v-3.16H140.66Z"/><path d="M167.36,815.53H156a.53.53,0,0,1-.53-.53v-4.21a.53.53,0,0,1,.53-.53h11.34a.53.53,0,0,1,.53.53V815A.53.53,0,0,1,167.36,815.53Zm-10.82-1h10.29v-3.16H156.54Z"/><path d="M183.24,815.53H171.9a.53.53,0,0,1-.53-.53v-4.21a.53.53,0,0,1,.53-.53h11.34a.53.53,0,0,1,.53.53V815A.53.53,0,0,1,183.24,815.53Zm-10.82-1h10.29v-3.16H172.42Z"/></g><g id="グループ_1150" data-name="グループ 1150"><path d="M151.48,828.07H140.14a.53.53,0,0,1-.53-.53v-4.21a.53.53,0,0,1,.53-.53h11.34a.53.53,0,0,1,.53.53v4.21A.53.53,0,0,1,151.48,828.07ZM140.66,827H151v-3.16H140.66Z"/><path d="M167.36,828.07H156a.53.53,0,0,1-.53-.53v-4.21a.53.53,0,0,1,.53-.53h11.34a.53.53,0,0,1,.53.53v4.21A.53.53,0,0,1,167.36,828.07ZM156.54,827h10.29v-3.16H156.54Z"/><path d="M183.24,828.07H171.9a.53.53,0,0,1-.53-.53v-4.21a.53.53,0,0,1,.53-.53h11.34a.53.53,0,0,1,.53.53v4.21A.53.53,0,0,1,183.24,828.07ZM172.42,827h10.29v-3.16H172.42Z"/></g><g id="グループ_1151" data-name="グループ 1151"><path d="M151.48,840.6H140.14a.52.52,0,0,1-.53-.52v-4.22a.52.52,0,0,1,.53-.52h11.34a.52.52,0,0,1,.53.52v4.22A.52.52,0,0,1,151.48,840.6Zm-10.82-1.05H151v-3.16H140.66Z"/><path d="M167.36,840.6H156a.52.52,0,0,1-.53-.52v-4.22a.52.52,0,0,1,.53-.52h11.34a.52.52,0,0,1,.53.52v4.22A.52.52,0,0,1,167.36,840.6Zm-10.82-1.05h10.29v-3.16H156.54Z"/><path d="M183.24,840.6H171.9a.52.52,0,0,1-.53-.52v-4.22a.52.52,0,0,1,.53-.52h11.34a.52.52,0,0,1,.53.52v4.22A.52.52,0,0,1,183.24,840.6Zm-10.82-1.05h10.29v-3.16H172.42Z"/></g></g><g id="グループ_1153" data-name="グループ 1153"><path d="M221.73,864.13H209.92a.52.52,0,0,1-.52-.52.52.52,0,0,1,.52-.53h11.81a8.65,8.65,0,0,0,3.86-16.4.52.52,0,0,1-.29-.38,10.62,10.62,0,0,0-12.12-8.43.52.52,0,0,1-.46-.15,12.54,12.54,0,0,0-21.55,8,.52.52,0,0,1-.36.47,8.66,8.66,0,0,0,2.79,16.85h11.8a.53.53,0,0,1,.53.53.52.52,0,0,1-.53.52H193.6a9.71,9.71,0,0,1-3.46-18.78,13.6,13.6,0,0,1,23.14-8.56,11.69,11.69,0,0,1,13,9.06,9.71,9.71,0,0,1-4.55,18.28Z"/><path d="M209.92,876.05H205.4a.52.52,0,0,1-.52-.52V856.39a.52.52,0,0,1,.52-.53h4.52a.53.53,0,0,1,.53.53v19.14A.52.52,0,0,1,209.92,876.05Zm-4-1h3.47V856.92h-3.47Z"/></g><g id="グループ_1154" data-name="グループ 1154"><path d="M110.08,876.06H32.84a.53.53,0,0,1,0-1.06h77.24a8.57,8.57,0,0,0,8.56-8.56V743.19a8.57,8.57,0,0,0-8.56-8.57H23.58A8.58,8.58,0,0,0,15,743.19v76.73a.52.52,0,0,1-.52.52.52.52,0,0,1-.53-.52V743.19a9.63,9.63,0,0,1,9.62-9.62h86.5a9.63,9.63,0,0,1,9.62,9.62V866.44A9.64,9.64,0,0,1,110.08,876.06Z"/><path d="M19.49,820.44a.52.52,0,0,1-.52-.52V746.68a.52.52,0,0,1,.52-.53h94.68a.53.53,0,0,1,0,1.06H20v72.71A.52.52,0,0,1,19.49,820.44Z"/><path d="M114.17,862.48H62.65a.53.53,0,0,1,0-1.06h51V755a.52.52,0,0,1,.53-.52.52.52,0,0,1,.52.52V862A.52.52,0,0,1,114.17,862.48Z"/><circle id="楕円形_108" data-name="楕円形 108" cx="66.83" cy="740.6" r="1.44"/></g><g id="グループ_1154-2-2" data-name="グループ 1154-2-2"><path d="M754.25,876.06H695.41a.53.53,0,0,1,0-1.06h58.84a8.57,8.57,0,0,0,8.56-8.56V743.19a8.57,8.57,0,0,0-8.56-8.57h-86.5a8.57,8.57,0,0,0-8.56,8.57v76.72a.53.53,0,1,1-1.06,0V743.19a9.63,9.63,0,0,1,9.62-9.62h86.5a9.63,9.63,0,0,1,9.62,9.62V866.44A9.64,9.64,0,0,1,754.25,876.06Z"/><path d="M663.66,820.44a.53.53,0,0,1-.53-.53V746.68a.53.53,0,0,1,.53-.53h94.67a.53.53,0,1,1,0,1.06H664.19v72.7A.53.53,0,0,1,663.66,820.44Z"/><path d="M758.33,862.48H695.41a.53.53,0,0,1,0-1.06H757.8V755a.53.53,0,0,1,1.06,0V862A.53.53,0,0,1,758.33,862.48Z"/><circle id="楕円形_108-2-2" data-name="楕円形 108-2-2" cx="711" cy="740.6" r="1.44"/></g><g id="グループ_1158" data-name="グループ 1158"><path d="M32.84,876.06H-13.43a.53.53,0,0,1-.53-.53V819.92a.53.53,0,0,1,.53-.53H32.84a.53.53,0,0,1,.53.53v19a.53.53,0,0,1-1.06,0V820.44H-12.91V875H32.31V864.47a.53.53,0,0,1,1.06,0v11.06A.53.53,0,0,1,32.84,876.06Z"/><path d="M32.84,820.44H-13.43a.52.52,0,0,1-.53-.52v-9.13a.52.52,0,0,1,.53-.52H32.84a.52.52,0,0,1,.53.52v9.13A.52.52,0,0,1,32.84,820.44Zm-45.75-1.05H32.31v-8.07H-12.91Z"/><path d="M2,820.44a.52.52,0,0,1-.53-.52v-9.13a.53.53,0,0,1,1.06,0v9.13A.52.52,0,0,1,2,820.44Z"/><path d="M9.7,820.44a.52.52,0,0,1-.52-.52v-9.13a.52.52,0,0,1,.52-.52.52.52,0,0,1,.53.52v9.13A.52.52,0,0,1,9.7,820.44Z"/><path d="M17.42,820.44a.52.52,0,0,1-.53-.52v-9.13a.52.52,0,0,1,.53-.52.52.52,0,0,1,.52.52v9.13A.52.52,0,0,1,17.42,820.44Z"/><path d="M32.84,820.44a.52.52,0,0,1-.53-.52v-9.13a.53.53,0,0,1,1.06,0v9.13A.52.52,0,0,1,32.84,820.44Z"/><path d="M25.13,820.44a.52.52,0,0,1-.53-.52v-9.13a.53.53,0,0,1,1.06,0v9.13A.52.52,0,0,1,25.13,820.44Z"/><g id="グループ_1155" data-name="グループ 1155"><path d="M7.44,832.63H-3.91a.52.52,0,0,1-.52-.53v-4.21a.52.52,0,0,1,.52-.53H7.44a.52.52,0,0,1,.52.53v4.21A.52.52,0,0,1,7.44,832.63Zm-10.82-1H6.91v-3.16H-3.38Z"/><path d="M23.31,832.63H12a.52.52,0,0,1-.52-.53v-4.21a.52.52,0,0,1,.52-.53H23.31a.53.53,0,0,1,.53.53v4.21A.53.53,0,0,1,23.31,832.63Zm-10.81-1H22.79v-3.16H12.5Z"/></g><g id="グループ_1156" data-name="グループ 1156"><path d="M7.44,842.71H-3.91a.52.52,0,0,1-.52-.53V838a.52.52,0,0,1,.52-.52H7.44A.52.52,0,0,1,8,838v4.21A.52.52,0,0,1,7.44,842.71Zm-10.82-1.05H6.91V838.5H-3.38Z"/><path d="M23.31,842.71H12a.52.52,0,0,1-.52-.53V838a.52.52,0,0,1,.52-.52H23.31a.52.52,0,0,1,.53.52v4.21A.53.53,0,0,1,23.31,842.71ZM12.5,841.66H22.79V838.5H12.5Z"/></g><g id="グループ_1157" data-name="グループ 1157"><path d="M7.44,852.79H-3.91a.52.52,0,0,1-.52-.52v-4.22a.52.52,0,0,1,.52-.52H7.44a.52.52,0,0,1,.52.52v4.22A.52.52,0,0,1,7.44,852.79Zm-10.82-1H6.91v-3.16H-3.38Z"/><path d="M23.31,852.79H12a.52.52,0,0,1-.52-.52v-4.22a.52.52,0,0,1,.52-.52H23.31a.52.52,0,0,1,.53.52v4.22A.52.52,0,0,1,23.31,852.79Zm-10.81-1H22.79v-3.16H12.5Z"/></g></g><g id="グループ_1159" data-name="グループ 1159"><path d="M44.3,865.42h0a13.82,13.82,0,0,1-4.43-1.16l-.21.11-.13.06a9.4,9.4,0,0,1-8.6-16.71,11.14,11.14,0,0,1,14.59-13.34,9,9,0,0,1,5.92-2.2h0a9,9,0,0,1,9,9c0,.16,0,.31,0,.47a12.46,12.46,0,0,1-9.8,22.88c-.39.15-.79.28-1.19.39a.52.52,0,0,1-.65-.36.54.54,0,0,1,.37-.65c.43-.12.86-.27,1.28-.43a.5.5,0,0,1,.38,0,11.41,11.41,0,0,0,8.84-21,.53.53,0,0,1-.31-.53c0-.24,0-.49,0-.74a8,8,0,0,0-8-8h0a7.93,7.93,0,0,0-5.45,2.15.55.55,0,0,1-.55.1,10.1,10.1,0,0,0-13.12,5.61,10.13,10.13,0,0,0-.26,6.74.53.53,0,0,1-.28.63,8.35,8.35,0,1,0,7.29,15l.12-.06.39-.21a.5.5,0,0,1,.49,0,13.27,13.27,0,0,0,4.33,1.18.52.52,0,0,1-.05,1Z"/><path d="M49.13,876.05H44.29a.52.52,0,0,1-.53-.52V856.69a.52.52,0,0,1,.53-.52h4.84a.52.52,0,0,1,.53.52v18.84A.52.52,0,0,1,49.13,876.05Zm-4.31-1h3.79V857.22H44.82Z"/></g><g id="グループ_1162" data-name="グループ 1162"><g id="グループ_1161" data-name="グループ 1161"><path d="M632.69,876.05H593.41a8,8,0,0,1-8-8,.52.52,0,0,1,.52-.53.53.53,0,0,1,.53.53,7,7,0,0,0,6.95,6.94h39.28a6.94,6.94,0,0,0,6.94-6.94V775a6.94,6.94,0,0,0-6.94-6.94H593.41a7,7,0,0,0-6.95,6.94v79.18a.52.52,0,0,1-.53.52.52.52,0,0,1-.52-.52V775a8,8,0,0,1,8-8h39.28a8,8,0,0,1,8,8v93A8,8,0,0,1,632.69,876.05Z"/><path d="M636.19,865.34H589.9a.52.52,0,0,1-.52-.52V778.28a.52.52,0,0,1,.52-.52h46.29a.52.52,0,0,1,.52.52.52.52,0,0,1-.52.53H590.43v85.48h45.23V785a.53.53,0,0,1,.53-.53.52.52,0,0,1,.52.53v79.82A.52.52,0,0,1,636.19,865.34Z"/><path d="M617.93,773.9h-9.77a.53.53,0,0,1,0-1h9.77a.53.53,0,1,1,0,1Z"/></g></g><g id="グループ_1166" data-name="グループ 1166"><path d="M695.41,876.05H649.13a.52.52,0,0,1-.52-.52V819.91a.52.52,0,0,1,.52-.52h46.28a.52.52,0,0,1,.52.52v55.62A.52.52,0,0,1,695.41,876.05Zm-45.75-1h45.22V820.44H649.66Z"/><g id="グループ_1163" data-name="グループ 1163"><path d="M670,832.63H658.66a.53.53,0,0,1-.53-.53v-4.21a.53.53,0,0,1,.53-.53H670a.53.53,0,0,1,.53.53v4.21A.53.53,0,0,1,670,832.63Zm-10.81-1h10.28v-3.17H659.19Z"/><path d="M685.88,832.63H674.54a.53.53,0,0,1-.53-.53v-4.21a.53.53,0,0,1,.53-.53h11.34a.53.53,0,0,1,.53.53v4.21A.53.53,0,0,1,685.88,832.63Zm-10.82-1h10.29v-3.17H675.06Z"/></g><g id="グループ_1164" data-name="グループ 1164"><path d="M670,842.71H658.66a.53.53,0,0,1-.53-.53V838a.53.53,0,0,1,.53-.53H670a.53.53,0,0,1,.53.53v4.21A.53.53,0,0,1,670,842.71Zm-10.81-1.05h10.28V838.5H659.19Z"/><path d="M685.88,842.71H674.54a.53.53,0,0,1-.53-.53V838a.53.53,0,0,1,.53-.53h11.34a.53.53,0,0,1,.53.53v4.21A.53.53,0,0,1,685.88,842.71Zm-10.82-1.05h10.29V838.5H675.06Z"/></g><g id="グループ_1165" data-name="グループ 1165"><path d="M670,852.79H658.66a.53.53,0,0,1-.53-.53v-4.21a.52.52,0,0,1,.53-.52H670a.52.52,0,0,1,.53.52v4.21A.53.53,0,0,1,670,852.79Zm-10.81-1h10.28v-3.16H659.19Z"/><path d="M685.88,852.79H674.54a.53.53,0,0,1-.53-.53v-4.21a.52.52,0,0,1,.53-.52h11.34a.52.52,0,0,1,.53.52v4.21A.53.53,0,0,1,685.88,852.79Zm-10.82-1h10.29v-3.16H675.06Z"/></g></g><g id="グループ_1172" data-name="グループ 1172"><path d="M556.31,876.05H477a.52.52,0,0,1-.53-.52V797.64a.53.53,0,0,1,.53-.53h79.33a.52.52,0,0,1,.52.53v35.91a.52.52,0,0,1-.52.53.53.53,0,0,1-.53-.53V798.17H477.5V875h78.28V863.61a.53.53,0,0,1,.53-.53.52.52,0,0,1,.52.53v11.92A.52.52,0,0,1,556.31,876.05Z"/><g id="グループ_1167" data-name="グループ 1167"><path d="M498.41,815.66H487.07a.52.52,0,0,1-.53-.52v-4.22a.52.52,0,0,1,.53-.52h11.34a.52.52,0,0,1,.53.52v4.22A.52.52,0,0,1,498.41,815.66Zm-10.82-1h10.29v-3.16H487.59Z"/><path d="M514.29,815.66H503a.52.52,0,0,1-.53-.52v-4.22a.52.52,0,0,1,.53-.52h11.34a.52.52,0,0,1,.53.52v4.22A.52.52,0,0,1,514.29,815.66Zm-10.82-1h10.29v-3.16H503.47Z"/><path d="M530.17,815.66H518.83a.52.52,0,0,1-.53-.52v-4.22a.52.52,0,0,1,.53-.52h11.34a.52.52,0,0,1,.53.52v4.22A.52.52,0,0,1,530.17,815.66Zm-10.82-1h10.29v-3.16H519.35Z"/><path d="M546.21,815.66H534.87a.52.52,0,0,1-.52-.52v-4.22a.52.52,0,0,1,.52-.52h11.34a.52.52,0,0,1,.53.52v4.22A.52.52,0,0,1,546.21,815.66Zm-10.81-1h10.29v-3.16H535.4Z"/></g><g id="グループ_1168" data-name="グループ 1168"><path d="M498.41,828.72H487.07a.52.52,0,0,1-.53-.52V824a.52.52,0,0,1,.53-.52h11.34a.52.52,0,0,1,.53.52v4.22A.52.52,0,0,1,498.41,828.72Zm-10.82-1.05h10.29v-3.16H487.59Z"/><path d="M514.29,828.72H503a.52.52,0,0,1-.53-.52V824a.52.52,0,0,1,.53-.52h11.34a.52.52,0,0,1,.53.52v4.22A.52.52,0,0,1,514.29,828.72Zm-10.82-1.05h10.29v-3.16H503.47Z"/><path d="M530.17,828.72H518.83a.52.52,0,0,1-.53-.52V824a.52.52,0,0,1,.53-.52h11.34a.52.52,0,0,1,.53.52v4.22A.52.52,0,0,1,530.17,828.72Zm-10.82-1.05h10.29v-3.16H519.35Z"/><path d="M546.21,828.72H534.87a.52.52,0,0,1-.52-.52V824a.52.52,0,0,1,.52-.52h11.34a.52.52,0,0,1,.53.52v4.22A.52.52,0,0,1,546.21,828.72Zm-10.81-1.05h10.29v-3.16H535.4Z"/></g><g id="グループ_1169" data-name="グループ 1169"><path d="M498.41,841.78H487.07a.52.52,0,0,1-.53-.52V837a.52.52,0,0,1,.53-.52h11.34a.52.52,0,0,1,.53.52v4.22A.52.52,0,0,1,498.41,841.78Zm-10.82-1h10.29v-3.16H487.59Z"/><path d="M514.29,841.78H503a.52.52,0,0,1-.53-.52V837a.52.52,0,0,1,.53-.52h11.34a.52.52,0,0,1,.53.52v4.22A.52.52,0,0,1,514.29,841.78Zm-10.82-1h10.29v-3.16H503.47Z"/><path d="M530.17,841.78H518.83a.52.52,0,0,1-.53-.52V837a.52.52,0,0,1,.53-.52h11.34a.52.52,0,0,1,.53.52v4.22A.52.52,0,0,1,530.17,841.78Zm-10.82-1h10.29v-3.16H519.35Z"/><path d="M546.21,841.78H534.87a.52.52,0,0,1-.52-.52V837a.52.52,0,0,1,.52-.52h11.34a.52.52,0,0,1,.53.52v4.22A.52.52,0,0,1,546.21,841.78Zm-10.81-1h10.29v-3.16H535.4Z"/></g><g id="グループ_1170" data-name="グループ 1170"><path d="M498.41,854.84H487.07a.53.53,0,0,1-.53-.53V850.1a.52.52,0,0,1,.53-.52h11.34a.52.52,0,0,1,.53.52v4.21A.53.53,0,0,1,498.41,854.84Zm-10.82-1.05h10.29v-3.16H487.59Z"/><path d="M514.29,854.84H503a.53.53,0,0,1-.53-.53V850.1a.52.52,0,0,1,.53-.52h11.34a.52.52,0,0,1,.53.52v4.21A.53.53,0,0,1,514.29,854.84Zm-10.82-1.05h10.29v-3.16H503.47Z"/><path d="M530.17,854.84H518.83a.53.53,0,0,1-.53-.53V850.1a.52.52,0,0,1,.53-.52h11.34a.52.52,0,0,1,.53.52v4.21A.53.53,0,0,1,530.17,854.84Zm-10.82-1.05h10.29v-3.16H519.35Z"/><path d="M539.24,854.84h-4.37a.52.52,0,0,1-.52-.53V850.1a.52.52,0,0,1,.52-.52h5.46a.52.52,0,0,1,.53.52.53.53,0,0,1-.53.53H535.4v3.16h3.84a.52.52,0,0,1,.53.52A.53.53,0,0,1,539.24,854.84Z"/></g><g id="グループ_1171" data-name="グループ 1171"><path d="M556.31,798.38H477a.53.53,0,0,1-.53-.53v-9.72a.53.53,0,0,1,.53-.53h79.33a.52.52,0,0,1,.52.53v9.72A.52.52,0,0,1,556.31,798.38Zm-78.81-1h78.28v-8.67H477.5Z"/><path d="M477,798.38a.53.53,0,0,1-.53-.53v-9.72a.53.53,0,0,1,.53-.53.52.52,0,0,1,.52.53v9.72A.52.52,0,0,1,477,798.38Z"/><path d="M490.2,798.38a.53.53,0,0,1-.53-.53v-9.72a.53.53,0,0,1,.53-.53.52.52,0,0,1,.52.53v9.72A.52.52,0,0,1,490.2,798.38Z"/><path d="M503.42,798.38a.53.53,0,0,1-.53-.53v-9.72a.53.53,0,0,1,1.06,0v9.72A.53.53,0,0,1,503.42,798.38Z"/><path d="M516.64,798.38a.52.52,0,0,1-.52-.53v-9.72a.52.52,0,0,1,.52-.53.53.53,0,0,1,.53.53v9.72A.53.53,0,0,1,516.64,798.38Z"/><path d="M529.86,798.38a.52.52,0,0,1-.52-.53v-9.72a.52.52,0,0,1,.52-.53.53.53,0,0,1,.53.53v9.72A.53.53,0,0,1,529.86,798.38Z"/><path d="M556.31,798.38a.53.53,0,0,1-.53-.53v-9.72a.53.53,0,0,1,.53-.53.52.52,0,0,1,.52.53v9.72A.52.52,0,0,1,556.31,798.38Z"/><path d="M543.09,798.38a.53.53,0,0,1-.53-.53v-9.72a.53.53,0,0,1,.53-.53.52.52,0,0,1,.52.53v9.72A.52.52,0,0,1,543.09,798.38Z"/></g></g><g id="グループ_1173" data-name="グループ 1173"><path d="M576.55,864.13h-11.8a.52.52,0,0,1-.53-.52.53.53,0,0,1,.53-.53h11.8a8.65,8.65,0,0,0,3.85-16.4.55.55,0,0,1-.28-.38A10.62,10.62,0,0,0,568,837.87a.52.52,0,0,1-.46-.15,12.55,12.55,0,0,0-21.55,8,.53.53,0,0,1-.35.47,8.66,8.66,0,0,0,2.79,16.85h11.8a.52.52,0,0,1,.52.53.52.52,0,0,1-.52.52h-11.8A9.71,9.71,0,0,1,545,845.35a13.59,13.59,0,0,1,23.13-8.56,11.67,11.67,0,0,1,13,9.06,9.71,9.71,0,0,1-4.55,18.28Z"/><path d="M564.75,876.05h-4.52a.52.52,0,0,1-.53-.52V856.39a.53.53,0,0,1,.53-.53h4.52a.53.53,0,0,1,.53.53v19.14A.52.52,0,0,1,564.75,876.05Zm-4-1h3.47V856.92h-3.47Z"/></g><g id="グループ_1146" data-name="グループ 1146"><path d="M338.25,876.06H301.5a.52.52,0,0,1-.52-.53V802.71a.52.52,0,0,1,.52-.52h36.75a.52.52,0,0,1,.53.52v72.82A.53.53,0,0,1,338.25,876.06ZM302,875h35.7V803.24H302Z"/><g id="グループ_1140" data-name="グループ 1140"><path d="M317.61,814.82H306.27a.53.53,0,0,1-.53-.53v-4.21a.53.53,0,0,1,.53-.53h11.34a.53.53,0,0,1,.53.53v4.21A.53.53,0,0,1,317.61,814.82Zm-10.82-1.05h10.29V810.6H306.79Z"/><path d="M333.49,814.82H322.15a.53.53,0,0,1-.53-.53v-4.21a.53.53,0,0,1,.53-.53h11.34a.53.53,0,0,1,.53.53v4.21A.53.53,0,0,1,333.49,814.82Zm-10.82-1.05H333V810.6H322.67Z"/></g><g id="グループ_1141" data-name="グループ 1141"><path d="M317.61,824.9H306.27a.53.53,0,0,1-.53-.53v-4.21a.52.52,0,0,1,.53-.52h11.34a.52.52,0,0,1,.53.52v4.21A.53.53,0,0,1,317.61,824.9Zm-10.82-1h10.29v-3.16H306.79Z"/><path d="M333.49,824.9H322.15a.53.53,0,0,1-.53-.53v-4.21a.52.52,0,0,1,.53-.52h11.34a.52.52,0,0,1,.53.52v4.21A.53.53,0,0,1,333.49,824.9Zm-10.82-1H333v-3.16H322.67Z"/></g><g id="グループ_1142" data-name="グループ 1142"><path d="M317.61,835H306.27a.53.53,0,0,1-.53-.53v-4.21a.52.52,0,0,1,.53-.52h11.34a.52.52,0,0,1,.53.52v4.21A.53.53,0,0,1,317.61,835Zm-10.82-1.05h10.29v-3.16H306.79Z"/><path d="M333.49,835H322.15a.53.53,0,0,1-.53-.53v-4.21a.52.52,0,0,1,.53-.52h11.34a.52.52,0,0,1,.53.52v4.21A.53.53,0,0,1,333.49,835Zm-10.82-1.05H333v-3.16H322.67Z"/></g><g id="グループ_1143" data-name="グループ 1143"><path d="M317.61,845.06H306.27a.52.52,0,0,1-.53-.52v-4.22a.52.52,0,0,1,.53-.52h11.34a.52.52,0,0,1,.53.52v4.22A.52.52,0,0,1,317.61,845.06Zm-10.82-1h10.29v-3.16H306.79Z"/><path d="M333.49,845.06H322.15a.52.52,0,0,1-.53-.52v-4.22a.52.52,0,0,1,.53-.52h11.34a.52.52,0,0,1,.53.52v4.22A.52.52,0,0,1,333.49,845.06Zm-10.82-1H333v-3.16H322.67Z"/></g><g id="グループ_1144" data-name="グループ 1144"><path d="M317.61,855.14H306.27a.52.52,0,0,1-.53-.52V850.4a.52.52,0,0,1,.53-.52h11.34a.52.52,0,0,1,.53.52v4.22A.52.52,0,0,1,317.61,855.14Zm-10.82-1h10.29v-3.16H306.79Z"/><path d="M333.49,855.14H322.15a.52.52,0,0,1-.53-.52V850.4a.52.52,0,0,1,.53-.52h11.34a.52.52,0,0,1,.53.52v4.22A.52.52,0,0,1,333.49,855.14Zm-10.82-1H333v-3.16H322.67Z"/></g></g><g id="グループ_1162-3" data-name="グループ 1162-3"><g id="グループ_1161-3" data-name="グループ 1161-3"><path d="M282.36,876.05H249.42a6.8,6.8,0,0,1-6.79-6.79.52.52,0,0,1,.53-.52.52.52,0,0,1,.52.52,5.75,5.75,0,0,0,5.74,5.74h32.94a5.74,5.74,0,0,0,5.74-5.74v-78a5.75,5.75,0,0,0-5.74-5.74H249.42a5.75,5.75,0,0,0-5.74,5.74v66.39a.52.52,0,0,1-.52.53.53.53,0,0,1-.53-.53V791.26a6.79,6.79,0,0,1,6.79-6.79h32.94a6.8,6.8,0,0,1,6.79,6.79v78A6.79,6.79,0,0,1,282.36,876.05Z"/><path d="M285.3,867.07H246.48a.52.52,0,0,1-.52-.52V794a.52.52,0,0,1,.52-.53H285.3a.53.53,0,0,1,0,1.06H247V866h37.76V799.61a.53.53,0,0,1,1.06,0v66.94A.52.52,0,0,1,285.3,867.07Z"/><path d="M270,790.4H261.8a.53.53,0,0,1,0-1.06H270a.53.53,0,0,1,0,1.06Z"/></g></g><path d="M543.38,876.05H363.48a.52.52,0,0,1-.53-.52.53.53,0,0,1,.53-.53h179.9a.52.52,0,0,1,.52.53A.52.52,0,0,1,543.38,876.05Z"/></g></g></svg>