<svg height="28.156" viewBox="0 0 85.079 28.156" width="85.079" xmlns="http://www.w3.org/2000/svg"><path d="m471.992 193.395a7.072 7.072 0 1 1 7.073-7.072 7.073 7.073 0 0 1 -7.073 7.072zm0-10.993a3.925 3.925 0 1 0 3.93 3.921 3.925 3.925 0 0 0 -3.93-3.921z" fill="#4caccf" transform="translate(-426.161 -172.797)"/><path d="m625.5 179.25a6.575 6.575 0 0 0 -6.562 6.561v7.134h3.148v-7.134a3.413 3.413 0 0 1 6.827 0v7.134h3.148v-7.134a6.575 6.575 0 0 0 -6.561-6.561z" transform="translate(-563.581 -172.797)"/><path d="m770.485 179.25a7.072 7.072 0 1 0 3.925 12.95v1.678a3.93 3.93 0 0 1 -3.925 3.924h-2.559v3.148h2.559a7.08 7.08 0 0 0 7.072-7.072v-7.559a7.08 7.08 0 0 0 -7.072-7.069zm0 10.994a3.925 3.925 0 1 1 3.925-3.925 3.925 3.925 0 0 1 -3.925 3.925z" transform="translate(-692.479 -172.797)"/><path d="m272.993 187.832a6.9 6.9 0 1 0 -6.918 7.118h.165a7.133 7.133 0 0 0 5.727-2.566l-2.166-1.842a4.558 4.558 0 0 1 -3.549 1.48 3.751 3.751 0 0 1 -3.772-2.728h9.287a1.08 1.08 0 0 0 1.221-1 3.574 3.574 0 0 0 .005-.462zm-6.8-3.979a3.573 3.573 0 0 1 3.642 2.891h-7.435a3.726 3.726 0 0 1 3.79-2.891z" transform="translate(-242.605 -174.358)"/><path d="m411.79 119.38v20.147h3.148v-20.147z" transform="translate(-378.758 -119.38)"/><path d="m112.382 125.833a7.036 7.036 0 0 0 -3.925 1.192v-7.559-.086h-3.147v13.525a7.072 7.072 0 1 0 7.072-7.072zm0 10.994a3.925 3.925 0 1 1 3.924-3.925 3.925 3.925 0 0 1 -3.924 3.925z" transform="translate(-105.31 -119.38)"/></svg>