<svg viewBox="0 0 2732 1104" xmlns="http://www.w3.org/2000/svg"><path d="m0 0h2732v1104h-2732z" fill="none"/><path d="m1058.5 98.53a99.29 99.29 0 0 0 9.47-10.2 16.37 16.37 0 0 0 3.48-5.89 30.52 30.52 0 0 1 6 2.42 1.61 1.61 0 0 1 .8.68 1 1 0 0 1 -.4 1.25 29.44 29.44 0 0 0 -3.23 3.47 137.91 137.91 0 0 1 -13.6 13.75l3 6.37c1.07 2.25 1.77 2.86 3.2 2.65a27.18 27.18 0 0 0 6.28-2.35 93.19 93.19 0 0 0 13-7.52c.67-.44.86-.29 1.18.26.78 1.27 1.79 3 2.26 4 .3.62.1 1-.6 1.34a106 106 0 0 1 -13.81 7.63 25.91 25.91 0 0 1 -9.71 3c-2.87.13-4.95-1.64-6.81-5.56l-8.4-17.67a55.63 55.63 0 0 0 -4.66-8.54 46.91 46.91 0 0 1 6.49-1.91c.64-.13 1 .07 1.13.4a2.33 2.33 0 0 1 .14 1.17 12.17 12.17 0 0 0 1.57 4.53zm13.43-23.36c.15-.3.36-.34.76-.24a24.09 24.09 0 0 1 7 3 .53.53 0 0 1 .3.69.39.39 0 0 1 -.08.14l-1.31 2.44a.55.55 0 0 1 -.7.35.64.64 0 0 1 -.18-.1 26.24 26.24 0 0 0 -7.48-3.26zm2.78-5.13c.2-.33.36-.35.76-.25a22.11 22.11 0 0 1 6.9 2.77.62.62 0 0 1 .34.8l-.08.13-1.2 2.4a.54.54 0 0 1 -.67.36.45.45 0 0 1 -.21-.12 24.94 24.94 0 0 0 -7.4-3.23z"/><path d="m1096.79 77.77c.11-.44.26-.78.75-.86a36.87 36.87 0 0 1 11.36 1.17c.44.11.72.24.83.53a1.63 1.63 0 0 1 0 .62 21.63 21.63 0 0 1 -.73 4.6c-.13.4-.25.67-.45.75a1.08 1.08 0 0 1 -.71-.07 46.39 46.39 0 0 0 -12.05-1.51c.46-2.47.71-4.21 1-5.23zm1.58-13.69c.11-.72.37-.94 1.08-.87a36.07 36.07 0 0 1 11.42 1.89.83.83 0 0 1 .64.49 1.27 1.27 0 0 1 .06.72 22.88 22.88 0 0 1 -1.09 4.68.6.6 0 0 1 -.38.49 1.33 1.33 0 0 1 -.88-.06 51.17 51.17 0 0 0 -11.94-2.37c.34-1.61.72-3.36 1.09-4.97zm13.52 28.92a89 89 0 0 0 10.24-13.8 96.71 96.71 0 0 0 8.9-19.3 27 27 0 0 0 3.58 5 2.67 2.67 0 0 1 .61.84 1.67 1.67 0 0 1 -.1 1.35 99.38 99.38 0 0 1 -8.12 16.27 123 123 0 0 1 -11.19 15 17.13 17.13 0 0 0 -2.21 2.8 1.19 1.19 0 0 1 -.64.7 1.36 1.36 0 0 1 -1.22-.21 33.2 33.2 0 0 1 -5.61-3.63 24.37 24.37 0 0 0 5.76-5.02zm8.52-39.22c.18-.3.39-.32.79-.19a24.48 24.48 0 0 1 6.74 3.47.54.54 0 0 1 .25.72.38.38 0 0 1 -.09.13l-1.49 2.34a.54.54 0 0 1 -.72.29.62.62 0 0 1 -.17-.11 26 26 0 0 0 -7.22-3.8zm3.16-4.92c.22-.31.39-.32.78-.19a22.18 22.18 0 0 1 6.65 3.33.61.61 0 0 1 .28.82.5.5 0 0 1 -.08.12l-1.39 2.3a.54.54 0 0 1 -.7.31.5.5 0 0 1 -.19-.13 25.26 25.26 0 0 0 -7.15-3.77z"/><path d="m1173.06 72c1.37 4.51 2.54 7.81 2.93 9.08.14.46-.16.77-.76.95a31.47 31.47 0 0 1 -4.37 1.33c-.6.19-1 .09-1.18-.42-.43-1.42-1.21-4.89-2.49-9.1l-2-6.54a91.4 91.4 0 0 1 -11.37 12.7 2.18 2.18 0 0 1 -.78.52 1.46 1.46 0 0 1 -1.18-.25 12.33 12.33 0 0 0 -5-1.86 100.93 100.93 0 0 0 13.55-14.1 73.46 73.46 0 0 0 7.34-11.2l-11.64 3.82c-2.71.93-4.55 1.6-6.59 2.39-.55.17-.85-.07-1.15-.7a46.28 46.28 0 0 1 -2.07-4.8 52 52 0 0 0 7.17-1.74l14.66-4.63a8.48 8.48 0 0 0 3.43-1.65 1.71 1.71 0 0 1 .7-.43 1.2 1.2 0 0 1 1 .14 20.4 20.4 0 0 1 3.44 2.22 1.68 1.68 0 0 1 .57.77 1 1 0 0 1 -.49 1.15 5.53 5.53 0 0 0 -1.26 1.66c-1.79 3.42-3.71 6.77-5.74 9.94zm-18.75-32.14c.17-.55.37-.78.93-.78a72 72 0 0 1 12.09 1.14c.42.1.67.19.73.39a.86.86 0 0 1 0 .57 44.15 44.15 0 0 1 -.94 4.39c-.09.41-.25.63-.51.7a.91.91 0 0 1 -.61 0 55 55 0 0 0 -12.84-1.58c.52-1.93.93-3.88 1.2-4.8zm20.69 18.72c.22-.56.39-.56 1-.51a56.55 56.55 0 0 1 12.93 2.82c.37.11.57.22.65.47a1.27 1.27 0 0 1 0 .67 32 32 0 0 1 -1.37 4.4 1 1 0 0 1 -.49.6 1.55 1.55 0 0 1 -.82-.14 59.13 59.13 0 0 0 -13.53-3.53c.61-2 1.27-3.82 1.69-4.78z"/><path d="m1218.86 29.41a7.78 7.78 0 0 0 3.47-1.28.83.83 0 0 1 .52-.33 1.73 1.73 0 0 1 1 .21 19.59 19.59 0 0 1 4.18 2.86 1.47 1.47 0 0 1 .41.61 1.46 1.46 0 0 1 -.44 1.19 9.82 9.82 0 0 0 -1.4 2.71 84.4 84.4 0 0 1 -4.43 11.16 125.47 125.47 0 0 1 17.15 9.27 1.21 1.21 0 0 1 .57.63 1.29 1.29 0 0 1 -.18.86 28.83 28.83 0 0 1 -2.67 4.3.94.94 0 0 1 -.55.45 1.1 1.1 0 0 1 -.82-.25 96.13 96.13 0 0 0 -16.37-9.8 75.82 75.82 0 0 1 -14.3 17.59 3.18 3.18 0 0 1 -1.09.68 1.19 1.19 0 0 1 -1-.26 14.36 14.36 0 0 0 -5.1-2.38 64.25 64.25 0 0 0 15.22-17.3 65.18 65.18 0 0 0 6.79-15.17l-13.33 3.07c-2.69.6-5.35 1.31-8.1 2.15-.4.15-.64-.18-.87-.72a30.59 30.59 0 0 1 -1.68-5.28c2.84-.42 5.42-1 8.78-1.76z"/><path d="m1267.45 25.71c-6.2 2.18-11.65 4.13-17.08 6.14-1.92.77-2.43 1-3.18 1.34a3.23 3.23 0 0 1 -1.09.6 1.24 1.24 0 0 1 -1.11-.64 36.41 36.41 0 0 1 -2.8-5.36 72.73 72.73 0 0 0 8.2-2.16c6.3-1.92 17.56-5.4 30.81-9.25.77-.22 1.08.06 1.19.41a31.13 31.13 0 0 1 1.28 4.53c.09.62-.2.83-.88.93a23.72 23.72 0 0 0 -6.22 2.13c-8.44 4.4-12 11.2-11 17.49 1 6.76 6.4 9.69 15.61 8.88.84-.13 1.19 0 1.28.61a18.64 18.64 0 0 1 .1 4.6c0 .8-.2 1.16-.82 1.25-9.23 1.4-20.14-2.35-21.8-13.25-1.14-7.44 1.82-13 7.53-18.14zm11.23 4.08c.23-.25.45-.23.8 0a24.3 24.3 0 0 1 5.83 4.85.53.53 0 0 1 .09.76.43.43 0 0 1 -.12.11l-2 1.95a.56.56 0 0 1 -.78.13.67.67 0 0 1 -.14-.15 26.13 26.13 0 0 0 -6.21-5.27zm4.15-4.11c.28-.26.45-.23.8 0a22.25 22.25 0 0 1 5.8 4.64.61.61 0 0 1 .09.86.38.38 0 0 1 -.11.11l-1.85 1.94a.54.54 0 0 1 -.75.15.65.65 0 0 1 -.16-.17 24.91 24.91 0 0 0 -6.16-5.23z"/><path d="m1324.63 14.5a7.66 7.66 0 0 0 3.61-.75.85.85 0 0 1 .56-.25 1.74 1.74 0 0 1 .93.35 19.3 19.3 0 0 1 3.72 3.44 1.38 1.38 0 0 1 .31.67 1.45 1.45 0 0 1 -.6 1.11 9.66 9.66 0 0 0 -1.78 2.47 82.16 82.16 0 0 1 -6 10.4 123.62 123.62 0 0 1 15.62 11.69 1.22 1.22 0 0 1 .48.71 1.36 1.36 0 0 1 -.31.82 28.73 28.73 0 0 1 -3.28 3.86.86.86 0 0 1 -.6.36 1.1 1.1 0 0 1 -.78-.36 95.79 95.79 0 0 0 -14.75-12.02 76.44 76.44 0 0 1 -16.71 15.3 3.44 3.44 0 0 1 -1.18.51 1.17 1.17 0 0 1 -.94-.4 14.52 14.52 0 0 0 -4.7-3.1 64.33 64.33 0 0 0 17.59-14.89 64.91 64.91 0 0 0 8.94-14l-13.64 1.09c-2.75.2-5.49.52-8.33.95-.41.08-.6-.28-.75-.85a30.63 30.63 0 0 1 -.89-5.46c2.87 0 5.51-.2 8.95-.47z"/><path d="m1381.34 16a9.7 9.7 0 0 0 4.4-.55 1.59 1.59 0 0 1 .73-.28 1.31 1.31 0 0 1 .91.41 24.86 24.86 0 0 1 3.89 4.18 2.33 2.33 0 0 1 .44 1.16 1.33 1.33 0 0 1 -.71 1.08 15.55 15.55 0 0 0 -2.51 2.06 191 191 0 0 1 -14 14.43 55.9 55.9 0 0 1 4.75 5.22 1.21 1.21 0 0 1 .38.79 1.27 1.27 0 0 1 -.46.86 37.85 37.85 0 0 1 -3.4 3.18 1.41 1.41 0 0 1 -.68.28c-.21 0-.43-.16-.65-.47a79.32 79.32 0 0 0 -17.27-16.2c1-1 2.82-2.75 3.76-3.61a1.14 1.14 0 0 1 .57-.28 1.69 1.69 0 0 1 .75.36 81.14 81.14 0 0 1 7.62 5.82 118.53 118.53 0 0 0 12-12.71l-22.31.47c-3.07.05-7 .22-9.85.53-.69 0-.85-.3-1-.94a48.92 48.92 0 0 1 -.72-5.66c3.6.31 7.9.24 11.56.19z"/><path d="m1413.84 31.9c.46.35.75.69.73 1.06s-.2.52-.64.8a5.08 5.08 0 0 0 -1.45 1.71 40.78 40.78 0 0 1 -6.48 8.43 1.44 1.44 0 0 1 -1.1.56 1.58 1.58 0 0 1 -.77-.37 15.48 15.48 0 0 0 -4.34-2.53 35.2 35.2 0 0 0 7-8.29 11.79 11.79 0 0 0 1.72-4.18 24.67 24.67 0 0 1 5.33 2.81zm8-14.06a40.66 40.66 0 0 0 0-8.18c2.47.38 5.2.89 6.51 1.24.63.15.93.44.9.86a2 2 0 0 1 -.39.93 12.45 12.45 0 0 0 -.86 5.31l-.2 2.8 6.51.44c4.6.32 8.21.36 10.81.43.48 0 .67.31.63.89a35.74 35.74 0 0 1 -.34 4.13c-.1.68-.28 1-.8.95-3.27-.33-7.28-.77-10.88-1l-6.24-.43-.68 10.69c-.2 2.8-.24 5.08-.52 9.21a5.53 5.53 0 0 1 -3.5 5.23 16.62 16.62 0 0 1 -6.89 1.28c-.63 0-.93-.38-1.2-1.2a12.41 12.41 0 0 0 -3.21-5 26.21 26.21 0 0 0 7.24-.14c.87-.31 1.28-.87 1.37-2.24l1.26-18.25-8.31-.57c-3-.2-6.67-.3-9.17-.26-.48 0-.66-.47-.62-1.1 0-1 0-3.35.14-5.1 4 .6 7.22.87 9.92 1.06l8.4.58zm14.68 13.71a1.1 1.1 0 0 1 .7-.22 1 1 0 0 1 .76.54 40.56 40.56 0 0 1 6.9 10.2 1.34 1.34 0 0 1 .2.81 1 1 0 0 1 -.59.8 29.5 29.5 0 0 1 -3.72 2.4 1.74 1.74 0 0 1 -.66.27c-.21 0-.36-.18-.54-.57a51.45 51.45 0 0 0 -7.28-11.66c1.51-.95 3-1.75 4.22-2.57z"/><path d="m1480.15 50c-.09.58-.44.8-1.14.8a29.71 29.71 0 0 1 -3.76-.27c-.47-.07-.64-.41-.56-.94.27-1.88.64-4.51 1-6.4-5 1.75-7 3.56-7.35 6.08-.31 2.2 1.27 3.87 6.78 4.66a89.79 89.79 0 0 0 13.21.82c.48 0 .67.2.65.68a23.64 23.64 0 0 1 -.14 4.37c0 .64-.3 1-.72.92a96 96 0 0 1 -13.12-1.19c-8.6-1.23-12.8-4.46-11.93-10.55.72-5 4.4-8.26 12.9-11.22.22-2.69-.26-3.83-2.63-4.07a12.78 12.78 0 0 0 -7.78 2.75 70.31 70.31 0 0 0 -6.07 5c-.31.27-.48.41-.69.38a1 1 0 0 1 -.53-.45 26 26 0 0 1 -2.5-3.89 1 1 0 0 1 -.14-.51c0-.2.16-.35.45-.52a54.08 54.08 0 0 0 12.81-11.45c-2.48-.24-5.32-.6-8.42-1-.47-.07-.6-.35-.61-.94 0-.87 0-2.84.09-4.44a117.33 117.33 0 0 0 12.05 1.61 39.59 39.59 0 0 0 2.22-4.29 12.73 12.73 0 0 0 .83-3.15 32.71 32.71 0 0 1 5.77 2.33.94.94 0 0 1 .5 1 1 1 0 0 1 -.48.73 4.11 4.11 0 0 0 -1.04 1.15c-.42.69-.78 1.34-1.62 2.67a86.44 86.44 0 0 0 9.79-.26c.6 0 .72.15.76.64a17.7 17.7 0 0 1 0 3.85c0 .53-.27.72-1 .72-4 0-8.62-.06-12.51-.19a54.14 54.14 0 0 1 -4.77 5.27v.11a10.54 10.54 0 0 1 5.48-.88 5.85 5.85 0 0 1 5.64 6.06 4.73 4.73 0 0 1 0 .53c2.18-.66 5.37-1.59 8.24-2.57a16.12 16.12 0 0 0 4.4-2.27 31.94 31.94 0 0 1 3 5.15 2.05 2.05 0 0 1 .26 1.21c-.06.42-.35.6-.89.62a16.84 16.84 0 0 0 -3.32.33c-3.58.72-7.15 1.39-11.88 2.59z"/><path d="m1509.88 45.69c.41-1.86.95-4.08 1.5-6.29-1.23 1.14-2.55 2.2-3.86 3.22-.47.38-.82.52-1 .47s-.4-.41-.42-1.06a12.7 12.7 0 0 0 -.9-4.76 48.92 48.92 0 0 0 13-14.49 15.13 15.13 0 0 0 1.59-3.5 46 46 0 0 1 4.62 2.65c.52.38.79.6.71 1s-.29.59-.77.8-.78.59-1.55 1.83a75.17 75.17 0 0 1 -4.37 6.25l-6 27c-1.13 5.08-1.58 7.63-1.64 7.89-.12.52-.18.56-.7.45l-4.29-1c-.52-.12-.56-.18-.45-.7.07-.31.73-2.77 1.85-7.84zm19.9-12.69c-5.12-1.14-6.85-1.4-7.16-1.48-.52-.12-.56-.18-.44-.7l.86-3.88c.11-.52.17-.56.69-.44.31.07 2 .55 7.12 1.68l5.64 1.25.07-.31a30.73 30.73 0 0 0 .9-5.55 53 53 0 0 1 5.2 1.48c.51.16.83.45.76.76a2.58 2.58 0 0 1 -.54 1 9.33 9.33 0 0 0 -1.15 3.49l-.07.31 7.29 1.61c5.07 1.12 6.86 1.4 7.11 1.47.57.12.61.18.5.7l-.86 3.88c-.11.52-.18.56-.75.44-.25-.06-2-.55-7.06-1.68l-7.3-1.61-.88 4 4.66 1c4.91 1.08 6.7 1.37 7 1.44.51.11.55.18.44.69-.07.32-.41 1.38-1 4.12l-1.17 5.28c-.6 2.69-.74 3.85-.81 4.16-.12.52-.18.56-.7.44-.31-.07-2-.56-7-1.64l-5.23-1.16a22.67 22.67 0 0 1 -2.35 5 27.46 27.46 0 0 1 -2.2 2.83c4.41 3.58 10.45 6 18.3 8.06a14.15 14.15 0 0 0 -2.38 3.38c-.67 1.54-.67 1.54-2.3 1.07a42.8 42.8 0 0 1 -17.64-9.33 28.8 28.8 0 0 1 -11.47 3 4.82 4.82 0 0 1 -1.2 0c-.51-.11-.64-.52-.85-1.55a10.12 10.12 0 0 0 -1.35-3.71 27.71 27.71 0 0 0 11.3-1.74 29.56 29.56 0 0 1 -3.72-6.74c-.2-.53-.13-.63.57-.85l3-.92c.64-.18.8-.15 1 .34a24.73 24.73 0 0 0 3.11 5.3c.5-.54.9-1.11 1.36-1.71a18.26 18.26 0 0 0 1.77-3.57l-3.88-.86c-4.92-1.09-6.7-1.37-7-1.43-.52-.11-.56-.18-.45-.7.07-.31.43-1.42 1-4.11l1.16-5.28c.6-2.74.74-3.8.82-4.16.11-.52.17-.56.69-.45.26.06 2 .56 6.91 1.64l4.35 1 .88-4zm-3 8.18-1.25 5.64 6.68 1.48c.42-1.65.89-3.55 1.35-5.62zm17.75 9.82 1.25-5.64-7-1.55-1.4 5.6z"/><path d="m1571 48.84a38.34 38.34 0 0 1 12.4.92c6.8 2 9.34 7.81 7.12 15.28a20.77 20.77 0 0 1 -7.78 10.96 30 30 0 0 1 -12.2 5.16 2.48 2.48 0 0 1 -.94 0c-.46-.14-.7-.43-1-1a12.92 12.92 0 0 0 -3.42-3.94 28.94 28.94 0 0 0 13.69-5.22 15.55 15.55 0 0 0 5.47-8.17c1.25-4.21.12-6.93-2.82-7.8a17.88 17.88 0 0 0 -8.63-.19 25 25 0 0 0 -5.05 1.16 1.92 1.92 0 0 1 -1.27.17c-.66-.2-.92-1-1.09-1.54a37 37 0 0 1 -1-6.1 28 28 0 0 0 6.52.31zm22-6.17a.75.75 0 0 1 .46 1 1.09 1.09 0 0 1 -.08.15 40.85 40.85 0 0 1 -2.44 4.14c-.3.46-.53.67-.92.5a69.67 69.67 0 0 1 -13.58-8.3c-.22-.17-.4-.5-.05-1.12a25 25 0 0 1 3-4.32 66.28 66.28 0 0 0 13.66 8z"/><path d="m1631.82 61.41c.5 0 .7.09.6.67a28.89 28.89 0 0 1 -1.06 4.19c-.17.45-.4.47-.82.37-2.88-.45-5.45-1-8.69-1.72a146.56 146.56 0 0 1 -17.64 17.68c-.33.27-.54.37-.74.29a1.6 1.6 0 0 1 -.5-.47 25.23 25.23 0 0 1 -2.48-3.82.73.73 0 0 1 -.14-.67 1 1 0 0 1 .47-.5 107.13 107.13 0 0 0 15.07-14.12c-1.93-.6-3.46-1.18-5-1.76-1.09-.4-1.49-.55-2.71-1.07-.5-.18-.54-.37-.4-1a27.44 27.44 0 0 1 1.08-4.4c2 .91 3.1 1.39 4.54 1.92 1.94.73 3.45 1.23 5.8 1.89 1.38-1.86 2.36-3.42 3.37-5.08a20.06 20.06 0 0 0 1.8-3.91 48.34 48.34 0 0 1 5.42 3.22.91.91 0 0 1 .52 1 1.34 1.34 0 0 1 -.8.78 5.43 5.43 0 0 0 -1.48 1.54c-.8 1.06-1.77 2.45-2.77 3.77a58.23 58.23 0 0 0 6.56 1.2zm-3.59 13.82a18.61 18.61 0 0 0 .92-3.67 28.19 28.19 0 0 1 5.06 3 .8.8 0 0 1 .4 1 6.22 6.22 0 0 1 -.69.93 5.52 5.52 0 0 0 -1 2 70 70 0 0 0 -2.6 8.65 41.19 41.19 0 0 1 7.2 7.95c.37.54.34.75-.09 1.16a31.74 31.74 0 0 1 -3.79 3.16c-.24.2-.42.24-.57.18s-.26-.2-.39-.48a39.26 39.26 0 0 0 -4.5-6.43c-1.85 5-6.28 5.91-11.94 3.8-5.46-2-8.1-6.2-6.5-10.47s6.29-5.91 11.9-3.81a27.85 27.85 0 0 1 3.8 1.76c.94-3.31 1.97-6.38 2.79-8.73zm-8.2 11.2c-2.48-.93-4.78-.66-5.49 1.23-.6 1.59.5 2.9 3.33 4s4.86.17 5.64-1.91a7.39 7.39 0 0 0 .32-1 13.45 13.45 0 0 0 -3.8-2.27zm18.17-20.43a.74.74 0 0 1 1-.11.93.93 0 0 1 .13.15 41.35 41.35 0 0 1 8 8.3c.22.31.31.52.24.72a1.4 1.4 0 0 1 -.42.52 32.9 32.9 0 0 1 -3.46 2.89c-.24.2-.43.24-.58.18s-.23-.14-.37-.36a45.74 45.74 0 0 0 -8.25-9.26c1.39-1.18 2.69-2.39 3.67-3z"/><path d="m1665.64 81c.42.48.53.88.35 1.27a1.59 1.59 0 0 1 -.57.61 10 10 0 0 0 -2.13 2.12 86.78 86.78 0 0 0 -5.15 8.25 25.88 25.88 0 0 1 19.58-.29c7 3.2 9.37 9.22 6.54 15.44a13 13 0 0 1 -12.2 7.49 46 46 0 0 1 -13.86-2.29c-1.13-.34-1.54-.59-1.65-1.51a13.52 13.52 0 0 0 -1.41-5.6 43.9 43.9 0 0 0 14.5 3.34c4.67.09 7.6-1.6 9-4.69 1.18-2.6.62-5.72-3.53-7.6s-10.6-1.51-17.23 1a13.84 13.84 0 0 0 -3.28 1.71c-.51.35-.71.26-1.27-.17-.94-.89-1.84-1.82-2.69-2.8a.88.88 0 0 1 -.23-1.27c2.84-5.47 6-10.87 8.6-14.9a33.68 33.68 0 0 0 2.41-4.15 30.42 30.42 0 0 1 4.22 4.04zm6.76-11.66a.89.89 0 0 1 1 .18 34.89 34.89 0 0 1 6.84 10 .72.72 0 0 1 .09.68 1.5 1.5 0 0 1 -.5.47 35.72 35.72 0 0 1 -4 2.26.94.94 0 0 1 -.71.14c-.2-.09-.29-.25-.42-.6a42.52 42.52 0 0 0 -6.89-10.71 28 28 0 0 1 4.57-2.47z"/><path d="m716 1072c0-420.53 290.87-761.45 649.69-761.45s649.69 340.92 649.69 761.45z" fill="#ffeed3"/><circle cx="205.65" cy="190.37" fill="#e7f5fa" r="176.19"/><circle cx="381.59" cy="204.13" fill="#e7f5fa" r="136.13"/><path d="m50 192.15h455.79a87.21 87.21 0 0 1 87.21 87.2 87.21 87.21 0 0 1 -87.21 87.21h-455.79a87.21 87.21 0 0 1 -87.21-87.21 87.21 87.21 0 0 1 87.21-87.2z" fill="#e7f5fa"/><circle cx="2405.46" cy="683.72" fill="#e7f5fa" r="159.97"/><circle cx="2565.21" cy="696.22" fill="#e7f5fa" r="123.59"/><rect fill="#e7f5fa" height="158.35" rx="76.53" width="572.14" x="2185.01" y="685.34"/><path d="m2298.71 1090.84h-1861.11v-86.59a927.16 927.16 0 0 1 250.72-635.42 7.67 7.67 0 0 1 10.85-.05 7.67 7.67 0 0 1 .37 10.5 911.89 911.89 0 0 0 -246.59 625v71.23h1830.41v-71.24a912 912 0 0 0 -245.18-623.43 7.69 7.69 0 0 1 .11-10.86 7.69 7.69 0 0 1 10.86.12l.27.28a927.42 927.42 0 0 1 249.29 633.9z" fill="none" stroke="#000" stroke-width="1.5"/><path d="m1751 996h-94.4l-7.6 31.75h8.74v63.09h92.13v-63.09h8.73z" fill="#fff" stroke="#000" stroke-linecap="round" stroke-linejoin="round" stroke-width="1.5"/><path d="m1678.11 1035.48h21.51v21.51h-21.51z" fill="#fff" stroke="#000" stroke-linecap="round" stroke-linejoin="round" stroke-width="1.5"/><path d="m1708.39 1035.48h21.51v21.51h-21.51z" fill="#fff" stroke="#000" stroke-linecap="round" stroke-linejoin="round" stroke-width="1.5"/><path d="m350 629c40.38 0 58.76 16.24 58.76 45.08 0 20.51-11.54 35.68-32.9 42.09l38.24 78.62h-31l-33.54-74.35c-2.35 0-4.7.21-7.48.21h-23.5v74.15h-28.2v-165.8zm-31.4 70.29h28.83c22.65 0 32.48-9.4 32.48-24.78 0-14.74-8.34-23.93-31.2-23.93h-30.1z" fill="#fff" stroke="#000" stroke-linejoin="round" stroke-width="1.5"/><path d="m544.84 651.88h-80.54v43.8h60.89v22.86h-60.89v53.4h82.25v22.86h-111.09v-165.8h109.38z" fill="#fff" stroke="#000" stroke-linejoin="round" stroke-width="1.5"/><path d="m696.73 794.8h-35.25l-40.17-85.46c-9.61-20.73-16.23-36.11-23.71-54.69h-3c1.07 19.65 1.5 39.31 1.5 59.81v80.34h-26.49v-165.8h43.39l34.4 73.49a504.31 504.31 0 0 1 22 56.83h3c-1.28-20.3-2.14-38.46-2.14-60.68v-69.64h26.5z" fill="#fff" stroke="#000" stroke-linejoin="round" stroke-width="1.5"/><path d="m846.26 652.3h-49.35v142.5h-29v-142.5h-48.98v-23.3h127.33z" fill="#fff" stroke="#000" stroke-linejoin="round" stroke-width="1.5"/><path d="m973.15 794.8h-30.15l-14.1-48.72h-50.8l-14.32 48.71h-27.36l50.85-165.79h34.83zm-59-103.61c-3.63-13-6.2-25.2-9.83-40.8h-1.92c-3.63 15.8-6.62 27.77-10.25 40.6l-9 33.75h40.6z" fill="#fff" stroke="#000" stroke-linejoin="round" stroke-width="1.5"/><path d="m1022.71 771.51h77.75v23.29h-106.8v-165.8h29.06z" fill="#fff" stroke="#000" stroke-linejoin="round" stroke-width="1.5"/><path d="m400.77 874.69h92.8v216.15h-92.8z" fill="#fff" stroke="#000" stroke-linecap="round" stroke-linejoin="round" stroke-width="1.5"/><path d="m412.8 893.29h28.64v10.64h-28.64z" fill="#fff" stroke="#000" stroke-linecap="round" stroke-linejoin="round" stroke-width="1.5"/><path d="m452.89 893.29h28.64v10.64h-28.64z" fill="#fff" stroke="#000" stroke-linecap="round" stroke-linejoin="round" stroke-width="1.5"/><path d="m412.8 918.75h28.64v10.64h-28.64z" fill="#fff" stroke="#000" stroke-linecap="round" stroke-linejoin="round" stroke-width="1.5"/><path d="m452.89 918.75h28.64v10.64h-28.64z" fill="#fff" stroke="#000" stroke-linecap="round" stroke-linejoin="round" stroke-width="1.5"/><path d="m412.8 944.2h28.64v10.64h-28.64z" fill="#fff" stroke="#000" stroke-linecap="round" stroke-linejoin="round" stroke-width="1.5"/><path d="m452.89 944.2h28.64v10.64h-28.64z" fill="#fff" stroke="#000" stroke-linecap="round" stroke-linejoin="round" stroke-width="1.5"/><path d="m412.8 969.66h28.64v10.64h-28.64z" fill="#fff" stroke="#000" stroke-linecap="round" stroke-linejoin="round" stroke-width="1.5"/><path d="m452.89 969.66h28.64v10.64h-28.64z" fill="#fff" stroke="#000" stroke-linecap="round" stroke-linejoin="round" stroke-width="1.5"/><path d="m412.8 995.12h28.64v10.64h-28.64z" fill="#fff" stroke="#000" stroke-linecap="round" stroke-linejoin="round" stroke-width="1.5"/><path d="m452.89 995.12h28.64v10.64h-28.64z" fill="#fff" stroke="#000" stroke-linecap="round" stroke-linejoin="round" stroke-width="1.5"/><path d="m412.8 1020.58h28.64v10.64h-28.64z" fill="#fff" stroke="#000" stroke-linecap="round" stroke-linejoin="round" stroke-width="1.5"/><path d="m452.89 1020.58h28.64v10.64h-28.64z" fill="#fff" stroke="#000" stroke-linecap="round" stroke-linejoin="round" stroke-width="1.5"/><path d="m840.97 833.88h150.43v256.96h-150.43z" fill="#fff" stroke="#000" stroke-linecap="round" stroke-linejoin="round" stroke-width="1.5"/><path d="m861.77 864.05h28.64v10.64h-28.64z" fill="#fff" stroke="#000" stroke-linecap="round" stroke-linejoin="round" stroke-width="1.5"/><path d="m901.87 864.05h28.64v10.64h-28.64z" fill="#fff" stroke="#000" stroke-linecap="round" stroke-linejoin="round" stroke-width="1.5"/><path d="m941.97 864.05h28.64v10.64h-28.64z" fill="#fff" stroke="#000" stroke-linecap="round" stroke-linejoin="round" stroke-width="1.5"/><path d="m861.77 895.71h28.64v10.64h-28.64z" fill="#fff" stroke="#000" stroke-linecap="round" stroke-linejoin="round" stroke-width="1.5"/><path d="m901.87 895.71h28.64v10.64h-28.64z" fill="#fff" stroke="#000" stroke-linecap="round" stroke-linejoin="round" stroke-width="1.5"/><path d="m941.97 895.71h28.64v10.64h-28.64z" fill="#fff" stroke="#000" stroke-linecap="round" stroke-linejoin="round" stroke-width="1.5"/><path d="m861.77 927.37h28.64v10.64h-28.64z" fill="#fff" stroke="#000" stroke-linecap="round" stroke-linejoin="round" stroke-width="1.5"/><path d="m901.87 927.37h28.64v10.64h-28.64z" fill="#fff" stroke="#000" stroke-linecap="round" stroke-linejoin="round" stroke-width="1.5"/><path d="m941.97 927.37h28.64v10.64h-28.64z" fill="#fff" stroke="#000" stroke-linecap="round" stroke-linejoin="round" stroke-width="1.5"/><path d="m861.77 959.02h28.64v10.64h-28.64z" fill="#fff" stroke="#000" stroke-linecap="round" stroke-linejoin="round" stroke-width="1.5"/><path d="m901.87 959.02h28.64v10.64h-28.64z" fill="#fff" stroke="#000" stroke-linecap="round" stroke-linejoin="round" stroke-width="1.5"/><path d="m941.97 959.02h28.64v10.64h-28.64z" fill="#fff" stroke="#000" stroke-linecap="round" stroke-linejoin="round" stroke-width="1.5"/><path d="m861.77 990.68h28.64v10.64h-28.64z" fill="#fff" stroke="#000" stroke-linecap="round" stroke-linejoin="round" stroke-width="1.5"/><path d="m901.87 990.68h28.64v10.64h-28.64z" fill="#fff" stroke="#000" stroke-linecap="round" stroke-linejoin="round" stroke-width="1.5"/><path d="m941.97 990.68h28.64v10.64h-28.64z" fill="#fff" stroke="#000" stroke-linecap="round" stroke-linejoin="round" stroke-width="1.5"/><path d="m1078.11 1016.78a28 28 0 0 0 -32.11-22.35 33 33 0 0 0 -56.69 21.16 23.18 23.18 0 0 0 7.49 45.13h71a23.18 23.18 0 0 0 10.33-43.94z" fill="#fff" stroke="#000" stroke-linecap="round" stroke-linejoin="round" stroke-width="1.5"/><path d="m1026.57 1042.51h11.42v48.33h-11.42z" fill="#fff" stroke="#000" stroke-linecap="round" stroke-linejoin="round" stroke-width="1.5"/><rect fill="#fff" height="357.15" rx="18.46" stroke="#000" stroke-linecap="round" stroke-linejoin="round" stroke-width="1.5" width="264.34" x="605.08" y="733.69"/><path d="m856.78 786.5v270.06h-239.06v-291.08h239.06" fill="none" stroke="#000" stroke-linecap="round" stroke-linejoin="round" stroke-width="1.5"/><circle cx="737.25" cy="750.11" r="3.63"/><g stroke="#000" stroke-width="1.5"><path d="m534.57 950.4h116.85v140.44h-116.85z" fill="#fff" stroke-linecap="round" stroke-linejoin="round"/><path d="m534.57 927.37h116.85v23.04h-116.85z" fill="#fff" stroke-linecap="round" stroke-linejoin="round"/><path d="m534.57 927.37v23.03" fill="none" stroke-linecap="round" stroke-linejoin="round"/><path d="m554.05 927.37v23.03" fill="none" stroke-linecap="round" stroke-linejoin="round"/><path d="m573.52 927.37v23.03" fill="none" stroke-linecap="round" stroke-linejoin="round"/><path d="m593 927.37v23.03" fill="none" stroke-linecap="round" stroke-linejoin="round"/><path d="m612.47 927.37v23.03" fill="none" stroke-linecap="round" stroke-linejoin="round"/><path d="m651.42 927.37v23.03" fill="none" stroke-linecap="round" stroke-linejoin="round"/><path d="m631.95 927.37v23.03" fill="none" stroke-linecap="round" stroke-linejoin="round"/><path d="m558.63 970.54h28.64v10.64h-28.64z" fill="#fff" stroke-linecap="round" stroke-linejoin="round"/><path d="m598.73 970.54h28.64v10.64h-28.64z" fill="#fff" stroke-linecap="round" stroke-linejoin="round"/><path d="m558.63 996h28.64v10.64h-28.64z" fill="#fff" stroke-linecap="round" stroke-linejoin="round"/><path d="m598.73 996h28.64v10.64h-28.64z" fill="#fff" stroke-linecap="round" stroke-linejoin="round"/><path d="m558.63 1021.45h28.64v10.64h-28.64z" fill="#fff" stroke-linecap="round" stroke-linejoin="round"/><path d="m598.73 1021.45h28.64v10.64h-28.64z" fill="#fff" stroke-linecap="round" stroke-linejoin="round"/><path d="m719.64 1006.2c.06-.66.1-1.32.1-2a21.48 21.48 0 0 0 -36.14-15.73 26.8 26.8 0 0 0 -35.6 32.83 22.4 22.4 0 0 0 20.62 39.77l.33-.17a34.63 34.63 0 0 0 27.3.85 30.15 30.15 0 0 0 23.35-55.56z" fill="#fff" stroke-linecap="round" stroke-linejoin="round"/><path d="m680.34 1043.28h12.23v47.56h-12.23z" fill="#fff" stroke-linecap="round" stroke-linejoin="round"/><path d="m2028.61 736.47c-4.27-18-14.1-27.13-29.48-27.13-17.52 0-27.56 8.33-27.56 21.57 0 14.53 6.4 21.16 30.34 27.77l8.76 2.57c37.81 10.25 48.49 24.57 48.49 48.92 0 29.06-20.08 49.14-59.82 49.14-32.26 0-54.69-14.1-62.6-42.94l27.56-8.76c4.27 19.23 16.88 29.91 34.4 29.91 21.8 0 31.62-9.4 31.62-23.71s-5.13-20.94-32.26-28.63l-8.55-2.56c-35.25-10.47-46.57-24.36-46.57-49.78 0-25 19.66-45.29 55.34-45.29 29 0 49.56 13.67 58.32 41.23z" fill="#fff" stroke-linejoin="round"/><path d="m2190.32 713.18h-80.54v43.82h60.88v22.86h-60.88v53.4h82.22v22.87h-111.1v-165.81h109.39z" fill="#fff" stroke-linejoin="round"/><path d="m2244.15 832.82h77.76v23.29h-106.81v-165.79h29.05z" fill="#fff" stroke-linejoin="round"/><path d="m2373.18 832.82h77.76v23.29h-106.82v-165.79h29.06z" fill="#fff" stroke-linejoin="round"/><path d="m2048.08 1037v-199.92a18.86 18.86 0 0 1 18.86-18.86h99.2a18.86 18.86 0 0 1 18.86 18.86v234.92a18.87 18.87 0 0 1 -18.87 18.87h-99.2a18.86 18.86 0 0 1 -18.86-18.87" fill="#fff" stroke-linecap="round" stroke-linejoin="round"/><path d="m2175 862.23v201.57h-116.9v-218.54h116.9" fill="none" stroke-linecap="round" stroke-linejoin="round"/><path d="m2104.21 832.88h24.67" fill="none" stroke-linecap="round" stroke-linejoin="round"/><path d="m2207.66 950.4h116.85v140.44h-116.85z" fill="#fff" stroke-linecap="round" stroke-linejoin="round"/><path d="m2231.72 970.54h28.64v10.64h-28.64z" fill="#fff" stroke-linecap="round" stroke-linejoin="round"/><path d="m2271.82 970.54h28.64v10.64h-28.64z" fill="#fff" stroke-linecap="round" stroke-linejoin="round"/><path d="m2231.72 996h28.64v10.64h-28.64z" fill="#fff" stroke-linecap="round" stroke-linejoin="round"/><path d="m2271.82 996h28.64v10.64h-28.64z" fill="#fff" stroke-linecap="round" stroke-linejoin="round"/><path d="m2231.72 1021.45h28.64v10.64h-28.64z" fill="#fff" stroke-linecap="round" stroke-linejoin="round"/><path d="m2271.82 1021.45h28.64v10.64h-28.64z" fill="#fff" stroke-linecap="round" stroke-linejoin="round"/><path d="m1772.94 894.16h200.32v196.68h-200.32z" fill="#fff" stroke-linecap="round" stroke-linejoin="round"/><path d="m1798.42 927.71h28.64v10.64h-28.64z" fill="#fff" stroke-linecap="round" stroke-linejoin="round"/><path d="m1838.52 927.71h28.64v10.64h-28.64z" fill="#fff" stroke-linecap="round" stroke-linejoin="round"/><path d="m1878.62 927.71h28.64v10.64h-28.64z" fill="#fff" stroke-linecap="round" stroke-linejoin="round"/><path d="m1919.14 927.71h28.64v10.64h-28.64z" fill="#fff" stroke-linecap="round" stroke-linejoin="round"/><path d="m1798.42 960.68h28.64v10.64h-28.64z" fill="#fff" stroke-linecap="round" stroke-linejoin="round"/><path d="m1838.52 960.68h28.64v10.64h-28.64z" fill="#fff" stroke-linecap="round" stroke-linejoin="round"/><path d="m1878.62 960.68h28.64v10.64h-28.64z" fill="#fff" stroke-linecap="round" stroke-linejoin="round"/><path d="m1919.14 960.68h28.64v10.64h-28.64z" fill="#fff" stroke-linecap="round" stroke-linejoin="round"/><path d="m1798.42 993.66h28.64v10.64h-28.64z" fill="#fff" stroke-linecap="round" stroke-linejoin="round"/><path d="m1838.52 993.66h28.64v10.64h-28.64z" fill="#fff" stroke-linecap="round" stroke-linejoin="round"/><path d="m1878.62 993.66h28.64v10.64h-28.64z" fill="#fff" stroke-linecap="round" stroke-linejoin="round"/><path d="m1919.14 993.66h28.64v10.64h-28.64z" fill="#fff" stroke-linecap="round" stroke-linejoin="round"/><path d="m1798.42 1026.63h28.64v10.64h-28.64z" fill="#fff" stroke-linecap="round" stroke-linejoin="round"/><path d="m1838.52 1026.63h28.64v10.64h-28.64z" fill="#fff" stroke-linecap="round" stroke-linejoin="round"/><path d="m1878.62 1026.63h28.64v10.64h-28.64z" fill="#fff" stroke-linecap="round" stroke-linejoin="round"/><path d="m1919.14 1026.63h28.64v10.64h-28.64z" fill="#fff" stroke-linecap="round" stroke-linejoin="round"/><path d="m1772.94 870.15h200.32v24.55h-200.32z" fill="#fff" stroke-linecap="round" stroke-linejoin="round"/><path d="m1772.94 870.15v24.55" fill="none" stroke-linecap="round" stroke-linejoin="round"/><path d="m1806.33 870.15v24.55" fill="none" stroke-linecap="round" stroke-linejoin="round"/><path d="m1839.72 870.15v24.55" fill="none" stroke-linecap="round" stroke-linejoin="round"/><path d="m1873.1 870.15v24.55" fill="none" stroke-linecap="round" stroke-linejoin="round"/><path d="m1906.49 870.15v24.55" fill="none" stroke-linecap="round" stroke-linejoin="round"/><path d="m1973.26 870.15v24.55" fill="none" stroke-linecap="round" stroke-linejoin="round"/><path d="m1939.88 870.15v24.55" fill="none" stroke-linecap="round" stroke-linejoin="round"/><path d="m2035.41 1016.78a28 28 0 0 0 -32.11-22.36 33 33 0 0 0 -56.69 21.16 23.19 23.19 0 0 0 7.49 45.14h71a23.18 23.18 0 0 0 10.33-43.94z" fill="#fff" stroke-linecap="round" stroke-linejoin="round"/><path d="m1983.86 1042.51h11.42v48.33h-11.42z" fill="#fff" stroke-linecap="round" stroke-linejoin="round"/><path d="m1490.19 846c41.44 0 56.61 15.17 56.61 41.23 0 19-12.82 32.69-32.9 36.1v1.5c24.57 4.06 38 18.59 38 39.95 0 29.27-20.94 47-58.75 47h-62.15v-165.78zm-31 68.15h25.2c22.65 0 33.76-9.4 33.76-24.15s-8.12-22.43-31.2-22.43h-27.76zm0 76.05h30.81c22 0 32.91-10.25 32.91-27.56 0-16.88-13.46-26.92-36.54-26.92h-27.13z" fill="#fff" stroke-linejoin="round"/><path d="m1699.33 954.56c0 39.73-24.35 60.24-62.6 60.24-38.45 0-63.23-19.87-63.23-60.24v-108.56h28.84v108.1c0 27.13 13 38.67 35 38.67 21.8 0 35-11.54 35-38.67v-108.1h26.92z" fill="#fff" stroke-linejoin="round"/><path d="m1801.87 943.23v68.58h-29.06v-68.58l-53.4-97.2h32l32.9 61.74c2.13 3.85 3.2 6.2 5.12 10 1.93-4.06 3-6.19 5.34-10.25l31.89-61.52h29.48z" fill="#fff" stroke-linejoin="round"/><path d="m1992.63 687.68h-73.88a62.83 62.83 0 0 0 -62.82 62.82v95.84" fill="none"/></g><path d="m1313.21 790.9-10.6-10.59a9.13 9.13 0 0 1 0-12.9l6.09-5.43-.94-2.25c-1.87-4-3.84-15.22-3.84-15.22l-.75-7.5a17.17 17.17 0 0 1 -10.67-4.4 3.36 3.36 0 0 1 -1-4.22l12.37-21.8a40.84 40.84 0 0 0 2.26-27l-1-4.5-3.24.48a77 77 0 0 1 -10.74.27l-6.11-.75c5.82-3 12.12-15 12.12-15 8.63-21.78 31.53-39 31.53-39 36.8-28.54 81.09-13.9 81.09-13.9 35.29 14.27 40.74 41.49 40.74 41.49l2.06 6.2s19.52 21.78 6.75 65.32c0 0-9.76 27.78-31.53 40.55a28.05 28.05 0 0 0 -7 14.26 34.72 34.72 0 0 0 -.56 8.45v.19c1.78.25 3.29.83 5.07 1.22l-.84 18.86-.6 7.38c13.38 6.34 25.77 18.26 32.13 39.93a91.86 91.86 0 0 1 2.26 23.08l2.9 206.67 1.13 10.13h-176.94l1.68-43.36-3.37-54-.56-4.84c-19.66 8.83-34.3 7.24-44.26 3.14a35.31 35.31 0 0 1 -21.23-28.91c0-.44-.09-.88-.13-1.32a52.78 52.78 0 0 1 7.13-30.72l57.87-100.55 6.76-11.27 3.32 2.3 2.07.52 6.29-10.84 8.26 4.5s4.51-3.75 3.76-16.51z" fill="#fff"/><path d="m1306.18 679.58a40.84 40.84 0 0 1 -2.25 27l-12.38 21.8a3.35 3.35 0 0 0 1 4.21 17.12 17.12 0 0 0 10.67 4.4l.75 7.51" fill="none" stroke="#000" stroke-linecap="round" stroke-linejoin="round" stroke-width="1.5"/><path d="m1346 656.3a77.36 77.36 0 0 1 -54.8 19.52" fill="none" stroke="#000" stroke-linecap="round" stroke-linejoin="round" stroke-width="1.5"/><path d="m1349 669.81s-.94 24.88 14.08 36.14" fill="none" stroke="#000" stroke-linecap="round" stroke-linejoin="round" stroke-width="1.5"/><path d="m1451.68 653.14s-2.94-33.77-41.88-46c0 0-44.3-14.64-81.09 13.89 0 0-22.9 17.27-31.54 39" fill="none" stroke="#000" stroke-linecap="round" stroke-linejoin="round" stroke-width="1.5"/><path d="m1452.59 654.8s19.53 21.77 6.76 65.32c0 0-9.76 27.78-31.53 40.54" fill="none" stroke="#000" stroke-linecap="round" stroke-linejoin="round" stroke-width="1.5"/><path d="m1326.91 841.44-37.66-22.44-6.76 11.26-57.88 100.56a52.8 52.8 0 0 0 -7.14 30.73c0 .44.09.9.14 1.36a36.12 36.12 0 0 0 23.84 30.41c9.56 3.24 22.93 3.79 40.52-4.11l96.29-57.44" fill="none" stroke="#000" stroke-linecap="round" stroke-linejoin="round" stroke-width="1.5"/><path d="m1336.59 846.74 7.32 4.78-40.46 84.33" fill="none" stroke="#000" stroke-linecap="round" stroke-linejoin="round" stroke-width="1.5"/><path d="m1420.78 774.94a34.6 34.6 0 0 0 -.56 8.44" fill="none" stroke="#000" stroke-linecap="round" stroke-linejoin="round" stroke-width="1.5"/><path d="m1400.65 763.1s12.24 11.27 34.2 12.68" fill="none" stroke="#000" stroke-linecap="round" stroke-linejoin="round" stroke-width="1.5"/><path d="m1383.33 785.91s21.4-5.63 42-1.13l-.84 18.87" fill="none" stroke="#000" stroke-linecap="round" stroke-linejoin="round" stroke-width="1.5"/><path d="m1371.5 806.47s66.44-16.9 84.46 44.48" fill="none" stroke="#000" stroke-linecap="round" stroke-linejoin="round" stroke-width="1.5"/><path d="m1283.66 993.47 3.37 54-1.68 43.36h176.35l-1.13-10.14-1.77-212.9" fill="none" stroke="#000" stroke-linecap="round" stroke-linejoin="round" stroke-width="1.5"/><path d="m1314.58 755.45 68.34-68.34a9.13 9.13 0 0 1 12.9 0l33.91 33.89a9.12 9.12 0 0 1 0 12.9l-80.3 80.3a9.13 9.13 0 0 1 -12.9 0l-33.92-33.91a9.13 9.13 0 0 1 0-12.9" fill="none" stroke="#000" stroke-linecap="round" stroke-linejoin="round" stroke-width="1.5"/><circle cx="1389.74" cy="697.58" fill="none" r="4.49" stroke="#000" stroke-linecap="round" stroke-linejoin="round" stroke-width="1.5"/><circle cx="1389.74" cy="697.58" fill="none" r="3.36" stroke="#000" stroke-linecap="round" stroke-linejoin="round" stroke-width="1.5"/><rect fill="none" height="3.01" rx="1.38" stroke="#000" stroke-linecap="round" stroke-linejoin="round" stroke-width="1.5" transform="matrix(.70710678 -.70710678 .70710678 .70710678 -88.84 1193.33)" width="7.46" x="1392.33" y="702.4"/><ellipse cx="1321.95" cy="703.22" fill="#231815" rx="3.02" ry="3.55"/><path d="m1320.07 687.08s12.77-3 23.84 11.26" fill="none" stroke="#000" stroke-linecap="round" stroke-linejoin="round" stroke-width="1.5"/><path d="m1367.85 791.26 4.78-17.46 12.67-35.75c2.81-9.86-3.38-9.86-3.38-9.86-3.94-.84-6.76 3.66-6.76 3.66l-16.33 27 11-36.6c1.13-7.88-5.91-7.6-5.91-7.6-5.63 0-8.73 9.57-8.73 9.57l-13 30.4-.85-8.73c-.56-11.54-7-14.07-7-14.07-9.85 0-8.44 11-8.44 11l.52 1.85a5.82 5.82 0 0 0 -6.44-3.82c-7.88 1.69-7 13-7 13v45.15c.75 12.76-3.76 16.52-3.76 16.52l34.16 19.71 3.62-6.23c6.83-1.66 18.16-9 20.89-13.87a34.68 34.68 0 0 0 2.8-6.93 83.25 83.25 0 0 1 8.13-16.37l11-14.36c1.4-3.66-3.38-3.66-3.38-3.66-9.57-.56-16.05 7.89-16.05 7.89" fill="#fff"/><path d="m1309.19 815.48s4.5-3.75 3.75-16.52v-45.05s-.84-11.35 7-13c0 0 6.76-1.69 7.88 9.57" fill="none" stroke="#000" stroke-linecap="round" stroke-linejoin="round" stroke-width="1.5"/><path d="m1325.9 742.83s-1.4-10.27 7.32-11.12c0 0 7-.84 8.16 14.22l.85 8.73 13-30.4s3.1-9.58 8.73-9.58c0 0 7-.28 5.91 7.6l-11 36.6 16.33-27s2.82-4.5 6.76-3.66c0 0 6.2 0 3.38 9.86l-12.67 35.76-4.79 17.45" fill="none" stroke="#000" stroke-linecap="round" stroke-linejoin="round" stroke-width="1.5"/><path d="m1370.8 780.14a20.62 20.62 0 0 1 15.63-6.34s4.78 0 3.38 3.66l-11 14.36a84 84 0 0 0 -8.14 16.36 33.31 33.31 0 0 1 -2.8 6.93c-2.72 4.87-14.05 12.2-20.88 13.88l-3.66 6.2" fill="none" stroke="#000" stroke-linecap="round" stroke-linejoin="round" stroke-width="1.5"/><path d="m1294.64 821.81 6.29-10.84 46.36 27.6" fill="none" stroke="#000" stroke-linecap="round" stroke-linejoin="round" stroke-width="1.5"/><ellipse cx="1304.47" cy="1037.91" fill="none" rx="6" ry="9.75" stroke="#000" stroke-linecap="round" stroke-linejoin="round" stroke-width="1.5"/><path d="m1481.38 1011.81h-247.08a62.25 62.25 0 0 1 -62.3-62.26v-85.55a69.14 69.14 0 0 0 -69.14-69.14h-4.51" fill="none" stroke="#000" stroke-width="1.5"/></svg>