<svg xmlns="http://www.w3.org/2000/svg" width="84" height="84" viewBox="0 0 84 84"><defs><style>.a{fill:#e3e3e3;}.b{fill:none;stroke:#000;stroke-linecap:round;stroke-miterlimit:10;stroke-width:1.5px;}</style></defs><g transform="translate(-648 -841)"><circle class="a" cx="42" cy="42" r="42" transform="translate(648 841)"/><g transform="translate(214.657 709.384)"><path class="b" d="M486.817,178.019v-.782a11.737,11.737,0,1,0-23.474,0v7.042" transform="translate(0 -4.971)"/><path class="b" d="M496.52,195.725a8.609,8.609,0,0,1-7.585-8.547,3.912,3.912,0,1,0-7.825,0v.782c0,7.581,4.976,13.218,11.931,15.049" transform="translate(-9.942 -14.912)"/><path class="b" d="M487.475,186.806a4.7,4.7,0,0,1-3.748-4.6,8.077,8.077,0,0,0-7.825-7.825,7.836,7.836,0,0,0-7.825,7.825v6.26a4.694,4.694,0,0,1-3.266,4.473" transform="translate(-0.821 -9.941)"/><path class="b" d="M473.421,216.574a10.5,10.5,0,0,1-4.074,3.88" transform="translate(-3.36 -33.551)"/><path class="b" d="M476.41,228.952a16.983,16.983,0,0,0,1.735-1.333,3.217,3.217,0,0,1,4.078-.166,17.9,17.9,0,0,0,4.244,2.438" transform="translate(-7.312 -39.275)"/><path class="b" d="M500.471,205.519c-5.952-.849-10.478-5.389-10.478-11.594" transform="translate(-14.913 -20.877)"/><path class="b" d="M487.186,160.89a16.112,16.112,0,0,0-10.744-4.274,15.594,15.594,0,0,0-10.666,4.2" transform="translate(-1.361 0)"/></g></g></svg>