<svg xmlns="http://www.w3.org/2000/svg" width="413.979" height="422.275" viewBox="0 0 413.979 422.275"><defs><style>.a,.d,.e,.h,.k,.n{fill:#fff;}.b,.m,.r{fill:#d5f0f7;}.c,.f,.g,.i,.o,.p,.q{fill:none;}.c,.e,.f,.g,.o,.p{stroke:#000;}.c,.d,.e,.f,.i,.m,.n,.o,.p,.q{stroke-linecap:round;}.c,.d,.i,.m,.n,.o,.p,.q{stroke-linejoin:round;}.c,.d,.e,.f,.g,.k{stroke-width:1.009px;}.d,.k{stroke:#221714;}.e,.f,.g,.h,.k{stroke-miterlimit:10;}.h,.i,.m,.n{stroke:#231815;}.j{font-size:18px;font-family:DIN-Light, DIN;font-weight:300;}.l{fill:#231815;}.o{stroke-width:0.758px;}.p{stroke-width:0.505px;}.q{stroke:#50bee6;stroke-width:26.988px;}.r{mix-blend-mode:multiply;isolation:isolate;}</style></defs><g transform="translate(0.026 -492.792)"><path class="a" d="M85.811,542.971a15.967,15.967,0,0,0,9.04-10.721c.355-1.344,4.417-18.723-12.4-31.575,0,0-9.783-7.036-19.594-7.295,0,0-30.508-2.325-35.558,28.154,0,0-2.134,9.034-4.459,11.617a26.717,26.717,0,0,0,.843,9.046l2.077,3.948A23.8,23.8,0,0,0,38.3,557.153s8.279,2.3,8.279,4.027v12.5c1.265,5.747,18.6,13.256,18.6,13.256,8.245-4.143,7.741-11.875,7.741-11.875v-6.128a22.038,22.038,0,0,0,8.447-7.088A25.489,25.489,0,0,0,85.8,550.5l.787-7.536" transform="translate(-1.386 0)"/><path class="b" d="M109,632.937l-.1-35.672c-1.7-2.678-8.346-5.3-8.346-5.3l-23.6-6.027L72.7,578.572c.746,9.032-8.911,13.56-8.911,13.56C46.566,584.9,43,576.893,43,576.893l-5.234,9.877L27.016,589.5C-.875,593.431.505,616.218.505,616.218l9.182,61.744s.09,18.558,11.689,18.025c0,0,8.533-.547,19.554-5.669h80.756l-3.324-30.291c-11.5,5.5-28.255,6.4-28.255,6.4-4.926-4.154-4.683-13.923-4.683-13.923l5.12-1.816s3.14-5.825,12.277-11.43Z" transform="translate(0 -5.2)"/><g transform="translate(0.5 493.34)"><g transform="translate(296.076 154.565)"><path class="c" d="M371.031,698.871H404.96a5.12,5.12,0,0,0,5.12-5.121V663.283a5.121,5.121,0,0,0-5.119-5.121H321.346a5.121,5.121,0,0,0-5.121,5.12h0V693.75a5.121,5.121,0,0,0,5.121,5.121H356.9l-9.913,10.312" transform="translate(-316.225 -658.162)"/><g transform="translate(21.951 12.415)"><path class="d" d="M344.854,679.886h.027l-5.2-8.484" transform="translate(-339.636 -671.401)"/><line class="d" x1="0.011" y2="7.398" transform="translate(5.232 8.743)"/><line class="d" x1="10.14" transform="translate(0 8.588)"/><line class="d" x1="10.14" transform="translate(0 11.278)"/><line class="d" x1="4.179" y2="6.819" transform="translate(6.239)"/></g><g transform="translate(44.229 18.415)"><circle cx="2.07" cy="2.07" r="2.07"/><circle cx="2.07" cy="2.07" r="2.07" transform="translate(10.661)"/><circle cx="2.07" cy="2.07" r="2.07" transform="translate(21.321)"/></g></g><g transform="translate(269.111 217.552)"><path class="a" d="M287.47,895.629l16.7-68.9a17.681,17.681,0,0,1,11.384-11.389l22.73-7.352h38.9l22.73,7.352a17.68,17.68,0,0,1,11.384,11.389l14.894,64.5H345.2l-29.558,4.393Z" transform="translate(-287.47 -730.473)"/><path class="a" d="M387.959,747.9c-2.976-12.568-14.925-22.57-27.929-22.57h-.245c-13,0-25.273,10.119-27.928,22.57a136.831,136.831,0,0,1-6.162,20.91s-4.364,8.371,2.993,17.371c0,0,2.078,3.63-.035,9.351,0,0-3.445,4.181-6.084,6.941,0,0-5.129,5.232-5.155,7.726l24.55-7.979,37.077.968,23.379,7.423s-.552-5.354-9.26-11.317c0,0-5.624-7.274-1.533-14.012,0,0,7.248-7,1.533-18.619C393.163,766.664,388.442,749.938,387.959,747.9Z" transform="translate(-289.334 -725.329)"/><path class="e" d="M337.768,770.091l1.946,11.186a24.087,24.087,0,0,0,11.25,16.474l5.473,3.315s3.755,2.284,9.3,0l5.473-3.315a24.087,24.087,0,0,0,11.25-16.474l1.876-10.783" transform="translate(-290.6 -728.115)"/><path class="f" d="M324.648,805.65c-2.553,2.105-7.046,6.26-7.232,9.548" transform="translate(-289.334 -730.328)"/><path class="f" d="M329.361,794.753a11.464,11.464,0,0,0-.205-8.572,9.284,9.284,0,0,0-1.277-2.012c-5.48-6.886-1.716-15.359-1.716-15.359a136.831,136.831,0,0,0,6.162-20.91c2.655-12.452,14.924-22.57,27.928-22.57h.245c13,0,25.273,10.119,27.929,22.57a138.767,138.767,0,0,0,5.2,18.352" transform="translate(-289.799 -725.329)"/><path class="f" d="M386.447,767.127c-11.363-4.934-22.3-15.349-22.727-21.81" transform="translate(-292.215 -726.573)"/><path class="f" d="M385.416,781.325a12.5,12.5,0,0,0,5.161-6.9s1.877-5.926-2.58-5.846" transform="translate(-293.566 -728.02)"/><path class="b" d="M347.075,872.329l-13.439,6.777-16.12,20.527h29.559Z" transform="translate(-289.34 -734.477)"/><path class="g" d="M357.218,768.967a6.736,6.736,0,0,1,2.538,5.573l-.582,8.973h4.3" transform="translate(-291.811 -728.045)"/><path class="g" d="M368.221,791.953a13.8,13.8,0,0,1-12.044.189" transform="translate(-291.746 -729.475)"/><circle cx="1.839" cy="1.839" r="1.839" transform="translate(56.429 43.543)"/><path class="g" d="M344.175,767.575a10.861,10.861,0,0,1,4.741-.9,11.28,11.28,0,0,1,4.579.821" transform="translate(-290.999 -727.902)"/><circle cx="1.839" cy="1.839" r="1.839" transform="translate(79.194 43.543)"/><path class="g" d="M368.911,767.575a10.861,10.861,0,0,1,4.741-.9,11.281,11.281,0,0,1,4.579.821" transform="translate(-292.538 -727.902)"/><path class="g" d="M324.516,812.74l-8.964,2.9a17.681,17.681,0,0,0-11.384,11.389L293.515,869l-6.045,26.921" transform="translate(-287.47 -730.769)"/><path class="f" d="M339.4,779.877a12.5,12.5,0,0,1-5.161-6.9s-1.877-5.926,2.581-5.846h.459c11.364-4.934,22.3-15.349,22.728-21.81" transform="translate(-290.356 -726.573)"/><path class="f" d="M399.778,774.456c.69,3.041,1.077,8.248-2.521,12.77a9.325,9.325,0,0,0-1.278,2.012,11.469,11.469,0,0,0-.205,8.572,13.613,13.613,0,0,0,4.247,5.9c2.553,2.105,7.047,6.26,7.233,9.548" transform="translate(-294.165 -728.386)"/><g transform="translate(49.52 58.498)"><circle class="h" cx="17.011" cy="17.011" r="17.011" transform="translate(3.117)"/><path class="h" d="M350.569,793.8a15.014,15.014,0,1,0,6.263-3.452" transform="translate(-340.615 -787.841)"/><path class="h" d="M2.644,0h0A2.644,2.644,0,0,1,5.288,2.644V31.267a0,0,0,0,1,0,0H0a0,0,0,0,1,0,0V2.644A2.644,2.644,0,0,1,2.644,0Z" transform="matrix(-0.946, -0.324, 0.324, -0.946, 5.003, 69.351)"/></g><g transform="translate(5.912 108.093)"><path class="a" d="M333.7,877.131l10.46-4.905a50.429,50.429,0,0,0,9.865-6.1l2.977-6.39a4.09,4.09,0,0,0,.047-3.35h0l-3.686,5.852,4.8-8.131a1.908,1.908,0,0,0-.026-1.9h0a1.909,1.909,0,0,0-3.173-.167l-3.119,4.185-.05-.271,4.97-6.472a2.062,2.062,0,0,0,.071-2.412h0a2.061,2.061,0,0,0-3.022-.429l-5.176,4.294,6.592-5.643a2.546,2.546,0,0,0,.906-3.293h0a2.545,2.545,0,0,0-3.444-1.113l-9.119,4.542,1.022-3.26-7.833,4.505c-5.18,6.073-8.146,14.766-8.146,14.766" transform="translate(-295.942 -840.596)"/><path class="i" d="M342.871,842.039l-7.26,4.137a6.024,6.024,0,0,0-1.766,1.492,53.292,53.292,0,0,0-7.222,13.358,6.407,6.407,0,0,1-.487,1.021l-3.85,6.556a6.327,6.327,0,0,1-.992,1.28l-27.52,27.4" transform="translate(-293.774 -840.685)"/><path class="i" d="M356.356,857.435h0a4.09,4.09,0,0,1-.047,3.35l-2.639,5.665a3.248,3.248,0,0,1-.969,1.215,50.389,50.389,0,0,1-9.234,5.609l-9.947,4.905-16,20.527" transform="translate(-295.252 -841.643)"/><path class="i" d="M339.824,847.913l13.561-7.031A2.545,2.545,0,0,1,356.829,842h0a2.546,2.546,0,0,1-.906,3.293l-6.592,5.643" transform="translate(-296.64 -840.596)"/><path class="i" d="M349.962,851.3l5.176-4.294a2.061,2.061,0,0,1,3.022.429h0a2.062,2.062,0,0,1-.071,2.412l-4.97,6.472" transform="translate(-297.271 -840.965)"/><path class="i" d="M353.381,856.929l3.119-4.185a1.909,1.909,0,0,1,3.173.167h0a1.908,1.908,0,0,1,.026,1.9l-4.8,8.131" transform="translate(-297.484 -841.304)"/></g></g><path class="b" d="M377.018,895.811h54.167l-15.829-68.9s-1.314-10.859-25.8-16c0,0-7.568,16.933-32.933,14.613l-1.391,3.065,1.391.409-3.861,10.74s2.478-2.78,5.146.356c0,0,1.512,2.392-1.438,3.856,0,0,2.778.131,2.416,2.334h14.323s3.585-.477,3.81,6.184Z" transform="translate(-22.423 -513.104)"/><path class="g" d="M383.133,807.992l22.73,7.352a17.68,17.68,0,0,1,11.384,11.389l15.829,69.232" transform="translate(-24.313 -512.922)"/><path class="g" d="M390.75,810.931s-5.04,10.711-18.925,13.94" transform="translate(-23.609 -513.104)"/><path class="g" d="M341.089,807.992l-8.521,2.756s6.987,14.849,27.174,14.849" transform="translate(-21.166 -512.922)"/><rect class="h" width="3.276" height="6.253" transform="translate(332.809 315.493) rotate(-161.1)"/><text class="j" transform="translate(22.917 267.169)"><tspan x="0" y="0">PAY</tspan></text><text class="j" transform="translate(280.734 417.727)"><tspan x="0" y="0">ASSESSMENT</tspan></text><text class="j" transform="translate(242.68 57.203)"><tspan x="0" y="0">SELL</tspan></text><g transform="translate(84.042 246.607)"><path class="k" d="M117.395,845.424v-2.747a.967.967,0,0,1,.967-.967h53.584a.967.967,0,0,1,.967.967v5.492a.967.967,0,0,1-.967.967H118.362" transform="translate(-91.817 -761.627)"/><rect class="k" width="55.517" height="7.426" rx="1.03" transform="translate(25.578 42.955)"/><rect class="k" width="55.517" height="7.426" rx="1.03" transform="translate(25.578 50.38)"/><rect class="k" width="55.517" height="7.426" rx="1.03" transform="translate(25.578 72.658)"/><rect class="k" width="55.517" height="7.426" rx="1.03" transform="translate(30.959 57.806)"/><rect class="k" width="55.517" height="7.426" rx="1.03" transform="translate(29.585 65.232)"/><path class="k" d="M142.617,765.032a30.879,30.879,0,1,1-6.4-4.773" transform="translate(-90.12 -756.312)"/><g transform="translate(19.139 13.715)"><path class="k" d="M122.377,790.188h.061l-11.8-19.251" transform="translate(-110.536 -770.937)"/><line class="k" x1="0.026" y2="16.786" transform="translate(11.871 19.838)"/><line class="k" x1="23.008" transform="translate(0 19.486)"/><line class="k" x1="23.008" transform="translate(0 25.59)"/><line class="k" x1="9.483" y2="15.472" transform="translate(14.157)"/></g></g><path class="i" d="M74.91,517.345s-4.437,17.806-28.1,19.176" transform="translate(-3.383 -494.833)"/><path class="i" d="M76.921,517.264s7.986,3.818,9.768,17.075" transform="translate(-5.256 -494.828)"/><path class="i" d="M87.28,524.676s4.059,4.086,3.546,14.146" transform="translate(-5.901 -495.29)"/><path class="i" d="M57.718,524.293s-7.749,11.623-15.5,15.5" transform="translate(-3.097 -495.266)"/><path class="i" d="M89.915,546.257l-.787,7.536a25.489,25.489,0,0,1-4.437,11.341,22.038,22.038,0,0,1-8.447,7.088" transform="translate(-5.214 -496.633)"/><path class="i" d="M41.316,554.225c-6.586-3.874-5.617-10.073-5.617-10.073a4.343,4.343,0,0,1,2.906-3.68s2.324-.678,3.583,1.065" transform="translate(-2.688 -496.265)"/><path class="i" d="M85.811,542.971a15.967,15.967,0,0,0,9.04-10.721c.355-1.344,4.417-18.723-12.4-31.575,0,0-9.783-7.036-19.594-7.295,0,0-30.508-2.325-35.558,28.154,0,0-2.134,9.034-4.459,11.617a26.717,26.717,0,0,0,.843,9.046" transform="translate(-1.886 -493.34)"/><path class="i" d="M25.956,549.649A23.8,23.8,0,0,0,38.5,560.657" transform="translate(-2.085 -496.844)"/><path class="i" d="M45.193,565.682v12.5a7.275,7.275,0,0,1-5.2,6.972L27.54,588.668,19.451,590.7A25.072,25.072,0,0,0,.794,618.972l10.183,66.747" transform="translate(-0.5 -497.842)"/><path class="i" d="M76.353,573.945v7.325a3.745,3.745,0,0,0,2.78,3.619l16.591,4.424" transform="translate(-5.221 -498.356)"/><path class="i" d="M22.762,702.216s4.805.264,11.69-2.524l56.783-22.705" transform="translate(-1.886 -504.769)"/><path class="i" d="M125.929,672.486,119.1,607.651a16.77,16.77,0,0,0-12.188-14.773l-4.366-1.235" transform="translate(-6.851 -499.457)"/><path class="i" d="M75.587,540.567a6.915,6.915,0,0,0-.4,5.724l2.49,5.628-3.036,2.061" transform="translate(-5.115 -496.279)"/><path class="i" d="M77.959,535.618s3.21-2.874,8.71-.5" transform="translate(-5.321 -495.881)"/><circle class="l" cx="1.839" cy="1.839" r="1.839" transform="translate(73.569 43.334)"/><circle class="l" cx="1.839" cy="1.839" r="1.839" transform="translate(56.517 43.334)"/><path class="i" d="M75.234,561.947a13.7,13.7,0,0,1-10.78-.258" transform="translate(-4.48 -497.593)"/><path class="i" d="M43.614,558.246c7.361,16.659,25.183,15.5,25.183,15.5" transform="translate(-3.183 -497.379)"/><path class="b" d="M66.266,592.08l-5.811,15.5c-15.5-8.782-20.146-21.309-20.146-21.309l4.649-8.781a3.507,3.507,0,0,1,2.712-1.421,21.407,21.407,0,0,1,0,4.117S54.026,587.64,66.266,592.08Z" transform="translate(-2.978 -498.488)"/><path class="m" d="M70.7,590.822c5.941-4,6.2-12.139,6.2-12.139l4.262,7.362s1.679,8.394-3.874,18.984l-9.3-12.785" transform="translate(-4.7 -498.651)"/><path class="i" d="M66.678,592.183c-18.6-7.877-19.759-14.464-19.759-14.464" transform="translate(-3.389 -498.591)"/><g transform="translate(108.403 94.891)"><path class="a" d="M116.1,638.995V598.363a3.833,3.833,0,0,1,3.834-3.834h20.162a3.834,3.834,0,0,1,3.835,3.834h0V646.1a3.834,3.834,0,0,1-3.835,3.833H119.932A3.833,3.833,0,0,1,116.1,646.1h0Z" transform="translate(-116.097 -594.528)"/><path class="n" d="M116.1,638.995V598.363a3.833,3.833,0,0,1,3.834-3.834h20.162a3.834,3.834,0,0,1,3.835,3.834h0V646.1a3.834,3.834,0,0,1-3.835,3.833H119.932A3.833,3.833,0,0,1,116.1,646.1h0" transform="translate(-116.097 -594.528)"/><g transform="translate(2.625 2.855)"><circle class="o" cx="1.927" cy="1.927" r="1.927"/><circle class="p" cx="1.441" cy="1.441" r="1.441" transform="translate(0.486 0.486)"/><rect class="p" width="1.293" height="3.203" rx="0.632" transform="translate(5.119 0.321) rotate(-0.075)"/></g></g><g transform="translate(84.903 133.1)"><path class="a" d="M114.24,636.989l.4,8.164,13.122-3.87,14.247-5.491s5.117-1.7,3.94,3.2c0,0,3.3-.121,3.337,2.19,0,0,.712.58-1.68,2.237l-3.728,2.949-2.412,5.061s-2.18,3.111-3.288,3.123l-3.591,4.757A22.253,22.253,0,0,1,127.8,662.7l-10.9,3.674s-12.419,3.493-20.827,3.441l-.6.344s-4.8-4.687-4.425-13.8l5.12-2.029s5.461-6.959,11.612-10.749Z" transform="translate(-91.038 -635.288)"/><path class="i" d="M114.637,644.673v-8.017l-6.845,7C101.387,647.536,96.18,654.4,96.18,654.4l-5.12,1.816" transform="translate(-91.039 -635.359)"/><path class="i" d="M115.241,645.4l14.023-4.136,10.169-4.12,5.2-1.749a2.417,2.417,0,0,1,3.055,1.5h0a2.417,2.417,0,0,1-1.225,2.961l-13.547,6.614-8.664,4.025" transform="translate(-92.544 -635.273)"/><path class="i" d="M96.414,671.041l10.764-1.283a47.282,47.282,0,0,0,10.586-2.523l14.9-5.292a6.2,6.2,0,0,0,2.608-1.779l3.645-4.932" transform="translate(-91.372 -636.515)"/><path class="i" d="M127.29,655.743l16.792-8.089,6.545-4.537a2.138,2.138,0,0,0,.714-2.674h0a2.137,2.137,0,0,0-2.943-.966l-1.182.634" transform="translate(-93.294 -635.519)"/><path class="i" d="M129.729,659.779l10.715-4.984a6.957,6.957,0,0,0,3.787-3.285l.963-1.814,1.329-3.228" transform="translate(-93.446 -635.97)"/></g><path class="i" d="M66.266,592.08l-5.811,15.5c-15.5-8.782-20.146-21.309-20.146-21.309l4.649-8.781a3.507,3.507,0,0,1,2.712-1.421" transform="translate(-2.978 -498.488)"/><path class="i" d="M31.719,672.857l55.54-16.646S87,661.752,90.2,669.652" transform="translate(-2.443 -503.476)"/><path class="i" d="M303.5,553.819h98.472a30.336,30.336,0,0,1,30.337,30.336V828.57a30.056,30.056,0,0,1-30.055,30.056h-28.3" transform="translate(-19.357 -497.103)"/><path class="i" d="M130.666,591.3v-7.142A30.336,30.336,0,0,1,161,553.819h91.933" transform="translate(-8.601 -497.103)"/><path class="i" d="M115.32,846.019H73.509a30.337,30.337,0,0,1-30.337-30.337V791.62" transform="translate(-3.156 -511.903)"/><line class="i" y1="54.296" transform="translate(40.016 200.06)"/><circle class="q" cx="47.816" cy="47.816" r="47.816" transform="translate(177.989 152.244)"/><g transform="translate(204.95 157.803)"><path class="a" d="M261.5,729.44V667.464a5.848,5.848,0,0,0-5.848-5.849H224.9a5.848,5.848,0,0,0-5.848,5.849h0v72.818a5.848,5.848,0,0,0,5.848,5.848h30.752a5.849,5.849,0,0,0,5.849-5.848h0Z" transform="translate(-219.052 -661.615)"/><path class="n" d="M261.5,729.44V667.464a5.848,5.848,0,0,0-5.848-5.849H224.9a5.848,5.848,0,0,0-5.848,5.849h0v72.818a5.848,5.848,0,0,0,5.848,5.848h30.752a5.849,5.849,0,0,0,5.849-5.848h0" transform="translate(-219.052 -661.615)"/><path class="i" d="M222.365,675.816V738.3H258.6V670.556H222.365" transform="translate(-219.258 -662.171)"/><line class="i" x1="7.647" transform="translate(17.401 4.548)"/></g><path class="i" d="M296.437,927.667H270.693a30.056,30.056,0,0,1-30.055-30.246l.612-145.683" transform="translate(-15.445 -509.421)"/><path class="i" d="M138.963,757V733.739a29.865,29.865,0,0,1,29.865-29.866h45.24" transform="translate(-9.117 -506.442)"/></g><path class="r" d="M293.382,895.617l-5.912.2,16.7-68.9s1.3-10.665,20.348-14.289l5.245-1.7a29.6,29.6,0,0,0,18.937,13.94l-.629,2.665-1.3-.58L342.478,840.1l-3.683,2.08a24.624,24.624,0,0,0-9.926,10.4,47.875,47.875,0,0,0-2.819,7.011l-4.571,7.783Z" transform="translate(-17.86 -19.765)"/><line class="i" y2="2.757" transform="translate(45.192 570.918)"/><g transform="translate(327.443 826.528)"><path class="a" d="M349.14,892.825V852.45a3.81,3.81,0,0,1,3.809-3.81h20.034a3.81,3.81,0,0,1,3.81,3.81h0v47.437a3.81,3.81,0,0,1-3.81,3.81H352.95a3.81,3.81,0,0,1-3.81-3.81h0Z" transform="translate(-349.14 -848.64)"/><g transform="translate(0 0)"><path class="n" d="M349.14,892.825V852.45a3.81,3.81,0,0,1,3.809-3.81h20.034a3.81,3.81,0,0,1,3.81,3.81h0v47.437a3.81,3.81,0,0,1-3.81,3.81H352.95a3.81,3.81,0,0,1-3.81-3.81h0" transform="translate(-349.14 -848.64)"/><g transform="translate(2.609 2.837)"><circle class="p" cx="1.915" cy="1.915" r="1.915"/><circle class="p" cx="1.432" cy="1.432" r="1.432" transform="translate(0.483 0.483)"/><rect class="p" width="1.284" height="3.182" rx="0.628" transform="translate(5.086 0.319) rotate(-0.075)"/></g></g></g></g></svg>