<svg xmlns="http://www.w3.org/2000/svg" width="72.455" height="50.15" viewBox="0 0 72.455 50.15"><defs><style>.a,.b{fill:#fff;stroke:#231815;}.a{stroke-miterlimit:10;}.b{stroke-linejoin:round;}</style></defs><g transform="translate(-460 -490.253)"><g transform="translate(502.111 506.651)"><path class="a" d="M535.687,530.824a8.9,8.9,0,0,1,5.272-1.37,9.131,9.131,0,0,1,8.449,9.2v12.676H531.5v-7.729h-5.006a2,2,0,0,1-1.85-1.242l-4.889-9.766a1.811,1.811,0,0,1-.136-1.26h0a1.814,1.814,0,0,1,2.993-.88l5.762,5.355,6.917-4.726Z" transform="translate(-519.564 -518.083)"/><circle class="a" cx="6.052" cy="6.052" r="6.052" transform="translate(15.034)"/></g><g transform="translate(460.5 506.651)"><path class="a" d="M474.221,530.824a8.9,8.9,0,0,0-5.272-1.37,9.131,9.131,0,0,0-8.449,9.2v12.676h17.907v-7.729h5.006a2,2,0,0,0,1.85-1.242l4.889-9.766a1.811,1.811,0,0,0,.136-1.26h0a1.814,1.814,0,0,0-2.993-.88l-5.762,5.355-6.917-4.726Z" transform="translate(-460.5 -518.083)"/><circle class="a" cx="6.052" cy="6.052" r="6.052" transform="translate(2.707)"/></g><path class="b" d="M505.453,492.545V502.6a1.792,1.792,0,0,0,1.792,1.792H522.2l4.257,4.105V504.4h4.657a1.792,1.792,0,0,0,1.792-1.792v-10.06a1.792,1.792,0,0,0-1.792-1.792H507.245A1.792,1.792,0,0,0,505.453,492.545Z" transform="translate(-13.284)"/><path class="b" d="M513.99,504.559v10.06a1.792,1.792,0,0,1-1.792,1.792H498.639l-4.257,4.105V516.41h-6.055a1.791,1.791,0,0,1-1.792-1.792v-10.06a1.791,1.791,0,0,1,1.792-1.792H512.2A1.792,1.792,0,0,1,513.99,504.559Z" transform="translate(-7.694 -3.55)"/><line class="a" x2="35.641" transform="translate(478.407 539.902)"/></g></svg>