<svg xmlns="http://www.w3.org/2000/svg" width="84" height="84" viewBox="0 0 84 84"><defs><style>.a{fill:#e3e3e3;}.b{fill:none;stroke:#000;stroke-linecap:round;stroke-linejoin:round;stroke-width:1.5px;}</style></defs><g transform="translate(-453 -841)"><circle class="a" cx="42" cy="42" r="42" transform="translate(453 841)"/><g transform="translate(-51.075 537.935)"><path class="b" d="M561.492,343.57H529.721a2.645,2.645,0,0,0-2.647,2.647v18.641a2.647,2.647,0,0,0,2.647,2.646h2.933l4.759-8.241a4.137,4.137,0,0,1,4.947-1.932,3.989,3.989,0,0,1,2.066,5.735l-2.563,4.438h19.628a2.647,2.647,0,0,0,2.646-2.646V346.217A2.645,2.645,0,0,0,561.492,343.57Z" transform="translate(0)"/><path class="b" d="M538.947,360.44l2.458-4.256a4.133,4.133,0,0,0-.8-5.249,3.99,3.99,0,0,0-6,1.079l-4.866,8.426" transform="translate(2.917 7.064)"/></g><g transform="translate(-7.035 830.583)"><path d="M498.219,41.875a5.515,5.515,0,0,1,7.07,0l1.077-1.078a7.048,7.048,0,0,0-9.224,0Z"/><path d="M493.587,37.242l1.074,1.075a10.552,10.552,0,0,1,14.185,0l1.075-1.075A12.072,12.072,0,0,0,493.587,37.242Z"/><path d="M491.109,34.763a15.548,15.548,0,0,1,21.29,0l1.074-1.075a17.1,17.1,0,0,0-23.438,0Z"/></g></g></svg>