<svg xmlns="http://www.w3.org/2000/svg" width="221.301" height="133.985" viewBox="0 0 221.301 133.985"><defs><style>.a,.c{fill:#fff;}.b{fill:#221714;}.c,.d,.e{stroke:#000;}.c,.e,.f{stroke-linecap:round;}.c,.d,.e,.f{stroke-linejoin:round;}.d,.e,.f{fill:none;}.f{stroke:#231815;}</style></defs><g transform="translate(-200.222 -1016)"><g transform="translate(-7.565 -34.25)"><g transform="translate(207.787 1050.25)"><ellipse class="a" cx="7.919" cy="10.582" rx="7.919" ry="10.582" transform="translate(0.44 0.439)"/><path class="b" d="M779.061,456.263a.439.439,0,0,0,.438-.4c.755-8.524,1.248-9.19,7.55-10.186a.439.439,0,0,0,0-.868c-6.3-1-6.8-1.663-7.55-10.186a.439.439,0,0,0-.875,0c-.755,8.523-1.248,9.19-7.55,10.186a.439.439,0,0,0,0,.868c6.3,1,6.794,1.663,7.55,10.186A.439.439,0,0,0,779.061,456.263Zm5.5-11.022c-3.668.828-4.83,2.14-5.5,6.6-.669-4.459-1.83-5.77-5.5-6.6,3.669-.827,4.83-2.14,5.5-6.6C779.73,443.1,780.892,444.414,784.56,445.241Z" transform="translate(-770.702 -434.221)"/></g><g transform="translate(412.37 1080)"><ellipse class="a" cx="7.919" cy="10.582" rx="7.919" ry="10.582" transform="translate(0.44 0.439)"/><path class="b" d="M779.061,456.263a.439.439,0,0,1-.438-.4c-.755-8.524-1.248-9.19-7.55-10.186a.439.439,0,0,1,0-.868c6.3-1,6.8-1.663,7.55-10.186a.439.439,0,0,1,.875,0c.755,8.523,1.248,9.19,7.55,10.186a.439.439,0,0,1,0,.868c-6.3,1-6.794,1.663-7.55,10.186A.439.439,0,0,1,779.061,456.263Zm-5.5-11.022c3.668.828,4.83,2.14,5.5,6.6.669-4.459,1.83-5.77,5.5-6.6-3.669-.827-4.83-2.14-5.5-6.6C778.392,443.1,777.23,444.414,773.562,445.241Z" transform="translate(-770.702 -434.221)"/></g><g transform="translate(224.504 1069.267)"><ellipse class="a" cx="5.939" cy="7.937" rx="5.939" ry="7.937" transform="translate(0.44 0.439)"/><path class="b" d="M767.532,478.663a.439.439,0,0,0,.438-.4c.565-6.376.878-6.8,5.57-7.541a.439.439,0,0,0,0-.868c-4.692-.742-5-1.164-5.57-7.541a.439.439,0,0,0-.875,0c-.565,6.377-.877,6.8-5.57,7.541a.439.439,0,0,0,0,.868c4.693.742,5,1.165,5.57,7.541A.439.439,0,0,0,767.532,478.663Zm3.651-8.376c-2.286.594-3.153,1.556-3.651,4.269-.5-2.714-1.364-3.675-3.651-4.269,2.287-.594,3.154-1.556,3.651-4.268C768.03,468.732,768.9,469.693,771.183,470.288Z" transform="translate(-761.153 -461.912)"/></g><g transform="translate(309.277 1068.134)"><rect class="c" width="85.559" height="115.601" rx="5.836" transform="translate(0)"/><path class="c" d="M642.077,379.92v87.411H564.7V373.118h77.378" transform="translate(-560.609 -362.827)"/><ellipse class="c" cx="1.175" cy="1.175" rx="1.175" ry="1.175" transform="translate(41.604 4.14)"/></g><g transform="translate(280.262 1068.134)"><rect class="c" width="85.559" height="115.601" rx="5.836" transform="translate(0)"/><path class="c" d="M616.078,379.92v87.411H538.7V373.118h77.378" transform="translate(-534.609 -362.827)"/><ellipse class="c" cx="1.175" cy="1.175" rx="1.175" ry="1.175" transform="translate(41.604 4.14)"/></g><g transform="translate(254.795 1095.492)"><path class="c" d="M512.215,459.228v-64.71a6.107,6.107,0,0,1,6.105-6.107H550.43a6.107,6.107,0,0,1,6.107,6.107h0v76.03a6.106,6.106,0,0,1-6.107,6.106H518.322a6.106,6.106,0,0,1-6.107-6.106h0Z" transform="translate(-512.215 -388.411)"/><g transform="translate(0)"><path class="c" d="M512.215,459.228v-64.71a6.107,6.107,0,0,1,6.105-6.107H550.43a6.107,6.107,0,0,1,6.107,6.107h0v76.03a6.106,6.106,0,0,1-6.107,6.106H518.322a6.106,6.106,0,0,1-6.107-6.106h0" transform="translate(-512.215 -388.411)"/><path class="c" d="M552.955,401.748v65.242H515.121V396.256h37.834" transform="translate(-511.878 -387.501)"/><line class="c" x2="7.984" transform="translate(18.169 4.749)"/></g></g><g transform="translate(224.478 1104.247)"><path class="c" d="M485.05,460.047v-58.29a5.5,5.5,0,0,1,5.5-5.5h28.923a5.5,5.5,0,0,1,5.5,5.5h0v68.486a5.5,5.5,0,0,1-5.5,5.5H490.551a5.5,5.5,0,0,1-5.5-5.5h0Z" transform="translate(-485.05 -396.256)"/><g transform="translate(0)"><path class="c" d="M485.05,460.047v-58.29a5.5,5.5,0,0,1,5.5-5.5h28.923a5.5,5.5,0,0,1,5.5,5.5h0v68.486a5.5,5.5,0,0,1-5.5,5.5H490.551a5.5,5.5,0,0,1-5.5-5.5h0" transform="translate(-485.05 -396.256)"/><path class="c" d="M521.748,408.269v58.77H487.667V403.322h34.081" transform="translate(-484.746 -395.436)"/><line class="c" x2="7.192" transform="translate(16.366 4.278)"/></g></g></g><g transform="translate(95.954 586.297)"><path class="a" d="M303.605,524.956a.52.52,0,0,0-.065-.153,12.407,12.407,0,0,0,4.552-7.5,6.7,6.7,0,0,0,1.837-1.022,5.1,5.1,0,0,0,1.782-2.852,3,3,0,0,0-.519-2.617l.588-2a19.241,19.241,0,0,0,.549-5.429,9.3,9.3,0,0,0-2.455-6.615c-3.941-6.24-10.374-6.372-13.872-5.884a19.127,19.127,0,0,0-4.167,1.105,69.406,69.406,0,0,1-8.748,2.831.523.523,0,0,0-.424.37c-.043.146-.98,3.49.751,6.039a19.656,19.656,0,0,0,.013,7.541l.353,1.695a.509.509,0,0,0-.268.076,2.874,2.874,0,0,0-.781,2.891,5.1,5.1,0,0,0,1.785,2.852,6.63,6.63,0,0,0,1.826,1.018,12.433,12.433,0,0,0,4.435,7.412,21.606,21.606,0,0,0-5.286,2.364.51.51,0,0,0-.134.065l-.244.165c-.235.155-.466.314-.687.47l-15.877,10.85-9.374-8.077-1.747-7.318a2.821,2.821,0,0,0-.4-.969l-2.241-3.389a1.351,1.351,0,0,0-1.3-.314c-.544.208-.858.821-.963,1.88a6.663,6.663,0,0,0,.5,2.77l-.824.277-8.446-4.181a1.785,1.785,0,0,0-1.9.116,1.375,1.375,0,0,0-.275.51,1.931,1.931,0,0,0-2.224-.039,1.572,1.572,0,0,0-.372,1.756,1.509,1.509,0,0,0-.482.674,1.808,1.808,0,0,0,.277,1.556l2.419,2.609c0,.028-.016.043-.018.073-.067.311-.021.976,1.071,1.883l9.277,7.733c.033.027.077.022.115.04l7.623,18.625a5.2,5.2,0,0,0,4.825,3.237h11.207v4.938a.528.528,0,0,0,.527.527h41.969a.529.529,0,0,0,.528-.527V545.956A22.07,22.07,0,0,0,303.605,524.956Z" transform="translate(0 0)"/><g transform="translate(238.865 491.227)"><path class="d" d="M285.309,513.7a20.99,20.99,0,0,0-6.335,2.676l0-.022-.248.171c-.232.15-.457.306-.681.466l-16.212,11.076-9.91-8.538" transform="translate(-232.288 -480.01)"/><path class="d" d="M247.375,523.962l7.94,19.392a4.685,4.685,0,0,0,4.337,2.91h11.732v5.464h41.969V534.67a21.629,21.629,0,0,0-15.376-20.83" transform="translate(-234.508 -479.942)"/><path class="e" d="M244.885,518.213l-3.454-1.561s-.863-.115-.844.695c0,0-.222.489.879,1.407l9.279,7.732,6.823-4.935-1.791-7.5a2.237,2.237,0,0,0-.321-.784l-2.156-3.291s-1.153-1.052-1.376,1.221a6.3,6.3,0,0,0,.7,3.039" transform="translate(-237.828 -481.945)"/><path class="e" d="M250.929,514.578l-8.672-4.294a1.258,1.258,0,0,0-1.269.039.987.987,0,0,0-.155.925" transform="translate(-237.718 -481.753)"/><path class="f" d="M241.466,516.017l-2.525-2.723a1.058,1.058,0,0,1,.417-1.632l5.6,3.487" transform="translate(-238.727 -481.004)"/><path class="f" d="M239.28,512.212a1.188,1.188,0,0,1,.079-1.576s.72-.592,1.965.35l4.6,2.758" transform="translate(-238.585 -481.594)"/><line class="e" x2="7.555" y2="23.634" transform="translate(50.743 34.87)"/><line class="e" x1="7.555" y2="23.634" transform="translate(58.402 34.87)"/><path class="e" d="M273.953,513.841l5.888,6.057-4.3,5.038" transform="translate(-221.545 -479.942)"/><path class="e" d="M283.8,513.841l-5.888,6.057,4.3,5.038" transform="translate(-219.615 -479.942)"/><path class="e" d="M269.079,505.2a19.284,19.284,0,0,1,0-7.4" transform="translate(-224.098 -487.768)"/><path class="e" d="M296.638,508.485a19.069,19.069,0,0,0,.528-5.284,8.728,8.728,0,0,0-2.34-6.275c-3.687-5.893-9.62-6.217-13.388-5.7a18.777,18.777,0,0,0-4.054,1.074,67.611,67.611,0,0,1-8.85,2.859s-1.019,3.438.821,5.829" transform="translate(-224.326 -491.055)"/><path class="e" d="M291.854,503.231a7.791,7.791,0,0,0-.156-1.541,11.122,11.122,0,0,0-1.287-3.462,82.571,82.571,0,0,1-8.941,1.1h-.182a82.571,82.571,0,0,1-8.941-1.1,11.124,11.124,0,0,0-1.287,3.462,7.9,7.9,0,0,0-.156,1.541" transform="translate(-223.033 -487.557)"/><path class="e" d="M292.706,504.311l-.406,4.047c-.735,5.649-3.019,9.13-7.8,11.092a7.827,7.827,0,0,1-2.961.573h0a7.815,7.815,0,0,1-2.961-.573c-4.777-1.962-7.062-5.444-7.8-11.092l-.406-4.047" transform="translate(-223.288 -484.59)"/><path class="e" d="M269.114,504.311a2.351,2.351,0,0,0-.6,2.364,4.574,4.574,0,0,0,1.6,2.554,6.136,6.136,0,0,0,1.944,1.05" transform="translate(-224.234 -484.59)"/><path class="e" d="M287.846,504.311a2.348,2.348,0,0,1,.6,2.364,4.579,4.579,0,0,1-1.6,2.554,6.169,6.169,0,0,1-1.944,1.05" transform="translate(-216.208 -484.59)"/><path class="e" d="M280.116,527.218l-1.358-4.588,1.282-2.7" transform="translate(-219.202 -476.972)"/><path class="e" d="M276.213,519.931l1.282,2.7-1.357,4.585" transform="translate(-220.48 -476.972)"/></g></g></g></svg>