<svg xmlns="http://www.w3.org/2000/svg" width="216.453" height="148.106" viewBox="0 0 216.453 148.106"><defs><style>.a,.b,.c,.e,.f,.g{fill:none;}.a,.b,.c,.e,.f,.g,.h,.i{stroke:#000;}.a,.b,.c,.g,.i{stroke-linecap:round;}.a,.b,.j{stroke-miterlimit:10;}.a,.c,.e{stroke-width:0.941px;}.b{stroke-width:2.511px;}.c,.e,.f,.g,.h,.i{stroke-linejoin:round;}.d{fill:#231815;}.h,.i,.j{fill:#fff;}.j{stroke:#231815;}</style></defs><g transform="translate(-951.424 -1009.894)"><g transform="translate(0 -106.5)"><g transform="translate(785.239 969.375)"><path class="a" d="M258.078,199.834l.886,12.92s0,7.668,10.951,11.98c0,0,4.3,1.811,8.212.519"/><path class="a" d="M291.527,199.034l-.885,13.72s0,7.668-10.951,11.98c0,0-4.3,1.811-8.212.519"/><path d="M296.745,199.22l-4.147-.249a1.088,1.088,0,0,0-1.136,1.007l-.66,11.041a1.076,1.076,0,0,0,1.006,1.135l.71.043-.139.381a10.443,10.443,0,0,1-6.752,6.648,13.566,13.566,0,0,1-2.567.584l-.342.044v-.68a1.292,1.292,0,0,0-1.29-1.291h-6.375a1.292,1.292,0,0,0-1.291,1.291V221.8a1.292,1.292,0,0,0,1.291,1.291h6.375a1.292,1.292,0,0,0,1.29-1.291v-.522l.269-.031a15.1,15.1,0,0,0,3.013-.653,12.01,12.01,0,0,0,7.9-8.084l.072-.223,1.987.118a1.074,1.074,0,0,0,1.135-1.006l.662-11.042A1.075,1.075,0,0,0,296.745,199.22Z"/><path d="M256.632,199.085l-4.259.255a1.1,1.1,0,0,0-1.033,1.165l.678,11.335a1.1,1.1,0,0,0,.37.757,1.086,1.086,0,0,0,.8.277l4.258-.255a1.1,1.1,0,0,0,1.033-1.165l-.678-11.336A1.109,1.109,0,0,0,256.632,199.085Z"/><path d="M250.694,200.836a3.284,3.284,0,0,0-2.3,3.321l.265,4.415a3.285,3.285,0,0,0,2.681,3.023Z"/><path d="M298.382,200.677a3.2,3.2,0,0,1,2.241,3.235l-.257,4.3a3.2,3.2,0,0,1-2.612,2.945Z"/><path class="b" d="M254.57,200.836v-4.8a20.209,20.209,0,0,1,20.151-20.15h0a20.209,20.209,0,0,1,20.15,20.15v4.8"/><path class="c" d="M258.059,199.707c8.153-1.306,14.209-7.618,14.209-7.618v3.637c6.648-2.228,11.537-9.112,11.537-9.112s.389,7.039,7.722,12.514"/><path class="c" d="M267.57,199.173s6.083.439,5.613,6.161l-.862,6.674a6.192,6.192,0,0,0,3.325.6"/><path class="c" d="M280.244,199.969a9.279,9.279,0,0,1,6.886-.886"/><ellipse class="d" cx="1.472" cy="1.654" rx="1.472" ry="1.654" transform="translate(282.215 202.588)"/><ellipse class="d" cx="1.472" cy="1.654" rx="1.472" ry="1.654" transform="translate(264.625 202.588)"/><path class="e" d="M253.007,199.34s-4.229-24.386,19.752-27.37a16.408,16.408,0,0,1,2.007-.11h0a16.409,16.409,0,0,1,2.007.11c23.981,2.984,19.753,27.37,19.753,27.37"/><line class="f" y2="4.232" transform="translate(265.983 222.922)"/><line class="f" y2="4.799" transform="translate(284.266 222.355)"/><path class="f" d="M264.841,226.485l10.225,6.664L269.2,243.2l-7.848-11.356Z"/><path class="g" d="M261.355,231.842l-17.5,7.148a10.946,10.946,0,0,0-6.915,6.228l-14.332,34.04"/><path class="g" d="M240.063,275.827l30.8,5.956v12.842H229.654a7.608,7.608,0,0,1-7.608-7.608"/><path class="g" d="M310.086,275.827l-30.8,5.956v12.842h41.209a7.608,7.608,0,0,0,7.608-7.608"/><path class="h" d="M2.521,0h46.35a2.521,2.521,0,0,1,2.521,2.521V33.7a0,0,0,0,1,0,0H0a0,0,0,0,1,0,0V2.521A2.521,2.521,0,0,1,2.521,0Z" transform="translate(249.827 257.615)"/><path class="h" d="M0,0H57.775a0,0,0,0,1,0,0V0a3.159,3.159,0,0,1-3.159,3.159H3.159A3.159,3.159,0,0,1,0,0V0A0,0,0,0,1,0,0Z" transform="translate(246.636 291.367)"/><path class="h" d="M275.524,280.274a4.96,4.96,0,1,1,4.96-4.961A4.967,4.967,0,0,1,275.524,280.274Zm0-6.995a2.035,2.035,0,1,0,2.034,2.034A2.036,2.036,0,0,0,275.524,273.279Z"/><path class="f" d="M285.216,226.485l-10.225,6.664,5.863,10.05,7.848-11.356Z"/><path class="g" d="M288.7,231.842l17.5,7.148a10.946,10.946,0,0,1,6.915,6.228l14.332,34.04"/><line class="f" x2="156.909" transform="translate(196.306 294.526)"/></g></g><g transform="translate(1109.532 1042.096)"><path class="i" d="M485.05,445.548V400.507a4.25,4.25,0,0,1,4.251-4.251H511.65a4.251,4.251,0,0,1,4.251,4.251h0v52.92a4.25,4.25,0,0,1-4.251,4.251H489.3a4.25,4.25,0,0,1-4.251-4.251h0Z" transform="translate(-485.05 -396.256)"/><g transform="translate(0)"><path class="i" d="M485.05,445.548V400.507a4.25,4.25,0,0,1,4.251-4.251H511.65a4.251,4.251,0,0,1,4.251,4.251h0v52.92a4.25,4.25,0,0,1-4.251,4.251H489.3a4.25,4.25,0,0,1-4.251-4.251h0" transform="translate(-485.05 -396.256)"/><path class="i" d="M514,407.145v45.412H487.667V403.322H514" transform="translate(-485.41 -397.228)"/><line class="i" x2="5.557" transform="translate(12.646 3.306)"/></g></g><path class="j" d="M799.454,491.3H795.73a1.1,1.1,0,0,1-1.04-.791,14.314,14.314,0,0,0-1.027-2.479,1.092,1.092,0,0,1,.177-1.293l2.633-2.634a1.088,1.088,0,0,0,0-1.539l-3.406-3.406a1.088,1.088,0,0,0-1.539,0l-2.634,2.633a1.092,1.092,0,0,1-1.294.177,14.422,14.422,0,0,0-2.479-1.027,1.1,1.1,0,0,1-.791-1.04v-3.724a1.088,1.088,0,0,0-1.089-1.088h-4.816a1.089,1.089,0,0,0-1.09,1.088V479.9a1.1,1.1,0,0,1-.79,1.04,14.38,14.38,0,0,0-2.479,1.027,1.094,1.094,0,0,1-1.295-.177l-2.633-2.633a1.088,1.088,0,0,0-1.539,0l-3.406,3.406a1.088,1.088,0,0,0,0,1.539l2.633,2.634a1.094,1.094,0,0,1,.177,1.293,14.449,14.449,0,0,0-1.028,2.479,1.093,1.093,0,0,1-1.038.791h-3.724a1.089,1.089,0,0,0-1.09,1.088v4.816a1.09,1.09,0,0,0,1.09,1.09h3.724a1.092,1.092,0,0,1,1.038.79A14.4,14.4,0,0,0,768,501.566a1.1,1.1,0,0,1-.177,1.295l-2.633,2.633a1.09,1.09,0,0,0,0,1.54l3.406,3.405a1.088,1.088,0,0,0,1.539,0l2.633-2.633a1.1,1.1,0,0,1,1.295-.177,14.394,14.394,0,0,0,2.479,1.028,1.092,1.092,0,0,1,.79,1.038v3.724a1.09,1.09,0,0,0,1.09,1.09h4.816a1.089,1.089,0,0,0,1.089-1.09V509.7a1.094,1.094,0,0,1,.791-1.038,14.436,14.436,0,0,0,2.479-1.028,1.094,1.094,0,0,1,1.294.177l2.634,2.633a1.088,1.088,0,0,0,1.539,0l3.406-3.405a1.09,1.09,0,0,0,0-1.54l-2.633-2.633a1.094,1.094,0,0,1-.177-1.295,14.27,14.27,0,0,0,1.027-2.479,1.1,1.1,0,0,1,1.04-.79h3.724a1.089,1.089,0,0,0,1.089-1.089v-4.817A1.088,1.088,0,0,0,799.454,491.3Zm-18.621,9.849a6.352,6.352,0,1,1,6.353-6.351A6.352,6.352,0,0,1,780.833,501.151Z" transform="translate(366.834 599.717)"/><g transform="translate(951.924 1010.394)"><path class="h" d="M149.034,475.284v22.708a3.411,3.411,0,0,1-3.412,3.412H123.61l-8.106,7.815V501.4h-15.33a3.411,3.411,0,0,1-3.41-3.412V475.284a3.411,3.411,0,0,1,3.41-3.41h45.448A3.411,3.411,0,0,1,149.034,475.284Z" transform="translate(-77.957 -471.874)"/><path class="h" d="M96.764,475.284v22.708a3.411,3.411,0,0,0,3.412,3.412h22.012l8.106,7.815V501.4h15.33a3.411,3.411,0,0,0,3.41-3.412V475.284a3.411,3.411,0,0,0-3.41-3.41H100.176A3.411,3.411,0,0,0,96.764,475.284Z" transform="translate(-96.764 -453.068)"/><g transform="translate(8.421 31.317)"><circle cx="2.502" cy="2.502" r="2.502" transform="translate(30.019)"/><circle cx="2.502" cy="2.502" r="2.502" transform="translate(10.006)"/><circle cx="2.502" cy="2.502" r="2.502" transform="translate(20.013)"/><circle cx="2.502" cy="2.502" r="2.502" transform="translate(0)"/></g></g></g></svg>