<svg xmlns="http://www.w3.org/2000/svg" width="316.738" height="52.743" viewBox="0 0 316.738 52.743"><defs><style>.a{fill:#4caccf;}.b{fill:#fff;}</style></defs><g transform="translate(16.479 -31.428)"><g transform="translate(-16.479 31.428)"><g transform="translate(72.602 12.087)"><path class="a" d="M278.825,82.319a13.248,13.248,0,1,1,13.248-13.248A13.263,13.263,0,0,1,278.825,82.319Zm0-20.6a7.351,7.351,0,1,0,7.351,7.351A7.36,7.36,0,0,0,278.825,61.72Z" transform="translate(-265.577 -55.823)"/></g><path d="M363.3,55.823a12.3,12.3,0,0,0-12.291,12.291V81.475h5.9V68.114a6.394,6.394,0,1,1,12.788,0V81.475h5.9V68.114A12.3,12.3,0,0,0,363.3,55.823Z" transform="translate(-247.312 -43.736)"/><path d="M444.413,55.823a13.248,13.248,0,1,0,7.351,24.263v3.144a7.36,7.36,0,0,1-7.351,7.351h-4.794v5.9h4.794a13.263,13.263,0,0,0,13.248-13.248V69.071A13.263,13.263,0,0,0,444.413,55.823Zm0,20.6a7.351,7.351,0,1,1,7.351-7.351A7.36,7.36,0,0,1,444.413,76.422Z" transform="translate(-298.291 -43.736)"/><path d="M177.323,69.606a12.932,12.932,0,1,0-12.959,13.341l.309,0A13.365,13.365,0,0,0,175.4,78.144l-4.058-3.452a8.538,8.538,0,0,1-6.648,2.773c-3.525-.027-6.5-2.252-7.067-5.109h17.4a2.023,2.023,0,0,0,2.287-1.877A6.57,6.57,0,0,0,177.323,69.606ZM164.58,62.153a6.7,6.7,0,0,1,6.823,5.413h-13.91A6.963,6.963,0,0,1,164.58,62.153Z" transform="translate(-120.4 -44.367)"/><path d="M236.112,22.616V60.355h5.9V22.616Z" transform="translate(-174.235 -22.616)"/><path d="M79.362,34.7a13.171,13.171,0,0,0-7.351,2.233V22.779h0v-.163h-5.9V47.951A13.248,13.248,0,1,0,79.362,34.7Zm0,20.6a7.351,7.351,0,1,1,7.351-7.351A7.36,7.36,0,0,1,79.362,55.3Z" transform="translate(-66.114 -22.616)"/></g><g transform="translate(153.671 44.71)"><path class="a" d="M256.88,210.712a18.4,18.4,0,0,1-7.926-3.994l1.132-1.447h-6.007l1.415,1.415a.524.524,0,0,1,.126.346c0,.346-.44.315-1.1.346-.849.472-2.391,1.383-2.925,1.7a28.9,28.9,0,0,1-4.371,1.761l-2.391-2.8a16.584,16.584,0,0,0,6.762-2.767h-3.963V193.382h19.154v11.889h-4.561a18.5,18.5,0,0,0,6.982,2.7Zm-21.733-18.682v-7.454h24.344v7.454Zm6.888-4.907h-3.648v2.359h3.648Zm11.323,8.3H241.028v1.258h12.329Zm0,3.051H241.028v1.352h12.329Zm0,3.145H241.028v1.353h12.329Zm-4.278-14.5h-3.931v2.359h3.931Zm7.045,0h-3.9v2.359h3.9Z" transform="translate(-234.832 -184.355)"/><path class="a" d="M342.114,209.636a26.94,26.94,0,0,1-4.717-4.529,21.943,21.943,0,0,1-5.41,4.623l-2.642-2.516v2.862h-3.177v-5.221c-1.793.5-5.63,1.541-6.605,1.761a3.382,3.382,0,0,0-1.038.314c-.189.189-.315.314-.409.314-.158,0-.252-.126-.314-.535l-.5-2.862c.881-.126.975-.158,1.919-.283V186.99h-1.95v-3.019h14.5v2.359h9.782L343.373,188c-.535,8.24-2.674,12.015-4.058,14.4a28.594,28.594,0,0,0,5.221,4.718ZM326.168,186.99h-3.586V190.2h3.586Zm0,6.039h-3.586V196.3h3.586Zm0,6.039h-3.586v3.963c2.359-.409,2.8-.5,3.586-.629Zm5.347-9.624V186.99h-2.17v19.846a13.3,13.3,0,0,0,6.1-4.5A32.712,32.712,0,0,1,331.2,191.3l3.146-1.069c.849,4.844,1.635,6.794,2.893,9.153a25.057,25.057,0,0,0,2.516-9.939Z" transform="translate(-287.262 -183.971)"/></g><g transform="translate(216.776 44.71)"><circle class="a" cx="13.248" cy="13.248" r="13.248"/><g transform="translate(3.297 7.531)"><path class="b" d="M422.171,209.044h-.948l.4-1.472h.948l.141-.609a2.748,2.748,0,0,1,2.845-2.321,3.876,3.876,0,0,1,1.472.254l-.382,1.429a2.733,2.733,0,0,0-1.047-.226,1.207,1.207,0,0,0-1.231,1.047l-.113.425h2.066l-.4,1.472h-2.038l-1.614,6h-1.712Z" transform="translate(-420.558 -204.643)"/><path class="b" d="M436.422,216.65a4.47,4.47,0,0,1,4.359-4.387,3.3,3.3,0,0,1,3.51,3.424,4.477,4.477,0,0,1-4.359,4.373A3.3,3.3,0,0,1,436.422,216.65Zm6.17-.92a1.811,1.811,0,0,0-1.911-1.982,2.834,2.834,0,0,0-2.562,2.845,1.81,1.81,0,0,0,1.911,1.981A2.836,2.836,0,0,0,442.592,215.73Z" transform="translate(-430.648 -209.489)"/><path class="b" d="M461.2,212.432h1.712l-.439,1.684a3.471,3.471,0,0,1,3.127-1.825l-.481,1.812h-.1c-1.5,0-2.8.962-3.354,3.028l-.75,2.774h-1.712Z" transform="translate(-445.141 -209.502)"/></g></g><g transform="translate(250.822 45.329)"><path d="M505.038,188.224H515.9a8.744,8.744,0,0,1,6.331,2.145,5.425,5.425,0,0,1,1.626,4.013v.069a5.767,5.767,0,0,1-3.46,5.4c2.837.969,4.809,2.595,4.809,5.881v.069c0,4.325-3.563,6.642-8.96,6.642H505.038Zm10,10.205c2.733,0,4.567-1.073,4.567-3.287v-.069c0-1.9-1.522-3.079-4.255-3.079h-6.123v6.435Zm1.245,10.24c2.906,0,4.67-1.141,4.67-3.321v-.069c0-2.041-1.626-3.252-4.982-3.252h-6.746v6.643Z" transform="translate(-505.038 -187.393)"/><path d="M572.521,185.942h4.5v3.978h-4.5Zm.173,6.781h4.186v18.267h-4.186Z" transform="translate(-547.958 -185.942)"/><path d="M597.233,219.966,607.785,208H597.614v-3.425h15.5v2.872l-10.552,11.97h10.552v3.425h-15.88Z" transform="translate(-563.675 -197.79)"/></g></g></svg>