<svg xmlns="http://www.w3.org/2000/svg" width="180.379" height="144.58" viewBox="0 0 180.379 144.58"><defs><style>.a,.b,.d{fill:#fff;}.a,.b,.c{stroke:#000;}.a,.d{stroke-miterlimit:10;}.b,.c{stroke-linecap:round;stroke-linejoin:round;}.c{fill:none;}.d{stroke:#221714;stroke-width:1.009px;}</style></defs><g transform="translate(-603.758 -1120.263)"><g transform="translate(604.258 1120.763)"><g transform="translate(93.584 0)"><path class="a" d="M133.981,79.79V39.054a3.843,3.843,0,0,1,3.843-3.844h20.212a3.844,3.844,0,0,1,3.844,3.844h0V86.915a3.844,3.844,0,0,1-3.844,3.844H137.824a3.844,3.844,0,0,1-3.843-3.844h0Z" transform="translate(-133.981 -35.21)"/><g transform="translate(0 0)"><path class="b" d="M133.981,79.79V39.054a3.843,3.843,0,0,1,3.843-3.844h20.212a3.844,3.844,0,0,1,3.844,3.844h0V86.915a3.844,3.844,0,0,1-3.844,3.844H137.824a3.844,3.844,0,0,1-3.843-3.844h0" transform="translate(-133.981 -35.21)"/><path class="c" d="M159.979,44.556V85.627H136.162V41.1h23.817" transform="translate(-134.121 -35.588)"/><line class="c" x2="5.026" transform="translate(11.437 2.99)"/></g></g><g transform="translate(74.867 0)"><path class="a" d="M133.981,79.79V39.054a3.843,3.843,0,0,1,3.843-3.844h20.212a3.844,3.844,0,0,1,3.844,3.844h0V86.915a3.844,3.844,0,0,1-3.844,3.844H137.824a3.844,3.844,0,0,1-3.843-3.844h0Z" transform="translate(-133.981 -35.21)"/><g transform="translate(0 0)"><path class="b" d="M133.981,79.79V39.054a3.843,3.843,0,0,1,3.843-3.844h20.212a3.844,3.844,0,0,1,3.844,3.844h0V86.915a3.844,3.844,0,0,1-3.844,3.844H137.824a3.844,3.844,0,0,1-3.843-3.844h0" transform="translate(-133.981 -35.21)"/><path class="c" d="M159.979,44.556V85.627H136.162V41.1h23.817" transform="translate(-134.121 -35.588)"/><line class="c" x2="5.026" transform="translate(11.437 2.99)"/></g></g><g transform="translate(56.15 0)"><path class="a" d="M133.981,79.79V39.054a3.843,3.843,0,0,1,3.843-3.844h20.212a3.844,3.844,0,0,1,3.844,3.844h0V86.915a3.844,3.844,0,0,1-3.844,3.844H137.824a3.844,3.844,0,0,1-3.843-3.844h0Z" transform="translate(-133.981 -35.21)"/><g transform="translate(0 0)"><path class="b" d="M133.981,79.79V39.054a3.843,3.843,0,0,1,3.843-3.844h20.212a3.844,3.844,0,0,1,3.844,3.844h0V86.915a3.844,3.844,0,0,1-3.844,3.844H137.824a3.844,3.844,0,0,1-3.843-3.844h0" transform="translate(-133.981 -35.21)"/><path class="c" d="M159.979,44.556V85.627H136.162V41.1h23.817" transform="translate(-134.121 -35.588)"/><line class="c" x2="5.026" transform="translate(11.437 2.99)"/></g></g><g transform="translate(37.433 0)"><path class="a" d="M133.981,79.79V39.054a3.843,3.843,0,0,1,3.843-3.844h20.212a3.844,3.844,0,0,1,3.844,3.844h0V86.915a3.844,3.844,0,0,1-3.844,3.844H137.824a3.844,3.844,0,0,1-3.843-3.844h0Z" transform="translate(-133.981 -35.21)"/><g transform="translate(0 0)"><path class="b" d="M133.981,79.79V39.054a3.843,3.843,0,0,1,3.843-3.844h20.212a3.844,3.844,0,0,1,3.844,3.844h0V86.915a3.844,3.844,0,0,1-3.844,3.844H137.824a3.844,3.844,0,0,1-3.843-3.844h0" transform="translate(-133.981 -35.21)"/><path class="c" d="M159.979,44.556V85.627H136.162V41.1h23.817" transform="translate(-134.121 -35.588)"/><line class="c" x2="5.026" transform="translate(11.437 2.99)"/></g></g><g transform="translate(18.717 0)"><path class="a" d="M133.981,79.79V39.054a3.843,3.843,0,0,1,3.843-3.844h20.212a3.844,3.844,0,0,1,3.844,3.844h0V86.915a3.844,3.844,0,0,1-3.844,3.844H137.824a3.844,3.844,0,0,1-3.843-3.844h0Z" transform="translate(-133.981 -35.21)"/><g transform="translate(0 0)"><path class="b" d="M133.981,79.79V39.054a3.843,3.843,0,0,1,3.843-3.844h20.212a3.844,3.844,0,0,1,3.844,3.844h0V86.915a3.844,3.844,0,0,1-3.844,3.844H137.824a3.844,3.844,0,0,1-3.843-3.844h0" transform="translate(-133.981 -35.21)"/><path class="c" d="M159.979,44.556V85.627H136.162V41.1h23.817" transform="translate(-134.121 -35.588)"/><line class="c" x2="5.026" transform="translate(11.437 2.99)"/></g></g><g transform="translate(0 0)"><path class="a" d="M133.981,79.79V39.054a3.843,3.843,0,0,1,3.843-3.844h20.212a3.844,3.844,0,0,1,3.844,3.844h0V86.915a3.844,3.844,0,0,1-3.844,3.844H137.824a3.844,3.844,0,0,1-3.843-3.844h0Z" transform="translate(-133.981 -35.21)"/><g transform="translate(0 0)"><path class="b" d="M133.981,79.79V39.054a3.843,3.843,0,0,1,3.843-3.844h20.212a3.844,3.844,0,0,1,3.844,3.844h0V86.915a3.844,3.844,0,0,1-3.844,3.844H137.824a3.844,3.844,0,0,1-3.843-3.844h0" transform="translate(-133.981 -35.21)"/><path class="c" d="M159.979,44.556V85.627H136.162V41.1h23.817" transform="translate(-134.121 -35.588)"/><line class="c" x2="5.026" transform="translate(11.437 2.99)"/></g></g></g><g transform="translate(604.258 1186.508)"><g transform="translate(93.584 0)"><path class="a" d="M133.981,79.79V39.054a3.843,3.843,0,0,1,3.843-3.844h20.212a3.844,3.844,0,0,1,3.844,3.844h0V86.915a3.844,3.844,0,0,1-3.844,3.844H137.824a3.844,3.844,0,0,1-3.843-3.844h0Z" transform="translate(-133.981 -35.21)"/><g transform="translate(0 0)"><path class="b" d="M133.981,79.79V39.054a3.843,3.843,0,0,1,3.843-3.844h20.212a3.844,3.844,0,0,1,3.844,3.844h0V86.915a3.844,3.844,0,0,1-3.844,3.844H137.824a3.844,3.844,0,0,1-3.843-3.844h0" transform="translate(-133.981 -35.21)"/><path class="c" d="M159.979,44.556V85.627H136.162V41.1h23.817" transform="translate(-134.121 -35.588)"/><line class="c" x2="5.026" transform="translate(11.437 2.99)"/></g></g><g transform="translate(74.867 0)"><path class="a" d="M133.981,79.79V39.054a3.843,3.843,0,0,1,3.843-3.844h20.212a3.844,3.844,0,0,1,3.844,3.844h0V86.915a3.844,3.844,0,0,1-3.844,3.844H137.824a3.844,3.844,0,0,1-3.843-3.844h0Z" transform="translate(-133.981 -35.21)"/><g transform="translate(0 0)"><path class="b" d="M133.981,79.79V39.054a3.843,3.843,0,0,1,3.843-3.844h20.212a3.844,3.844,0,0,1,3.844,3.844h0V86.915a3.844,3.844,0,0,1-3.844,3.844H137.824a3.844,3.844,0,0,1-3.843-3.844h0" transform="translate(-133.981 -35.21)"/><path class="c" d="M159.979,44.556V85.627H136.162V41.1h23.817" transform="translate(-134.121 -35.588)"/><line class="c" x2="5.026" transform="translate(11.437 2.99)"/></g></g><g transform="translate(56.15 0)"><path class="a" d="M133.981,79.79V39.054a3.843,3.843,0,0,1,3.843-3.844h20.212a3.844,3.844,0,0,1,3.844,3.844h0V86.915a3.844,3.844,0,0,1-3.844,3.844H137.824a3.844,3.844,0,0,1-3.843-3.844h0Z" transform="translate(-133.981 -35.21)"/><g transform="translate(0 0)"><path class="b" d="M133.981,79.79V39.054a3.843,3.843,0,0,1,3.843-3.844h20.212a3.844,3.844,0,0,1,3.844,3.844h0V86.915a3.844,3.844,0,0,1-3.844,3.844H137.824a3.844,3.844,0,0,1-3.843-3.844h0" transform="translate(-133.981 -35.21)"/><path class="c" d="M159.979,44.556V85.627H136.162V41.1h23.817" transform="translate(-134.121 -35.588)"/><line class="c" x2="5.026" transform="translate(11.437 2.99)"/></g></g><g transform="translate(37.433 0)"><path class="a" d="M133.981,79.79V39.054a3.843,3.843,0,0,1,3.843-3.844h20.212a3.844,3.844,0,0,1,3.844,3.844h0V86.915a3.844,3.844,0,0,1-3.844,3.844H137.824a3.844,3.844,0,0,1-3.843-3.844h0Z" transform="translate(-133.981 -35.21)"/><g transform="translate(0 0)"><path class="b" d="M133.981,79.79V39.054a3.843,3.843,0,0,1,3.843-3.844h20.212a3.844,3.844,0,0,1,3.844,3.844h0V86.915a3.844,3.844,0,0,1-3.844,3.844H137.824a3.844,3.844,0,0,1-3.843-3.844h0" transform="translate(-133.981 -35.21)"/><path class="c" d="M159.979,44.556V85.627H136.162V41.1h23.817" transform="translate(-134.121 -35.588)"/><line class="c" x2="5.026" transform="translate(11.437 2.99)"/></g></g><g transform="translate(18.717 0)"><path class="a" d="M133.981,79.79V39.054a3.843,3.843,0,0,1,3.843-3.844h20.212a3.844,3.844,0,0,1,3.844,3.844h0V86.915a3.844,3.844,0,0,1-3.844,3.844H137.824a3.844,3.844,0,0,1-3.843-3.844h0Z" transform="translate(-133.981 -35.21)"/><g transform="translate(0 0)"><path class="b" d="M133.981,79.79V39.054a3.843,3.843,0,0,1,3.843-3.844h20.212a3.844,3.844,0,0,1,3.844,3.844h0V86.915a3.844,3.844,0,0,1-3.844,3.844H137.824a3.844,3.844,0,0,1-3.843-3.844h0" transform="translate(-133.981 -35.21)"/><path class="c" d="M159.979,44.556V85.627H136.162V41.1h23.817" transform="translate(-134.121 -35.588)"/><line class="c" x2="5.026" transform="translate(11.437 2.99)"/></g></g><g transform="translate(0 0)"><path class="a" d="M133.981,79.79V39.054a3.843,3.843,0,0,1,3.843-3.844h20.212a3.844,3.844,0,0,1,3.844,3.844h0V86.915a3.844,3.844,0,0,1-3.844,3.844H137.824a3.844,3.844,0,0,1-3.843-3.844h0Z" transform="translate(-133.981 -35.21)"/><g transform="translate(0 0)"><path class="b" d="M133.981,79.79V39.054a3.843,3.843,0,0,1,3.843-3.844h20.212a3.844,3.844,0,0,1,3.844,3.844h0V86.915a3.844,3.844,0,0,1-3.844,3.844H137.824a3.844,3.844,0,0,1-3.843-3.844h0" transform="translate(-133.981 -35.21)"/><path class="c" d="M159.979,44.556V85.627H136.162V41.1h23.817" transform="translate(-134.121 -35.588)"/><line class="c" x2="5.026" transform="translate(11.437 2.99)"/></g></g></g><g transform="translate(687.851 1167.412)"><path class="d" d="M117.4,845.823v-3.042a1.071,1.071,0,0,1,1.071-1.071h59.35a1.071,1.071,0,0,1,1.071,1.071v6.084a1.071,1.071,0,0,1-1.071,1.071h-59.35" transform="translate(-89.065 -753.009)"/><rect class="d" width="61.491" height="8.225" rx="1.03" transform="translate(28.33 47.577)"/><rect class="d" width="61.491" height="8.225" rx="1.03" transform="translate(28.33 55.802)"/><rect class="d" width="61.491" height="8.225" rx="1.03" transform="translate(28.33 80.477)"/><rect class="d" width="61.491" height="8.225" rx="1.03" transform="translate(34.291 64.027)"/><rect class="d" width="61.491" height="8.225" rx="1.03" transform="translate(32.769 72.252)"/><path class="d" d="M148.266,765.971a34.2,34.2,0,1,1-7.089-5.287" transform="translate(-90.12 -756.312)"/><g transform="translate(21.199 15.191)"><path class="d" d="M123.64,792.26h.067l-13.069-21.323" transform="translate(-110.525 -770.937)"/><line class="d" x1="0.028" y2="18.593" transform="translate(13.149 21.973)"/><line class="d" x1="25.484" transform="translate(0 21.583)"/><line class="d" x1="25.484" transform="translate(0 28.344)"/><line class="d" x1="10.504" y2="17.137" transform="translate(15.68)"/></g></g></g></svg>