<svg xmlns="http://www.w3.org/2000/svg" width="161.748" height="143.499" viewBox="0 0 161.748 143.499"><defs><style>.a,.c,.d{fill:none;}.a,.c{stroke:#000;}.a,.d{stroke-miterlimit:10;}.b{fill:#c9c9c9;}.d{stroke:#231815;stroke-width:1.417px;}</style></defs><g transform="translate(-96.394 -374.631)"><path class="a" d="M225.46,439.243a58.577,58.577,0,1,1-58.577-58.577A58.576,58.576,0,0,1,225.46,439.243Z" transform="translate(11.306 5.364)"/><g transform="translate(119.612 390.372)"><path class="b" d="M146.962,382.827s-.294,3.5,1.171,4.087a6.9,6.9,0,0,0,3.222.292,1.882,1.882,0,0,1,2.05-1.171c1.464.292,3.222,2.05,4.395,2.635s4.684.585,7.321.585c2.125,0,5.555,1.521,7.274,2.882,1.136-1.034,3.73-1,4.44-1.709a36.227,36.227,0,0,0,2.929-3.808c1.758-2.343,3.222-1.173,6.738-.879a8.838,8.838,0,0,0,5.563-1.171c19.917,4.978,30.169,32.216,30.169,32.216s-1.464,2.637-3.222,5.565-.879,3.222-.585,4.687a4.57,4.57,0,0,1-.879,3.514c-.587.879-2.05-1.464-2.343-2.929s-4.1-.879-5.565.585a2.767,2.767,0,0,0-.292,3.808c.585.879,3.222-.585,4.684,0s-.292,5.565-.292,7.03,5.857,2.637,7.907,1.758,4.067,4.978,4.067,4.978l-3.479,9.665c-3.514,13.766-14.645,23.724-14.645,23.724s.292-5.857-2.05-9.958-.879-9.665-.879-12.887,4.1-6.736,6.151-10.544-2.343-6.151-3.222-8.2-6.151-5.857-7.321-7.909-3.81-5.272-4.1-7.615-.879-10.25-1.464-14.057-6.151-7.323-7.615-7.323a2.967,2.967,0,0,0-2.052.587c-.585,2.343-2.05,1.756-3.22.292s-2.929-.585-4.1-1.464-.879-2.635-.879-3.807c0-.522-.759-.51-1.595-.349a2.924,2.924,0,0,1-.161,3.277c-1.758,2.343-4.687,1.464-5.565,3.516s-.879,7.615-2.05,7.615-2.929.292-2.637-2.343,1.758-6.736,0-6.151-1.171,2.343-3.807,3.222-4.1,3.22-4.1,4.1,1.464,1.758,1.464,1.758a3.251,3.251,0,0,1,1.756,2.637,8.692,8.692,0,0,1-2.929,5.563c-1.464,1.173-4.687,2.931-4.687,6.736s1.464,4.98-.292,4.98-3.808-2.05-4.393-3.222-1.464-1.464-1.464.294,2.341,4.684,3.22,5.563,2.929,2.343,2.343,4.98a8.039,8.039,0,0,1-2.929,4.978c-1.171.879-2.343,1.464-1.758,2.343s1.758.879,1.758,2.05,2.343,2.637.879,3.808-2.929.879-3.222,2.052,2.343,2.635,3.808,3.514,3.222,2.637,4.393,2.637,1.173,2.341-.585,2.341a12.125,12.125,0,0,1-6.736-2.635c-1.464-1.464-4.686-2.928-4.686-4.1s1.171-4.393-.294-5.563-3.514-2.929-4.393-.587-3.22,9.079-4.393,8.494-3.222-7.028-4.1-9.079-6.149-7.615-7.907-6.151-2.343,2.931-.585,3.516,4.1,3.808,4.1,5.563.294,3.222-.879,4.1-2.635,1.758-1.171,2.343,3.808,1.464,4.1,3.222,0,9.079,1.758,10.837,4.686,4.687,4.686,7.028.294,6.736.294,6.736-12.438-8.111-19.038-21.672c-6.414-13.176-6.444-23.724-6.444-23.724s4.1,2.637,6.444,1.173,1.758-3.222,1.464-5.272-4.1-2.637-4.98-2.637h-2.635s.224-11.993,8.786-27.532c3.71-6.734,6.444-7.615,6.444-7.615s.879,1.758,5.272-.585,4.393-8.494,4.393-8.494S137.96,386.121,146.962,382.827Z" transform="translate(-108.593 -382.827)"/><path class="b" d="M163.074,410.759a10.558,10.558,0,0,0,3.222,0c1.464-.294.294-2.931-1.758-3.222S159.851,409.292,163.074,410.759Z" transform="translate(-53.534 -357.174)"/><path class="b" d="M133.7,411.722c-1.317.294-1.464.732-1.464.732-2.343.441-1.758,2.2-1.317,2.49s.438,1.317,1.026,2.2,2.635,0,2.635-.732a10.189,10.189,0,0,1,.879-2.49c.294-.879,2.782-1.024,4.1-2.49s-.292-2.05-.438-2.782a4.935,4.935,0,0,1,0-2.929c.438-1.173,1.464.147,2.637-.585a1.627,1.627,0,0,0,0-2.637c-.587-.147-.147-2.635-2.343-2.929s-1.758,1.464-2.343,2.49a3.543,3.543,0,0,0-.732,2.635c0,1.611.732,3.075,0,4.248S135.017,411.429,133.7,411.722Z" transform="translate(-85.811 -365.461)"/><path class="b" d="M130.423,413.222c0,.879.145,3.075,1.317,3.222,0,0,.438.732,2.2.585s.44-1.464-.147-1.9-1.171-2.2-1.756-2.49S130.423,412.345,130.423,413.222Z" transform="translate(-85.903 -352.024)"/><path class="b" d="M129.828,418.049a1.937,1.937,0,0,0,.438,2.343c0,2.49,1.758,3.075,3.661,3.661a4.115,4.115,0,0,0,4.248-1.317c.438-.732-.294-1.758-1.758-2.782s-3.661-3.222-4.393-3.808S130.558,416.731,129.828,418.049Z" transform="translate(-86.772 -348.357)"/><path class="b" d="M123.064,427.217c-.732-.438-1.9-.585-1.9.585s1.9,5.272,3.516,5.712c0,0,2.343,1.464,2.49.585s.145-2.488-.732-3.075S123.8,427.658,123.064,427.217Z" transform="translate(-95.532 -337.024)"/><path class="b" d="M135.126,419.684c-.438.879,1.171,6.153,5.125,6.153a11.5,11.5,0,0,0,3.222,0c.732-.294,3.516-1.611,3.369-2.2s-1.317-1.173-2.637-1.173-3.514-.879-5.419-1.758S135.566,418.807,135.126,419.684Z" transform="translate(-81.088 -344.867)"/><path class="b" d="M153.932,426.381c-1.026-.44-3.222-3.369-4.54-2.343s-1.319,1.758-2.2,2.343-2.929.294-3.22-.44.439-2.49-.587-2.782-4.1,0-4.978,1.026a29.428,29.428,0,0,1-7.177,4.393,2.959,2.959,0,0,0-2.05,3.514c.438,1.464,2.637,8.053,2.637,8.641s2.782,1.026,3.514,0,2.2-1.611,4.246-1.611A14.214,14.214,0,0,1,145,440.145c2.052.734,4.98,2.052,5.419,2.637s1.319,1.611,2.2,1.026,1.317-2.2-.732-3.075a21.8,21.8,0,0,1,2.052-1.464c2.488-1.758,2.488-4.98,2.488-7.323S154.956,426.82,153.932,426.381Z" transform="translate(-87.299 -341.019)"/><path class="b" d="M147.549,429.515c-.147,1.9,0,1.756-.294,2.635a29.141,29.141,0,0,1-2.049,3.661c-.439.734.44,2.343.44,2.343,2.343.732,3.075-1.318,3.808-2.343a16.818,16.818,0,0,1,2.05-2.782c1.024-1.026-.732-4.246-1.611-5.125S147.7,427.61,147.549,429.515Z" transform="translate(-70.666 -336.391)"/><path class="c" d="M225.46,439.243a58.577,58.577,0,1,1-58.577-58.577A58.576,58.576,0,0,1,225.46,439.243Z" transform="translate(-108.306 -385.008)"/></g><path class="d" d="M144.425,33.257c7.7,4.742,11.784,9.114,10.92,12.459-2.307,8.923-38.925,7.175-81.792-3.906S-2.19,14.517.114,5.594C.97,2.283,6.552.442,15.424,0" transform="matrix(1, 0.017, -0.017, 1, 100.919, 417.546)"/><path class="d" d="M243.742,405.092c8.644,2.662,13.691,5.873,13.691,9.329,0,9.216-35.891,16.687-80.164,16.687S97.1,423.637,97.1,414.421c0-3.42,4.943-6.6,13.422-9.246" transform="translate(0 30.015)"/><path class="d" d="M198.845,500.461c1.758,8.873,1.326,14.84-1.718,16.48-8.111,4.372-31.716-23.681-52.72-62.654s-31.454-74.116-23.341-78.486c3.01-1.624,8.153,1.22,14.507,7.428" transform="translate(21.409 0)"/><ellipse cx="3" cy="3.5" rx="3" ry="3.5" transform="translate(154.533 379.987)"/><ellipse cx="3" cy="3.5" rx="3" ry="3.5" transform="translate(241.533 431.987)"/><ellipse cx="3" cy="3.5" rx="3" ry="3.5" transform="translate(106.533 431.987)"/></g></svg>