<svg xmlns="http://www.w3.org/2000/svg" width="94.93" height="65.609" viewBox="0 0 94.93 65.609"><defs><style>.a,.b{fill:#fff;stroke:#231815;}.a{stroke-miterlimit:10;}.b{stroke-linejoin:round;}</style></defs><g transform="translate(-460 -490.253)"><g transform="translate(515.199 511.651)"><path class="a" d="M540.759,531.26a11.694,11.694,0,0,1,6.93-1.8,12,12,0,0,1,11.107,12.1v16.663H535.256v-10.16h-6.581a2.628,2.628,0,0,1-2.432-1.633l-6.426-12.837a2.381,2.381,0,0,1-.179-1.657h0a2.385,2.385,0,0,1,3.934-1.157l7.574,7.039,9.092-6.212Z" transform="translate(-519.564 -514.51)"/><circle class="a" cx="7.955" cy="7.955" r="7.955" transform="translate(19.763)"/></g><g transform="translate(460.5 511.651)"><path class="a" d="M478.537,531.26a11.694,11.694,0,0,0-6.93-1.8,12,12,0,0,0-11.107,12.1v16.663h23.539v-10.16h6.581a2.628,2.628,0,0,0,2.432-1.633l6.426-12.837a2.381,2.381,0,0,0,.179-1.657h0a2.385,2.385,0,0,0-3.934-1.157l-7.574,7.039-9.092-6.212Z" transform="translate(-460.5 -514.51)"/><circle class="a" cx="7.955" cy="7.955" r="7.955" transform="translate(3.559)"/></g><path class="b" d="M505.453,493.108v13.225a2.355,2.355,0,0,0,2.355,2.355H527.47l5.6,5.4v-5.4h6.122a2.355,2.355,0,0,0,2.356-2.355V493.108a2.356,2.356,0,0,0-2.356-2.355H507.808A2.356,2.356,0,0,0,505.453,493.108Z" transform="translate(-3.322)"/><path class="b" d="M522.625,505.122v13.225a2.356,2.356,0,0,1-2.355,2.355H502.446l-5.6,5.4v-5.4h-7.959a2.355,2.355,0,0,1-2.355-2.355V505.122a2.354,2.354,0,0,1,2.355-2.355H520.27A2.355,2.355,0,0,1,522.625,505.122Z" transform="translate(-1.924 -0.888)"/><line class="a" x2="46.851" transform="translate(484.039 555.362)"/></g></svg>