<svg xmlns="http://www.w3.org/2000/svg" xmlns:xlink="http://www.w3.org/1999/xlink" width="226.534" height="152.961" viewBox="0 0 226.534 152.961"><defs><style>.a,.g,.j{fill:none;}.b,.e,.f,.i{fill:#fff;}.c{fill:#221714;}.d{clip-path:url(#a);}.e,.f,.g{stroke:#a0a0a0;}.e{stroke-miterlimit:10;}.f,.g{stroke-linecap:round;stroke-linejoin:round;}.h,.i,.j{isolation:isolate;}.i,.j{font-size:45px;font-family:DIN-Bold, DIN;font-weight:700;}.j{stroke:#000;}</style><clipPath id="a"><rect class="a" width="226.534" height="116.831" transform="translate(0 36.13)"/></clipPath></defs><g transform="translate(0 0)"><ellipse class="b" cx="7.919" cy="10.582" rx="7.919" ry="10.582" transform="translate(183.032 0.44)"/><path class="c" d="M190.951,22.043a.439.439,0,0,1-.438-.4c-.755-8.524-1.248-9.19-7.55-10.186a.439.439,0,0,1,0-.868c6.3-1,6.8-1.663,7.55-10.186a.439.439,0,0,1,.875,0c.755,8.523,1.248,9.19,7.55,10.186a.439.439,0,0,1,0,.868c-6.3,1-6.794,1.663-7.55,10.186A.439.439,0,0,1,190.951,22.043Zm-5.5-11.022c3.668.828,4.83,2.14,5.5,6.6.669-4.459,1.83-5.77,5.5-6.6-3.669-.827-4.83-2.14-5.5-6.6-.669,4.459-1.831,5.773-5.5,6.6Z"/><ellipse class="b" cx="7.919" cy="10.582" rx="7.919" ry="10.582" transform="translate(46.038 18.166)"/><path class="c" d="M53.957,39.769a.439.439,0,0,1-.438-.4c-.755-8.524-1.248-9.19-7.55-10.186a.439.439,0,0,1,0-.868c6.3-1,6.8-1.663,7.55-10.186a.439.439,0,0,1,.875,0c.755,8.523,1.248,9.19,7.55,10.186a.439.439,0,0,1,0,.868c-6.3,1-6.794,1.663-7.55,10.186A.439.439,0,0,1,53.957,39.769Zm-5.5-11.022c3.668.828,4.83,2.14,5.5,6.6.669-4.459,1.83-5.77,5.5-6.6-3.669-.827-4.83-2.14-5.5-6.6-.669,4.459-1.831,5.773-5.5,6.6Z"/><ellipse class="b" cx="5.939" cy="7.937" rx="5.939" ry="7.937" transform="translate(170.274 19.457)"/><path class="c" d="M176.214,35.769a.439.439,0,0,1-.438-.4c-.565-6.376-.878-6.8-5.57-7.541a.439.439,0,0,1,0-.868c4.692-.742,5-1.164,5.57-7.541a.439.439,0,0,1,.875,0c.565,6.377.877,6.8,5.57,7.541a.439.439,0,0,1,0,.868c-4.693.742-5,1.165-5.57,7.541A.439.439,0,0,1,176.214,35.769Zm-3.651-8.376c2.286.594,3.153,1.556,3.651,4.269.5-2.714,1.364-3.675,3.651-4.269-2.287-.594-3.154-1.556-3.651-4.268-.5,2.713-1.365,3.674-3.651,4.269Z"/><g class="d"><path class="e" d="M90.291,124.593V57.44A6.334,6.334,0,0,1,96.622,51.1h33.322a6.337,6.337,0,0,1,6.337,6.337h0v78.893a6.337,6.337,0,0,1-6.337,6.337H96.627a6.336,6.336,0,0,1-6.336-6.336h0Z"/><path class="f" d="M90.291,124.593V57.44A6.334,6.334,0,0,1,96.622,51.1h33.322a6.337,6.337,0,0,1,6.337,6.337h0v78.893a6.337,6.337,0,0,1-6.337,6.337H96.627a6.336,6.336,0,0,1-6.336-6.336h0"/><path class="g" d="M132.915,65.888v67.7H93.655v-73.4h39.26"/><line class="g" x2="8.285" transform="translate(109.143 56.031)"/><path class="e" d="M146.84,124.593V57.44a6.334,6.334,0,0,1,6.331-6.337h33.322a6.337,6.337,0,0,1,6.337,6.337h0v78.893a6.337,6.337,0,0,1-6.337,6.337H153.176a6.336,6.336,0,0,1-6.336-6.336h0Z"/><path class="f" d="M146.84,124.593V57.44a6.334,6.334,0,0,1,6.331-6.337h33.322a6.337,6.337,0,0,1,6.337,6.337h0v78.893a6.337,6.337,0,0,1-6.337,6.337H153.176a6.336,6.336,0,0,1-6.336-6.336h0"/><path class="g" d="M189.464,65.888v67.7H150.2v-73.4h39.26"/><line class="g" x2="8.285" transform="translate(165.692 56.031)"/><path class="e" d="M203.54,124.593V57.44a6.334,6.334,0,0,1,6.331-6.337h33.322a6.337,6.337,0,0,1,6.337,6.337h0v78.893a6.337,6.337,0,0,1-6.337,6.337H209.876a6.336,6.336,0,0,1-6.336-6.336h0Z"/><path class="f" d="M203.54,124.593V57.44a6.334,6.334,0,0,1,6.331-6.337h33.322a6.337,6.337,0,0,1,6.337,6.337h0v78.893a6.337,6.337,0,0,1-6.337,6.337H209.876a6.336,6.336,0,0,1-6.336-6.336h0"/><path class="g" d="M246.164,65.888v67.7H206.9v-73.4h39.26"/><line class="g" x2="8.285" transform="translate(222.392 56.031)"/><path class="e" d="M-22.807,124.593V57.44A6.334,6.334,0,0,1-16.476,51.1H16.846a6.337,6.337,0,0,1,6.337,6.337h0v78.893a6.337,6.337,0,0,1-6.337,6.337H-16.471a6.336,6.336,0,0,1-6.336-6.336h0Z"/><path class="f" d="M-22.807,124.593V57.44A6.334,6.334,0,0,1-16.476,51.1H16.846a6.337,6.337,0,0,1,6.337,6.337h0v78.893a6.337,6.337,0,0,1-6.337,6.337H-16.471a6.336,6.336,0,0,1-6.336-6.336h0"/><path class="g" d="M19.817,65.888v67.7h-39.26v-73.4h39.26"/><line class="g" x2="8.285" transform="translate(-3.955 56.031)"/><path class="e" d="M33.742,124.593V57.44A6.334,6.334,0,0,1,40.073,51.1H73.395a6.337,6.337,0,0,1,6.337,6.337h0v78.893a6.337,6.337,0,0,1-6.337,6.337H40.078a6.336,6.336,0,0,1-6.336-6.336h0Z"/><path class="f" d="M33.742,124.593V57.44A6.334,6.334,0,0,1,40.073,51.1H73.395a6.337,6.337,0,0,1,6.337,6.337h0v78.893a6.337,6.337,0,0,1-6.337,6.337H40.078a6.336,6.336,0,0,1-6.336-6.336h0"/><path class="g" d="M76.366,65.888v67.7H37.106v-73.4h39.26"/><line class="g" x2="8.285" transform="translate(52.594 56.031)"/><g class="h"><text class="i" transform="translate(42.196 114.387)"><tspan x="0" y="0">CLEAR</tspan></text><text class="j" transform="translate(42.196 114.387)"><tspan x="0" y="0">CLEAR</tspan></text></g></g></g></svg>