<svg xmlns="http://www.w3.org/2000/svg" width="84" height="84" viewBox="0 0 84 84"><defs><style>.a{fill:#e3e3e3;}.b{fill:none;stroke:#000;stroke-linecap:round;stroke-linejoin:round;stroke-width:1.5px;}</style></defs><g transform="translate(-842 -841)"><circle class="a" cx="42" cy="42" r="42" transform="translate(842 841)"/><g transform="translate(110.494 516.311)"><path class="b" d="M750.244,380.98a18.731,18.731,0,0,1,.541-25.924"/><path class="b" d="M754.356,378.395a15,15,0,0,1,.433-20.754"/><path class="b" d="M758.255,375.844a11.309,11.309,0,0,1,.326-15.652"/><path class="b" d="M796.769,380.98a18.732,18.732,0,0,0-.541-25.924"/><path class="b" d="M792.656,378.395a15,15,0,0,0-.433-20.754"/><path class="b" d="M788.758,375.844a11.31,11.31,0,0,0-.327-15.652"/><path d="M772.363,384.2,782.61,363.22a.283.283,0,0,0-.255-.407H774.2a.284.284,0,0,1-.282-.311l1.273-13.178a.283.283,0,0,0-.536-.151L764.4,370.158a.284.284,0,0,0,.255.408h8.16a.283.283,0,0,1,.283.31l-1.274,13.178A.283.283,0,0,0,772.363,384.2Z"/></g></g></svg>