<svg xmlns="http://www.w3.org/2000/svg" width="225.804" height="138.065" viewBox="0 0 225.804 138.065"><defs><style>.a,.b,.d{fill:none;}.a,.b,.d,.e,.f{stroke:#000;}.a,.b,.f,.g{stroke-linecap:round;}.a{stroke-miterlimit:10;}.b,.d,.e,.f,.g{stroke-linejoin:round;}.c{fill:#231815;}.e,.f,.g{fill:#fff;}.g{stroke:#21110d;}</style></defs><g transform="translate(-504.067 -7.446)"><path class="a" d="M594.688,50.22l.886,12.92s0,7.668,10.951,11.98c0,0,4.3,1.811,8.212.519"/><path class="a" d="M628.137,49.42l-.885,13.72s0,7.668-10.951,11.98c0,0-4.3,1.811-8.212.519"/><path d="M633.355,49.606l-4.147-.249a1.088,1.088,0,0,0-1.136,1.007l-.66,11.041a1.076,1.076,0,0,0,1.006,1.135l.71.043-.139.381a10.445,10.445,0,0,1-6.752,6.648,13.616,13.616,0,0,1-2.567.584l-.342.044v-.68a1.292,1.292,0,0,0-1.29-1.291h-6.375a1.291,1.291,0,0,0-1.291,1.291v2.626a1.292,1.292,0,0,0,1.291,1.291h6.375a1.293,1.293,0,0,0,1.29-1.291v-.522l.269-.031a15.15,15.15,0,0,0,3.013-.653,12.012,12.012,0,0,0,7.9-8.084l.072-.223,1.987.118a1.075,1.075,0,0,0,1.135-1.006l.662-11.042a1.075,1.075,0,0,0-1.01-1.137Z"/><path d="M593.242,49.471l-4.259.255a1.1,1.1,0,0,0-1.033,1.163v0l.678,11.335a1.1,1.1,0,0,0,.37.757,1.088,1.088,0,0,0,.8.277l4.258-.255a1.1,1.1,0,0,0,1.033-1.163v0L594.411,50.5A1.109,1.109,0,0,0,593.242,49.471Z"/><path d="M587.3,51.222a3.282,3.282,0,0,0-2.3,3.321l.265,4.415a3.285,3.285,0,0,0,2.681,3.023Z"/><path d="M634.992,51.063a3.2,3.2,0,0,1,2.241,3.235l-.257,4.3a3.2,3.2,0,0,1-2.612,2.945Z"/><path d="M631.481,52.472a1.25,1.25,0,0,1-1.25-1.25v-4.8a18.9,18.9,0,1,0-37.8,0v4.8a1.25,1.25,0,0,1-2.5,0v-4.8a21.4,21.4,0,0,1,42.8,0v4.8A1.25,1.25,0,0,1,631.481,52.472Z"/><path class="b" d="M594.669,50.093c8.153-1.306,14.209-7.618,14.209-7.618v3.637C615.526,43.884,620.415,37,620.415,37s.389,7.039,7.722,12.514"/><path class="b" d="M604.18,49.559s6.083.439,5.613,6.161l-.862,6.674a6.2,6.2,0,0,0,3.325.6"/><path class="b" d="M616.854,50.355a9.274,9.274,0,0,1,6.886-.886"/><ellipse class="c" cx="1.472" cy="1.654" rx="1.472" ry="1.654" transform="translate(618.825 52.974)"/><ellipse class="c" cx="1.472" cy="1.654" rx="1.472" ry="1.654" transform="translate(601.235 52.974)"/><path class="d" d="M589.617,49.726s-4.229-24.386,19.752-27.37a16.211,16.211,0,0,1,2.007-.11h0a16.222,16.222,0,0,1,2.007.11c23.981,2.984,19.753,27.37,19.753,27.37"/><line class="d" y2="4.232" transform="translate(602.593 73.308)"/><line class="d" y2="4.799" transform="translate(620.876 72.741)"/><path class="d" d="M601.451,76.871l10.225,6.664L605.81,93.586,597.962,82.23Z"/><path class="b" d="M597.965,82.228l-17.5,7.148A10.944,10.944,0,0,0,573.55,95.6l-14.332,34.04"/><path class="b" d="M576.673,126.213l30.8,5.956v12.842H566.264a7.608,7.608,0,0,1-7.608-7.608h0"/><path class="b" d="M646.7,126.213l-30.8,5.956v12.842H657.1a7.608,7.608,0,0,0,7.608-7.608h0"/><path class="e" d="M588.958,108h46.35a2.521,2.521,0,0,1,2.521,2.521V141.7H586.437V110.522A2.52,2.52,0,0,1,588.958,108Z"/><path class="e" d="M583.246,141.753h57.775a3.16,3.16,0,0,1-3.159,3.159H586.405a3.159,3.159,0,0,1-3.159-3.159Z"/><path class="e" d="M612.134,130.66a4.96,4.96,0,1,1,4.96-4.961A4.96,4.96,0,0,1,612.134,130.66Zm0-7a2.035,2.035,0,1,0,2.034,2.036v0A2.036,2.036,0,0,0,612.134,123.665Z"/><path class="d" d="M621.826,76.871,611.6,83.535l5.863,10.05,7.848-11.356Z"/><path class="b" d="M625.31,82.228l17.5,7.148a10.946,10.946,0,0,1,6.915,6.228l14.332,34.04"/><line class="d" x2="156.909" transform="translate(532.916 144.912)"/><path class="e" d="M714.686,53.267h10.139a4.545,4.545,0,0,1,4.546,4.543V88.07a4.547,4.547,0,0,1-4.546,4.546H695.492l-10.8,10.414V92.617h-20.43a4.545,4.545,0,0,1-4.544-4.546V57.811a4.543,4.543,0,0,1,4.544-4.544h2.783"/><rect class="f" width="37.898" height="26.27" transform="translate(672.356 40.461)"/><line class="b" x1="11.755" y1="12.533" transform="translate(660.601 27.928)"/><line class="b" y1="12.533" x2="11.755" transform="translate(709.996 27.928)"/><rect class="f" width="12.334" height="3.699" rx="1.745" transform="translate(685.508 45.037)"/><rect class="f" width="37.898" height="7.836" transform="translate(665.891 66.719)"/><rect class="f" width="37.898" height="7.836" transform="translate(669.364 74.801)"/><circle class="f" cx="10.661" cy="10.661" r="10.661" transform="translate(693.081 61.314)"/><circle class="f" cx="3.672" cy="3.672" r="3.672" transform="translate(700.07 68.303)"/><circle class="b" cx="5.432" cy="5.432" r="5.432" transform="translate(698.31 66.543)"/><line class="b" x2="18.808" transform="translate(703.742 82.637)"/><path class="e" d="M513.159,16.326h-4.573a4.017,4.017,0,0,0-4.019,4.017h0V47.1a4.019,4.019,0,0,0,4.019,4.019h25.932l9.549,9.206V51.115h21.286a4.018,4.018,0,0,0,4.018-4.018h0V20.344a4.018,4.018,0,0,0-4.018-4.018h-9.768"/><path class="d" d="M549.717,19.651a11.767,11.767,0,0,0-21.709-6.232,6.037,6.037,0,0,0-8.432,4.817,8.358,8.358,0,0,0,2.232,16.414H548a7.6,7.6,0,0,0,1.719-15Z"/><path class="g" d="M557.543,45.046h1.552a1.42,1.42,0,0,0,1.418-1.419V30.752a1.42,1.42,0,0,0-1.418-1.419h-2.858V24.069a5.809,5.809,0,1,0-11.618-.021v.021a1.266,1.266,0,0,0,2.532.009v-.009h0a3.279,3.279,0,0,1,6.558,0v5.264h-11.95a1.42,1.42,0,0,0-1.418,1.419v12.87a1.42,1.42,0,0,0,1.418,1.419h15.783Z"/><path class="g" d="M551.3,39.978a.877.877,0,0,1-.877.876h0a.877.877,0,0,1-.876-.876V37.287a1.985,1.985,0,1,1,1.753,0v2.691Z"/></g></svg>