<svg xmlns="http://www.w3.org/2000/svg" width="479.983" height="61.903" viewBox="0 0 479.983 61.903"><defs><style>.a{fill:none;stroke:#000;}</style></defs><path class="a" d="M39.8-32.83c0-8.107-5.9-14.874-15.745-14.874H5.561V0h9.313V-17.956h9.179C33.9-17.956,39.8-24.723,39.8-32.83Zm-9.313,0c0,3.886-2.68,6.5-6.9,6.5h-8.71V-39.4h8.71C27.805-39.4,30.485-36.716,30.485-32.83ZM74.035,0V-22.981c0-8.174-5.092-12.328-14.874-12.328-5.829,0-9.179,1.072-12.6,4.824l5.561,5.427c1.809-2.077,3.35-2.881,6.7-2.881,4.623,0,6.5,1.675,6.5,5.494V-20.7H57.084c-8.107,0-11.926,4.556-11.926,10.117a11.185,11.185,0,0,0,2.881,7.839C50.116-.67,53,.335,56.95.335c4.02,0,6.231-1,8.576-3.35V0Zm-8.71-12.864c0,2.144-.335,3.551-1.273,4.422-1.541,1.474-3.082,1.675-5.494,1.675-3.417,0-5.025-1.608-5.025-4.02,0-2.479,1.742-3.953,4.891-3.953h6.9ZM111.488-1.273V-34.907h-8.442v3.283a10.221,10.221,0,0,0-8.509-3.685,11.781,11.781,0,0,0-8.375,3.082c-3.283,3.283-3.551,7.705-3.551,13.8s.268,10.586,3.551,13.869A11.613,11.613,0,0,0,94.47-1.474a10.225,10.225,0,0,0,8.308-3.484v3.551c0,3.551-1.809,7.236-7.035,7.236a8.89,8.89,0,0,1-6.834-2.68L83.482,8.643c3.618,3.484,7.3,4.556,12.663,4.556C105.525,13.2,111.488,7.1,111.488-1.273Zm-8.71-17.152c0,4.623-.6,9.112-5.762,9.112s-5.695-4.489-5.695-9.112.536-9.045,5.695-9.045S102.778-23.048,102.778-18.425Zm47.838,3.685v-3.886c0-9.581-5.494-16.683-15.209-16.683-9.045,0-15.209,6.432-15.209,17.822C120.2-3.35,128.1.4,136.345.4c6.3,0,9.715-1.943,13.266-5.494l-5.293-5.159a9.661,9.661,0,0,1-7.906,3.283c-4.891,0-7.638-3.283-7.638-7.772ZM142.04-20.7H128.774a9.622,9.622,0,0,1,.8-3.752,6.063,6.063,0,0,1,5.829-3.618,6.063,6.063,0,0,1,5.829,3.618A9.622,9.622,0,0,1,142.04-20.7ZM212.725,0V-47.7h-9.313v29.212L184.518-47.7H176.21V0h9.313V-29.279L204.417,0ZM251.92-17.487c0-6.3-.8-10.251-3.953-13.534a14.47,14.47,0,0,0-10.854-4.288,14.3,14.3,0,0,0-10.787,4.288c-3.149,3.283-3.953,7.236-3.953,13.534,0,6.365.8,10.318,3.953,13.6A14.3,14.3,0,0,0,237.113.4a14.47,14.47,0,0,0,10.854-4.288C251.116-7.169,251.92-11.122,251.92-17.487Zm-8.71,0c0,3.618-.2,6.7-2.01,8.509a5.507,5.507,0,0,1-4.087,1.541,5.349,5.349,0,0,1-4.02-1.541c-1.809-1.809-2.01-4.891-2.01-8.509s.2-6.633,2.01-8.442a5.349,5.349,0,0,1,4.02-1.541,5.507,5.507,0,0,1,4.087,1.541C243.009-24.12,243.21-21.1,243.21-17.487ZM276.576,0V-7.37h-3.149c-2.077,0-3.015-1.139-3.015-3.149v-16.75h6.164V-33.9h-6.164V-44.22H261.7V-33.9h-3.685v6.633H261.7V-9.983C261.7-5.025,264.717,0,271.819,0Zm56.883-39.4V-47.7H302.036V0h9.313V-19.363h18.827v-8.308H311.349V-39.4Zm36.18,21.909c0-6.3-.8-10.251-3.953-13.534a14.47,14.47,0,0,0-10.854-4.288,14.3,14.3,0,0,0-10.787,4.288c-3.149,3.283-3.953,7.236-3.953,13.534,0,6.365.8,10.318,3.953,13.6A14.3,14.3,0,0,0,354.832.4a14.47,14.47,0,0,0,10.854-4.288C368.835-7.169,369.639-11.122,369.639-17.487Zm-8.71,0c0,3.618-.2,6.7-2.01,8.509a5.507,5.507,0,0,1-4.087,1.541,5.349,5.349,0,0,1-4.02-1.541c-1.809-1.809-2.01-4.891-2.01-8.509s.2-6.633,2.01-8.442a5.349,5.349,0,0,1,4.02-1.541,5.507,5.507,0,0,1,4.087,1.541C360.728-24.12,360.929-21.1,360.929-17.487ZM407.226,0V-34.907h-8.71V-13.8c0,4.757-3.082,6.365-5.829,6.365s-5.762-1.608-5.762-6.365V-34.907h-8.71V-12.6c0,3.819.737,7.1,3.551,9.916A11.335,11.335,0,0,0,390.007.4a11.945,11.945,0,0,0,8.71-3.618V0Zm39.463,0V-22.311c0-3.819-.737-7.1-3.551-9.916a11.335,11.335,0,0,0-8.241-3.082,11.945,11.945,0,0,0-8.71,3.618v-3.216h-8.509V0h8.71V-21.1c0-4.757,3.082-6.365,5.829-6.365s5.762,1.608,5.762,6.365V0Zm37.855,0V-47.7h-8.71v15.879c-2.278-2.546-4.958-3.484-8.509-3.484a12.158,12.158,0,0,0-8.509,3.149c-3.484,3.484-3.551,9.447-3.551,14.673s.067,11.256,3.551,14.74A12.33,12.33,0,0,0,467.392.4a10.481,10.481,0,0,0,8.643-3.685V0Zm-8.71-17.487c0,5.7-.737,10.05-5.963,10.05s-5.9-4.355-5.9-10.05.67-9.983,5.9-9.983S475.834-23.182,475.834-17.487Z" transform="translate(-5.061 48.204)"/></svg>