<svg xmlns="http://www.w3.org/2000/svg" width="36.027" height="49.925" viewBox="0 0 36.027 49.925"><defs><style>.a{fill:none;stroke:#000;stroke-linecap:round;stroke-linejoin:round;}</style></defs><g transform="translate(-89.768 -127.061)"><path class="a" d="M125.295,135.443v34.79a2.48,2.48,0,0,1-2.48,2.48H92.746a2.48,2.48,0,0,1-2.478-2.48v-4.686" transform="translate(0 3.773)"/><path class="a" d="M90.268,163.812V130.041a2.48,2.48,0,0,1,2.478-2.48h30.069a2.48,2.48,0,0,1,2.48,2.48v3.627" transform="translate(0 0)"/><rect class="a" width="26.646" height="7.767" transform="translate(94.293 131.448)"/><g transform="translate(94.293 142.666)"><circle class="a" cx="2.533" cy="2.533" r="2.533"/><circle class="a" cx="2.533" cy="2.533" r="2.533" transform="translate(7.194)"/><circle class="a" cx="2.533" cy="2.533" r="2.533" transform="translate(14.387)"/><circle class="a" cx="2.533" cy="2.533" r="2.533" transform="translate(21.581)"/></g><g transform="translate(94.293 150.706)"><circle class="a" cx="2.533" cy="2.533" r="2.533"/><circle class="a" cx="2.533" cy="2.533" r="2.533" transform="translate(7.194)"/><circle class="a" cx="2.533" cy="2.533" r="2.533" transform="translate(14.387)"/><circle class="a" cx="2.533" cy="2.533" r="2.533" transform="translate(21.581)"/></g><g transform="translate(94.293 158.746)"><circle class="a" cx="2.533" cy="2.533" r="2.533"/><circle class="a" cx="2.533" cy="2.533" r="2.533" transform="translate(7.194)"/><circle class="a" cx="2.533" cy="2.533" r="2.533" transform="translate(14.387)"/><circle class="a" cx="2.533" cy="2.533" r="2.533" transform="translate(21.581)"/></g><g transform="translate(94.293 166.787)"><rect class="a" width="19.453" height="5.066" rx="1.713"/><circle class="a" cx="2.533" cy="2.533" r="2.533" transform="translate(21.581)"/></g></g></svg>