<svg xmlns="http://www.w3.org/2000/svg" width="50.13" height="50.64" viewBox="0 0 50.13 50.64"><defs><style>.a,.b{fill:#fff;}.a,.b,.c{stroke:#000;}.a{stroke-miterlimit:10;}.b,.c{stroke-linecap:round;stroke-linejoin:round;}.c{fill:none;}</style></defs><g transform="translate(-133.481 -34.71)"><g transform="translate(133.981 35.21)"><path class="a" d="M133.981,75.048v-36.4a3.434,3.434,0,0,1,3.435-3.435h18.062a3.435,3.435,0,0,1,3.435,3.435h0V81.414a3.435,3.435,0,0,1-3.435,3.435H137.416a3.435,3.435,0,0,1-3.435-3.435h0Z" transform="translate(-133.981 -35.21)"/><path class="b" d="M133.981,75.048v-36.4a3.434,3.434,0,0,1,3.435-3.435h18.062a3.435,3.435,0,0,1,3.435,3.435h0V81.414a3.435,3.435,0,0,1-3.435,3.435H137.416a3.435,3.435,0,0,1-3.435-3.435h0" transform="translate(-133.981 -35.21)"/><path class="c" d="M157.445,44.188v36.7H136.162V41.1h21.283" transform="translate(-134.338 -36.174)"/><line class="c" x2="4.491" transform="translate(10.22 2.672)"/></g><g transform="translate(147.4 47.918)"><g transform="translate(19.621 18.941)"><path class="c" d="M185.5,82.331l-9.692-9.11a.61.61,0,0,0-.863.027l-1.285,1.367a.611.611,0,0,0,.027.863l13.177,12.388a1.55,1.55,0,0,0,2.122-2.258" transform="translate(-173.489 -73.055)"/></g><path class="b" d="M170.276,62.233a10.191,10.191,0,1,0-2.634,5.345l2.814,2.645" transform="translate(-150.027 -50.405)"/></g></g></svg>