<svg id="レイヤー_1" data-name="レイヤー 1" xmlns="http://www.w3.org/2000/svg" viewBox="0 0 165.83 132.93"><defs><style>.cls-1,.cls-2,.cls-4{fill:#fff;}.cls-1,.cls-2,.cls-3{stroke:#000;}.cls-1,.cls-4,.cls-5{stroke-miterlimit:10;}.cls-2,.cls-3{stroke-linecap:round;stroke-linejoin:round;}.cls-3,.cls-5{fill:none;}.cls-4,.cls-5{stroke:#221714;}</style></defs><g id="グループ_1705" data-name="グループ 1705"><g id="グループ_1654" data-name="グループ 1654"><g id="グループ_1639" data-name="グループ 1639"><path id="パス_1180" data-name="パス 1180" class="cls-1" d="M86.49,41.47V4A3.53,3.53,0,0,1,90,.5H108.6A3.53,3.53,0,0,1,112.13,4h0V48a3.53,3.53,0,0,1-3.53,3.53H90A3.53,3.53,0,0,1,86.49,48h0Z"/><g id="グループ_1615" data-name="グループ 1615"><path id="パス_1180-2" data-name="パス 1180-2" class="cls-2" d="M86.49,41.47V4A3.53,3.53,0,0,1,90,.5H108.6A3.53,3.53,0,0,1,112.13,4h0V48a3.53,3.53,0,0,1-3.53,3.53H90A3.53,3.53,0,0,1,86.49,48h0"/><path id="パス_1181" data-name="パス 1181" class="cls-3" d="M110.25,8.74V46.48H88.37V5.56h21.88"/><line id="線_190" data-name="線 190" class="cls-3" x1="97" y1="3.25" x2="101.62" y2="3.25"/></g></g><g id="グループ_1641" data-name="グループ 1641"><path id="パス_1180-3" data-name="パス 1180-3" class="cls-1" d="M69.29,41.47V4A3.53,3.53,0,0,1,72.82.5H91.4A3.53,3.53,0,0,1,94.93,4h0V48a3.53,3.53,0,0,1-3.53,3.53H72.83A3.54,3.54,0,0,1,69.29,48h0Z"/><g id="グループ_1615-2" data-name="グループ 1615-2"><path id="パス_1180-4" data-name="パス 1180-4" class="cls-2" d="M69.29,41.47V4A3.53,3.53,0,0,1,72.82.5H91.4A3.53,3.53,0,0,1,94.93,4h0V48a3.53,3.53,0,0,1-3.53,3.53H72.83A3.54,3.54,0,0,1,69.29,48h0"/><path id="パス_1181-2" data-name="パス 1181-2" class="cls-3" d="M93.06,8.74V46.48H71.17V5.56H93.06"/><line id="線_190-2" data-name="線 190-2" class="cls-3" x1="79.8" y1="3.25" x2="84.42" y2="3.25"/></g></g><g id="グループ_1642" data-name="グループ 1642"><path id="パス_1180-5" data-name="パス 1180-5" class="cls-1" d="M52.1,41.47V4A3.51,3.51,0,0,1,55.62.5H74.2A3.53,3.53,0,0,1,77.73,4h0V48a3.53,3.53,0,0,1-3.53,3.53H55.63A3.53,3.53,0,0,1,52.1,48h0Z"/><g id="グループ_1615-3" data-name="グループ 1615-3"><path id="パス_1180-6" data-name="パス 1180-6" class="cls-2" d="M52.1,41.47V4A3.51,3.51,0,0,1,55.62.5H74.2A3.53,3.53,0,0,1,77.73,4h0V48a3.53,3.53,0,0,1-3.53,3.53H55.63A3.53,3.53,0,0,1,52.1,48h0"/><path id="パス_1181-3" data-name="パス 1181-3" class="cls-3" d="M75.86,8.74V46.48H54V5.56H75.86"/><line id="線_190-3" data-name="線 190-3" class="cls-3" x1="62.61" y1="3.25" x2="67.22" y2="3.25"/></g></g><g id="グループ_1643" data-name="グループ 1643"><path id="パス_1180-7" data-name="パス 1180-7" class="cls-1" d="M34.9,41.47V4A3.53,3.53,0,0,1,38.43.5H57A3.54,3.54,0,0,1,60.54,4h0V48A3.54,3.54,0,0,1,57,51.54H38.43A3.53,3.53,0,0,1,34.9,48h0Z"/><g id="グループ_1615-4" data-name="グループ 1615-4"><path id="パス_1180-8" data-name="パス 1180-8" class="cls-2" d="M34.9,41.47V4A3.53,3.53,0,0,1,38.43.5H57A3.54,3.54,0,0,1,60.54,4h0V48A3.54,3.54,0,0,1,57,51.54H38.43A3.53,3.53,0,0,1,34.9,48h0"/><path id="パス_1181-4" data-name="パス 1181-4" class="cls-3" d="M58.66,8.74V46.48H36.77V5.56H58.66"/><line id="線_190-4" data-name="線 190-4" class="cls-3" x1="45.41" y1="3.25" x2="50.02" y2="3.25"/></g></g><g id="グループ_1644" data-name="グループ 1644"><path id="パス_1180-9" data-name="パス 1180-9" class="cls-1" d="M17.7,41.47V4A3.53,3.53,0,0,1,21.23.5H39.8A3.54,3.54,0,0,1,43.34,4h0V48a3.53,3.53,0,0,1-3.53,3.53H21.23A3.53,3.53,0,0,1,17.7,48h0Z"/><g id="グループ_1615-5" data-name="グループ 1615-5"><path id="パス_1180-10" data-name="パス 1180-10" class="cls-2" d="M17.7,41.47V4A3.53,3.53,0,0,1,21.23.5H39.8A3.54,3.54,0,0,1,43.34,4h0V48a3.53,3.53,0,0,1-3.53,3.53H21.23A3.53,3.53,0,0,1,17.7,48h0"/><path id="パス_1181-5" data-name="パス 1181-5" class="cls-3" d="M41.46,8.74V46.48H19.58V5.56H41.46"/><line id="線_190-5" data-name="線 190-5" class="cls-3" x1="28.21" y1="3.25" x2="32.83" y2="3.25"/></g></g><g id="グループ_1645" data-name="グループ 1645"><path id="パス_1180-11" data-name="パス 1180-11" class="cls-1" d="M.5,41.47V4A3.53,3.53,0,0,1,4,.5H22.6A3.53,3.53,0,0,1,26.14,4h0V48a3.53,3.53,0,0,1-3.53,3.53H4A3.53,3.53,0,0,1,.5,48h0Z"/><g id="グループ_1615-6" data-name="グループ 1615-6"><path id="パス_1180-12" data-name="パス 1180-12" class="cls-2" d="M.5,41.47V4A3.53,3.53,0,0,1,4,.5H22.6A3.53,3.53,0,0,1,26.14,4h0V48a3.53,3.53,0,0,1-3.53,3.53H4A3.53,3.53,0,0,1,.5,48h0"/><path id="パス_1181-6" data-name="パス 1181-6" class="cls-3" d="M24.26,8.74V46.48H2.38V5.56H24.26"/><line id="線_190-6" data-name="線 190-6" class="cls-3" x1="11.01" y1="3.25" x2="15.63" y2="3.25"/></g></g></g><g id="グループ_1656" data-name="グループ 1656"><g id="グループ_1639-2" data-name="グループ 1639-2"><path id="パス_1180-13" data-name="パス 1180-13" class="cls-1" d="M86.49,101.88V64.45A3.54,3.54,0,0,1,90,60.91H108.6a3.53,3.53,0,0,1,3.53,3.53h0v44A3.54,3.54,0,0,1,108.6,112H90a3.53,3.53,0,0,1-3.53-3.53h0Z"/><g id="グループ_1615-7" data-name="グループ 1615-7"><path id="パス_1180-14" data-name="パス 1180-14" class="cls-2" d="M86.49,101.88V64.45A3.54,3.54,0,0,1,90,60.91H108.6a3.53,3.53,0,0,1,3.53,3.53h0v44A3.54,3.54,0,0,1,108.6,112H90a3.53,3.53,0,0,1-3.53-3.53h0"/><path id="パス_1181-7" data-name="パス 1181-7" class="cls-3" d="M110.25,69.15v37.74H88.37V66h21.88"/><line id="線_190-7" data-name="線 190-7" class="cls-3" x1="97" y1="63.66" x2="101.62" y2="63.66"/></g></g><g id="グループ_1641-2" data-name="グループ 1641-2"><path id="パス_1180-15" data-name="パス 1180-15" class="cls-1" d="M69.29,101.88V64.45a3.54,3.54,0,0,1,3.53-3.54H91.4a3.53,3.53,0,0,1,3.53,3.53h0v44A3.54,3.54,0,0,1,91.4,112H72.83a3.54,3.54,0,0,1-3.54-3.53h0Z"/><g id="グループ_1615-8" data-name="グループ 1615-8"><path id="パス_1180-16" data-name="パス 1180-16" class="cls-2" d="M69.29,101.88V64.45a3.54,3.54,0,0,1,3.53-3.54H91.4a3.53,3.53,0,0,1,3.53,3.53h0v44A3.54,3.54,0,0,1,91.4,112H72.83a3.54,3.54,0,0,1-3.54-3.53h0"/><path id="パス_1181-8" data-name="パス 1181-8" class="cls-3" d="M93.06,69.15v37.74H71.17V66H93.06"/><line id="線_190-8" data-name="線 190-8" class="cls-3" x1="79.8" y1="63.66" x2="84.42" y2="63.66"/></g></g><g id="グループ_1642-2" data-name="グループ 1642-2"><path id="パス_1180-17" data-name="パス 1180-17" class="cls-1" d="M52.1,101.88V64.45a3.52,3.52,0,0,1,3.52-3.54H74.2a3.53,3.53,0,0,1,3.53,3.53h0v44A3.54,3.54,0,0,1,74.2,112H55.63a3.53,3.53,0,0,1-3.53-3.53h0Z"/><g id="グループ_1615-9" data-name="グループ 1615-9"><path id="パス_1180-18" data-name="パス 1180-18" class="cls-2" d="M52.1,101.88V64.45a3.52,3.52,0,0,1,3.52-3.54H74.2a3.53,3.53,0,0,1,3.53,3.53h0v44A3.54,3.54,0,0,1,74.2,112H55.63a3.53,3.53,0,0,1-3.53-3.53h0"/><path id="パス_1181-9" data-name="パス 1181-9" class="cls-3" d="M75.86,69.15v37.74H54V66H75.86"/><line id="線_190-9" data-name="線 190-9" class="cls-3" x1="62.61" y1="63.66" x2="67.22" y2="63.66"/></g></g><g id="グループ_1643-2" data-name="グループ 1643-2"><path id="パス_1180-19" data-name="パス 1180-19" class="cls-1" d="M34.9,101.88V64.45a3.54,3.54,0,0,1,3.53-3.54H57a3.54,3.54,0,0,1,3.54,3.53h0v44A3.55,3.55,0,0,1,57,112H38.43a3.53,3.53,0,0,1-3.53-3.53h0Z"/><g id="グループ_1615-10" data-name="グループ 1615-10"><path id="パス_1180-20" data-name="パス 1180-20" class="cls-2" d="M34.9,101.88V64.45a3.54,3.54,0,0,1,3.53-3.54H57a3.54,3.54,0,0,1,3.54,3.53h0v44A3.55,3.55,0,0,1,57,112H38.43a3.53,3.53,0,0,1-3.53-3.53h0"/><path id="パス_1181-10" data-name="パス 1181-10" class="cls-3" d="M58.66,69.15v37.74H36.77V66H58.66"/><line id="線_190-10" data-name="線 190-10" class="cls-3" x1="45.41" y1="63.66" x2="50.02" y2="63.66"/></g></g><g id="グループ_1644-2" data-name="グループ 1644-2"><path id="パス_1180-21" data-name="パス 1180-21" class="cls-1" d="M17.7,101.88V64.45a3.54,3.54,0,0,1,3.53-3.54H39.8a3.54,3.54,0,0,1,3.54,3.53h0v44A3.54,3.54,0,0,1,39.81,112H21.23a3.53,3.53,0,0,1-3.53-3.53h0Z"/><g id="グループ_1615-11" data-name="グループ 1615-11"><path id="パス_1180-22" data-name="パス 1180-22" class="cls-2" d="M17.7,101.88V64.45a3.54,3.54,0,0,1,3.53-3.54H39.8a3.54,3.54,0,0,1,3.54,3.53h0v44A3.54,3.54,0,0,1,39.81,112H21.23a3.53,3.53,0,0,1-3.53-3.53h0"/><path id="パス_1181-11" data-name="パス 1181-11" class="cls-3" d="M41.46,69.15v37.74H19.58V66H41.46"/><line id="線_190-11" data-name="線 190-11" class="cls-3" x1="28.21" y1="63.66" x2="32.83" y2="63.66"/></g></g><g id="グループ_1645-2" data-name="グループ 1645-2"><path id="パス_1180-23" data-name="パス 1180-23" class="cls-1" d="M.5,101.88V64.45A3.54,3.54,0,0,1,4,60.91H22.6a3.53,3.53,0,0,1,3.54,3.53h0v44A3.54,3.54,0,0,1,22.61,112H4A3.53,3.53,0,0,1,.5,108.43h0Z"/><g id="グループ_1615-12" data-name="グループ 1615-12"><path id="パス_1180-24" data-name="パス 1180-24" class="cls-2" d="M.5,101.88V64.45A3.54,3.54,0,0,1,4,60.91H22.6a3.53,3.53,0,0,1,3.54,3.53h0v44A3.54,3.54,0,0,1,22.61,112H4A3.53,3.53,0,0,1,.5,108.43h0"/><path id="パス_1181-12" data-name="パス 1181-12" class="cls-3" d="M24.26,69.15v37.74H2.38V66H24.26"/><line id="線_190-12" data-name="線 190-12" class="cls-3" x1="11.01" y1="63.66" x2="15.63" y2="63.66"/></g></g></g><g id="グループ_1655" data-name="グループ 1655"><path id="パス_3212" data-name="パス 3212" class="cls-4" d="M103.35,128.65v-2.8a1,1,0,0,1,1-1h54.54a1,1,0,0,1,1,1h0v5.59a1,1,0,0,1-1,1H104.33"/><rect id="長方形_774" data-name="長方形 774" class="cls-4" x="103.34" y="87.08" width="56.5" height="7.56" rx="1.03"/><rect id="長方形_775" data-name="長方形 775" class="cls-4" x="103.34" y="94.64" width="56.5" height="7.56" rx="1.03"/><rect id="長方形_776" data-name="長方形 776" class="cls-4" x="103.34" y="117.32" width="56.5" height="7.56" rx="1.03"/><rect id="長方形_777" data-name="長方形 777" class="cls-4" x="108.82" y="102.2" width="56.5" height="7.56" rx="1.03"/><rect id="長方形_778" data-name="長方形 778" class="cls-4" x="107.42" y="109.76" width="56.5" height="7.56" rx="1.03"/><g id="グループ_1524" data-name="グループ 1524"><path id="パス_3213" data-name="パス 3213" class="cls-4" d="M130.74,52.24a31.41,31.41,0,1,1-6.51-4.86"/><g id="グループ_1523" data-name="グループ 1523"><path id="パス_3215" data-name="パス 3215" class="cls-4" d="M108.84,76.92h.07l-12-19.59"/><line id="線_525" data-name="線 525" class="cls-5" x1="108.9" y1="77.52" x2="108.87" y2="94.6"/><line id="線_526" data-name="線 526" class="cls-5" x1="120.21" y1="77.16" x2="96.79" y2="77.16"/><line id="線_527" data-name="線 527" class="cls-5" x1="120.21" y1="83.37" x2="96.79" y2="83.37"/><line id="線_528" data-name="線 528" class="cls-5" x1="120.85" y1="57.33" x2="111.2" y2="73.07"/></g></g></g></g></svg>