<svg id="レイヤー_1" data-name="レイヤー 1" xmlns="http://www.w3.org/2000/svg" viewBox="0 0 225.8 138.06"><defs><style>.cls-1,.cls-2,.cls-4{fill:none;}.cls-1,.cls-2,.cls-4,.cls-5,.cls-6{stroke:#000;}.cls-1,.cls-2,.cls-6,.cls-7{stroke-linecap:round;}.cls-1{stroke-miterlimit:10;}.cls-2,.cls-4,.cls-5,.cls-6,.cls-7{stroke-linejoin:round;}.cls-3{fill:#231815;}.cls-5,.cls-6,.cls-7{fill:#fff;}.cls-7{stroke:#21110d;}</style></defs><g id="グループ_1704" data-name="グループ 1704"><g id="グループ_1693" data-name="グループ 1693"><g id="グループ_1688" data-name="グループ 1688"><path id="パス_3280" data-name="パス 3280" class="cls-1" d="M90.62,42.77l.89,12.92s0,7.67,10.95,12c0,0,4.3,1.81,8.21.52"/><path id="パス_3281" data-name="パス 3281" class="cls-1" d="M124.07,42l-.88,13.72s0,7.67-11,12c0,0-4.3,1.81-8.21.52"/></g><g id="グループ_1690" data-name="グループ 1690"><path id="パス_3282" data-name="パス 3282" d="M129.29,42.16l-4.15-.25a1.08,1.08,0,0,0-1.13,1l-.66,11a1.06,1.06,0,0,0,1,1.13l.71,0-.14.38a10.46,10.46,0,0,1-6.75,6.65,13.88,13.88,0,0,1-2.57.58l-.34,0v-.68A1.29,1.29,0,0,0,114,60.82H107.6a1.29,1.29,0,0,0-1.29,1.29v2.63A1.29,1.29,0,0,0,107.6,66H114a1.29,1.29,0,0,0,1.29-1.29v-.52l.27,0a15.56,15.56,0,0,0,3-.66,12,12,0,0,0,7.9-8.08l.08-.22,2,.11a1.07,1.07,0,0,0,1.14-1l.66-11a1.08,1.08,0,0,0-1-1.14Z"/><g id="グループ_1689" data-name="グループ 1689"><path id="パス_3283" data-name="パス 3283" d="M89.18,42l-4.26.26a1.11,1.11,0,0,0-1,1.16h0l.68,11.34a1.13,1.13,0,0,0,.37.76,1.12,1.12,0,0,0,.8.27L90,55.56a1.1,1.1,0,0,0,1-1.16h0l-.68-11.33A1.11,1.11,0,0,0,89.18,42Z"/><path id="パス_3284" data-name="パス 3284" d="M83.24,43.78a3.26,3.26,0,0,0-2.3,3.32l.26,4.41a3.28,3.28,0,0,0,2.68,3Z"/></g><path id="パス_3285" data-name="パス 3285" d="M130.93,43.62a3.19,3.19,0,0,1,2.24,3.23l-.26,4.3a3.2,3.2,0,0,1-2.61,3Z"/><path d="M127.41,45a1.25,1.25,0,0,1-1.25-1.25V39a18.9,18.9,0,1,0-37.8,0v4.8a1.25,1.25,0,0,1-2.5,0V39a21.4,21.4,0,0,1,42.8,0v4.81A1.25,1.25,0,0,1,127.41,45Z"/></g><path id="パス_3287" data-name="パス 3287" class="cls-2" d="M90.6,42.65C98.75,41.34,104.81,35,104.81,35v3.64c6.65-2.23,11.54-9.12,11.54-9.12s.39,7,7.72,12.52"/><path id="パス_3288" data-name="パス 3288" class="cls-2" d="M100.11,42.11s6.09.44,5.62,6.16L104.86,55a6.29,6.29,0,0,0,3.33.6"/><path id="パス_3289" data-name="パス 3289" class="cls-2" d="M112.79,42.91a9.27,9.27,0,0,1,6.88-.89"/><ellipse id="楕円形_353" data-name="楕円形 353" class="cls-3" cx="116.23" cy="47.18" rx="1.47" ry="1.65"/><ellipse id="楕円形_354" data-name="楕円形 354" class="cls-3" cx="98.64" cy="47.18" rx="1.47" ry="1.65"/><path id="パス_3290" data-name="パス 3290" class="cls-4" d="M85.55,42.28S81.32,17.89,105.3,14.91a16.92,16.92,0,0,1,2-.11h0a16.92,16.92,0,0,1,2,.11c24,3,19.75,27.37,19.75,27.37"/><line id="線_576" data-name="線 576" class="cls-4" x1="98.53" y1="65.86" x2="98.53" y2="70.09"/><line id="線_577" data-name="線 577" class="cls-4" x1="116.81" y1="65.29" x2="116.81" y2="70.09"/><path id="パス_3291" data-name="パス 3291" class="cls-4" d="M97.38,69.42l10.23,6.67-5.87,10L93.9,74.78Z"/><path id="パス_3292" data-name="パス 3292" class="cls-2" d="M93.9,74.78,76.4,81.93a11,11,0,0,0-6.92,6.23l-14.33,34"/><path id="パス_3293" data-name="パス 3293" class="cls-2" d="M72.61,118.77l30.8,6v12.84H62.2a7.61,7.61,0,0,1-7.61-7.6h0"/><path id="パス_3294" data-name="パス 3294" class="cls-2" d="M142.63,118.77l-30.8,6v12.84H153a7.61,7.61,0,0,0,7.61-7.6h0"/><g id="グループ_1692" data-name="グループ 1692"><g id="グループ_1691" data-name="グループ 1691"><path id="長方形_845" data-name="長方形 845" class="cls-5" d="M84.89,100.55h46.35a2.52,2.52,0,0,1,2.52,2.53v31.17H82.37V103.08A2.52,2.52,0,0,1,84.89,100.55Z"/><path id="長方形_846" data-name="長方形 846" class="cls-5" d="M79.18,134.31H137a3.16,3.16,0,0,1-3.15,3.16H82.34a3.16,3.16,0,0,1-3.16-3.16Z"/></g><path id="パス_3295" data-name="パス 3295" class="cls-5" d="M108.07,123.21a5,5,0,1,1,5-5A5,5,0,0,1,108.07,123.21Zm0-7a2,2,0,1,0,2,2h0A2,2,0,0,0,108.07,116.22Z"/></g><path id="パス_3296" data-name="パス 3296" class="cls-4" d="M117.76,69.42l-10.23,6.67,5.87,10,7.85-11.36Z"/><path id="パス_3297" data-name="パス 3297" class="cls-2" d="M121.24,74.78l17.5,7.15a11,11,0,0,1,6.92,6.23l14.33,34"/><line id="線_578" data-name="線 578" class="cls-4" x1="28.85" y1="137.47" x2="185.76" y2="137.47"/></g><g id="グループ_1699" data-name="グループ 1699"><path id="パス_3286-2" data-name="パス 3286-2" class="cls-5" d="M210.62,45.82h10.14a4.54,4.54,0,0,1,4.54,4.54V80.62a4.55,4.55,0,0,1-4.54,4.55H191.43l-10.8,10.41V85.17H160.2a4.54,4.54,0,0,1-4.55-4.55V50.36a4.55,4.55,0,0,1,4.55-4.54H163"/><g id="グループ_1701" data-name="グループ 1701"><g id="グループ_1699-2" data-name="グループ 1699-2"><g id="グループ_1677" data-name="グループ 1677"><rect id="長方形_841" data-name="長方形 841" class="cls-6" x="168.29" y="33.01" width="37.9" height="26.27"/><line id="線_570" data-name="線 570" class="cls-2" x1="168.29" y1="33.01" x2="156.53" y2="20.48"/><line id="線_571" data-name="線 571" class="cls-2" x1="205.93" y1="33.01" x2="217.68" y2="20.48"/><path id="長方形_842" data-name="長方形 842" class="cls-6" d="M183.19,37.59H192a1.74,1.74,0,0,1,1.74,1.74v.21A1.74,1.74,0,0,1,192,41.29h-8.84a1.75,1.75,0,0,1-1.75-1.75v-.21a1.75,1.75,0,0,1,1.75-1.75Z"/></g><rect id="長方形_843" data-name="長方形 843" class="cls-6" x="161.82" y="59.27" width="37.9" height="7.84"/><rect id="長方形_844" data-name="長方形 844" class="cls-6" x="165.3" y="67.35" width="37.9" height="7.84"/></g><g id="グループ_1700" data-name="グループ 1700"><circle id="楕円形_350" data-name="楕円形 350" class="cls-6" cx="199.67" cy="64.53" r="10.66"/><circle id="楕円形_351" data-name="楕円形 351" class="cls-6" cx="199.67" cy="64.53" r="3.67"/><circle id="楕円形_352" data-name="楕円形 352" class="cls-2" cx="199.67" cy="64.53" r="5.43"/><line id="線_572" data-name="線 572" class="cls-2" x1="199.67" y1="75.19" x2="218.48" y2="75.19"/></g></g></g><g id="グループ_1700-2" data-name="グループ 1700-2"><path id="パス_3298" data-name="パス 3298" class="cls-5" d="M9.09,8.88H4.52a4,4,0,0,0-4,4h0V39.65a4,4,0,0,0,4,4H30.45L40,52.87v-9.2H61.29a4,4,0,0,0,4-4h0V12.9a4,4,0,0,0-4-4H51.52"/><path id="パス_3300" data-name="パス 3300" class="cls-4" d="M45.65,12.2A11.77,11.77,0,0,0,23.94,6a6,6,0,0,0-8.43,4.82A8.36,8.36,0,0,0,17.74,27.2H43.93a7.6,7.6,0,0,0,1.72-15Z"/><g id="グループ_807" data-name="グループ 807"><g id="グループ_742" data-name="グループ 742"><path id="パス_1212" data-name="パス 1212" class="cls-7" d="M53.48,37.6H55a1.43,1.43,0,0,0,1.42-1.42V23.31A1.42,1.42,0,0,0,55,21.89H52.17V16.62a5.81,5.81,0,1,0-11.62,0v0a1.27,1.27,0,1,0,2.53,0h0a3.28,3.28,0,0,1,6.56,0v5.27h-12a1.42,1.42,0,0,0-1.42,1.42V36.18a1.42,1.42,0,0,0,1.42,1.41H53.48Z"/><path id="パス_1214" data-name="パス 1214" class="cls-7" d="M47.23,32.53a.87.87,0,0,1-.88.88h0a.87.87,0,0,1-.87-.88V29.84a2,2,0,1,1,1.75,0v2.69Z"/></g></g></g></g></svg>