<svg height="49.215" viewBox="0 0 54.839 49.215" width="54.839" xmlns="http://www.w3.org/2000/svg"><g fill="#fff" stroke="#000" stroke-linecap="round"><path d="m329.722 27.03 16.377-.72 5.218 5.453 5.469 2.349 13.917 13.8 4.088 4c3.3 3.716.35 6.03.35 6.03-2.594 2.033-5.4-.281-5.4-.281a3.65 3.65 0 0 1 -1.4 4.7 4.274 4.274 0 0 1 -4.277 0 4.185 4.185 0 0 1 -1.4 4.276c-2.243 1.614-5.048-.21-5.048-.21a3.347 3.347 0 0 1 -1.387 4.072c-2.383 1.332-5.063-.988-5.063-.988l-2.665-2.8" stroke-linejoin="round" transform="translate(-323.264 -23.846)"/><path d="m352.4 69.208-4.78-5.141-22.007-22.007 3.128-10.525" stroke-linejoin="round" transform="translate(-323.841 -23.113)"/><path d="m374.2 36.9-2.787-9.631-10.657.7-10.1-3.085a5.311 5.311 0 0 0 -2.033-.281c-1.543-.006-3.668 1.975-3.668 1.975l-5.39 4.5a3.293 3.293 0 0 0 -.418 4.637l.029.033a3.291 3.291 0 0 0 4.635.418l5.39-4.5 6.609 2.858 15.461 15.391.35-.421 4.558-5.75" stroke-linejoin="round" transform="translate(-322.048 -24.087)"/><g stroke-miterlimit="10"><rect height="6.626" rx="2.905" transform="matrix(.768 -.641 .641 .768 .704 28.831)" width="13.602"/><rect height="6.626" rx="2.905" transform="matrix(.768 -.641 .641 .768 5.516 33.749)" width="13.602"/><rect height="6.626" rx="2.905" transform="matrix(.768 -.641 .641 .768 10.17 38.506)" width="13.602"/><rect height="6.626" rx="2.905" transform="matrix(.768 -.641 .641 .768 14.982 43.424)" width="13.602"/></g><path d="m46.49 33.776-2.524-2.524" stroke-linejoin="round"/><path d="m40.872 38.697-2.524-2.524" stroke-linejoin="round"/><path d="m34.349 42.583-1.352-1.572" stroke-linejoin="round"/></g></svg>