<svg height="60.358" viewBox="0 0 59.742 60.358" width="59.742" xmlns="http://www.w3.org/2000/svg"><g stroke="#000" transform="translate(-133.481 -34.71)"><path d="m133.981 82.847v-43.529a4.106 4.106 0 0 1 4.107-4.108h21.6a4.108 4.108 0 0 1 4.108 4.108v51.142a4.108 4.108 0 0 1 -4.108 4.108h-21.6a4.108 4.108 0 0 1 -4.107-4.108z" fill="#fff" stroke-miterlimit="10"/><g stroke-linecap="round" stroke-linejoin="round"><path d="m133.981 82.847v-43.529a4.106 4.106 0 0 1 4.107-4.108h21.6a4.108 4.108 0 0 1 4.108 4.108v51.142a4.108 4.108 0 0 1 -4.108 4.108h-21.6a4.108 4.108 0 0 1 -4.107-4.108" fill="#fff"/><path d="m161.612 44.793v43.887h-25.45v-47.58h25.45" fill="none"/><path d="m146.202 38.405h5.371" fill="none"/><path d="m187.846 84.147-11.59-10.894a.73.73 0 0 0 -1.032.032l-1.537 1.635a.73.73 0 0 0 .032 1.032l15.757 14.813a1.853 1.853 0 0 0 2.538-2.7" fill="none"/><path d="m174.24 64.548a12.186 12.186 0 1 0 -3.15 6.391l3.365 3.163" fill="#fff"/></g></g></svg>