<svg xmlns="http://www.w3.org/2000/svg" viewBox="0 0 364.88 359.14"><defs><style>.cls-1,.cls-2,.cls-3{fill:none;stroke:#000;stroke-linecap:round;stroke-linejoin:round;}.cls-1{stroke-width:3px;}.cls-2{stroke-width:3px;}.cls-3{stroke-width:3px;}.cls-4{fill:#1a1311;}</style></defs><g id="レイヤー_4" data-name="レイヤー 4"><g id="グループ_991" data-name="グループ 991"><path id="パス_1390" data-name="パス 1390" class="cls-1" d="M238.39,31.26s-12.13,13.6-10.2,29.13c0,0-5.55,23.79,5,35,0,0,9.58,11.65,21.71,11.65"/><path id="パス_1391" data-name="パス 1391" class="cls-1" d="M247.13,18.64S233.53,39.37,267,50.12"/><path id="パス_1392" data-name="パス 1392" class="cls-1" d="M255.72,31.26s0,10,24.91,19.9"/><path id="パス_1393" data-name="パス 1393" class="cls-1" d="M270.92,37.09s9.23,12.14,23.79,15.54"/><path id="パス_1394" data-name="パス 1394" class="cls-1" d="M226.74,41.21S229,5.53,268.17,1.65c0,0,29.45-3.16,44.5,19.78,0,0,21.85,29.25,0,53,0,0,12.63-1.46,12.14,23.79,0,0-2.91,24.28,6.8,24.28"/><path id="パス_1395" data-name="パス 1395" class="cls-1" d="M240.82,54.59s4.85,2.9,0,14.55l-3.88,5.34s1,3.88,3.88,4.37"/><path id="パス_1396" data-name="パス 1396" class="cls-1" d="M244.41,88.06s8.06.49,13.4-3.4c0,0,2.12,5.23-6.71,8.44"/><path id="パス_1397" data-name="パス 1397" class="cls-1" d="M275.78,8s22.33,17.33,20.87,53.33"/><path id="パス_1398" data-name="パス 1398" class="cls-1" d="M288.88,8S310.25,23,301,64.51"/><ellipse id="楕円形_23" data-name="楕円形 23" class="cls-2" cx="295.28" cy="72.39" rx="9.83" ry="8.54" transform="translate(168.12 348.54) rotate(-79.05)"/><path id="パス_1399" data-name="パス 1399" class="cls-1" d="M291.9,82c-4.63-.89-9.57-3.2-9.45-11.27a11.31,11.31,0,0,1,4.29-8.6"/><path id="長方形_131" data-name="長方形 131" class="cls-3" d="M258.16,102.31l7.45-2.68a4.06,4.06,0,0,1,5.18,2.44h0a4.06,4.06,0,0,1-2.44,5.18l-7.45,2.67a4,4,0,0,1-5.18-2.44h0A4,4,0,0,1,258.16,102.31Z"/><path id="パス_1400" data-name="パス 1400" class="cls-1" d="M296.11,82.89v1.38a10.07,10.07,0,0,1-6,9.2l-19.34,8.6"/><path id="パス_1401" data-name="パス 1401" class="cls-1" d="M292.61,99.23s1.71,15,10.72,19.1c0,0-9.75,27.18-32.41,38.84,0,0-13.18,65.85-17.6,104.13"/><path id="パス_1402" data-name="パス 1402" class="cls-1" d="M259.27,110.88s3.07,8.74,1.29,14.24"/><path id="パス_1403" data-name="パス 1403" class="cls-1" d="M309.28,118l30.1,17.64s12.13,8.9,15.53,35.44l8.25,67s3.4,17-17,22.82l-21.36,6.8s4.64-19.42-19.52-20.87l25.36-18"/><path id="パス_1404" data-name="パス 1404" class="cls-1" d="M307.37,247.26s-2.62,2.8-15.4,2.47l-18.45,0s-9.88-1.32-15.7,4.5l-9.71,15.22s-2.75,5,1.13,5.82a6.33,6.33,0,0,0,5.83-2.75"/><path id="パス_1405" data-name="パス 1405" class="cls-1" d="M268.17,256.37a11.74,11.74,0,0,0-7,4.93l-7.28,14s-1.62,5.47,5.34,3.69l2.59-1.3"/><path id="パス_1406" data-name="パス 1406" class="cls-1" d="M274.32,261.3a16.23,16.23,0,0,0-8.58,8l-3.72,11s.33,5,6.15.8"/><path id="パス_1407" data-name="パス 1407" class="cls-1" d="M281.93,265.43a20.3,20.3,0,0,0-7.6,6.62S268,280,270.28,282.81c0,0,1.62,3,5.58-1l5.26-6.45,8.58-3.27a31.08,31.08,0,0,0,13.64,0s9.18-2.58,13.22-9.05l7.6-2.4"/><path id="パス_1408" data-name="パス 1408" class="cls-1" d="M324.81,267.69a9.6,9.6,0,0,1-9.44-2.49"/><path id="パス_1409" data-name="パス 1409" class="cls-1" d="M233.38,265.2c6.47-57.69,17.84-111.27,17.84-111.27-9.34-16.83,4.5-35.93,4.5-35.93s-3.49,0-12.74,4.29l-13.32,5.34a28.45,28.45,0,0,0-14.08,15.05l-7.72,15.57"/><path id="パス_1410" data-name="パス 1410" class="cls-1" d="M249.47,162.57s4.76,4.35,20.39,0"/><path id="パス_1411" data-name="パス 1411" class="cls-1" d="M260.19,114.13a9.13,9.13,0,0,1-4.47,3.87"/><ellipse id="楕円形_24" data-name="楕円形 24" class="cls-4" cx="258.42" cy="61.97" rx="2.7" ry="3.03"/><ellipse id="楕円形_25" data-name="楕円形 25" class="cls-4" cx="234.24" cy="61.97" rx="2.7" ry="3.03"/><path id="パス_1412" data-name="パス 1412" class="cls-1" d="M228.73,50.12s3.1-3.52,8.2,0"/><path id="パス_1414" data-name="パス 1414" class="cls-1" d="M65,344.14l72.2,13.3a11.66,11.66,0,0,0,8.47-1.69L172,338.25"/><path id="パス_1415" data-name="パス 1415" class="cls-1" d="M133.5,294.29l127.08,23.4a11.66,11.66,0,0,0,8.47-1.7l31.39-21.41"/><path id="パス_1416" data-name="パス 1416" class="cls-1" d="M133.5,285.07l127.08,23.4a11.66,11.66,0,0,0,8.47-1.7l31.39-19.46"/><line id="線_283" data-name="線 283" class="cls-1" x1="216.81" y1="264.31" x2="248" y2="270.05"/><line id="線_284" data-name="線 284" class="cls-1" x1="281.12" y1="275.33" x2="305.29" y2="280.61"/><path id="パス_1417" data-name="パス 1417" class="cls-1" d="M141.75,351.32,171.41,332a2.45,2.45,0,0,0-.89-4.45l-37.8-7"/><g id="グループ_948" data-name="グループ 948"><path id="パス_1418" data-name="パス 1418" class="cls-1" d="M1.5,109.6,22.1,251.72a4.59,4.59,0,0,0,3.73,3.87l167.91,31"/><path id="パス_1419" data-name="パス 1419" class="cls-1" d="M22.07,104.35l165.57,30.51a4.61,4.61,0,0,1,3.73,3.87l20.26,139.85a4.63,4.63,0,0,1-1.3,3.92l-6,6L183.74,146.37a4.61,4.61,0,0,0-3.73-3.88L14.45,112"/></g><path id="パス_1420" data-name="パス 1420" class="cls-1" d="M97.27,268.76l-8.14,70a2.45,2.45,0,0,0,2,2.68L118,346.73"/><line id="線_285" data-name="線 285" class="cls-1" x1="126.76" y1="274.2" x2="123.62" y2="345.75"/><line id="線_286" data-name="線 286" class="cls-1" x1="132.73" y1="276.79" x2="130.32" y2="340.54"/></g></g></svg>