<svg xmlns="http://www.w3.org/2000/svg" viewBox="0 0 357.8 634.9"><defs><style>.cls-1{fill:#fff;}.cls-2,.cls-3{fill:none;stroke-linecap:round;stroke-linejoin:round;}.cls-2{stroke:#231815;stroke-width:2.4px;}.cls-3{stroke:#000;stroke-width:0.89px;}.cls-4{fill:#231815;}</style></defs><g id="レイヤー_4" data-name="レイヤー 4"><path class="cls-1" d="M350.24,571.46c-6.59-8.45-11.8-12.11-14.85-13.68l1.83-1.19L252,434.68,237.1,369.56l-.52-4.08.92,0,.42-90.32-1.42-103a58.22,58.22,0,0,0-1.43-14.62c-4-13.73-11.88-21.28-20.35-25.3l.38-4.67.53-11.95c-1.13-.24-2.08-.61-3.21-.77v-.12a21.88,21.88,0,0,1,.36-5.35,17.81,17.81,0,0,1,4.46-9c13.79-8.08,20-25.68,20-25.68,8.09-27.58-4.28-41.38-4.28-41.38l-1.3-3.92s-3.45-17.24-25.81-26.28c0,0-28.06-9.27-51.36,8.8,0,0-14.51,10.94-20,24.73,0,0-4,7.61-7.67,9.52l3.87.47a47.47,47.47,0,0,0,6.8-.17l2.05-.3.66,2.85a25.83,25.83,0,0,1-1.43,17.12l-7.84,13.81a2.12,2.12,0,0,0,.61,2.67,10.8,10.8,0,0,0,6.76,2.78l.47,4.75s1.25,7.14,2.44,9.64l.59,1.43-3.86,3.44h0a5.79,5.79,0,0,0,0,8.17l6.71,6.7-.17,5.11c.48,8.09-2.38,10.46-2.38,10.46l-5.23-2.85-4,6.87-1.31-.33-2.11-1.46-4.28,7.14L88.52,208.12A33.48,33.48,0,0,0,84,227.58c0,.28,0,.56.08.84a22.38,22.38,0,0,0,13.45,18.31c6.31,2.6,15.59,3.61,28-2l.35,3.06,2.14,32.6-3.18,24.25,1.72,4.49-2.26,8L91.2,440.55,63,580.48c-3.3,1.42-7.48,3.33-11.57,5.51a34.68,34.68,0,0,1-17.18,2.4s-15.77-2.09-25.32-.86a8.89,8.89,0,0,0-7.65,7.23,2.43,2.43,0,0,0,.57,2c1.43,1.6,5.18,4.87,13.67,7.86l39.2,12.81a7.78,7.78,0,0,0,2,.37l18.49,1-1.34,5.43L106,633.7,110,622.78c5.62-17.78,2.25-24.63,2.25-24.63l6.17,2.14L158,454.51l15.42-38.93,2.2-3.67,15.91,41.37S197,466,210.66,485.59l83.72,98.9,1.32-.86c-.15,3.87-.44,9.14-1,14,0,0-.47,9.31-7.28,14.57,0,0-12.64,8.33-14.62,16.2l1.67,3.82,25.38-8.93c12.89-5.65,17.63-12.52,17.63-12.52l11.17-14.54,3.49,3.93,24.46-19.9Z"/><path class="cls-2" d="M140.6,49a25.62,25.62,0,0,1-1.42,17l-7.76,13.68a2.09,2.09,0,0,0,.59,2.64,10.77,10.77,0,0,0,6.7,2.76l.47,4.71"/><path class="cls-2" d="M165.57,34.42a48.55,48.55,0,0,1-34.4,12.25"/><path class="cls-2" d="M167.45,42.9s-.59,15.61,8.84,22.68"/><path class="cls-2" d="M231.9,32.44s-1.84-21.19-26.28-28.88c0,0-27.8-9.19-50.89,8.71,0,0-14.37,10.84-19.79,24.51"/><path class="cls-2" d="M232.48,33.48s12.25,13.66,4.24,41c0,0-6.13,17.43-19.79,25.44"/><path class="cls-2" d="M153.6,150.6,130,136.52l-4.24,7.07-36.32,63.1A33,33,0,0,0,84.93,226c0,.29,0,.57.08.86a22.65,22.65,0,0,0,15,19.08c6,2,14.39,2.38,25.43-2.58l60.43-36"/><polyline class="cls-2" points="159.68 153.92 164.27 156.93 138.88 209.85"/><path class="cls-2" d="M212.51,108.87a21.73,21.73,0,0,0-.35,5.3"/><path class="cls-2" d="M199.88,101.45s7.68,7.06,21.47,8"/><path class="cls-2" d="M189,115.76s13.43-3.54,26.33-.71l-.53,11.84"/><path class="cls-2" d="M181.59,128.66s41.7-10.6,53,27.91"/><g id="グループ_1177" data-name="グループ 1177"><g id="グループ_1176" data-name="グループ 1176"><path id="パス_1180-2" data-name="パス 1180-2" class="cls-2" d="M145.86,96.64l42.89-42.89a5.74,5.74,0,0,1,8.1,0h0L218.13,75a5.71,5.71,0,0,1,0,8.09h0l-50.39,50.4a5.74,5.74,0,0,1-8.1,0h0l-21.28-21.29a5.71,5.71,0,0,1,0-8.09h0"/><g id="グループ_1175" data-name="グループ 1175"><circle id="楕円形_110" data-name="楕円形 110" class="cls-3" cx="193.03" cy="60.32" r="2.82"/><circle id="楕円形_111" data-name="楕円形 111" class="cls-3" cx="193.03" cy="60.32" r="2.11"/><rect id="長方形_661" data-name="長方形 661" class="cls-3" x="194.66" y="63.35" width="4.68" height="1.89" rx="0.87" transform="translate(12.24 158.13) rotate(-45)"/></g></g></g><ellipse class="cls-4" cx="151.1" cy="64.58" rx="2.5" ry="2.94"/><path class="cls-2" d="M149.31,53.74s8-1.89,15,7.07"/><path class="cls-1" d="M179.29,119.12l3-11,7.95-22.44c1.76-6.18-2.12-6.18-2.12-6.18-2.48-.53-4.24,2.29-4.24,2.29l-10.25,17,6.89-23c.71-5-3.71-4.78-3.71-4.78-3.54,0-5.48,6-5.48,6l-8.13,19.09-.53-5.48c-.35-7.25-4.41-8.84-4.41-8.84-6.19,0-5.31,6.89-5.31,6.89l.33,1.17c-1.47-3-4-2.4-4-2.4-4.94,1.06-4.41,8.18-4.41,8.18V124c.47,8-2.36,10.36-2.36,10.36l21.44,12.37,2.3-3.89c4.28-1,11.39-5.65,13.1-8.7a21.9,21.9,0,0,0,1.76-4.35c1.33-4.41,5.1-10.27,5.1-10.27l6.89-9c.89-2.3-2.12-2.3-2.12-2.3-6-.35-10.07,5-10.07,5"/><path class="cls-2" d="M142.48,134.31s2.83-2.35,2.36-10.36V95.67s-.53-7.12,4.41-8.18c0,0,4.24-1.06,4.95,6"/><path class="cls-2" d="M153,88.72s-.88-6.45,4.6-7c0,0,4.42-.53,5.12,8.93l.53,5.48,8.13-19.09s1.94-6,5.48-6c0,0,4.42-.17,3.71,4.78l-6.89,23,10.25-17s1.76-2.82,4.24-2.29c0,0,3.88,0,2.12,6.18l-7.95,22.44-3,11"/><path class="cls-2" d="M181.15,112.14a13,13,0,0,1,9.8-4s3,0,2.12,2.3l-6.89,9s-3.77,5.86-5.1,10.27a21.9,21.9,0,0,1-1.76,4.35c-1.71,3-8.82,7.66-13.1,8.7l-2.3,3.89"/><polyline class="cls-2" points="133.35 138.29 137.3 131.48 166.39 148.8"/><ellipse class="cls-2" cx="138.45" cy="262.73" rx="3.77" ry="6.12"/><polyline class="cls-2" points="124.59 314.96 91.2 440.55 62.96 580.48 118.37 600.29 119.8 595.04 121.64 588.28 158.03 454.51 187.4 381.8"/><polyline class="cls-2" points="294.38 584.49 337.22 556.59 252.03 434.68 237.1 369.56"/><path class="cls-2" d="M179.32,420.72l12.24,32.56S197,466,210.66,485.59l75.76,89.5"/><path class="cls-2" d="M57.16,583.1c-1.87.89-3.83,1.86-5.77,2.89a34.68,34.68,0,0,1-17.18,2.4s-15.77-2.09-25.32-.86a8.89,8.89,0,0,0-7.65,7.23h0a2.43,2.43,0,0,0,.57,2c1.43,1.6,5.18,4.87,13.67,7.86l39.2,12.81a7.78,7.78,0,0,0,2,.37l18.49,1-1.34,5.43L106,633.7,110,622.78c5.62-17.78,2.25-24.63,2.25-24.63"/><path class="cls-2" d="M340.62,561.25a63.94,63.94,0,0,1,9.62,10.21l6.36,8.84-24.46,19.9-3.49-3.93-11.17,14.54s-4.74,6.87-17.63,12.52L275.36,632a1,1,0,0,1-1.27-.55l-1.29-3c2-7.87,14.62-16.2,14.62-16.2,6.81-5.26,7.28-14.57,7.28-14.57.55-4.84.84-10.06,1-13.91"/><path class="cls-2" d="M126.46,246l2.12,33.9-3.7,24.75,23.44,61.26h77.8a11.38,11.38,0,0,0,11.37-11.38V300.76l-1.11-133.61"/></g></svg>