<svg xmlns="http://www.w3.org/2000/svg" viewBox="0 0 272.58 446"><defs><style>.cls-1{fill:#fff;}.cls-2{fill:none;stroke:#000;stroke-linecap:round;stroke-linejoin:round;stroke-width:3px;}.cls-3{fill:#1a1311;}</style></defs><g id="レイヤー_4" data-name="レイヤー 4"><g id="グループ_935" data-name="グループ 935"><g id="グループ_934" data-name="グループ 934"><path id="パス_1338" data-name="パス 1338" class="cls-1" d="M3.72,359,48.18,224.59c7.25-19.81,22.23-24.16,22.23-24.16l50.75-20.3.83-.25a73.07,73.07,0,0,0,1.69-21.26,41.33,41.33,0,0,1-19.44-4.6c-19.57-15.42-15-48.32-15-48.32,1.93-30.45,30-72.49,30-72.49C141.45-2.79,163.69,4,163.69,4l3.13-.24a52.13,52.13,0,0,1,53.4,14.5,96.35,96.35,0,0,1,25.63,66.26s-.73,28,6,42c0,0,10.63,22.71-1.94,41.8a31.74,31.74,0,0,1-18.12,11.84l-20.72,3.73c.36,5.44,27.24,6.42,27.24,6.42s21-.49,27.8,19.81c0,0,11.12,36.25,0,85.55,0,0-12.76,51.23-24,69.6l-6.91,17.4,3.14,61.86-217-1.44L3.72,390.36A56.66,56.66,0,0,1,3.72,359Zm59.14,48.37,8-42.09L68.83,343,51.56,382.63Z"/></g><g id="グループ_933" data-name="グループ 933"><path id="パス_1310" data-name="パス 1310" class="cls-2" d="M177.94,30.57s4.35,41.92,51.47,61.21"/><path id="パス_1311" data-name="パス 1311" class="cls-2" d="M169.24,33.22s-27.54-1-39.14,56.54c0,0,2.9-15.71-9.43-15,0,0-6.76,0-6.52,11.6,0,0-1,11.36,7.73,24.4"/><path id="パス_1312" data-name="パス 1312" class="cls-2" d="M119.46,118.27s-6.76,34.8,9.91,40.6c0,0-18.84,2.18-23.92-16.91"/><path id="パス_1313" data-name="パス 1313" class="cls-2" d="M231.83,180.13A31.7,31.7,0,0,0,250,168.29c12.57-19.09,1.94-41.8,1.94-41.8-6.77-14-6-42-6-42a96.31,96.31,0,0,0-25.62-66.24,52.12,52.12,0,0,0-53.4-14.51L163.69,4s-22.23-6.75-44.46,29.25c0,0-28,42-30,72.48,0,0-4.6,32.9,15,48.33"/><path id="パス_1314" data-name="パス 1314" class="cls-2" d="M242,140.25s3.38,29.48-22.71,36.73"/><path id="パス_1315" data-name="パス 1315" class="cls-2" d="M225.55,147s-2.9,18.12-17.64,22"/><path id="パス_1316" data-name="パス 1316" class="cls-2" d="M223.36,108.61S220.23,126.25,213,134.7"/><path id="パス_1317" data-name="パス 1317" class="cls-2" d="M159.82,166.6s-20.54-7.25-30.45-31.9"/><path id="パス_1318" data-name="パス 1318" class="cls-2" d="M123.68,158.62s2.06,27.31-9.05,31.66"/><path id="パス_1319" data-name="パス 1319" class="cls-2" d="M195.82,157.29,199.45,147c2.9-15.71,8.46-19.34,8.46-19.34,4.6-2.9,5.07,1.94,5.07,1.94l-3.86,29a107.82,107.82,0,0,1-5.44,19.81l-15.1,35.77,6,19.82"/><path id="パス_1320" data-name="パス 1320" class="cls-2" d="M199.32,167.08l-7.33-20a.56.56,0,0,0-.09-.17h0a7.29,7.29,0,0,0-10.17-1.74,5.69,5.69,0,0,0-.61.49l-3.82,3.36"/><path id="パス_1321" data-name="パス 1321" class="cls-2" d="M187.37,167.81l-4.93-13.36a7.84,7.84,0,0,0-4.78-4.83,3.78,3.78,0,0,0-3.82.55l-6.6,8.46"/><path id="パス_1322" data-name="パス 1322" class="cls-2" d="M178.31,171.92l-7.13-11.84a4.15,4.15,0,0,0-5.86-.43,5.81,5.81,0,0,0-.43.43l-3.74,7.33a10.53,10.53,0,0,0-.2,9.12l3.47,6.75"/><path id="パス_1323" data-name="パス 1323" class="cls-2" d="M166.82,172.64l1.7,5.08L161,192.22s-5.8,11.11-3.39,19.09l5.51,12.08,8,34.56"/><path id="パス_1324" data-name="パス 1324" class="cls-2" d="M164.12,251.42c-4.89,15.46,3.43,9.91,3.43,9.91,26.83-21.27,33.23-33.83,33.23-33.83l37.58,85.06"/><path id="パス_1325" data-name="パス 1325" class="cls-2" d="M166.59,270l16.67,62.1s11.84,44.22,43.26,37.46"/><path id="パス_1326" data-name="パス 1326" class="cls-2" d="M238.35,190.28s21-.48,27.79,19.82c0,0,11.12,36.24,0,85.54,0,0-12.76,51.23-24,69.6"/><line id="線_273" data-name="線 273" class="cls-2" x1="235.21" y1="382.63" x2="238.36" y2="444.5"/><line id="線_274" data-name="線 274" class="cls-2" x1="180.05" y1="320.16" x2="162.58" y2="444.49"/><path id="パス_1327" data-name="パス 1327" class="cls-2" d="M121.16,180.13l-50.75,20.3s-15,4.35-22.23,24.17L3.72,359a56.7,56.7,0,0,0,0,31.42l17.64,52.68"/><path id="パス_1328" data-name="パス 1328" class="cls-2" d="M60.93,257.94l10,107.29L57.06,441.38"/><path id="パス_1329" data-name="パス 1329" class="cls-2" d="M108.59,192.7S98,220.25,101.34,266.64l7.25,109.71,3.87,67"/><path id="パス_1330" data-name="パス 1330" class="cls-2" d="M101.49,229.4s8.41,8.2,65.75,11.6"/><path id="パス_1331" data-name="パス 1331" class="cls-2" d="M68.83,343,51.56,382.63l11.3,24.69"/><path id="パス_1332" data-name="パス 1332" class="cls-2" d="M187.12,98.46a21.64,21.64,0,0,0-3.62,15.94s1.14,2.91-6.2,3.87"/><path id="パス_1333" data-name="パス 1333" class="cls-2" d="M178.8,135.85a28.06,28.06,0,0,0-22.47-6.68"/><path id="パス_1334" data-name="パス 1334" class="cls-2" d="M173.37,68.25s-5.08-7.73-18.6,0"/><path id="パス_1422" data-name="パス 1422" class="cls-3" d="M160.76,90.34a4.64,4.64,0,1,1,5.1-3.16A4.26,4.26,0,0,1,160.76,90.34Z"/><ellipse id="楕円形_16" data-name="楕円形 16" class="cls-3" cx="205.87" cy="100.49" rx="4.58" ry="3.89" transform="translate(37.86 256.22) rotate(-68.85)"/></g></g></g></svg>