<svg xmlns="http://www.w3.org/2000/svg" viewBox="0 0 292.56 499.62"><defs><style>.cls-1{fill:#fff;}.cls-2{fill:none;stroke:#000;stroke-linecap:round;stroke-linejoin:round;stroke-width:3px;}.cls-3{fill:#1a1311;}</style></defs><g id="レイヤー_4" data-name="レイヤー 4"><g id="グループ_1338" data-name="グループ 1338"><g id="グループ_952" data-name="グループ 952"><path id="パス_1425" data-name="パス 1425" class="cls-1" d="M77.56,141.49s-4,1.75-1.41,9L78.76,158a22.85,22.85,0,0,1-1,8.05,31.21,31.21,0,0,0,.17,18.11l.23.62-49.54,14.9s-29,8.4-27,42.15c0,0,0,19,2.68,45.67a501.77,501.77,0,0,0,14.26,79.76l7.25,35.05-3.63,91.08,236.1,4.79c-7.65-30.62-8.91-72.2-8.91-72.2,16.91-2,21.76-3.53,21.76-3.53,23.36-3.63,19.74-36.49,19.74-36.49-3.63-60.65-29-154-29-154-4.43-28.48-27-33.89-27-33.89L189.7,186.63a5.76,5.76,0,0,0-3.22-2.57l-8.4-3.77-6-7.66-.35-5.37a65.22,65.22,0,0,1,1.12-16.5c16.93-.86,26.83-6.12,26.83-6.12,55.15-26.24,32.08-78.07,32.08-78.07a93.29,93.29,0,0,0-7.36-12.84A63.39,63.39,0,0,0,219.18,39c-27.25-63-107.8-27.42-107.8-27.42C97.86,16.26,92.5,24,92.5,24S85,35.2,64.88,33.87c0,0,14.62,10.2,31.48,7A54,54,0,0,0,86.3,56.45a191.28,191.28,0,0,0-6.57,22.1,71.09,71.09,0,0,0-3.57,62.86"/><g id="グループ_952-2" data-name="グループ 952-2"><path id="パス_1426" data-name="パス 1426" class="cls-2" d="M164.89,49.68S191,59.85,189,105.14"/><path id="パス_1427" data-name="パス 1427" class="cls-2" d="M79.72,78.56a71.09,71.09,0,0,0-3.57,62.86"/><path id="パス_1428" data-name="パス 1428" class="cls-2" d="M132.08,25s-36.2,3.56-45.78,31.5"/><path id="パス_1429" data-name="パス 1429" class="cls-2" d="M142.39,30s-3.91,7.89-18.66,10.8"/><path id="パス_1430" data-name="パス 1430" class="cls-2" d="M159.33,38.19s-6.65,10.62-27.73,12.05"/><path id="パス_1431" data-name="パス 1431" class="cls-2" d="M92.48,24S87,35,64.86,33.87"/><path id="パス_1432" data-name="パス 1432" class="cls-2" d="M111.36,11.53S191.92-24.1,219.16,39"/><line id="線_294" data-name="線 294" class="cls-2" x1="229.18" y1="31.45" x2="224.09" y2="50.02"/><line id="線_295" data-name="線 295" class="cls-2" x1="235.16" y1="45.09" x2="229.55" y2="55.51"/><path id="パス_1433" data-name="パス 1433" class="cls-2" d="M231.74,66.58s23.07,51.83-32.08,78.06"/><path id="パス_1434" data-name="パス 1434" class="cls-2" d="M189,118.83a18.86,18.86,0,0,1-11.52-5.66"/><path id="パス_1435" data-name="パス 1435" class="cls-2" d="M176.42,124.6a17.34,17.34,0,0,0,14.11,2.13s7.94,3.16,4.76,13c0,0-4.33,12.35-22.46,11a64.83,64.83,0,0,0-1.11,16.51l.35,5.37a136.57,136.57,0,0,1-35.85,48.71l26,26.19"/><path id="パス_1436" data-name="パス 1436" class="cls-2" d="M115.06,70.41s-2.79,21.93-22.93,25.27a18.38,18.38,0,0,0,2.54,12.84"/><path id="パス_1437" data-name="パス 1437" class="cls-2" d="M88.88,124.93a18.75,18.75,0,0,1,18.85,6"/><path id="パス_1438" data-name="パス 1438" class="cls-2" d="M138.1,60.94a55.57,55.57,0,0,0,26.2,15.55"/><path id="パス_1439" data-name="パス 1439" class="cls-2" d="M110.42,60.45A14.94,14.94,0,0,0,96.55,50.6"/><ellipse id="楕円形_26" data-name="楕円形 26" class="cls-3" cx="96.82" cy="74.27" rx="5.09" ry="4.32" transform="translate(-7.34 137.84) rotate(-68.89)"/><ellipse id="楕円形_27" data-name="楕円形 27" class="cls-3" cx="140.26" cy="89.2" rx="5.09" ry="4.32" transform="translate(6.52 187.91) rotate(-68.89)"/><path id="パス_1440" data-name="パス 1440" class="cls-2" d="M87.63,157.94s10.48-14,22.76-16.45c0,0,8.46-3,24,0,0,0,7.85,1.31,9.67,7.57,0,0,2.41,4.85-10.27,4.05,0,0-11.48-.55-17.84,2.62"/><path id="パス_1441" data-name="パス 1441" class="cls-2" d="M136.57,153.19s6.14,1.88,2.22,7.57A46.84,46.84,0,0,1,123.07,171"/><path id="パス_1442" data-name="パス 1442" class="cls-2" d="M135.4,163.79s4.8,1.2,2.78,7.24a32,32,0,0,1-10.07,13.7"/><path id="パス_1443" data-name="パス 1443" class="cls-2" d="M134.87,177.42s7.73.26,5,8.11c0,0-5.15,14.71-24,27.2l-3.11,16.71"/><path id="パス_1444" data-name="パス 1444" class="cls-2" d="M90.65,153.19s-4.23-12.84-13.09-11.7c0,0-4,1.75-1.41,9L78.76,158a22.85,22.85,0,0,1-1,8.05,30.12,30.12,0,0,0,5.63,27.81l3.15,5-8.25,25.36"/><path id="パス_1445" data-name="パス 1445" class="cls-2" d="M122.27,208l14,13.31L118,245.1"/><path id="パス_1446" data-name="パス 1446" class="cls-2" d="M45.53,378.08c12.49,9.67,29.73,7.66,29.73,7.66C106,379.69,110,348.27,110,348.27l9.67-87.41.81-8.46c-17.32.8-42.33-12.46-42.33-12.46-10.55-5.64-9.19-10-9.19-10L71.76,221l.62-2.06s10,14,46.1,20.57l-1.8,12.07"/><line id="線_296" data-name="線 296" class="cls-2" x1="63.66" y1="237.75" x2="45.53" y2="318.06"/><path id="パス_1447" data-name="パス 1447" class="cls-2" d="M78.16,184.73l-49.55,14.9s-29,8.4-27,42.15c0,0-1.59,65.8,20.16,114.15"/><path id="パス_1448" data-name="パス 1448" class="cls-2" d="M18.54,367.21l7.25,35-3.62,91.09"/><path id="パス_1449" data-name="パス 1449" class="cls-2" d="M178.06,180.29l8.4,3.78a5.7,5.7,0,0,1,3.22,2.56A149.88,149.88,0,0,1,204.33,223a5.15,5.15,0,0,1-1.29,4.87l-18.55,19.28,17.33,15.3s4,2,.4,9.67l-37.05,81.77"/><path id="パス_1450" data-name="パス 1450" class="cls-2" d="M118.09,275l29.14,89.8c11.08-120.44,28-170.4,28-170.4"/><path id="パス_1451" data-name="パス 1451" class="cls-2" d="M240.54,287.45l-3.72,14.1,3.72,61.63"/><path id="パス_1452" data-name="パス 1452" class="cls-2" d="M248.15,364.79l-74.8,5a2.23,2.23,0,0,0-2.08,2.36,2.12,2.12,0,0,0,.3,1c14,23.35,9.31,47.43,7.48,54.48a1.63,1.63,0,0,0,1.16,2,1.4,1.4,0,0,0,.41.06c41.46.13,90.49-7.26,90.49-7.26,23.37-3.63,19.74-36.49,19.74-36.49-3.62-60.65-29-154-29-154-4.43-28.48-27-33.89-27-33.89l-45.17-11.39"/><path id="パス_1453" data-name="パス 1453" class="cls-2" d="M172.53,374.8l-14.2,1.67s13.7,28.6,6.85,50.56c0,0-6.86,7.8-6.86-11.76"/><path id="パス_1454" data-name="パス 1454" class="cls-2" d="M158.32,376.47l1.93,4.55-11.4-2.28-41.37-21.23"/><path id="パス_1455" data-name="パス 1455" class="cls-2" d="M68.89,385.85l6.37,8.35s-7.66,8.86-3.18,12.48l14.14,11.69s3.62,2.41,10.07,0l4-2.42"/><path id="パス_1456" data-name="パス 1456" class="cls-2" d="M89,410.31H98.3L122,419.44s14.16,4.17,20.6-6.71l24.44,2.54"/><path id="パス_1457" data-name="パス 1457" class="cls-2" d="M249.35,425.92s1.26,41.59,8.92,72.2"/></g></g></g></g></svg>