<svg xmlns="http://www.w3.org/2000/svg" viewBox="0 0 424.18 310.47"><defs><style>.cls-1,.cls-3,.cls-4,.cls-6{fill:#fff;}.cls-1,.cls-2{stroke:#221714;}.cls-1,.cls-2,.cls-3,.cls-4{stroke-linecap:round;stroke-linejoin:round;stroke-width:3px;}.cls-2{fill:none;}.cls-3,.cls-4{stroke:#231815;}.cls-3{stroke-dasharray:7.09 7.09;}.cls-5{fill:#231815;}.cls-7{fill:#221714;}</style></defs><g id="レイヤー_4" data-name="レイヤー 4"><g id="グループ_1313" data-name="グループ 1313"><g id="グループ_1307" data-name="グループ 1307"><path id="パス_1180" data-name="パス 1180" class="cls-1" d="M243.42,266.19V107.36a15,15,0,0,1,15-15h78.8a15,15,0,0,1,15,15h0V294a15,15,0,0,1-15,15h-78.8a15,15,0,0,1-15-15h0"/><path id="パス_1181" data-name="パス 1181" class="cls-2" d="M344.24,127.34V287.47H251.38V113.87h92.86"/><line id="線_190" data-name="線 190" class="cls-2" x1="288.01" y1="104.03" x2="307.61" y2="104.03"/></g><path id="パス_2320" data-name="パス 2320" class="cls-3" d="M183.79,102.68h0c0-5.51-23.19-10-51.8-10s-51.8,4.48-51.8,10v76.57c0,5.52,23.19,10,51.8,10s51.8-4.47,51.8-10h0Z"/><path id="パス_2321" data-name="パス 2321" class="cls-3" d="M183.79,102.68c0,5.52-23.19,10-51.8,10s-51.8-4.47-51.8-10"/><path id="パス_2322" data-name="パス 2322" class="cls-4" d="M183.79,174.26h0c0-5.52-23.19-10-51.8-10s-51.8,4.47-51.8,10V299c0,5.51,23.19,10,51.8,10s51.8-4.48,51.8-10h0Z"/><path id="パス_2323" data-name="パス 2323" class="cls-4" d="M183.79,174.26c0,5.52-23.19,10-51.8,10s-51.8-4.47-51.8-10"/><g id="グループ_1308" data-name="グループ 1308"><path id="パス_2324" data-name="パス 2324" class="cls-5" d="M140.38,44.84a8.62,8.62,0,0,1-6.57,1.43c-3.24-.6-4.7-2.8-7.27-6.56s-4.09-5.91-3.49-9.15a8.58,8.58,0,0,1,3.71-5.6,8.17,8.17,0,0,1,11.1,1.23l-3,2.07a4.9,4.9,0,0,0-6.93-.09,5,5,0,0,0-1.39,2.61c-.25,1.7.3,3,3,6.9s3.68,4.91,5.36,5.29a4.72,4.72,0,0,0,3.69-.8,4.78,4.78,0,0,0,1.69-6.08l3-2.05A8.19,8.19,0,0,1,140.38,44.84Z"/><path id="パス_2325" data-name="パス 2325" class="cls-5" d="M162.43,30.45a9,9,0,0,1-11.43,5c-3.07-1.2-4.1-3.61-5.94-7.8s-2.93-6.57-1.73-9.64A8.45,8.45,0,0,1,148,13.23a8.56,8.56,0,0,1,6.75-.2c3.08,1.2,4.08,3.63,5.91,7.8S163.62,27.38,162.43,30.45Zm-9.3-14.35a5,5,0,0,0-6.46,2.84h0c-.56,1.63-.24,2.94,1.68,7.3s2.67,5.49,4.25,6.17a5,5,0,0,0,6.45-2.82v0c.56-1.63.23-2.94-1.69-7.3s-2.67-5.48-4.24-6.17Z"/><path id="パス_2326" data-name="パス 2326" class="cls-5" d="M175.22,29.09a10.73,10.73,0,0,1-8.92-.82L168,25.36a7.82,7.82,0,0,0,6.44.6c3-.81,4.38-2.57,3.78-4.78A3.24,3.24,0,0,0,176.66,19a4.11,4.11,0,0,0-2.76-.28l-2.8.34a8.06,8.06,0,0,1-4.84-.65,5.91,5.91,0,0,1-2.86-3.92c-1.08-4,1.08-7.5,5.83-8.8a9.87,9.87,0,0,1,7.8.68l-1.62,2.78A7,7,0,0,0,170,8.77,3.79,3.79,0,0,0,166.64,13a4.21,4.21,0,0,0,.09.49,2.79,2.79,0,0,0,1.45,1.88,5.29,5.29,0,0,0,2.86.37l2.7-.33a7.87,7.87,0,0,1,4.74.55,6.22,6.22,0,0,1,3.14,4.19C182.77,24.35,180,27.79,175.22,29.09Z"/><path id="パス_2327" data-name="パス 2327" class="cls-5" d="M192,4.72,194.79,25l-3.56.49L188.44,5.21,182,6.1l-.44-3.2L198,.63l.43,3.2Z"/><path id="パス_2328" data-name="パス 2328" class="cls-5" d="M226.84,22.14a8.5,8.5,0,0,1-6.23,1.94l-8.31-.4L213.42,0l8.32.4a8.45,8.45,0,0,1,6,2.52c2.44,2.68,2.11,6.13,1.95,9.56S229.52,19.7,226.84,22.14ZM225.17,5.4a5.14,5.14,0,0,0-3.95-1.79l-4.36-.2L216,20.64l4.36.2a5.13,5.13,0,0,0,4.1-1.4c1.29-1.31,1.45-3.87,1.6-7.13s.22-5.49-.94-6.92Z"/><path id="パス_2329" data-name="パス 2329" class="cls-5" d="M247.11,25.31A9,9,0,0,1,234.84,23c-1.85-2.73-1.33-5.3-.47-9.79s1.31-7.07,4-8.92A9,9,0,0,1,250.67,6.6c1.85,2.72,1.3,5.3.45,9.78S249.84,23.46,247.11,25.31Zm.47-17.1a5,5,0,0,0-6.92-1.33h0c-1.38,1-1.86,2.29-2.75,7s-.91,6,0,7.49a5,5,0,0,0,6.92,1.33h0c1.38-1,1.85-2.29,2.74-7s.91-6,0-7.48Z"/><path id="パス_2330" data-name="パス 2330" class="cls-5" d="M270,35.4l-2.93-1.1,1.35-17.25L258.11,30.9l-2.93-1.1,2.58-24.38,3.55,1.34-2.12,17.32L269.63,9.9l2.72,1-1.53,17.55,9.85-14.4,3.55,1.34Z"/><path id="パス_2331" data-name="パス 2331" class="cls-5" d="M288.78,46.37l-.15-20-9.05,14-3-2,12.87-19.92,2.77,1.79.17,19.93,9-14,3,1.95L291.55,48.14Z"/></g><g id="グループ_1309" data-name="グループ 1309"><path id="パス_2333" data-name="パス 2333" class="cls-1" d="M132,247.13h.09L113.68,217"/><line id="線_435" data-name="線 435" class="cls-2" x1="132.11" y1="248.05" x2="132.07" y2="274.28"/><line id="線_436" data-name="線 436" class="cls-2" x1="149.48" y1="247.5" x2="113.52" y2="247.5"/><line id="線_437" data-name="線 437" class="cls-2" x1="149.48" y1="257.03" x2="113.52" y2="257.03"/><line id="線_438" data-name="線 438" class="cls-2" x1="150.47" y1="217.04" x2="135.65" y2="241.22"/></g><g id="グループ_1310" data-name="グループ 1310"><ellipse id="楕円形_149" data-name="楕円形 149" class="cls-6" cx="406.46" cy="107.07" rx="16.26" ry="21.73"/><path id="パス_2334" data-name="パス 2334" class="cls-7" d="M406.46,130.21h0a1.4,1.4,0,0,1-1.4-1.29c-1.58-17.82-2.77-18.51-15.08-20.46a1.4,1.4,0,0,1,0-2.78c12.31-2,13.5-2.64,15.08-20.46a1.4,1.4,0,0,1,2.8,0c1.58,17.82,2.76,18.51,15.07,20.46a1.4,1.4,0,0,1,0,2.78c-12.31,2-13.49,2.64-15.07,20.46A1.41,1.41,0,0,1,406.46,130.21Zm-9.28-23.14c5.53,1.6,7.9,4.23,9.28,10.73,1.37-6.5,3.74-9.12,9.27-10.73-5.53-1.61-7.9-4.23-9.27-10.73-1.38,6.5-3.75,9.12-9.28,10.73Z"/></g><g id="グループ_1311" data-name="グループ 1311"><ellipse id="楕円形_150" data-name="楕円形 150" class="cls-6" cx="385.02" cy="152.01" rx="12.2" ry="16.3"/><path id="パス_2335" data-name="パス 2335" class="cls-7" d="M385,169.72a1.41,1.41,0,0,1-1.4-1.29c-1.17-13.16-1.89-13.58-11-15a1.4,1.4,0,0,1,0-2.78c9.12-1.45,9.84-1.87,11-15a1.41,1.41,0,0,1,2.8,0c1.16,13.16,1.88,13.58,11,15a1.4,1.4,0,0,1,0,2.78c-9.13,1.45-9.85,1.87-11,15A1.42,1.42,0,0,1,385,169.72ZM379.24,152a8.33,8.33,0,0,1,5.78,6.51,8.34,8.34,0,0,1,5.77-6.51A8.32,8.32,0,0,1,385,145.5a8.32,8.32,0,0,1-5.78,6.51Z"/></g><g id="グループ_1312" data-name="グループ 1312"><ellipse id="楕円形_151" data-name="楕円形 151" class="cls-6" cx="17.66" cy="157.45" rx="16.27" ry="21.73"/><path id="パス_2336" data-name="パス 2336" class="cls-7" d="M17.66,180.59a1.4,1.4,0,0,1-1.4-1.28c-1.57-17.83-2.76-18.52-15.08-20.47A1.41,1.41,0,0,1,0,157.22a1.42,1.42,0,0,1,1.16-1.17c12.32-1.94,13.51-2.63,15.08-20.46a1.4,1.4,0,0,1,1.4-1.29h0a1.4,1.4,0,0,1,1.4,1.29c1.58,17.83,2.77,18.52,15.09,20.46a1.42,1.42,0,0,1,1.17,1.62,1.4,1.4,0,0,1-1.17,1.17c-12.32,1.95-13.51,2.64-15.09,20.47A1.4,1.4,0,0,1,17.66,180.59ZM8.38,157.45c5.54,1.61,7.91,4.23,9.28,10.74,1.38-6.51,3.75-9.13,9.29-10.74-5.54-1.6-7.91-4.24-9.29-10.74C16.29,153.21,13.92,155.83,8.38,157.45Z"/></g></g></g></svg>