<svg xmlns="http://www.w3.org/2000/svg" viewBox="0 0 426.37 354.49"><defs><style>.cls-1{fill:none;}.cls-1,.cls-2{stroke:#231815;stroke-linecap:round;stroke-linejoin:round;stroke-width:3px;}.cls-2,.cls-3{fill:#fff;}.cls-4{fill:#221714;}</style></defs><g id="レイヤー_4" data-name="レイヤー 4"><g id="グループ_1282" data-name="グループ 1282"><path id="パス_2286" data-name="パス 2286" class="cls-1" d="M190.06,63.1a25.9,25.9,0,0,0,7.39,11.62,9,9,0,0,1-5.28,6.69"/><path id="パス_2287" data-name="パス 2287" class="cls-1" d="M193.75,87.39s-1.58,14.08-11.79,19.36c0,0-6,2.84-17.25,2.11l-2.46,9.85"/><path id="パス_2288" data-name="パス 2288" class="cls-1" d="M135.15,58.88s-5.63-6-10.2,0c0,0-6,10.56,9.43,20.26,0,0,4.3,10.36-2.74,26.9"/><path id="パス_2289" data-name="パス 2289" class="cls-1" d="M151,25.1s4.23,13.4,31,15.5"/><path id="パス_2290" data-name="パス 2290" class="cls-1" d="M176.34,26.5s5.26,11.27,25,12"/><path id="パス_2291" data-name="パス 2291" class="cls-1" d="M135.1,90.57a45.49,45.49,0,0,1-12.28-6.68,43.35,43.35,0,0,1-17-30.11,35,35,0,0,1,9.65-28.68c6.69-23.6,32.74-23.58,32.74-23.58,34.13-.71,44.15,19.35,44.15,19.35L195,25.1a19,19,0,0,0,15.42,9.51"/><path id="パス_2292" data-name="パス 2292" class="cls-1" d="M148.52,33.89s-7.47,17.56-18.87,22.33"/><path id="パス_2293" data-name="パス 2293" class="cls-1" d="M182,93.37a15.11,15.11,0,0,1-13-2.8"/><ellipse id="楕円形_148" data-name="楕円形 148" class="cls-1" cx="178.6" cy="63.37" rx="6.97" ry="10.55"/><path id="パス_2294" data-name="パス 2294" class="cls-1" d="M191.27,56.22c.64-3.67,2.25-6.27,4.12-6.27,2.44,0,4.42,4.4,4.42,9.83s-2,9.84-4.42,9.84"/><line id="線_426" data-name="線 426" class="cls-1" x1="164.36" y1="60.28" x2="135.54" y2="59.27"/><path id="パス_2295" data-name="パス 2295" class="cls-1" d="M122.19,112.57,119,115.66s13.2,23.78,32.44,31.88l7.34-18.27-30.38-21.82"/><path id="パス_2296" data-name="パス 2296" class="cls-1" d="M171.63,121.27c3.82,8.6,1.16,19.14,1.16,19.14l-12.88-11.26,2.75-12.09"/><path id="パス_2297" data-name="パス 2297" class="cls-1" d="M119,115.66s-27.44,6.8-31.43,24.76c0,0-8.68,38.83-6.8,69.33,0,0,1.18,22.52,23.23,25.8,0,0,32.14,3.28,49.51-3.52"/><path id="パス_2298" data-name="パス 2298" class="cls-1" d="M163.56,113.49l11.89,1s10.85.47,22,20.89l15.13,27.21,22.76-10.8s4.23-2.58,6.1-.23l1.69,1.95"/><line id="線_427" data-name="線 427" class="cls-1" x1="191.7" y1="160.47" x2="199.44" y2="195.2"/><g id="グループ_1299" data-name="グループ 1299"><path id="パス_2299" data-name="パス 2299" class="cls-1" d="M204.62,276.33H145.88a1.11,1.11,0,0,1-1.1-1.11,1.08,1.08,0,0,1,.39-.84L167,256.05a1.09,1.09,0,0,1,.71-.26h53.08a1.11,1.11,0,0,1,.71,2l-16.18,18.33A1.12,1.12,0,0,1,204.62,276.33Z"/><path id="パス_2300" data-name="パス 2300" class="cls-1" d="M153.52,267.18H122.26A11.28,11.28,0,0,0,111,278.46h0"/><path id="パス_2301" data-name="パス 2301" class="cls-1" d="M223.81,263.26,207.21,282a1.14,1.14,0,0,1-.73.26H146.61a1.13,1.13,0,0,1-1.13-1.12,1.12,1.12,0,0,1,.41-.87"/></g><g id="グループ_1300" data-name="グループ 1300"><path id="パス_2302" data-name="パス 2302" class="cls-1" d="M170.53,324.63h-69a1.3,1.3,0,0,1-.84-2.29l25.65-21.52a1.3,1.3,0,0,1,.84-.31h62.31a1.3,1.3,0,0,1,.83,2.3l-19,21.52A1.29,1.29,0,0,1,170.53,324.63Z"/><path id="パス_2303" data-name="パス 2303" class="cls-1" d="M110.52,313.89H73.83a13.25,13.25,0,0,0-12.86,10"/><path id="パス_2304" data-name="パス 2304" class="cls-1" d="M193,309.29l-19.49,21.94a1.33,1.33,0,0,1-.85.31H102.42a1.33,1.33,0,0,1-.85-2.34"/></g><g id="グループ_1301" data-name="グループ 1301"><path id="パス_2305" data-name="パス 2305" class="cls-1" d="M232.7,236.63H179a1.07,1.07,0,0,1-1.06-1.06,1.08,1.08,0,0,1,.38-.82l21-17.62a1.06,1.06,0,0,1,.68-.25h49.44a1.07,1.07,0,0,1,.69,1.88l-16.75,17.62A1.06,1.06,0,0,1,232.7,236.63Z"/><line id="線_428" data-name="線 428" class="cls-1" x1="167.29" y1="227.84" x2="186.34" y2="227.84"/><path id="パス_2306" data-name="パス 2306" class="cls-1" d="M252.33,224.07l-17.16,18a1,1,0,0,1-.7.26H179.71a1.08,1.08,0,0,1-1.08-1.09,1.07,1.07,0,0,1,.38-.82"/></g><g id="グループ_1302" data-name="グループ 1302"><path id="パス_2307" data-name="パス 2307" class="cls-1" d="M265.1,201.66H216.63a1,1,0,0,1-1-1,1,1,0,0,1,.35-.74l19.27-16.18a1,1,0,0,1,.63-.23h44.21a1,1,0,0,1,1,1,1,1,0,0,1-.34.74l-15,16.18A1,1,0,0,1,265.1,201.66Z"/><line id="線_429" data-name="線 429" class="cls-1" x1="203.75" y1="193.59" x2="223.37" y2="193.59"/><path id="パス_2308" data-name="パス 2308" class="cls-1" d="M282.77,190.13l-15.4,16.5a1,1,0,0,1-.64.23H217.28a1,1,0,0,1-1-1,1.06,1.06,0,0,1,.35-.75"/></g><g id="グループ_1303" data-name="グループ 1303"><path id="パス_2309" data-name="パス 2309" class="cls-1" d="M292.93,171.31H244.61a1,1,0,0,1-.94-.95,1,1,0,0,1,.34-.72L262.69,154a.94.94,0,0,1,.6-.22h42.64a.93.93,0,0,1,.93.95.94.94,0,0,1-.33.72l-13,15.67A.89.89,0,0,1,292.93,171.31Z"/><path id="パス_2310" data-name="パス 2310" class="cls-1" d="M308.51,160.14l-13.38,16a.93.93,0,0,1-.62.23H245.24a1,1,0,0,1-.62-1.71"/></g><line id="線_430" data-name="線 430" class="cls-1" x1="169.24" y1="224.73" x2="30.16" y2="352.99"/><line id="線_431" data-name="線 431" class="cls-1" x1="216.69" y1="180.97" x2="198.7" y2="197.56"/><line id="線_432" data-name="線 432" class="cls-1" x1="297.78" y1="106.19" x2="248.54" y2="151.6"/><line id="線_433" data-name="線 433" class="cls-1" x1="380.13" y1="104.1" x2="218.68" y2="352.99"/><line id="線_434" data-name="線 434" class="cls-1" x1="93.39" y1="231.81" x2="93.39" y2="272.73"/><path id="パス_2314" data-name="パス 2314" class="cls-2" d="M291.87,158.13c4.93,4,5.87-1.17,5.87-1.17l-2.34-9.16a13.1,13.1,0,0,0-2.64-4,3.29,3.29,0,0,0-2.24-.93l-9-.2c5.4-1.64,10.09-11,10.09-11,.23-3.05-3.52-1.17-3.52-1.17l-18.07,12.2L253.17,149l-16.66,7.51s-8.45,9.4-4.46,17.13l9.37-3.51a59.81,59.81,0,0,0,11.74-.2,40.74,40.74,0,0,1,11.67.13l3.6.52s5.83,1.65,6.84-.2c1.16-2.1-1.91-3.78-1.91-3.78l-8.93-6.1,8.92-4.24s5.16-1.88,8-.47l2.82,3.06s2.43,6.32,5.16,7.73c0,0,4.93,2.55,5.16-2.58l-5.63-13a9,9,0,0,0-8.67-3.7"/><g id="グループ_1305" data-name="グループ 1305"><path id="パス_2315" data-name="パス 2315" class="cls-3" d="M214.05,208.62a32.77,32.77,0,0,0-8.92-8.49c-6.57-4-18.77,0-18.77,0l-18.77,8.49H155.23s-3.91,5.24-3.16,16.62l13.86-1.11,9.82,2.28s5,1.78,13.2-2.28l5.1-2.18,7.1,6.11s5.86,3.51,7.51-.71c2.58,2.11,5.63-1.17,5.63-1.17l-.88-2.2.88-.62a4.12,4.12,0,0,0,5.76-.87,4.32,4.32,0,0,0,.34-.53Z"/><g id="グループ_1304" data-name="グループ 1304"><path id="パス_2316" data-name="パス 2316" class="cls-1" d="M155.23,208.62h12.36l18.77-8.49s12.2-4,18.77,0a32.59,32.59,0,0,1,8.91,8.49L220.38,222a4.13,4.13,0,0,1-5.57,1.73,4.72,4.72,0,0,1-.53-.33"/><path id="パス_2317" data-name="パス 2317" class="cls-1" d="M197.15,212.57l3.52,1.64,8,13.14c2.58,2.11,5.63-1.17,5.63-1.17l-6.57-16.42-7-3.76"/><path id="パス_2318" data-name="パス 2318" class="cls-1" d="M152.07,225.24l13.86-1.11,9.81,2.28s5,1.78,13.2-2.28l5.11-2.18,7.09,6.11s5.87,3.51,7.51-.71"/></g></g><path id="パス_2319" data-name="パス 2319" class="cls-1" d="M120.14,206.93c12.9-.7,36.36-1.17,36.36-1.17A29.49,29.49,0,0,0,152,227.12"/><g id="グループ_1310" data-name="グループ 1310"><ellipse id="楕円形_149" data-name="楕円形 149" class="cls-3" cx="408.64" cy="169.21" rx="16.26" ry="21.73"/><path id="パス_2334" data-name="パス 2334" class="cls-4" d="M408.64,192.35h0a1.4,1.4,0,0,1-1.4-1.29c-1.57-17.82-2.76-18.51-15.07-20.46a1.4,1.4,0,0,1,0-2.78c12.31-1.95,13.5-2.64,15.07-20.46a1.41,1.41,0,0,1,1.41-1.4,1.4,1.4,0,0,1,1.39,1.4c1.58,17.82,2.77,18.51,15.08,20.46a1.4,1.4,0,0,1,0,2.78c-12.31,2-13.5,2.64-15.08,20.46A1.4,1.4,0,0,1,408.64,192.35Zm-9.27-23.14c5.53,1.6,7.9,4.23,9.27,10.73,1.38-6.5,3.75-9.12,9.28-10.73-5.53-1.61-7.9-4.23-9.28-10.73-1.37,6.5-3.74,9.12-9.27,10.73Z"/></g><g id="グループ_1311" data-name="グループ 1311"><ellipse id="楕円形_150" data-name="楕円形 150" class="cls-3" cx="386.64" cy="217.84" rx="12.2" ry="16.3"/><path id="パス_2335" data-name="パス 2335" class="cls-4" d="M386.64,235.54a1.4,1.4,0,0,1-1.4-1.28c-1.17-13.17-1.89-13.59-11-15a1.4,1.4,0,0,1,0-2.79c9.12-1.44,9.84-1.86,11-15a1.41,1.41,0,0,1,2.8,0c1.17,13.17,1.88,13.59,11,15a1.4,1.4,0,0,1,0,2.79c-9.13,1.44-9.84,1.86-11,15A1.41,1.41,0,0,1,386.64,235.54Zm-5.78-17.7a8.32,8.32,0,0,1,5.78,6.5,8.32,8.32,0,0,1,5.78-6.5,8.33,8.33,0,0,1-5.78-6.51,8.33,8.33,0,0,1-5.78,6.51Z"/></g><g id="グループ_1312" data-name="グループ 1312"><ellipse id="楕円形_151" data-name="楕円形 151" class="cls-3" cx="17.66" cy="82.26" rx="16.27" ry="21.73"/><path id="パス_2336" data-name="パス 2336" class="cls-4" d="M17.66,105.4a1.4,1.4,0,0,1-1.4-1.28C14.69,86.29,13.5,85.6,1.18,83.65a1.41,1.41,0,0,1,0-2.79C13.5,78.92,14.69,78.23,16.26,60.4a1.4,1.4,0,0,1,1.4-1.29h0a1.4,1.4,0,0,1,1.4,1.29c1.58,17.83,2.77,18.52,15.09,20.46a1.41,1.41,0,0,1,0,2.79c-12.32,1.95-13.51,2.64-15.09,20.47A1.4,1.4,0,0,1,17.66,105.4ZM8.38,82.26c5.54,1.61,7.91,4.23,9.28,10.74C19,86.49,21.41,83.87,27,82.26,21.41,80.66,19,78,17.66,71.52,16.29,78,13.92,80.64,8.38,82.26Z"/></g></g></g></svg>